<?xml version="1.0" standalone="no"?>
<!DOCTYPE svg PUBLIC "-//W3C//DTD SVG 20010904//EN"
 "http://www.w3.org/TR/2001/REC-SVG-20010904/DTD/svg10.dtd">
<svg version="1.0" xmlns="http://www.w3.org/2000/svg"
 width="75.000000pt" height="75.000000pt" viewBox="0 0 75.000000 75.000000"
 preserveAspectRatio="xMidYMid meet">
<metadata>
Created by potrace 1.14, written by Peter Selinger 2001-2017
</metadata>
<g transform="translate(0.000000,75.000000) scale(0.100000,-0.100000)"
fill="#000000" stroke="none">
<path d="M303 721 c-81 -21 -131 -79 -138 -159 -7 -94 55 -171 178 -219 85
-33 156 -96 159 -140 4 -79 -11 -117 -61 -160 l-26 -23 40 16 c107 42 165 172
123 274 -8 19 -45 67 -81 107 -79 87 -94 109 -102 150 -7 42 19 107 51 123 19
11 33 29 22 30 -103 7 -139 8 -165 1z"/>
<path d="M467 669 c-25 -15 -47 -70 -40 -100 7 -28 34 -64 103 -139 96 -102
118 -195 70 -294 -14 -31 -23 -56 -19 -56 4 0 27 23 52 50 79 88 95 183 50
288 -30 68 -29 82 2 82 30 0 30 1 6 49 -22 42 -90 107 -127 121 -33 13 -74 12
-97 -1z"/>
<path d="M106 598 c-63 -73 -95 -204 -74 -300 37 -166 228 -308 348 -258 50
21 90 74 90 121 0 76 -29 105 -169 166 -84 37 -104 52 -137 110 -29 49 -40
116 -26 167 6 20 9 36 7 36 -2 0 -20 -19 -39 -42z"/>
</g>
</svg>
