<svg width="273" height="56" viewBox="0 0 273 56" fill="none" xmlns="http://www.w3.org/2000/svg"><path d="M9.863 6.41c.081.162.081.162.022.362l-.097.252-.105.282-.057.15c-1.658 4.4-1.652 9.28.287 13.595.635 1.38 1.403 2.655 2.388 3.817l.111.132c.724.862 1.465 1.657 2.356 2.353l.283.224a21.11 21.11 0 002.858 1.905l.168.096c1.79 1.021 3.754 1.73 5.674 2.464 1.326.507 2.641 1.015 3.912 1.65l.19.093c1.199.593 2.293 1.3 3.305 2.173l.204.173c1.774 1.542 3.195 3.514 3.454 5.899.054 1.176.046 2.335-.244 3.48l-.042.17c-.486 1.9-1.39 3.493-2.722 4.93l-.169.187c-2.094 2.195-5.188 3.283-8.172 3.386-4.75.075-9.543-2.383-13.117-5.353l-.132-.109c-1.198-.983-2.357-2.03-3.363-3.21l-.196-.223c-.636-.727-1.2-1.498-1.754-2.287l-.108-.151c-1.527-2.15-2.643-4.56-3.469-7.054a789.2 789.2 0 00-.078-.237c-2.256-6.94-1.363-14.453 1.91-20.909a21.189 21.189 0 011.03-1.757c1.267-1.978 2.798-3.708 4.458-5.365a1658.606 1658.606 0 01.536-.535l.121-.122c.179-.176.346-.322.557-.461z" fill="#010101"/><path d="M27.414 0h.189c2.92.008 5.82.474 8.594 1.391-.177.177-.267.207-.503.276l-.21.065-.226.07c-2.395.767-4.396 2.292-5.584 4.523-1.233 2.4-1.228 5.258-.446 7.802.406 1.223.993 2.422 1.768 3.455l.17.236c.65.883 1.368 1.705 2.114 2.506.147.157.292.316.437.475.57.628 1.165 1.227 1.77 1.822 1.049 1.033 1.049 1.033 1.484 1.542.192.22.4.42.608.624.318.312.624.629.913.967.176.203.358.4.54.596.4.437.777.89 1.148 1.351l.228.278c2.001 2.442 3.416 5.122 3.755 8.303l.027.24a16.662 16.662 0 01-3.685 12.065l-.102.127c-.923 1.141-1.954 2.172-3.149 3.03l-.143.103c-2.187 1.556-5.401 3.082-8.147 2.973.267-.178.538-.273.838-.38 1.547-.566 2.778-1.402 3.957-2.534l.195-.179c2.058-1.938 3.247-5.117 3.328-7.9.003-.222.003-.446.003-.67v-.176c-.003-.969-.088-1.88-.356-2.813l-.044-.162c-.36-1.325-1.074-2.482-1.907-3.562l-.162-.217c-1.327-1.699-3.006-3.021-4.877-4.074l-.206-.116c-1.923-1.067-3.979-1.835-6.03-2.613-1-.38-1.986-.772-2.949-1.237l-.17-.081c-.38-.183-.756-.372-1.13-.567l-.16-.083c-2.228-1.174-4.206-2.823-5.692-4.855l-.102-.135c-1.02-1.372-1.751-2.991-2.174-4.641l-.048-.184c-.966-3.783-.392-7.96 1.585-11.33a12.428 12.428 0 011.795-2.248l.195-.197c.508-.484 1.072-.833 1.682-1.173.145-.082.29-.165.433-.249C19.365 1.101 22.166.331 24.9.096l.241-.02A26.952 26.952 0 0127.414 0z" fill="#01A0DD"/><path d="M45.463 6.491l.144.108a22.214 22.214 0 012.05 1.754l.167.16c.73.7 1.412 1.41 2.014 2.222.09.12.182.237.275.354.902 1.148 1.643 2.42 2.259 3.74l.08.166c.366.764.67 1.541.941 2.344l.088.26.08.24.071.217c.04.174.04.174-.04.335l-.18-.112c-.853-.519-1.745-.97-2.765-.737-.51.165-.82.496-1.12.93-.333.827-.046 1.673.286 2.452.238.535.5 1.057.765 1.578 1.583 3.105 2.728 6.327 2.718 9.838v.203c-.009 2.567-.57 5.02-1.574 7.382l-.1.233c-.948 2.204-2.199 4.21-3.802 6l-.112.126c-.706.787-1.43 1.542-2.26 2.2-.15.12-.297.243-.442.37-1.043.904-2.234 1.66-3.444 2.323 0-.243 0-.243.105-.36l.154-.136c3.223-3.102 4.706-7.882 4.877-12.23.063-3.826-1.084-7.702-3.43-10.75l-.11-.144a60.99 60.99 0 00-.784-.99c-.06-.075-.122-.15-.184-.229a48.372 48.372 0 00-2.389-2.72 39.55 39.55 0 01-.678-.739c-.524-.573-1.08-1.116-1.635-1.661a18.956 18.956 0 01-1.073-1.134c-.249-.28-.519-.54-.787-.802a20.43 20.43 0 01-1.219-1.295l-.22-.248c-2.04-2.343-3.191-4.867-3.031-8.01.17-1.773 1.129-3.33 2.486-4.451 3.648-2.876 8.464-1.302 11.82 1.213z" fill="#02A0DD"/><path d="M132.433 5.925h5.527v2.428l.919.061c.908.069 1.778.19 2.657.425l.181.048c1.368.378 2.75 1.014 3.802 1.976l.197.162c1.647 1.385 2.622 3.456 2.81 5.585.144 2.54-.286 5.037-2.014 7.002-1.687 1.851-3.927 2.8-6.378 3.188l-.18.03c-.672.094-1.298.062-1.994.062v3.157h-5.527v-3.157h-1.382a9.888 9.888 0 01-.792-.092c-.067-.01-.134-.02-.202-.032-2.533-.43-5.041-1.54-6.565-3.681-1.448-2.085-1.895-4.812-1.453-7.296.044-.215.095-.426.153-.638l.047-.177c.573-2.05 1.837-3.816 3.696-4.899a21.322 21.322 0 011.047-.55c1.734-.826 3.555-1.042 5.451-1.174V5.925zm-3.592 8.74c-.993 1.11-1.137 2.33-1.059 3.757a3.81 3.81 0 001.161 2.418c1.008.83 2.217 1.032 3.49 1.032v-8.419c-1.296 0-2.621.293-3.592 1.212zm9.119-1.212v8.42c1.38 0 2.795-.208 3.82-1.215.93-1.094.967-2.442.894-3.805a3.393 3.393 0 00-.244-.89l-.086-.21c-.456-.995-1.207-1.611-2.232-2.005-.754-.238-1.343-.295-2.152-.295z" fill="#020202"/><path d="M199.664 8.65c.247.217.485.443.719.675l.116.114c1.978 1.981 3.135 4.887 3.152 7.677l.001.188.002.393.006.586a11.733 11.733 0 01-.447 3.347l-.051.178c-.891 2.978-2.997 5.462-5.717 6.953-3.447 1.75-7.474 1.904-11.132.748-2.787-.915-5.16-2.86-6.517-5.458a12.48 12.48 0 01-1.008-2.695l-.05-.202a13.313 13.313 0 01-.326-3.102l.001-.164c.009-1.938.389-3.743 1.244-5.487l.077-.158c.528-1.07 1.215-1.97 2.036-2.837l.178-.196c4.383-4.638 12.979-4.602 17.716-.56zm-11.635 2.86l-.229.106c-1.531.768-2.632 2.15-3.175 3.755a8.2 8.2 0 00.34 5.913c.908 1.754 2.364 2.987 4.24 3.594a7.494 7.494 0 005.504-.678 6.78 6.78 0 001.285-1.032l.157-.156c1.289-1.375 1.793-3.435 1.73-5.279-.133-1.736-.61-3.369-1.806-4.684l-.163-.186c-1.19-1.273-2.855-1.892-4.572-2.013a7.29 7.29 0 00-3.311.66zM67.165 6.168h5.527v8.985h8.535V6.168h5.445v23.638h-5.445v-9.472h-8.535v9.472h-5.527V6.168z" fill="#030303"/><path d="M103.335 6.168h4.958a511.637 511.637 0 012.642 6.276 972.227 972.227 0 001.054 2.537c.508 1.22 1.018 2.44 1.529 3.659.495 1.184.99 2.369 1.483 3.554.411.989.824 1.977 1.237 2.964 1.059 2.527 1.059 2.527 1.544 3.712l.111.268.096.237.083.202c.056.148.056.148.056.229h-5.852c-.366-.729-.366-.729-.512-1.098l-.098-.249-.103-.262-.108-.273-.223-.57-.345-.874-.218-.554-.104-.265-.096-.244a23.296 23.296 0 01-.084-.216c-.06-.172-.06-.172-.06-.333h-9.347l-.244.728a38.296 38.296 0 01-.274.716l-.188.483-.131.335a274.94 274.94 0 01-.844 2.14c-.179.445-.179.445-.27.536-.172.007-.344.01-.517.009h-.163l-.537-.001h-.371l-.98-.003-.998-.001-1.961-.004c.337-.915.7-1.816 1.08-2.714a410.761 410.761 0 00.683-1.618 571.182 571.182 0 00.877-2.09c.428-1.024.855-2.05 1.281-3.075a1785.3 1785.3 0 011.547-3.703c.477-1.138.952-2.277 1.426-3.416.974-2.343 1.955-4.684 2.941-7.022zm2.276 7.123l-.662 1.646-.307.764a585.43 585.43 0 00-1.244 3.11l-.095.238-.085.216-.075.189c-.061.15-.061.15-.052.314h5.121a18.542 18.542 0 00-.623-1.787l-.271-.677a285.629 285.629 0 00-1.626-4.012h-.081z" fill="#020202"/><path d="M237.561 6.158a2775.075 2775.075 0 00.557 0l.322.002a608.509 608.509 0 001.192.002l.881.002c.576 0 1.153.002 1.729.004.256.496.494.995.706 1.512l.081.195.26.63.185.446.282.683c.269.648.539 1.296.81 1.943.452 1.077.901 2.155 1.349 3.232.508 1.222 1.018 2.443 1.529 3.664.503 1.2 1.004 2.4 1.504 3.602a2257.677 2257.677 0 002.024 4.848c.173.413.347.825.522 1.237l.114.27.22.515.099.235.088.207c.062.176.062.176.062.419h-5.852l-1.951-4.857h-9.265l-1.102 2.773-.208.523-.108.272-.105.264-.09.227c-.109.268-.224.533-.338.798h-5.527c.154-.511.303-.983.515-1.466l.079-.184.17-.391.465-1.08.098-.229c.364-.849.718-1.701 1.071-2.555l.196-.474.292-.707a989.165 989.165 0 011.054-2.537c.508-1.22 1.018-2.44 1.528-3.66.496-1.183.99-2.367 1.483-3.553.557-1.338 1.116-2.675 1.676-4.011l.195-.466.094-.225c.148-.353.294-.706.439-1.06l.081-.195.147-.36c.197-.483.197-.483.447-.495zm2.081 7.133a34.54 34.54 0 00-.844 1.974l-.122.305-.252.636-.321.808-.251.63-.175.44-.109.275-.095.239c-.149.388-.29.78-.432 1.17h5.201c-.372-.992-.372-.992-.752-1.98l-.068-.172-.211-.54-.148-.38c-.444-1.135-.892-2.27-1.34-3.405h-.081z" fill="#02A1DD"/><path d="M269.997 7.518c1.22 1.1 1.86 2.645 1.947 4.26.057 1.786-.351 3.135-1.523 4.523-.418.438-.886.819-1.356 1.2l.218.083c1.275.514 2.312 1.27 2.952 2.508l.112.213c.754 1.604.704 3.552.112 5.195-.359.86-.883 1.532-1.524 2.201l-.131.148c-.95 1.04-2.341 1.623-3.664 2.023l-.158.047c-2.643.748-5.697.334-8.096-.965a7.835 7.835 0 01-1.363-1.01l-.206-.17a7.291 7.291 0 01-1.059-1.11l-.106-.135c-.169-.225-.305-.408-.336-.69.081-.145.081-.145.21-.293l.142-.167.156-.177.318-.373.161-.188a24.624 24.624 0 00.72-.896l.214-.273.614-.78a52.87 52.87 0 00.391-.496c.305.253.592.507.864.795 1.145 1.146 2.83 1.997 4.46 2.059.957-.015 2.021-.206 2.718-.907.482-.604.557-1.19.493-1.947-.094-.44-.296-.845-.65-1.133-1.215-.738-2.488-.737-3.871-.774l-1.25-.036v-5.1c1.28-.025 1.28-.025 1.678-.031.976-.025 1.954-.09 2.711-.778.428-.53.547-1.03.488-1.7-.113-.538-.32-.992-.793-1.31-.917-.503-1.911-.46-2.901-.231-1.058.307-1.878.949-2.582 1.777a7.939 7.939 0 01-.47.492c-.924-1.066-.924-1.066-1.357-1.598a23.658 23.658 0 00-.901-1.032 20.433 20.433 0 01-.831-1.012c.744-1.637 2.692-2.719 4.298-3.338 2.96-1.071 6.672-1.008 9.151 1.126z" fill="#03A1DD"/><path d="M153.403 6.168h19.751v5.1h-7.152v18.538h-5.446V11.268h-7.153v-5.1z" fill="#010101"/><path d="M211.844 6.168h13.655v5.1h-8.128v18.538h-5.527V6.168z" fill="#04A1DD"/><path d="M107.643 42.84h6.583v8.66h1.382c.081.081.081.081.091.226v.408l-.002.235v.24l-.003.759-.001.514c0 .42-.002.841-.004 1.262h-1.869v-1.862h-7.234v1.862h-1.788V51.5l1.138-.08c.236-.187.236-.187.325-.471l.062-.152c.067-.169.125-.34.182-.511l.064-.182c.707-2.012.882-4.141.965-6.257l.007-.187.006-.162c.018-.221.059-.44.096-.66zm1.869 1.78c-.099.296-.119.586-.146.895l-.037.402-.02.212c-.16 1.694-.436 3.281-1.016 4.886l-.163.486h4.227v-6.88h-2.845z" fill="#070707"/><path d="M117.478 42.84h1.869l.081 7.123c.672-.868.672-.868 1.321-1.75.509-.706 1.025-1.406 1.543-2.104l.57-.771.286-.38c.25-.331.479-.663.69-1.02l.137-.216c.133-.206.133-.206.24-.414.121-.187.121-.187.496-.469h1.707v10.443h-1.869l-.081-7.124c-.842 1.096-.842 1.096-1.655 2.21-.394.552-.801 1.094-1.205 1.639l-.575.777c-.094.127-.189.254-.285.38-.25.33-.479.662-.69 1.018l-.137.217c-.133.206-.133.206-.24.414-.121.187-.121.187-.497.469h-1.706V42.839zm-23.247 0h1.87l.081 7.123c.672-.868.672-.868 1.321-1.75.508-.706 1.025-1.406 1.543-2.104l.57-.771.286-.38c.25-.331.479-.663.69-1.02l.137-.216c.133-.206.133-.206.24-.414.121-.187.121-.187.496-.469h1.707v10.443h-1.869l-.081-7.124c-.842 1.096-.842 1.096-1.655 2.21-.394.552-.801 1.094-1.205 1.639l-.575.777-.285.38c-.25.33-.479.662-.69 1.018l-.137.217c-.133.206-.133.206-.24.414-.121.187-.121.187-.497.469h-1.707V42.839zm35.113 0h1.87v4.209h4.714v-4.21h1.869v10.443h-1.869V48.83h-4.714v4.452h-1.87V42.839z" fill="#040404"/><path d="M85.616 42.84h6.096v1.78h-4.227v2.51h3.82v1.7c-.08.08-.08.08-.233.09h-.427l-.247-.002h-.25l-.798-.002-.54-.002c-.441 0-.883-.002-1.325-.004v2.591h4.39v1.781h-6.26V42.839z" fill="#060606"/><path d="M76.431 42.758c5.13 0 5.13 0 6.177.89.663.725.942 1.447.93 2.42l-.002.214c-.027 1.051-.435 1.761-1.182 2.482-.66.566-1.456.806-2.315.802h-.277l-.349-.003-1.112-.005v3.724h-1.87V42.758zm1.87 1.781v3.157c.299.15.65.103.98.107l.226.007c.587.005 1.089-.1 1.548-.485.357-.353.472-.754.497-1.248-.025-.478-.18-.809-.486-1.173-.564-.418-1.158-.396-1.83-.38l-.935.015zM66.19 42.84h8.697v1.78h-3.414v8.662h-1.87V44.62H66.19v-1.78z" fill="#050505"/><path d="M140.724 42.84h5.933v1.78h-4.064v8.662h-1.869V42.839z" fill="#040404"/><path d="M95.857 40.249c.29-.02.579-.03.869-.04l.248-.017a2.19 2.19 0 01.671.057c.153.155.237.297.328.495.073.176.073.176.302.274.45.069.832.091 1.27-.046.279-.177.279-.177.457-.723h1.788c0 .613-.058.92-.465 1.37-.729.677-1.582.889-2.566.9-.946-.047-1.72-.266-2.409-.934-.334-.404-.493-.815-.493-1.336z" fill="#0D0D0D"/><path d="M9.863 6.41l.08.162c-.162.243-.162.243-.383.389-.302.202-.54.43-.794.688l-.146.145a166.244 166.244 0 00-.765.77l-.756.76-.162-.08a1130.158 1130.158 0 012.071-2.071l.174-.175.163-.162.143-.143c.13-.12.13-.12.375-.282z" fill="#2F2F30"/><path d="M125.118 10.62l.163.08-1.545 1.539c0-.341.193-.484.417-.718l.117-.127a7.91 7.91 0 01.848-.774z" fill="#444"/><path d="M258.173 7.868l.163.08-1.382 1.377-.162-.081c.436-.492.866-.964 1.381-1.376z" fill="#42B8E5"/><path d="M33.759 5.196l.163.081-1.3 1.295-.163-.08c.843-.948.843-.948 1.3-1.296z" fill="#44B9E6"/><path d="M30.345 54.415v.243c-.936.186-.936.186-1.382.162.246-.163.458-.245.737-.339l.262-.09c.22-.057.22-.057.383.024z" fill="#5CC2E9"/><path d="M9.862 6.41l.082.162c-.244.364-.588.54-.976.729.275-.335.542-.633.894-.89z" fill="#A5A9B1"/></svg>