<svg width="50" height="50" viewBox="0 0 50 50" fill="none" xmlns="http://www.w3.org/2000/svg">
<circle cx="25" cy="25" r="24" transform="rotate(-180 25 25)" stroke="#12A1DC" stroke-width="2"/>
<path d="M33.5 26C34.0523 26 34.5 25.5523 34.5 25C34.5 24.4477 34.0523 24 33.5 24L33.5 26ZM14.7929 24.2929C14.4024 24.6834 14.4024 25.3166 14.7929 25.7071L21.1569 32.0711C21.5474 32.4616 22.1805 32.4616 22.5711 32.0711C22.9616 31.6805 22.9616 31.0474 22.5711 30.6569L16.9142 25L22.5711 19.3431C22.9616 18.9526 22.9616 18.3195 22.5711 17.9289C22.1805 17.5384 21.5474 17.5384 21.1569 17.9289L14.7929 24.2929ZM33.5 24L15.5 24L15.5 26L33.5 26L33.5 24Z" fill="#12A1DC"/>
</svg>
