<svg width="23" height="23" viewBox="0 0 23 23" fill="none" xmlns="http://www.w3.org/2000/svg">
<path d="M11.5 0C9.22552 0 7.00211 0.674463 5.11095 1.9381C3.21978 3.20174 1.7458 4.99779 0.87539 7.09914C0.00498258 9.20049 -0.222755 11.5128 0.220974 13.7435C0.664704 15.9743 1.75997 18.0234 3.36828 19.6317C4.97658 21.24 7.02568 22.3353 9.25646 22.779C11.4872 23.2228 13.7995 22.995 15.9009 22.1246C18.0022 21.2542 19.7983 19.7802 21.0619 17.8891C22.3255 15.9979 23 13.7745 23 11.5C22.9967 8.45104 21.784 5.52791 19.628 3.37197C17.4721 1.21603 14.549 0.00334834 11.5 0ZM11.5 22.08C9.40748 22.08 7.36194 21.4595 5.62207 20.2969C3.8822 19.1344 2.52613 17.482 1.72536 15.5488C0.924584 13.6155 0.715065 11.4883 1.1233 9.43594C1.53153 7.38362 2.53918 5.49845 4.01881 4.01881C5.49845 2.53917 7.38363 1.53152 9.43595 1.12329C11.4883 0.71506 13.6156 0.924579 15.5488 1.72535C17.482 2.52613 19.1344 3.88219 20.2969 5.62207C21.4595 7.36194 22.08 9.40747 22.08 11.5C22.077 14.3051 20.9613 16.9943 18.9778 18.9778C16.9944 20.9613 14.3051 22.077 11.5 22.08ZM18.4 11.5C18.4 11.622 18.3515 11.739 18.2653 11.8253C18.179 11.9115 18.062 11.96 17.94 11.96H11.5C11.378 11.96 11.261 11.9115 11.1747 11.8253C11.0885 11.739 11.04 11.622 11.04 11.5V5.06C11.04 4.938 11.0885 4.821 11.1747 4.73473C11.261 4.64846 11.378 4.6 11.5 4.6C11.622 4.6 11.739 4.64846 11.8253 4.73473C11.9115 4.821 11.96 4.938 11.96 5.06V11.04H17.94C18.062 11.04 18.179 11.0885 18.2653 11.1747C18.3515 11.261 18.4 11.378 18.4 11.5Z" fill="black"/>
</svg>
