<svg width="58" height="52" viewBox="0 0 58 52" fill="none" xmlns="http://www.w3.org/2000/svg">
<path d="M23.1676 1.01416C23.269 1.01363 23.3704 1.01309 23.4749 1.01254C23.815 1.01112 24.1552 1.01183 24.4953 1.01254C24.739 1.01197 24.9828 1.01128 25.2265 1.01047C25.82 1.00887 26.4135 1.00868 27.007 1.0092C27.4894 1.0096 27.9718 1.00946 28.4542 1.00893C28.5572 1.00882 28.5572 1.00882 28.6623 1.00871C28.8018 1.00855 28.9413 1.0084 29.0808 1.00825C30.3888 1.00688 31.6969 1.00742 33.005 1.00856C34.2016 1.00955 35.3981 1.00826 36.5947 1.00589C37.8235 1.00347 39.0523 1.00251 40.2812 1.00317C40.971 1.00352 41.6608 1.0033 42.3506 1.00156C42.9992 0.999945 43.6478 1.00041 44.2964 1.00228C44.5345 1.00265 44.7727 1.00234 45.0109 1.0013C45.3358 0.999997 45.6606 1.00113 45.9854 1.00289C46.1272 1.00146 46.1272 1.00146 46.2719 1C46.9545 1.00762 47.264 1.15948 47.7748 1.61158C47.8249 1.66333 47.8749 1.71507 47.9265 1.76838C47.9832 1.82625 48.0399 1.88412 48.0984 1.94374C48.1566 2.00403 48.2149 2.06431 48.2749 2.12643C48.8138 2.6777 48.8138 2.6777 49.3859 3.19398C49.8136 3.5555 50.2003 3.95622 50.5937 4.3541C50.874 4.63635 51.1549 4.91075 51.4589 5.16772C51.9182 5.55631 52.3344 5.98861 52.7551 6.41796C53.0059 6.67243 53.2512 6.91063 53.5308 7.13408C53.7492 7.30904 53.7492 7.30904 53.9478 7.60696C53.9729 7.85786 53.9729 7.85786 53.9734 8.16461C53.974 8.28142 53.9746 8.39822 53.9753 8.51856C53.975 8.6475 53.9747 8.77645 53.9744 8.9093C53.9747 9.04717 53.9752 9.18505 53.9757 9.32292C53.9769 9.70268 53.9769 10.0824 53.9767 10.4622C53.9766 10.8714 53.9777 11.2806 53.9787 11.6898C53.9803 12.4919 53.9809 13.294 53.981 14.0961C53.9811 14.748 53.9815 15.3998 53.9821 16.0517C53.9839 17.8989 53.9848 19.7461 53.9846 21.5932C53.9846 21.7427 53.9846 21.7427 53.9846 21.8952C53.9846 21.9949 53.9846 22.0947 53.9846 22.1975C53.9845 23.8144 53.9864 25.4313 53.9892 27.0482C53.9921 28.7075 53.9934 30.3667 53.9933 32.026C53.9932 32.9579 53.9937 33.8899 53.9959 34.8218C53.9977 35.6153 53.9981 36.4088 53.9968 37.2023C53.9961 37.6072 53.9961 38.0121 53.9978 38.4171C53.9994 38.7877 53.9991 39.1584 53.9974 39.5291C53.9969 39.7268 53.9984 39.9244 54 40.1221C53.9917 41.1945 53.9917 41.1945 53.5506 41.6694C53.2111 41.925 52.8651 41.8918 52.4508 41.8903C52.3806 41.8903 52.3104 41.8903 52.2381 41.8904C52.0854 41.8904 51.9327 41.89 51.78 41.8892C51.5346 41.8882 51.2892 41.8887 51.0438 41.8898C50.3457 41.8925 49.6477 41.8939 48.9497 41.8909C45.4937 41.8782 42.4808 42.2925 39.2317 43.519C38.9792 43.6122 38.7265 43.7045 38.4737 43.7968C37.957 43.9858 37.4409 44.1766 36.9253 44.3687C36.2134 44.6339 35.4999 44.8946 34.7857 45.1537C34.6742 45.1942 34.5626 45.2347 34.4477 45.2764C34.2238 45.3576 33.9998 45.4389 33.7759 45.5201C33.4396 45.6422 33.1035 45.7647 32.7674 45.8873C30.8526 46.5857 28.9327 47.2697 27.012 47.9517C25.5043 48.4871 23.9978 49.0255 22.4926 49.5681C22.181 49.6804 21.8693 49.7925 21.5576 49.9046C20.3748 50.3301 20.3748 50.3301 19.1943 50.7619C18.9925 50.8363 18.7905 50.9103 18.5885 50.9841C18.3591 51.0681 18.13 51.1529 17.9013 51.2389C17.2533 51.4752 16.7671 51.62 16.093 51.3954C15.4807 50.9735 15.2815 50.1872 15.0453 49.512C15.0102 49.4135 14.9751 49.315 14.9389 49.2135C14.8626 48.9989 14.7866 48.7843 14.7108 48.5695C14.5885 48.2229 14.4655 47.8766 14.3422 47.5303C14.2102 47.1595 14.0783 46.7886 13.9466 46.4177C13.4969 45.1506 13.0429 43.8851 12.588 42.6199C12.4422 42.2145 12.2965 41.8089 12.1511 41.4034C11.688 40.1122 11.2227 38.8221 10.7475 37.5354C10.6719 37.3302 10.5964 37.125 10.5208 36.9198C10.3834 36.5467 10.2448 36.1742 10.1054 35.8019C10.0449 35.6379 9.98438 35.4739 9.92393 35.3099C9.89644 35.2376 9.86894 35.1653 9.84061 35.0908C9.69354 34.688 9.61479 34.3521 9.65666 33.9234C9.80562 33.6379 9.80562 33.6379 10.0539 33.4269C10.3334 33.3559 10.5735 33.3356 10.8483 33.4269C11.2332 33.8299 11.394 34.2542 11.5734 34.7695C11.604 34.855 11.6347 34.9405 11.6663 35.0286C11.769 35.3158 11.8704 35.6034 11.9718 35.891C12.0452 36.0971 12.1188 36.3031 12.1925 36.5091C12.3534 36.9594 12.5137 37.4098 12.6738 37.8603C12.9453 38.6241 13.2192 39.3871 13.4936 40.1499C13.5174 40.2161 13.5411 40.2822 13.5656 40.3503C13.6626 40.6197 13.7595 40.8892 13.8564 41.1586C14.027 41.6327 14.1973 42.1069 14.3675 42.5812C14.8226 43.8491 15.2788 45.1165 15.7389 46.3827C15.779 46.4932 15.8191 46.6038 15.8605 46.7177C16.0473 47.232 16.2343 47.7462 16.422 48.2602C16.487 48.4391 16.5521 48.6181 16.6171 48.7971C16.6468 48.8779 16.6764 48.9588 16.707 49.0421C16.9061 49.5915 16.9061 49.5915 16.9061 49.8126C16.9646 49.7905 17.0231 49.7683 17.0833 49.7455C18.5708 49.1825 20.0638 48.6372 21.5625 48.1047C22.1672 47.8898 22.7717 47.6742 23.3762 47.4587C23.499 47.415 23.6218 47.3712 23.7483 47.3262C25.0084 46.8769 26.2672 46.4242 27.5258 45.9707C27.6736 45.9174 27.6736 45.9174 27.8243 45.8631C28.2947 45.6936 28.765 45.5241 29.2353 45.3545C30.2563 44.9864 31.2776 44.619 32.2988 44.2514C31.1111 44.4068 29.9331 44.6144 28.7534 44.8205C28.2687 44.905 27.784 44.9889 27.2992 45.0728C26.3997 45.2285 25.5002 45.3845 24.601 45.5416C23.9723 45.6515 23.3436 45.7604 22.7147 45.8688C22.4763 45.91 22.238 45.9516 21.9998 45.9935C21.6664 46.0521 21.3328 46.1096 20.9992 46.1668C20.9022 46.1842 20.8052 46.2015 20.7053 46.2193C19.1177 46.4877 19.1177 46.4877 18.4454 46.1755C17.9743 45.728 17.846 45.2005 17.7448 44.5768C17.7317 44.5013 17.7187 44.4258 17.7052 44.348C17.6619 44.0955 17.6198 43.8429 17.5778 43.5902C17.5468 43.408 17.5157 43.2258 17.4845 43.0436C17.3996 42.5462 17.3159 42.0486 17.2324 41.551C17.1433 41.0216 17.0531 40.4924 16.9631 39.9632C16.8095 39.0601 16.6566 38.1569 16.5042 37.2535C16.2676 35.8514 16.0298 34.4495 15.7917 33.0476C15.7126 32.5821 15.6336 32.1166 15.5546 31.6512C15.5351 31.5364 15.5156 31.4216 15.4955 31.3033C15.3581 30.4938 15.2208 29.6842 15.0836 28.8746C14.6431 26.2752 14.2003 23.6762 13.7515 21.0783C13.7394 21.0078 13.7272 20.9374 13.7147 20.8649C13.4859 19.54 13.2563 18.2152 13.0267 16.8905C12.9514 16.4563 12.8763 16.022 12.8012 15.5877C12.7514 15.3002 12.7014 15.0126 12.6513 14.7251C12.6224 14.5577 12.5934 14.3904 12.5644 14.2231C12.5513 14.148 12.5382 14.0729 12.5247 13.9956C12.4373 13.4887 12.4373 13.4887 12.4373 13.2675C12.3309 13.3075 12.2245 13.3475 12.1149 13.3888C10.7463 13.9001 9.36509 14.371 7.98084 14.8378C7.64442 14.9514 7.30802 15.0651 6.97167 15.1789C6.76448 15.249 6.55725 15.319 6.34996 15.3888C6.25668 15.4203 6.16339 15.4519 6.06728 15.4844C5.98587 15.5118 5.90445 15.5393 5.82057 15.5676C5.65351 15.6266 5.4885 15.6916 5.32526 15.7606C5.08851 15.8495 5.08851 15.8495 4.79059 15.8495C5.44023 17.7849 6.13486 19.7033 6.8351 21.6209C7.61141 23.7475 8.37394 25.8787 9.13033 28.0124C9.19566 28.1967 9.26103 28.3809 9.3264 28.5652C9.40621 28.7902 9.48592 29.0153 9.56553 29.2404C9.60093 29.3402 9.63633 29.44 9.67281 29.5429C9.70342 29.6294 9.73404 29.7159 9.76558 29.8051C9.82829 29.9766 9.8948 30.1468 9.96412 30.3158C10.0592 30.5606 10.0836 30.7448 10.0849 31.0063C10.0874 31.1188 10.0874 31.1188 10.09 31.2336C10.0445 31.4948 9.96363 31.5784 9.75597 31.7387C9.41012 31.8439 9.23715 31.8742 8.90654 31.7188C8.62876 31.5144 8.55965 31.3946 8.4382 31.0753C8.37644 30.9149 8.37644 30.9149 8.31344 30.7511C8.26443 30.617 8.21565 30.4827 8.16705 30.3484C8.13751 30.2678 8.10797 30.1873 8.07754 30.1043C7.81542 29.3886 7.55976 28.6707 7.30431 27.9526C7.17807 27.5989 7.05173 27.2452 6.92538 26.8915C6.83886 26.6493 6.75238 26.4071 6.66594 26.1648C6.26838 25.0509 5.86804 23.938 5.46698 22.8254C5.35587 22.5168 5.24503 22.2081 5.13426 21.8994C4.81801 21.0186 4.50072 20.1383 4.17488 19.2609C4.04205 18.903 3.91034 18.5447 3.77872 18.1864C3.71777 18.0214 3.65625 17.8568 3.59411 17.6923C2.9216 15.9122 2.9216 15.9122 3.10236 15.2536C3.38057 14.7072 3.70214 14.5189 4.26263 14.3261C4.34018 14.2977 4.41773 14.2694 4.49762 14.2401C4.75998 14.1451 5.02336 14.0536 5.28713 13.9626C5.38193 13.9296 5.47674 13.8965 5.57441 13.8624C6.3066 13.6073 7.04107 13.3593 7.77602 13.1123C8.20551 12.9675 8.63491 12.8225 9.0643 12.6775C9.16674 12.6429 9.26917 12.6084 9.3747 12.5729C10.0688 12.3384 10.7605 12.098 11.4491 11.8478C11.9197 11.6786 11.9197 11.6786 12.1393 11.6786C12.1273 11.6135 12.1153 11.5485 12.1029 11.4815C12.0481 11.1832 11.9944 10.8847 11.9407 10.5862C11.9218 10.4839 11.9028 10.3816 11.8833 10.2762C11.6242 8.82325 11.6242 8.82325 11.9159 8.27108C12.2603 7.85971 12.5221 7.68 13.0524 7.58916C13.2076 7.56175 13.2076 7.56175 13.3659 7.53379C13.478 7.51518 13.59 7.49657 13.7054 7.47739C13.8223 7.45708 13.9392 7.43678 14.0597 7.41585C14.4394 7.3502 14.8193 7.28614 15.1993 7.22214C15.458 7.17776 15.7167 7.13329 15.9755 7.08875C17.7402 6.78598 19.5062 6.49038 21.2756 6.21665C21.2736 6.09042 21.2715 5.96418 21.2693 5.83412C21.2621 5.3644 21.2576 4.8947 21.2538 4.42495C21.2518 4.2219 21.2491 4.01885 21.2457 3.81582C21.2408 3.52344 21.2386 3.23114 21.2368 2.93873C21.2348 2.8484 21.2327 2.75807 21.2306 2.665C21.2304 2.11189 21.2894 1.78012 21.6729 1.35059C22.138 0.97293 22.5963 1.01057 23.1676 1.01416ZM22.8646 2.64158C22.8398 9.19282 22.8398 9.19282 22.8171 15.7441C22.8117 17.0093 22.8117 17.0093 22.8089 17.6011C22.807 18.0156 22.8057 18.4301 22.8047 18.8446C22.8034 19.3728 22.8012 19.901 22.7983 20.4292C22.7974 20.6234 22.7968 20.8176 22.7966 21.0118C22.7963 21.2735 22.7947 21.5351 22.7929 21.7968C22.7931 21.8733 22.7933 21.9498 22.7935 22.0286C22.7896 22.3971 22.7849 22.693 22.5666 22.9996C22.2845 23.1407 22.0845 23.1302 21.7722 23.0989C21.4934 22.888 21.3871 22.7692 21.3245 22.4217C21.3241 22.313 21.3238 22.2042 21.3234 22.0922C21.322 21.9671 21.3206 21.8421 21.3192 21.7132C21.3197 21.5749 21.3202 21.4366 21.3207 21.2983C21.3199 21.1525 21.3188 21.0066 21.3176 20.8608C21.3149 20.465 21.3145 20.0693 21.3146 19.6735C21.3143 19.2599 21.3118 18.8462 21.3095 18.4326C21.3054 17.6493 21.3034 16.8661 21.3021 16.0828C21.3005 15.1911 21.2967 14.2994 21.2927 13.4077C21.2845 11.5734 21.2792 9.73916 21.2756 7.90488C20.6361 7.95336 20.0026 8.00492 19.37 8.11416C19.1807 8.14648 19.1807 8.14648 18.9875 8.17944C18.8543 8.20273 18.721 8.22603 18.5877 8.24935C18.4477 8.2735 18.3076 8.29761 18.1675 8.32169C17.8766 8.37179 17.5858 8.42223 17.295 8.47294C16.9224 8.5379 16.5497 8.6022 16.177 8.66627C15.889 8.71583 15.6009 8.76564 15.3129 8.81554C15.1754 8.83935 15.0379 8.8631 14.9004 8.8868C14.7091 8.91983 14.5178 8.9532 14.3266 8.98659C14.218 9.00548 14.1093 9.02437 13.9974 9.04383C13.7203 9.09219 13.7203 9.09219 13.4303 9.19588C13.4882 10.1986 13.6503 11.1742 13.8222 12.1619C13.8526 12.3394 13.8831 12.5168 13.9135 12.6943C13.9963 13.1771 14.0797 13.6598 14.1633 14.1425C14.2526 14.6589 14.3412 15.1754 14.43 15.6918C14.5819 16.576 14.7343 17.4601 14.8869 18.3442C15.125 19.7232 15.3624 21.1023 15.5997 22.4815C15.6793 22.9436 15.7588 23.4058 15.8383 23.8679C15.858 23.9823 15.8777 24.0966 15.898 24.2145C16.0375 25.0252 16.1772 25.8358 16.3169 26.6465C16.7863 29.3709 17.2541 32.0957 17.7195 34.8208C17.7907 35.2378 17.862 35.6547 17.9332 36.0716C18.1552 37.3706 18.3772 38.6695 18.5985 39.9686C18.7038 40.5867 18.8095 41.2047 18.9153 41.8226C18.9579 42.0718 19.0003 42.321 19.0427 42.5702C19.0995 42.9042 19.1566 43.2381 19.2139 43.572C19.2386 43.7183 19.2386 43.7183 19.2638 43.8675C19.2866 43.9994 19.2866 43.9994 19.3098 44.134C19.3227 44.21 19.3357 44.286 19.3491 44.3644C19.3825 44.5573 19.3825 44.5573 19.4881 44.748C21.7624 44.3887 24.0327 44.0061 26.3019 43.616C26.406 43.5981 26.406 43.5981 26.5122 43.5799C27.371 43.4322 28.2298 43.2842 29.0885 43.1361C29.8304 43.0082 30.5724 42.8805 31.3143 42.7528C32.8342 42.4912 34.354 42.2294 35.8738 41.9673C35.8738 41.9346 35.8738 41.9018 35.8738 41.868C35.8032 41.8677 35.7325 41.8674 35.6596 41.867C33.9398 41.859 32.22 41.8498 30.5002 41.8395C29.6685 41.8345 28.8368 41.8299 28.0051 41.8261C27.2803 41.8229 26.5554 41.8189 25.8305 41.8141C25.4466 41.8116 25.0628 41.8095 24.679 41.8081C24.3177 41.8068 23.9563 41.8047 23.595 41.8018C23.3993 41.8004 23.2036 41.8001 23.0079 41.7997C22.891 41.7986 22.7742 41.7975 22.6538 41.7964C22.5525 41.7958 22.4512 41.7953 22.3468 41.7947C22.04 41.7659 21.8386 41.7295 21.5736 41.5701C21.3742 41.1532 21.3499 40.7739 21.3491 40.3165C21.3483 40.1857 21.3476 40.055 21.3469 39.9203C21.3471 39.7766 21.3474 39.6329 21.3477 39.4892C21.3472 39.337 21.3467 39.1848 21.3461 39.0325C21.3448 38.6202 21.3447 38.2078 21.345 37.7954C21.3451 37.4511 21.3446 37.1068 21.3441 36.7625C21.343 35.9506 21.343 35.1387 21.3436 34.3268C21.3442 33.4888 21.343 32.6507 21.3409 31.8127C21.3391 31.0931 21.3385 30.3735 21.3388 29.654C21.339 29.2242 21.3388 28.7944 21.3374 28.3646C21.3361 27.9609 21.3363 27.5572 21.3376 27.1535C21.3378 27.0051 21.3376 26.8568 21.3368 26.7085C21.3357 26.5064 21.3367 26.3043 21.3378 26.1023C21.3378 25.9891 21.3377 25.8759 21.3377 25.7592C21.3749 25.4823 21.3749 25.4823 21.5049 25.2973C21.7923 25.1041 22.034 25.1434 22.368 25.1844C25.9278 28.7442 22.8305 35.2449 22.8646 40.2791C32.6305 40.2791 42.3964 40.2791 52.4582 40.2791C52.4582 29.9561 52.4582 19.6331 52.4582 8.99726C50.6558 8.96449 48.8533 8.93172 46.9963 8.89796C46.0429 8.54045 46.0429 8.54045 45.7053 8.1035C45.2044 6.35031 45.4453 4.46453 45.4074 2.64158C37.9682 2.64158 30.5291 2.64158 22.8646 2.64158ZM46.9963 3.23743C46.9914 3.79951 46.9878 4.36157 46.9854 4.92367C46.9844 5.11498 46.983 5.30629 46.9813 5.4976C46.9789 5.7722 46.9778 6.04678 46.9769 6.32139C46.9759 6.40726 46.9748 6.49312 46.9738 6.58159C46.9737 6.7911 46.9841 7.00057 46.9963 7.20973C47.1701 7.42392 47.1701 7.42392 47.3771 7.43223C47.4876 7.43157 47.4876 7.43157 47.6003 7.43089C47.6838 7.43088 47.7673 7.43086 47.8533 7.43085C47.9435 7.42982 48.0337 7.4288 48.1267 7.42774C48.2651 7.42732 48.2651 7.42732 48.4064 7.42689C48.7018 7.42577 48.9973 7.42328 49.2928 7.42076C49.4928 7.41976 49.6928 7.41885 49.8929 7.41804C50.3839 7.41585 50.8748 7.41242 51.3658 7.40834C50.9176 6.87285 50.9176 6.87285 50.4243 6.37958C50.3646 6.32467 50.3049 6.26976 50.2434 6.21319C50.1816 6.15698 50.1198 6.10077 50.0562 6.04287C49.5913 5.61505 49.1347 5.18278 48.6907 4.73325C48.1558 4.19279 47.6057 3.69205 46.9963 3.23743Z" fill="#12A1DC"/>
<path d="M27.6191 27.704C27.7092 27.7033 27.7993 27.7025 27.8921 27.7018C28.1947 27.7001 28.4971 27.7019 28.7997 27.7037C29.0163 27.7032 29.2329 27.7024 29.4495 27.7015C30.0384 27.6997 30.6272 27.701 31.2161 27.7029C31.8317 27.7045 32.4472 27.7037 33.0628 27.7032C34.163 27.7027 35.2631 27.7046 36.3632 27.7076C37.3608 27.7102 38.3584 27.7105 39.356 27.7091C40.6378 27.7073 41.9196 27.7074 43.2015 27.7093C43.6912 27.71 44.1809 27.7099 44.6706 27.7092C45.2471 27.7084 45.8235 27.7096 46.3999 27.7123C46.6118 27.713 46.8237 27.713 47.0355 27.7123C47.3241 27.7114 47.6127 27.713 47.9013 27.7152C47.9856 27.7144 48.07 27.7136 48.1569 27.7127C48.5227 27.7179 48.7373 27.7315 49.0336 27.9557C49.1918 28.1794 49.237 28.2895 49.2364 28.5608C49.2386 28.6263 49.2408 28.6919 49.243 28.7594C49.1421 29.0803 48.9654 29.1774 48.684 29.3553C48.3898 29.4126 48.101 29.4085 47.802 29.405C47.7131 29.4056 47.6243 29.4061 47.5327 29.4067C47.2348 29.4081 46.937 29.4066 46.6391 29.4051C46.4256 29.4055 46.2121 29.406 45.9985 29.4067C45.4185 29.4081 44.8385 29.407 44.2584 29.4053C43.6518 29.404 43.0451 29.4046 42.4385 29.405C41.4196 29.4052 40.4008 29.4039 39.382 29.4016C38.2036 29.3989 37.0253 29.3988 35.8469 29.3999C34.7139 29.401 33.581 29.4004 32.448 29.399C31.9656 29.3984 31.4832 29.3984 31.0007 29.3989C30.4328 29.3994 29.8648 29.3984 29.2968 29.3962C29.0882 29.3957 28.8796 29.3956 28.671 29.3961C28.3865 29.3967 28.1022 29.3955 27.8177 29.3938C27.7349 29.3944 27.652 29.395 27.5667 29.3956C27.11 29.3906 26.8104 29.3534 26.4392 29.0573C26.2975 28.774 26.309 28.5772 26.3399 28.2629C26.6524 27.6952 27.0224 27.6956 27.6191 27.704Z" fill="#12A1DC"/>
<path d="M27.7942 17.1259C27.8829 17.1255 27.9716 17.1251 28.063 17.1248C28.3615 17.1237 28.6599 17.1233 28.9584 17.1229C29.1719 17.1223 29.3854 17.1216 29.5989 17.1209C30.1798 17.1192 30.7607 17.1182 31.3415 17.1173C31.7042 17.1168 32.0669 17.1162 32.4295 17.1156C33.5635 17.1137 34.6976 17.1123 35.8316 17.1115C37.1419 17.1105 38.4523 17.1079 39.7626 17.1039C40.7747 17.1009 41.7867 17.0994 42.7988 17.0991C43.4036 17.0988 44.0084 17.0979 44.6133 17.0954C45.1821 17.0931 45.7508 17.0927 46.3196 17.0937C46.5286 17.0938 46.7375 17.0932 46.9464 17.0918C47.2313 17.09 47.5161 17.0907 47.801 17.092C47.884 17.091 47.967 17.0899 48.0525 17.0887C48.4493 17.0932 48.64 17.1124 48.984 17.3297C49.1809 17.5377 49.1809 17.5377 49.2434 17.7363C49.2401 17.8346 49.2401 17.8346 49.2368 17.9349C49.2369 18.0005 49.237 18.066 49.2372 18.1336C49.152 18.4344 49.0339 18.54 48.7837 18.7294C48.4778 18.7686 48.2075 18.7835 47.9016 18.7805C47.7665 18.7815 47.7665 18.7815 47.6287 18.7826C47.3261 18.7844 47.0237 18.7834 46.7211 18.7824C46.5045 18.7831 46.2879 18.7839 46.0713 18.785C45.4824 18.7872 44.8936 18.7869 44.3047 18.786C43.8136 18.7855 43.3224 18.7862 42.8313 18.787C41.6067 18.7888 40.3822 18.7881 39.1576 18.7864C38.16 18.785 37.1624 18.786 36.1648 18.7887C35.0064 18.7918 33.8481 18.7932 32.6898 18.7923C32.0766 18.7918 31.4634 18.792 30.8502 18.794C30.2737 18.7959 29.6973 18.7953 29.1208 18.7928C28.909 18.7923 28.6971 18.7927 28.4853 18.7939C28.1966 18.7955 27.9081 18.794 27.6195 18.7918C27.5351 18.793 27.4508 18.7941 27.3639 18.7953C26.9689 18.789 26.7809 18.7698 26.4864 18.4962C26.3086 18.176 26.2864 17.9982 26.3402 17.637C26.6759 17.0455 27.1804 17.1257 27.7942 17.1259Z" fill="#12A1DC"/>
<path d="M27.7222 32.9673C27.8115 32.9666 27.9008 32.9659 27.9928 32.9652C28.2921 32.9634 28.5912 32.9652 28.8905 32.967C29.105 32.9665 29.3195 32.9658 29.534 32.9649C30.1167 32.963 30.6994 32.9643 31.2821 32.9663C31.8916 32.9679 32.501 32.967 33.1104 32.9665C34.1339 32.9661 35.1574 32.9677 36.1809 32.9704C37.3647 32.9736 38.5485 32.9736 39.7323 32.9719C40.8704 32.9703 42.0086 32.971 43.1467 32.9727C43.6314 32.9734 44.116 32.9733 44.6007 32.9725C45.1713 32.9718 45.7418 32.973 46.3124 32.9757C46.522 32.9764 46.7315 32.9764 46.9411 32.9757C47.2269 32.9748 47.5125 32.9764 47.7983 32.9786C47.8815 32.9778 47.9647 32.977 48.0505 32.9761C48.4476 32.9818 48.6398 33.0017 48.9838 33.2191C49.1806 33.4269 49.1806 33.4269 49.2431 33.6256C49.2398 33.7239 49.2398 33.7239 49.2365 33.8242C49.2366 33.8897 49.2367 33.9553 49.2369 34.0228C49.1517 34.3234 49.0333 34.4292 48.7834 34.6186C48.479 34.6578 48.2102 34.6727 47.9058 34.6697C47.7714 34.6708 47.7714 34.6708 47.6342 34.6718C47.3333 34.6736 47.0325 34.6726 46.7315 34.6716C46.516 34.6723 46.3006 34.6732 46.0851 34.6742C45.4993 34.6764 44.9135 34.6761 44.3277 34.6753C43.8391 34.6747 43.3504 34.6755 42.8618 34.6762C41.7092 34.6779 40.5566 34.6775 39.404 34.6759C38.214 34.6742 37.0241 34.6758 35.8342 34.679C34.8133 34.6816 33.7924 34.6823 32.7715 34.6815C32.1614 34.681 31.5513 34.6812 30.9413 34.6833C30.3677 34.6851 29.7941 34.6845 29.2205 34.6821C29.0098 34.6816 28.7991 34.6819 28.5884 34.6832C28.3011 34.6847 28.014 34.6833 27.7267 34.681C27.6012 34.6828 27.6012 34.6828 27.4731 34.6846C27.0472 34.6778 26.884 34.6556 26.5364 34.3851C26.3399 34.1221 26.3399 34.1221 26.2778 33.8242C26.445 33.0217 27.0259 32.9575 27.7222 32.9673Z" fill="#12A1DC"/>
<path d="M27.7267 11.8147C27.8164 11.814 27.9062 11.8133 27.9987 11.8126C28.2996 11.8109 28.6003 11.8127 28.9012 11.8144C29.1168 11.8139 29.3325 11.8132 29.5481 11.8123C30.1339 11.8104 30.7196 11.8117 31.3054 11.8137C31.918 11.8153 32.5305 11.8144 33.143 11.8139C34.1716 11.8135 35.2002 11.8151 36.2288 11.8178C37.4188 11.821 38.6088 11.821 39.7988 11.8193C40.9427 11.8177 42.0865 11.8184 43.2304 11.8201C43.7176 11.8208 44.2049 11.8207 44.6921 11.8199C45.2655 11.8192 45.8389 11.8204 46.4124 11.8231C46.6231 11.8238 46.8338 11.8238 47.0446 11.8231C47.3317 11.8222 47.6187 11.8238 47.9058 11.826C47.9897 11.8252 48.0736 11.8244 48.16 11.8235C48.5249 11.8287 48.738 11.8427 49.0334 12.0665C49.1918 12.2902 49.237 12.4001 49.2365 12.6716C49.2387 12.7371 49.2408 12.8027 49.2431 12.8702C49.1422 13.1912 48.9656 13.2882 48.6841 13.466C48.3887 13.5238 48.0986 13.5201 47.7983 13.5171C47.709 13.5178 47.6197 13.5185 47.5277 13.5192C47.2285 13.5211 46.9293 13.52 46.6301 13.519C46.4155 13.5197 46.201 13.5206 45.9865 13.5216C45.4038 13.5238 44.8211 13.5235 44.2384 13.5227C43.7522 13.5222 43.266 13.5229 42.7798 13.5236C41.6331 13.5253 40.4863 13.5249 39.3396 13.5233C38.1558 13.5216 36.972 13.5232 35.7883 13.5264C34.7724 13.529 33.7566 13.5298 32.7407 13.5289C32.1337 13.5284 31.5268 13.5286 30.9199 13.5307C30.3493 13.5325 29.7787 13.5319 29.2081 13.5295C28.9986 13.529 28.789 13.5293 28.5794 13.5306C28.2936 13.5321 28.008 13.5307 27.7222 13.5284C27.639 13.5296 27.5558 13.5308 27.47 13.532C27.0452 13.5252 26.8833 13.5026 26.5367 13.2325C26.3399 12.9695 26.3399 12.9695 26.2778 12.6716C26.4455 11.8669 27.029 11.8049 27.7267 11.8147Z" fill="#12A1DC"/>
<path d="M27.6195 22.4526C27.7547 22.4517 27.7547 22.4517 27.8925 22.4508C28.1951 22.4492 28.4975 22.4504 28.8001 22.4517C29.0167 22.4511 29.2333 22.4504 29.4499 22.4496C30.0388 22.4478 30.6276 22.4485 31.2165 22.4497C31.832 22.4507 32.4476 22.4498 33.0632 22.4492C34.1634 22.4484 35.2635 22.4496 36.3636 22.4517C37.3612 22.4534 38.3588 22.4531 39.3564 22.4513C40.5147 22.4492 41.673 22.4484 42.8314 22.4496C43.4446 22.4502 44.0578 22.4503 44.671 22.4489C45.2475 22.4478 45.8239 22.4486 46.4003 22.4509C46.6122 22.4514 46.824 22.4513 47.0359 22.4504C47.3245 22.4493 47.6131 22.4507 47.9017 22.4526C47.986 22.4518 48.0704 22.4509 48.1573 22.45C48.517 22.4548 48.7381 22.4703 49.0344 22.6831C49.25 23.0025 49.2347 23.2194 49.181 23.5955C49.0344 23.8127 49.0344 23.8127 48.7837 23.9927C48.4779 24.0317 48.2076 24.0464 47.9017 24.0431C47.7666 24.0441 47.7666 24.0441 47.6287 24.045C47.3262 24.0466 47.0237 24.0453 46.7212 24.0441C46.5046 24.0446 46.2879 24.0453 46.0713 24.0462C45.4825 24.048 44.8936 24.0473 44.3048 24.0461C43.6892 24.0451 43.0736 24.046 42.458 24.0466C41.3579 24.0474 40.2578 24.0461 39.1576 24.0441C38.16 24.0423 37.1624 24.0427 36.1648 24.0445C35.0065 24.0466 33.8482 24.0474 32.6899 24.0462C32.0767 24.0456 31.4634 24.0455 30.8502 24.0468C30.2738 24.048 29.6973 24.0472 29.1209 24.0449C28.909 24.0444 28.6972 24.0445 28.4853 24.0454C28.1967 24.0465 27.9082 24.0451 27.6195 24.0431C27.5352 24.044 27.4508 24.0449 27.3639 24.0458C27.0042 24.041 26.7831 24.0255 26.4868 23.8127C26.2713 23.4933 26.2865 23.2764 26.3403 22.9003C26.6687 22.4136 27.0805 22.447 27.6195 22.4526Z" fill="#12A1DC"/>
</svg>
