<svg width="46" height="46" viewBox="0 0 46 46" fill="none" xmlns="http://www.w3.org/2000/svg">
<path d="M24.4371 0.0104323C24.5731 0.00915991 24.5731 0.00915991 24.7119 0.00786184C24.8587 0.00867891 24.8587 0.00867891 25.0084 0.0095125C25.1089 0.00925504 25.2094 0.00899759 25.313 0.00873234C25.5256 0.00854913 25.7383 0.00904628 25.9509 0.0101695C26.2769 0.0116092 26.6028 0.0101835 26.9289 0.00846133C27.1352 0.00863915 27.3416 0.00898392 27.548 0.0095125C27.6458 0.00896778 27.7437 0.00842306 27.8445 0.00786184C27.9352 0.00871008 28.0259 0.00955832 28.1193 0.0104323C28.2391 0.0107534 28.2391 0.0107534 28.3613 0.011081C28.5655 0.0452521 28.5655 0.0452521 28.7261 0.162056C28.9107 0.421063 28.8672 0.721386 28.8609 1.02739C28.8605 1.09669 28.8601 1.166 28.8598 1.2374C28.8582 1.4586 28.8549 1.67973 28.8514 1.90091C28.8501 2.05093 28.8489 2.20096 28.8478 2.35098C28.8448 2.71863 28.8402 3.08622 28.8346 3.45383C29.249 3.45383 29.6634 3.45383 30.0904 3.45383C30.089 3.36332 30.0876 3.27281 30.0861 3.17956C30.0813 2.84323 30.0782 2.50689 30.0756 2.17053C30.0743 2.02506 30.0724 1.87959 30.0701 1.73412C30.0668 1.52482 30.0653 1.31556 30.0641 1.10623C30.0627 1.04137 30.0614 0.976511 30.0599 0.909688C30.0598 0.528541 30.0894 0.318007 30.3595 0.0452521C30.5637 0.00089787 30.5637 0.000897871 30.8057 0.00167256C30.9418 0.000844641 30.9418 0.000844641 31.0806 0C31.1784 0.00128907 31.2762 0.00257815 31.377 0.00390628C31.4776 0.00398849 31.5781 0.00407069 31.6816 0.00415539C31.8943 0.00469762 32.1069 0.0061124 32.3195 0.00832994C32.6456 0.0116019 32.9715 0.0120094 33.2975 0.0119652C33.5039 0.0128471 33.7103 0.0138928 33.9167 0.0151187C34.0145 0.0153184 34.1123 0.015518 34.2131 0.0157237C34.3038 0.0168682 34.3945 0.0180128 34.488 0.019192C34.6078 0.0202177 34.6078 0.0202177 34.73 0.0212642C34.9342 0.0452521 34.9342 0.0452521 35.2033 0.224651C35.31 0.544813 35.3042 0.834559 35.3017 1.16755C35.3016 1.26553 35.3016 1.26553 35.3014 1.36549C35.3009 1.57387 35.2997 1.78223 35.2986 1.99061C35.2981 2.13199 35.2977 2.27337 35.2974 2.41475C35.2964 2.76112 35.2948 3.10747 35.293 3.45383C35.4587 3.45264 35.4587 3.45264 35.6277 3.45142C36.6678 3.44415 37.7078 3.43877 38.7479 3.43524C39.2827 3.43337 39.8174 3.43082 40.3521 3.42676C40.868 3.42287 41.3839 3.42072 41.8997 3.41979C42.0967 3.41912 42.2937 3.41783 42.4907 3.41589C42.7663 3.4133 43.0417 3.41293 43.3173 3.4131C43.3991 3.41181 43.4808 3.41052 43.565 3.40919C44.1143 3.41279 44.1143 3.41279 44.4031 3.61403C44.6014 3.91947 44.585 4.22823 44.5828 4.58068C44.5834 4.65498 44.5839 4.72928 44.5845 4.80583C44.5852 4.96265 44.5849 5.11947 44.5837 5.27629C44.5825 5.51615 44.5855 5.75571 44.589 5.99555C44.589 6.14808 44.5889 6.30062 44.5884 6.45315C44.5896 6.52474 44.5908 6.59632 44.592 6.67007C44.5867 6.99149 44.5572 7.18675 44.3659 7.44861C44.0835 7.58 44.0835 7.58 43.0968 7.58C43.0968 17.9107 43.0968 28.2414 43.0968 38.8851C43.3632 38.8851 43.6296 38.8851 43.9041 38.8851C44.1992 39.04 44.2462 39.1042 44.3526 39.4233C44.3601 39.6085 44.3623 39.794 44.3614 39.9794C44.3611 40.0878 44.3608 40.1962 44.3605 40.3079C44.3598 40.4211 44.359 40.5344 44.3582 40.6511C44.3578 40.7654 44.3574 40.8797 44.357 40.9974C44.3559 41.28 44.3545 41.5626 44.3526 41.8452C44.4251 41.8431 44.4976 41.841 44.5723 41.8389C44.6682 41.8373 44.764 41.8356 44.8628 41.834C44.9575 41.8319 45.0522 41.8298 45.1498 41.8277C45.434 41.8455 45.6253 41.8946 45.8775 42.0246C46.0257 42.321 45.9838 42.6514 45.9854 42.9773C45.9859 43.054 45.9865 43.1308 45.987 43.2099C45.9878 43.3724 45.9884 43.5349 45.9888 43.6974C45.9896 43.9462 45.9924 44.195 45.9952 44.4438C45.9958 44.6016 45.9963 44.7593 45.9966 44.917C45.9978 44.9916 45.9989 45.0662 46 45.143C45.998 45.6496 45.998 45.6496 45.877 45.8565C45.5907 46.0403 45.2864 46.0081 44.9569 46.0052C44.8416 46.0058 44.8416 46.0058 44.724 46.0064C44.4641 46.0074 44.2043 46.0064 43.9445 46.0055C43.7572 46.0058 43.57 46.0063 43.3827 46.0068C42.8663 46.0079 42.35 46.0074 41.8336 46.0065C41.2774 46.0059 40.7212 46.0069 40.1651 46.0076C39.1379 46.0087 38.1107 46.0086 37.0835 46.0079C36.1347 46.0072 35.1859 46.007 34.237 46.0074C34.1742 46.0074 34.1113 46.0074 34.0465 46.0074C33.7914 46.0075 33.5362 46.0076 33.281 46.0077C30.8859 46.0085 28.4907 46.0078 26.0955 46.0063C23.9662 46.005 21.8369 46.0052 19.7075 46.0064C17.3168 46.0079 14.9261 46.0085 12.5354 46.0076C12.2807 46.0075 12.026 46.0074 11.7713 46.0074C11.7086 46.0073 11.6458 46.0073 11.5812 46.0073C10.6328 46.007 9.68447 46.0074 8.73609 46.008C7.65806 46.0088 6.58004 46.0086 5.50202 46.0072C4.95153 46.0064 4.40106 46.0062 3.85057 46.0071C3.34731 46.0079 2.84406 46.0074 2.34079 46.006C2.15808 46.0057 1.97536 46.0058 1.79265 46.0065C1.54555 46.0073 1.29851 46.0065 1.05141 46.0052C0.979375 46.0058 0.907343 46.0065 0.833126 46.0071C0.358239 46.0023 0.358237 46.0023 0.131511 45.8564C-0.0351032 45.5723 0.00302184 45.2406 0.00537154 44.9202C0.00511409 44.8436 0.00485663 44.7669 0.00459138 44.688C0.00440832 44.526 0.00490444 44.3641 0.00602852 44.2021C0.00746854 43.954 0.00604218 43.7061 0.00432037 43.458C0.00449819 43.3007 0.00484297 43.1434 0.00537154 42.986C0.00482682 42.9118 0.0042821 42.8375 0.00372088 42.7609C0.0100746 42.243 0.0100746 42.243 0.161018 42.0533C0.431508 41.8386 0.681913 41.8341 1.01333 41.835C1.10253 41.835 1.19174 41.835 1.28364 41.835C1.37717 41.8355 1.47069 41.836 1.56705 41.8364C1.69625 41.8366 1.69625 41.8366 1.82806 41.8367C2.14996 41.8372 2.47186 41.8384 2.79376 41.8396C3.51343 41.8414 4.2331 41.8433 4.97458 41.8452C4.97458 40.1875 4.97458 38.5299 4.97458 36.822C4.64897 36.7924 4.32336 36.7628 3.98789 36.7323C3.72815 36.648 3.50284 36.5665 3.25908 36.452C3.19774 36.4241 3.13641 36.3962 3.07322 36.3674C2.57507 36.1323 2.15101 35.851 1.7454 35.4765C1.68967 35.4278 1.63393 35.3792 1.57651 35.329C0.709233 34.5274 0.137447 33.3312 0.0411111 32.1576C0.0214498 31.1047 0.15809 30.0728 0.774824 29.1853C0.942848 28.921 0.979215 28.8494 0.921287 28.5529C0.904636 28.4491 0.904636 28.4491 0.887649 28.3433C0.868224 28.2334 0.868224 28.2334 0.848406 28.1212C0.688422 27.0113 0.806803 25.8709 1.45948 24.9256C1.59071 24.6632 1.55411 24.4897 1.50679 24.2063C1.3528 23.139 1.50285 22.0997 2.14029 21.2175C2.21123 21.1271 2.21123 21.1271 2.2836 21.0349C2.3391 20.96 2.3946 20.8851 2.45178 20.8079C3.15443 19.9916 4.27053 19.5981 5.31656 19.5156C6.01123 19.4746 6.63575 19.5935 7.30676 19.7791C7.53992 19.4343 7.53992 19.4343 7.55344 19.0223C7.53124 18.9168 7.50904 18.8114 7.48616 18.7027C7.21956 17.2952 7.46785 16.0655 8.20376 14.8457C8.93803 13.8303 10.0932 13.0738 11.325 12.8134C12.9842 12.5545 14.2859 12.8726 15.7385 13.6796C15.7681 11.6667 15.7977 9.65385 15.8282 7.58C15.5026 7.58 15.177 7.58 14.8415 7.58C14.5591 7.40166 14.5591 7.40166 14.393 7.13151C14.3493 6.8686 14.3319 6.6591 14.3366 6.39709C14.3364 6.32712 14.3362 6.25714 14.336 6.18504C14.336 6.03757 14.3372 5.8901 14.3395 5.74265C14.3426 5.51757 14.3413 5.29281 14.3396 5.06772C14.3402 4.92406 14.3411 4.7804 14.3422 4.63674C14.3418 4.56983 14.3413 4.50292 14.3409 4.43398C14.3475 4.13732 14.382 3.92319 14.5214 3.66C14.8661 3.35158 15.168 3.39417 15.616 3.40291C15.7473 3.40282 15.7473 3.40282 15.8812 3.40272C16.1706 3.40303 16.4597 3.40652 16.749 3.41003C16.9496 3.41087 17.1502 3.41151 17.3508 3.41195C17.8788 3.41367 18.4067 3.41807 18.9346 3.42303C19.4733 3.42762 20.012 3.42967 20.5507 3.43193C21.6078 3.43674 22.6648 3.4444 23.7218 3.45383C23.7203 3.36014 23.7189 3.26644 23.7175 3.16991C23.7126 2.82237 23.7095 2.47484 23.707 2.12728C23.7056 1.97684 23.7038 1.82641 23.7015 1.67598C23.6982 1.45978 23.6967 1.24362 23.6955 1.02739C23.6941 0.960107 23.6927 0.892824 23.6913 0.823502C23.6912 0.561679 23.6912 0.364245 23.8301 0.137412C24.0429 0.0153973 24.1918 0.0110898 24.4371 0.0104323ZM24.8878 1.21134C24.8878 1.95136 24.8878 2.69139 24.8878 3.45383C25.7759 3.45383 26.6639 3.45383 27.5788 3.45383C27.5788 2.71381 27.5788 1.97379 27.5788 1.21134C26.6908 1.21134 25.8028 1.21134 24.8878 1.21134ZM31.3462 1.21134C31.3462 1.95136 31.3462 2.69139 31.3462 3.45383C32.2342 3.45383 33.1223 3.45383 34.0372 3.45383C34.0372 2.71381 34.0372 1.97379 34.0372 1.21134C33.1492 1.21134 32.2611 1.21134 31.3462 1.21134ZM15.6488 4.70962C15.6488 5.24244 15.6488 5.77525 15.6488 6.32421C24.7659 6.32421 33.8829 6.32421 43.2762 6.32421C43.2762 5.7914 43.2762 5.25858 43.2762 4.70962C34.1592 4.70962 25.0421 4.70962 15.6488 4.70962ZM17.084 7.58C16.6861 11.9632 16.6861 11.9632 17.4428 16.1014C17.6125 16.5847 17.6504 17.0085 17.6446 17.5142C17.6446 17.5851 17.6446 17.656 17.6446 17.7291C17.64 18.1352 17.6007 18.5025 17.5045 18.8989C17.4262 19.2631 17.4209 19.2948 17.6278 19.6334C17.6913 19.7057 17.6913 19.7057 17.756 19.7795C18.496 20.7591 18.6046 22.1913 18.5192 23.3671C18.4599 23.6551 18.3885 23.9312 18.3002 24.2115C18.1895 24.7239 18.4151 25.0415 18.6818 25.4694C19.5125 26.8734 19.6843 28.4607 19.3209 30.0364C19.0098 31.2471 18.3733 32.5775 17.3017 33.3C17.0637 33.4834 17.0637 33.4834 17.0301 33.7506C17.0311 33.8454 17.0321 33.9402 17.0331 34.0379C17.0331 34.1471 17.0332 34.2564 17.0332 34.3689C17.0355 34.4833 17.0378 34.5976 17.0402 34.7155C17.0407 34.8209 17.0411 34.9264 17.0416 35.035C17.0439 35.4289 17.0502 35.8227 17.056 36.2165C17.0652 37.0972 17.0745 37.9778 17.084 38.8851C19.0081 38.8851 20.9321 38.8851 22.9145 38.8851C22.9199 38.0778 22.9253 37.2705 22.9309 36.4387C22.935 35.8637 22.9392 35.2887 22.9434 34.7137C22.9489 33.968 22.9542 33.2223 22.9591 32.4767C22.9629 31.8865 22.9671 31.2963 22.9716 30.7061C22.974 30.3934 22.9762 30.0808 22.9781 29.7681C22.9801 29.4195 22.9829 29.0709 22.9857 28.7223C22.9863 28.6181 22.9868 28.5139 22.9873 28.4066C22.9882 28.312 22.9891 28.2174 22.99 28.1199C22.9905 28.0374 22.9911 27.9549 22.9917 27.8699C23.0042 27.6727 23.0042 27.6727 23.0939 27.4933C23.3743 27.3998 23.5693 27.3921 23.8634 27.3916C23.9676 27.3912 24.0717 27.3908 24.179 27.3904C24.3505 27.3905 24.3505 27.3905 24.5255 27.3905C24.6471 27.3903 24.7687 27.39 24.8902 27.3896C25.2205 27.3888 25.5507 27.3886 25.881 27.3886C26.1565 27.3885 26.432 27.3882 26.7076 27.3878C27.3574 27.3871 28.0073 27.3869 28.6572 27.387C29.328 27.387 29.9989 27.3861 30.6698 27.3846C31.2455 27.3835 31.8212 27.383 32.3969 27.383C32.7409 27.3831 33.0848 27.3828 33.4288 27.3819C33.7522 27.381 34.0755 27.381 34.3989 27.3816C34.5744 27.3818 34.7499 27.381 34.9254 27.3803C35.0816 27.3808 35.0816 27.3808 35.241 27.3814C35.3317 27.3813 35.4224 27.3813 35.5158 27.3813C35.7415 27.4036 35.7415 27.4036 36.0106 27.583C36.0993 27.849 36.1125 28.0256 36.1145 28.3033C36.1158 28.4431 36.1158 28.4431 36.1171 28.5857C36.1176 28.6879 36.1182 28.7901 36.1187 28.8954C36.1196 29.0031 36.1205 29.1107 36.1214 29.2216C36.1237 29.5168 36.1257 29.812 36.1275 30.1072C36.1294 30.4158 36.1319 30.7243 36.1343 31.0328C36.1388 31.617 36.1428 32.2012 36.1467 32.7854C36.1516 33.5157 36.157 34.246 36.1625 34.9763C36.1722 36.2793 36.1811 37.5822 36.19 38.8851C38.0548 38.8851 39.9197 38.8851 41.841 38.8851C41.841 28.5544 41.841 18.2237 41.841 7.58C33.6712 7.58 25.5014 7.58 17.084 7.58ZM10.0874 14.756C9.99309 14.8226 9.89874 14.8892 9.80153 14.9578C9.02843 15.7137 8.64996 16.5088 8.61862 17.5871C8.62796 18.0294 8.70557 18.3779 8.85863 18.7893C8.96735 19.1057 9.0137 19.3694 8.92135 19.6894C8.75667 19.9444 8.57454 20.1792 8.38701 20.4179C7.81768 21.2202 7.66964 22.2256 7.75526 23.1877C7.83116 23.4934 7.9229 23.7868 8.02681 24.084C8.25371 24.7856 8.25371 24.7856 8.11686 25.077C8.07154 25.1343 8.02621 25.1917 7.97951 25.2508C7.72773 25.5979 7.52068 25.9554 7.32919 26.3384C7.27785 26.4404 7.22651 26.5424 7.17362 26.6474C6.67692 27.7714 6.63803 29.0278 7.03767 30.1843C7.59343 31.587 8.596 32.6595 9.9585 33.3125C10.6228 33.59 11.2493 33.7799 11.9711 33.7722C12.2264 32.1706 12.2264 32.1706 11.7789 30.6691C11.3304 30.0939 10.7619 29.6218 10.1891 29.1756C9.99775 29.0182 9.99775 29.0182 9.90805 28.8388C9.89123 28.5697 9.89123 28.5697 9.90805 28.3006C10.0874 28.1212 10.0874 28.1212 10.3678 28.0707C10.7912 28.1322 10.9459 28.2772 11.2455 28.5679C11.4758 28.7905 11.7251 28.9925 11.9711 29.1976C12.0007 28.3391 12.0303 27.4807 12.0608 26.5963C12.3864 26.5963 12.7121 26.5963 13.0475 26.5963C13.0771 27.4843 13.1067 28.3723 13.1372 29.2873C13.4816 28.9921 13.8025 28.7132 14.1239 28.4015C14.3883 28.1685 14.4657 28.1236 14.8303 28.0707C15.1106 28.1212 15.1106 28.1212 15.29 28.3006C15.3294 28.5998 15.3294 28.5998 15.29 28.9285C15.1006 29.145 15.1006 29.145 14.8387 29.3433C14.7441 29.4204 14.6499 29.4981 14.5561 29.5763C14.5073 29.6168 14.4584 29.6573 14.408 29.699C13.7968 30.2159 13.213 30.7227 13.104 31.5513C13.0503 32.2933 13.1189 33.0378 13.2269 33.7722C14.8008 33.6583 16.0963 32.9408 17.1737 31.7988C18.0397 30.6996 18.4291 29.4189 18.3398 28.0315C18.2014 27.0571 17.8588 26.1706 17.2298 25.4078C17.042 25.1698 16.9561 25.0121 16.9438 24.707C16.9967 24.337 17.1046 24.0626 17.2634 23.7259C17.5658 22.5409 17.3272 21.4001 16.7196 20.3622C16.5898 20.1556 16.4617 19.9651 16.304 19.7788C16.1599 19.5582 16.1659 19.4591 16.2038 19.2017C16.2168 19.102 16.2168 19.102 16.2301 19.0002C16.2767 18.7924 16.2767 18.7924 16.3689 18.5854C16.6394 17.8368 16.5168 16.8537 16.2105 16.1368C15.6842 15.1381 14.8933 14.5455 13.8548 14.1281C12.5372 13.7645 11.1998 13.9511 10.0874 14.756ZM3.28606 21.7718C2.79683 22.4837 2.67103 23.0434 2.73209 23.9053C2.78675 24.0863 2.84555 24.2663 2.91149 24.4435C2.95827 24.7592 2.97579 24.9706 2.80042 25.2455C2.70477 25.3668 2.60815 25.4873 2.51065 25.6071C2.12414 26.1189 1.99632 26.7711 2.0145 27.4036C2.06662 27.6825 2.13401 27.951 2.21282 28.2235C2.23617 28.3081 2.25953 28.3928 2.2836 28.48C2.30834 28.5676 2.33309 28.6553 2.35858 28.7456C2.3788 29.1201 2.24635 29.2833 2.03692 29.59C1.47008 30.4504 1.16917 31.2831 1.33825 32.322C1.5646 33.3592 2.07299 34.1893 2.91149 34.8486C3.60547 35.2767 4.13987 35.4735 4.97458 35.5662C5.00418 34.619 5.03378 33.6718 5.06428 32.6958C5.69217 32.6061 5.69217 32.6061 5.90521 32.6678C6.09491 32.821 6.09746 32.9055 6.14067 33.1443C6.15384 33.3324 6.16283 33.5208 6.16905 33.7092C6.17469 33.8713 6.17469 33.8713 6.18044 34.0368C6.18397 34.1493 6.18749 34.2618 6.19113 34.3777C6.19694 34.5485 6.19694 34.5485 6.20287 34.7228C6.21238 35.004 6.22153 35.2851 6.23037 35.5662C7.32223 35.3691 8.03122 34.9999 8.83165 34.2207C8.72218 33.8923 8.63029 33.8588 8.34391 33.6769C7.00837 32.7643 6.04769 31.4142 5.74473 29.8079C5.47403 28.1088 5.72502 26.6705 6.58917 25.1611C6.63935 25.0985 6.68953 25.036 6.74124 24.9715C6.90318 24.7373 6.85505 24.5589 6.80991 24.2876C6.78173 24.1493 6.75224 24.0112 6.72162 23.8734C6.50716 22.8959 6.59401 22.0153 6.76857 21.0349C5.5535 20.5523 4.1641 20.7057 3.28606 21.7718ZM24.0806 28.5697C24.0806 31.9738 24.0806 35.3779 24.0806 38.8851C25.679 38.8851 27.2774 38.8851 28.9243 38.8851C28.9243 35.481 28.9243 32.0769 28.9243 28.5697C27.3259 28.5697 25.7274 28.5697 24.0806 28.5697ZM30.1801 28.5697C30.1801 31.9738 30.1801 35.3779 30.1801 38.8851C31.749 38.8851 33.3178 38.8851 34.9342 38.8851C34.9342 35.481 34.9342 32.0769 34.9342 28.5697C33.3653 28.5697 31.7965 28.5697 30.1801 28.5697ZM14.9557 34.6345C14.3936 34.817 13.8065 34.9121 13.2269 35.028C13.2269 37.2777 13.2269 39.5274 13.2269 41.8452C13.7005 41.8452 14.1742 41.8452 14.6621 41.8452C14.6655 41.653 14.6688 41.4608 14.6723 41.2628C14.6764 41.077 14.681 40.8912 14.6857 40.7053C14.6886 40.576 14.6912 40.4467 14.6932 40.3174C14.6962 40.1317 14.7009 39.9461 14.7059 39.7604C14.7083 39.6486 14.7106 39.5368 14.713 39.4216C14.7258 39.3334 14.7386 39.2451 14.7518 39.1542C15.0209 38.9748 15.0209 38.9748 15.8282 38.8851C15.8282 37.3755 15.8282 35.8658 15.8282 34.3104C15.547 34.3104 15.2121 34.527 14.9557 34.6345ZM10.0874 34.6692C9.85767 34.9126 9.85767 34.9126 9.71218 35.1083C8.80988 36.1542 7.518 36.5001 6.23037 36.822C6.23037 38.4797 6.23037 40.1373 6.23037 41.8452C8.12482 41.8452 10.0193 41.8452 11.9711 41.8452C11.9711 39.5955 11.9711 37.3459 11.9711 35.028C11.0311 34.8385 11.0311 34.8385 10.0874 34.6692ZM15.8282 40.1409C15.8282 40.7033 15.8282 41.2657 15.8282 41.8452C24.8269 41.8452 33.8255 41.8452 43.0968 41.8452C43.0968 41.2828 43.0968 40.7204 43.0968 40.1409C34.0982 40.1409 25.0995 40.1409 15.8282 40.1409ZM1.2072 43.101C1.2072 43.6634 1.2072 44.2258 1.2072 44.8053C15.5932 44.8053 29.9792 44.8053 44.8011 44.8053C44.8011 44.2428 44.8011 43.6804 44.8011 43.101C30.4151 43.101 16.0291 43.101 1.2072 43.101Z" fill="white"/>
<path d="M32.0226 18.9264C32.1389 18.9251 32.1389 18.9251 32.2576 18.9238C32.3402 18.9248 32.4228 18.9258 32.5079 18.9269C32.5938 18.9268 32.6797 18.9266 32.7682 18.9265C32.9495 18.9266 33.1307 18.9277 33.312 18.9295C33.589 18.9321 33.8658 18.9314 34.1428 18.9302C34.3192 18.9308 34.4956 18.9315 34.6719 18.9325C34.7545 18.9322 34.8371 18.932 34.9223 18.9317C35.0386 18.9334 35.0386 18.9334 35.1572 18.9351C35.2589 18.9359 35.2589 18.9359 35.3626 18.9366C35.6371 18.9842 35.7964 19.0628 36.0118 19.2405C36.0676 19.489 36.0676 19.489 36.067 19.7937C36.0678 19.9078 36.0687 20.0218 36.0695 20.1393C36.0681 20.2639 36.0666 20.3885 36.0651 20.5131C36.0649 20.6408 36.0649 20.7685 36.0651 20.8961C36.0649 21.1637 36.0633 21.4312 36.0604 21.6987C36.0569 22.0417 36.0565 22.3846 36.0572 22.7276C36.0574 22.9912 36.0563 23.2548 36.0548 23.5185C36.0542 23.6449 36.0539 23.7714 36.054 23.8978C36.0538 24.0746 36.0517 24.2513 36.0495 24.428C36.0487 24.5286 36.048 24.6291 36.0472 24.7328C36.0118 24.9812 36.0118 24.9812 35.9013 25.1481C35.6963 25.2803 35.5646 25.285 35.3212 25.2866C35.2359 25.2877 35.1506 25.2889 35.0627 25.29C34.9707 25.2898 34.8788 25.2895 34.7841 25.2892C34.6422 25.2899 34.6422 25.2899 34.4975 25.2907C34.2976 25.2912 34.0976 25.2911 33.8977 25.2904C33.5911 25.2896 33.2847 25.2922 32.9781 25.295C32.784 25.2952 32.5899 25.2951 32.3958 25.2948C32.2579 25.2964 32.2579 25.2964 32.1172 25.2979C32.0319 25.2971 31.9466 25.2962 31.8587 25.2953C31.7836 25.2953 31.7085 25.2953 31.6311 25.2953C31.4371 25.2503 31.4371 25.2503 31.2786 25.1022C31.1386 24.8355 31.1327 24.647 31.1304 24.346C31.1289 24.2358 31.1275 24.1257 31.1261 24.0122C31.1259 23.8923 31.1259 23.7724 31.126 23.6526C31.1254 23.5293 31.1247 23.4059 31.1239 23.2826C31.1227 23.0244 31.1226 22.7663 31.1231 22.5081C31.1236 22.1775 31.1209 21.847 31.1173 21.5164C31.1149 21.2618 31.1147 21.0073 31.115 20.7527C31.1149 20.6308 31.114 20.509 31.1124 20.3871C31.1104 20.2166 31.1116 20.0462 31.1129 19.8757C31.1127 19.7788 31.1125 19.6819 31.1123 19.582C31.168 19.3302 31.168 19.3302 31.3704 19.1195C31.6198 18.9694 31.7371 18.9264 32.0226 18.9264ZM32.4238 20.2272C32.4238 21.5 32.4238 22.7728 32.4238 24.0842C33.2231 24.0842 34.0223 24.0842 34.8457 24.0842C34.8457 22.8114 34.8457 21.5386 34.8457 20.2272C34.0465 20.2272 33.2473 20.2272 32.4238 20.2272Z" fill="white"/>
<path d="M23.6808 18.9351C23.7584 18.934 23.8359 18.9329 23.9158 18.9317C23.9984 18.932 24.081 18.9322 24.1661 18.9325C24.295 18.9318 24.295 18.9318 24.4264 18.9311C24.6077 18.9305 24.7889 18.9306 24.9702 18.9314C25.2472 18.9321 25.524 18.9296 25.801 18.9267C25.9774 18.9266 26.1538 18.9266 26.3301 18.9269C26.4127 18.9259 26.4953 18.9249 26.5805 18.9238C26.6968 18.9251 26.6968 18.9251 26.8154 18.9264C26.9171 18.9264 26.9171 18.9264 27.0208 18.9264C27.3151 18.9923 27.4623 19.1139 27.67 19.3302C27.7258 19.582 27.7258 19.582 27.7252 19.8757C27.726 19.9859 27.7269 20.096 27.7277 20.2095C27.7263 20.3294 27.7248 20.4493 27.7233 20.5692C27.7231 20.6925 27.7231 20.8158 27.7233 20.9391C27.7231 21.1973 27.7215 21.4554 27.7186 21.7136C27.7151 22.0442 27.7147 22.3747 27.7154 22.7053C27.7156 22.9599 27.7145 23.2144 27.713 23.469C27.7124 23.5909 27.7121 23.7128 27.7122 23.8346C27.712 24.0051 27.7099 24.1755 27.7077 24.346C27.7069 24.4429 27.7062 24.5398 27.7054 24.6397C27.665 24.9273 27.6128 25.0524 27.4009 25.2503C27.2069 25.2953 27.2069 25.2953 26.9794 25.2953C26.8941 25.2962 26.8088 25.297 26.7209 25.2979C26.583 25.2964 26.583 25.2964 26.4423 25.2948C26.3004 25.295 26.3004 25.295 26.1557 25.2952C25.9558 25.2951 25.7558 25.294 25.5559 25.2922C25.2493 25.2896 24.9429 25.2903 24.6364 25.2915C24.4422 25.291 24.2481 25.2902 24.054 25.2892C23.9161 25.2896 23.9161 25.2896 23.7754 25.29C23.6901 25.2889 23.6048 25.2878 23.5169 25.2866C23.4042 25.2859 23.4042 25.2859 23.2893 25.2851C23.0953 25.2503 23.0953 25.2503 22.9368 25.1481C22.7764 24.9061 22.7907 24.7169 22.7886 24.428C22.7872 24.3139 22.7857 24.1999 22.7843 24.0824C22.7841 23.9578 22.7841 23.8332 22.7842 23.7086C22.7836 23.581 22.7829 23.4533 22.7821 23.3256C22.7809 23.0581 22.7808 22.7905 22.7813 22.523C22.7818 22.18 22.7791 21.8371 22.7755 21.4941C22.7731 21.2305 22.7729 20.9669 22.7732 20.7032C22.7731 20.5768 22.7722 20.4503 22.7706 20.3239C22.7686 20.1472 22.7698 19.9704 22.7711 19.7937C22.7709 19.6932 22.7707 19.5926 22.7705 19.489C22.8262 19.2405 22.8262 19.2405 23.0286 19.0736C23.2681 18.9741 23.424 18.937 23.6808 18.9351ZM23.9923 20.2272C23.9923 21.5 23.9923 22.7728 23.9923 24.0842C24.7916 24.0842 25.5908 24.0842 26.4142 24.0842C26.4142 22.8114 26.4142 21.5386 26.4142 20.2272C25.615 20.2272 24.8158 20.2272 23.9923 20.2272Z" fill="white"/>
<path d="M31.8583 10.6744C31.9437 10.6736 32.029 10.6727 32.1169 10.6719C32.2088 10.6729 32.3008 10.6739 32.3955 10.6749C32.5373 10.6747 32.5373 10.6747 32.682 10.6745C32.882 10.6747 33.0819 10.6757 33.2819 10.6776C33.5884 10.6802 33.8948 10.6794 34.2014 10.6783C34.3955 10.6788 34.5896 10.6796 34.7837 10.6805C34.8757 10.6803 34.9676 10.68 35.0624 10.6797C35.1477 10.6809 35.233 10.682 35.3209 10.6832C35.4335 10.6839 35.4335 10.6839 35.5484 10.6847C35.7424 10.7194 35.7424 10.7194 35.9012 10.8222C36.0605 11.0624 36.0451 11.2467 36.0449 11.5336C36.0457 11.7019 36.0457 11.7019 36.0466 11.8737C36.0458 11.9963 36.045 12.1189 36.0441 12.2415C36.044 12.3672 36.0441 12.4929 36.0442 12.6185C36.0442 12.8818 36.0433 13.1451 36.0417 13.4084C36.0396 13.746 36.0396 14.0835 36.0402 14.421C36.0405 14.6805 36.0399 14.94 36.039 15.1994C36.0387 15.3239 36.0385 15.4484 36.0387 15.5728C36.0387 15.7467 36.0375 15.9206 36.0361 16.0946C36.0357 16.1935 36.0353 16.2925 36.0349 16.3945C36.0115 16.6396 36.0115 16.6396 35.8321 16.9087C35.5867 16.9905 35.4384 17.0105 35.1855 17.0128C35.1097 17.0137 35.034 17.0146 34.9559 17.0155C34.8744 17.0158 34.7928 17.0162 34.7088 17.0166C34.5825 17.0174 34.5825 17.0174 34.4537 17.0182C34.2756 17.019 34.0975 17.0196 33.9194 17.0199C33.6473 17.0208 33.3753 17.0236 33.1033 17.0264C32.9302 17.027 32.7571 17.0275 32.584 17.0278C32.4622 17.0295 32.4622 17.0295 32.3379 17.0312C31.9054 17.0297 31.6061 17.0161 31.2574 16.7293C31.1372 16.4888 31.155 16.3022 31.1533 16.0329C31.1524 15.9246 31.1516 15.8162 31.1507 15.7045C31.1503 15.5869 31.1499 15.4693 31.1495 15.3481C31.149 15.2265 31.1485 15.1049 31.148 14.9834C31.147 14.7284 31.1465 14.4733 31.1462 14.2183C31.1457 13.8917 31.1435 13.5652 31.141 13.2386C31.1393 12.9875 31.1388 12.7363 31.1387 12.4851C31.1383 12.3063 31.1366 12.1274 31.1349 11.9485C31.1352 11.8396 31.1355 11.7306 31.1358 11.6184C31.1354 11.5225 31.1351 11.4267 31.1348 11.3279C31.1976 10.852 31.3837 10.6745 31.8583 10.6744ZM32.4235 11.8855C32.4235 13.1584 32.4235 14.4312 32.4235 15.7426C33.2227 15.7426 34.022 15.7426 34.8454 15.7426C34.8454 14.4698 34.8454 13.1969 34.8454 11.8855C34.0462 11.8855 33.247 11.8855 32.4235 11.8855Z" fill="white"/>
<path d="M23.5146 10.6832C23.5999 10.682 23.6852 10.6809 23.7731 10.6797C23.8651 10.68 23.957 10.6803 24.0517 10.6805C24.1463 10.6801 24.2408 10.6796 24.3382 10.6791C24.5382 10.6785 24.7382 10.6787 24.9381 10.6794C25.2447 10.6802 25.5511 10.6776 25.8576 10.6748C26.0518 10.6746 26.2459 10.6747 26.44 10.6749C26.5779 10.6734 26.5779 10.6734 26.7186 10.6719C26.8466 10.6731 26.8466 10.6731 26.9771 10.6744C27.0522 10.6744 27.1273 10.6745 27.2046 10.6745C27.3986 10.7194 27.3986 10.7194 27.5574 10.8681C27.6964 11.1328 27.7019 11.3168 27.7026 11.6155C27.7034 11.7239 27.7043 11.8323 27.7051 11.9439C27.7046 12.0606 27.704 12.1773 27.7035 12.2976C27.7037 12.4189 27.7039 12.5402 27.7043 12.6615C27.7047 12.9154 27.7041 13.1694 27.7028 13.4233C27.7013 13.7485 27.7022 14.0736 27.7038 14.3988C27.7048 14.6492 27.7045 14.8996 27.7038 15.15C27.7035 15.328 27.7043 15.5061 27.7051 15.6842C27.7043 15.7926 27.7034 15.9009 27.7026 16.0126C27.7024 16.1079 27.7021 16.2032 27.7019 16.3014C27.663 16.5846 27.5979 16.7064 27.3986 16.9087C27.1522 16.9908 27.0047 17.0101 26.7506 17.0114C26.6746 17.012 26.5985 17.0126 26.5202 17.0132C26.4383 17.0133 26.3565 17.0134 26.2722 17.0135C26.1878 17.0138 26.1034 17.0141 26.0165 17.0144C25.838 17.0148 25.6595 17.015 25.481 17.015C25.208 17.0152 24.935 17.0168 24.6619 17.0185C24.4886 17.0188 24.3152 17.019 24.1418 17.0191C24.0601 17.0197 23.9784 17.0204 23.8943 17.021C23.818 17.0207 23.7416 17.0205 23.663 17.0202C23.5961 17.0203 23.5292 17.0204 23.4602 17.0206C23.2425 16.9948 23.0995 16.9342 22.9137 16.819C22.7913 16.5742 22.8112 16.3787 22.8095 16.1047C22.8082 15.9364 22.8082 15.9364 22.8069 15.7646C22.8065 15.6415 22.8061 15.5184 22.8058 15.3954C22.8052 15.2696 22.8047 15.1438 22.8042 15.018C22.8033 14.7541 22.8027 14.4903 22.8024 14.2264C22.8019 13.8882 22.7998 13.55 22.7972 13.2118C22.7956 12.9519 22.7951 12.692 22.795 12.4322C22.7947 12.3075 22.794 12.1828 22.7928 12.058C22.7913 11.8837 22.7916 11.7093 22.792 11.535C22.7917 11.4357 22.7914 11.3365 22.791 11.2342C22.824 10.9885 22.824 10.9885 22.9342 10.8221C23.1394 10.6895 23.2708 10.6848 23.5146 10.6832ZM23.9901 11.8855C23.9901 13.1584 23.9901 14.4312 23.9901 15.7426C24.7893 15.7426 25.5885 15.7426 26.412 15.7426C26.412 14.4698 26.412 13.1969 26.412 11.8855C25.6127 11.8855 24.8135 11.8855 23.9901 11.8855Z" fill="white"/>
</svg>
