<svg width="47" height="39" viewBox="0 0 47 39" fill="none" xmlns="http://www.w3.org/2000/svg">
<path d="M18.4154 0.010986C18.5383 0.01059 18.6612 0.0101184 18.7841 0.00957773C19.1157 0.0083673 19.4473 0.00830678 19.7789 0.0085378C20.0569 0.00863557 20.3348 0.00818972 20.6127 0.00775531C21.2691 0.00674884 21.9255 0.00670527 22.5818 0.00725649C23.2564 0.00780523 23.9309 0.00668683 24.6055 0.00474956C25.1869 0.00314184 25.7684 0.00260297 26.3498 0.00289803C26.6961 0.00306198 27.0423 0.00283214 27.3885 0.00156004C27.7145 0.000407099 28.0405 0.000601645 28.3664 0.00177926C28.5413 0.00209301 28.7161 0.00107567 28.8909 0C30.1875 0.00775066 31.2435 0.303939 32.2199 1.17258C32.9365 1.92004 33.3157 2.88992 33.311 3.91076C33.3107 4.02417 33.3104 4.13757 33.3101 4.25441C33.3093 4.37204 33.3085 4.48966 33.3077 4.61085C33.3073 4.73023 33.3069 4.84961 33.3065 4.97261C33.3054 5.2669 33.3039 5.56117 33.302 5.85545C33.354 5.8552 33.4059 5.85494 33.4594 5.85468C34.7273 5.84864 35.9952 5.84416 37.2631 5.84131C37.8763 5.83991 38.4894 5.83797 39.1026 5.83487C39.6948 5.83189 40.287 5.83027 40.8792 5.82956C41.1047 5.82906 41.3301 5.82808 41.5556 5.8266C41.8724 5.82461 42.1892 5.82435 42.506 5.82448C42.5983 5.8235 42.6907 5.82252 42.7858 5.82151C43.9951 5.82668 45.0548 6.21039 45.9513 7.02368C46.7731 7.93719 46.9796 8.85913 46.9763 10.0387C46.9768 10.1484 46.9772 10.2582 46.9776 10.3712C46.9786 10.6747 46.9787 10.9782 46.9785 11.2817C46.9784 11.6095 46.9795 11.9373 46.9803 12.2651C46.9818 12.9069 46.9824 13.5486 46.9825 14.1904C46.9825 14.7123 46.9829 15.2341 46.9835 15.756C46.9851 17.2366 46.986 18.7172 46.9858 20.1978C46.9858 20.3174 46.9858 20.3174 46.9858 20.4395C46.9858 20.5194 46.9858 20.5992 46.9858 20.6815C46.9857 21.9756 46.9875 23.2696 46.99 24.5637C46.9927 25.8934 46.9939 27.2232 46.9938 28.5529C46.9937 29.299 46.9942 30.0452 46.9962 30.7913C46.9979 31.4266 46.9983 32.062 46.997 32.6973C46.9964 33.0212 46.9964 33.3451 46.998 33.6689C46.9997 34.0208 46.9986 34.3725 46.9971 34.7244C46.9981 34.8257 46.999 34.9271 47 35.0316C46.9895 36.2219 46.5358 37.1943 45.6808 38.0306C44.8793 38.6787 43.9008 38.9682 42.8826 38.966C42.8147 38.9662 42.7468 38.9664 42.6768 38.9666C42.4485 38.9672 42.2202 38.9672 41.9919 38.9672C41.8269 38.9675 41.6618 38.9678 41.4968 38.9682C41.0426 38.9691 40.5884 38.9694 40.1343 38.9697C39.6447 38.97 39.1551 38.9709 38.6655 38.9717C37.4828 38.9735 36.3001 38.9744 35.1174 38.9752C34.5604 38.9756 34.0034 38.9761 33.4464 38.9766C31.5947 38.9781 29.7431 38.9794 27.8914 38.9801C27.4109 38.9803 26.9304 38.9804 26.4499 38.9806C26.2708 38.9807 26.2708 38.9807 26.088 38.9807C24.1535 38.9815 22.219 38.9838 20.2844 38.9868C18.2982 38.9898 16.3119 38.9914 14.3257 38.9917C13.2105 38.9919 12.0953 38.9927 10.9802 38.995C10.0304 38.997 9.0807 38.9977 8.13095 38.9968C7.64655 38.9964 7.16217 38.9966 6.67777 38.9984C6.23381 39 5.78988 38.9999 5.34592 38.9985C5.18581 38.9982 5.0257 38.9986 4.86559 38.9997C3.49806 39.0084 2.21496 38.8247 1.15062 37.8861C0.511243 37.2182 0.0373106 36.3298 0.0354313 35.3999C0.035023 35.306 0.0346136 35.2121 0.0341928 35.1154C0.0342097 35.0125 0.0342272 34.9095 0.0342446 34.8034C0.0337393 34.6391 0.0337396 34.6391 0.0332241 34.4715C0.0323887 34.1674 0.031966 33.8633 0.0317228 33.5591C0.031365 33.2312 0.0304872 32.9032 0.0296876 32.5752C0.0278778 31.7831 0.026955 30.9909 0.0261398 30.1987C0.0257381 29.8255 0.025247 29.4523 0.0247671 29.0791C0.0232087 27.8381 0.0218802 26.5972 0.0212166 25.3562C0.0210416 25.0343 0.020866 24.7123 0.0206868 24.3903C0.0206425 24.3103 0.0205983 24.2302 0.0205526 24.1478C0.0197925 22.852 0.0174717 21.5561 0.0144957 20.2603C0.011464 18.9293 0.00981611 17.5984 0.00952356 16.2674C0.00932541 15.5204 0.00852603 14.7733 0.0061827 14.0263C0.00419123 13.3899 0.00345791 12.7536 0.00434732 12.1172C0.00476283 11.7928 0.00459548 11.4684 0.00281248 11.144C0.000892394 10.7915 0.00183983 10.4391 0.00304452 10.0867C0.00203963 9.98512 0.00103534 9.88356 0 9.77892C0.00870938 8.72058 0.356392 7.83792 1.05543 7.03753C2.06696 6.09491 3.11457 5.82525 4.47274 5.8348C4.62304 5.83476 4.62304 5.83476 4.77636 5.83472C5.10499 5.83485 5.43361 5.83626 5.76223 5.83769C5.99109 5.83803 6.21995 5.83829 6.44881 5.83847C6.98801 5.83909 7.52721 5.84052 8.06641 5.84235C8.74114 5.84459 9.41587 5.84556 10.0906 5.84657C11.2929 5.84851 12.4952 5.85158 13.6976 5.85545C13.6954 5.7469 13.6954 5.7469 13.6932 5.63616C13.6874 5.30387 13.6839 4.97159 13.6804 4.63927C13.6781 4.52545 13.6758 4.41164 13.6734 4.29437C13.6634 3.03091 13.986 2.04664 14.8541 1.10438C15.8711 0.150927 17.0817 0.00833939 18.4154 0.010986ZM16.3657 2.54789C16.2998 2.60532 16.2339 2.66276 16.166 2.72193C15.4241 3.65347 15.713 4.68702 15.713 5.85545C20.8523 5.85545 25.9916 5.85545 31.2866 5.85545C31.431 4.17025 31.431 4.17025 30.8336 2.72193C30.7347 2.63578 30.7347 2.63578 30.6339 2.54789C30.5694 2.48905 30.5049 2.4302 30.4385 2.36958C29.7683 1.9659 28.9655 2.01022 28.2059 2.01288C28.0361 2.0124 28.0361 2.0124 27.8629 2.01191C27.5548 2.01125 27.2467 2.0114 26.9385 2.01198C26.6147 2.01244 26.2908 2.01201 25.967 2.01173C25.4233 2.0114 24.8797 2.01183 24.336 2.0127C23.7092 2.01369 23.0824 2.01337 22.4556 2.01237C21.9156 2.01154 21.3755 2.01143 20.8355 2.0119C20.5138 2.01218 20.1921 2.01223 19.8704 2.01162C19.5115 2.011 19.1526 2.01187 18.7937 2.01288C18.6883 2.01251 18.5829 2.01214 18.4743 2.01176C17.3332 2.01411 17.3332 2.01411 16.3657 2.54789ZM2.42958 8.58333C2.15615 8.96703 2.05233 9.29946 2.05027 9.76564C2.04975 9.83714 2.04923 9.90864 2.04869 9.98231C2.04858 10.0599 2.04848 10.1375 2.04838 10.2175C2.04792 10.2999 2.04747 10.3823 2.047 10.4672C2.04566 10.7397 2.04504 11.0121 2.04453 11.2846C2.044 11.4742 2.04348 11.6638 2.04295 11.8533C2.04199 12.2509 2.04145 12.6484 2.04113 13.046C2.04063 13.5548 2.03843 14.0635 2.03582 14.5723C2.03411 14.964 2.03364 15.3557 2.0335 15.7473C2.03322 15.9349 2.03249 16.1224 2.03128 16.3099C2.02971 16.5726 2.02989 16.8353 2.03048 17.098C2.02964 17.175 2.0288 17.2521 2.02793 17.3315C2.03269 18.0064 2.21063 18.5501 2.70441 19.0402C3.30573 19.4126 3.8389 19.5063 4.54513 19.5058C4.60949 19.5059 4.67385 19.506 4.74016 19.506C4.95523 19.5062 5.17029 19.5057 5.38535 19.5052C5.53975 19.5052 5.69416 19.5052 5.84856 19.5052C6.26739 19.5053 6.68621 19.5047 7.10504 19.5041C7.54287 19.5035 7.9807 19.5035 8.41853 19.5034C9.24747 19.5031 10.0764 19.5023 10.9053 19.5014C11.8491 19.5004 12.7929 19.4999 13.7367 19.4994C15.678 19.4985 17.6193 19.4969 19.5606 19.4949C19.5619 19.4017 19.5632 19.3085 19.5645 19.2125C19.5688 19.0888 19.5732 18.965 19.5777 18.8413C19.5785 18.7494 19.5785 18.7494 19.5794 18.6557C19.5952 18.2987 19.6421 18.143 19.8744 17.8649C20.2383 17.5739 20.4295 17.573 20.8942 17.5693C20.9559 17.5687 21.0176 17.5681 21.0811 17.5674C21.2857 17.5656 21.4902 17.5646 21.6948 17.5637C21.7647 17.5633 21.8346 17.5629 21.9066 17.5626C22.2767 17.5607 22.6468 17.5594 23.0169 17.5585C23.3986 17.5575 23.7804 17.5544 24.1621 17.5508C24.4561 17.5484 24.75 17.5476 25.0439 17.5473C25.1846 17.5469 25.3253 17.5458 25.466 17.5441C25.6634 17.5419 25.8606 17.542 26.058 17.5426C26.1701 17.5421 26.2823 17.5415 26.3978 17.541C26.7673 17.5941 26.9664 17.7193 27.2558 17.9491C27.3951 18.2257 27.3817 18.5201 27.3989 18.8243C27.4029 18.8885 27.4068 18.9527 27.4109 19.0189C27.4206 19.1775 27.4299 19.3362 27.439 19.4949C29.4657 19.5012 31.4923 19.5061 33.519 19.509C34.4601 19.5104 35.4012 19.5123 36.3422 19.5154C37.1627 19.5182 37.9831 19.5199 38.8036 19.5205C39.2378 19.5209 39.672 19.5217 40.1062 19.5237C40.5154 19.5256 40.9246 19.5261 41.3338 19.5257C41.4835 19.5258 41.6332 19.5263 41.7829 19.5274C43.1336 19.5519 43.1336 19.5519 44.3352 19.0061C44.759 18.5753 44.9467 18.1834 44.9493 17.5851C44.9498 17.5136 44.9503 17.4421 44.9509 17.3685C44.951 17.2908 44.9511 17.2132 44.9512 17.1333C44.9517 17.0509 44.9521 16.9685 44.9526 16.8836C44.9539 16.6111 44.9545 16.3386 44.955 16.0662C44.9556 15.8766 44.9561 15.687 44.9566 15.4974C44.9576 15.0999 44.9581 14.7023 44.9584 14.3048C44.9589 13.796 44.9611 13.2872 44.9638 12.7784C44.9655 12.3868 44.9659 11.9951 44.9661 11.6034C44.9664 11.4159 44.9671 11.2283 44.9683 11.0408C44.9699 10.7781 44.9697 10.5155 44.9691 10.2528C44.9699 10.1757 44.9708 10.0987 44.9716 10.0193C44.9669 9.34437 44.7889 8.80065 44.2952 8.31054C43.6881 7.93458 43.1509 7.84463 42.4381 7.84394C42.3716 7.84376 42.3052 7.84357 42.2367 7.84338C42.0134 7.84286 41.7901 7.843 41.5668 7.84312C41.4053 7.84289 41.2439 7.84262 41.0824 7.84231C40.6381 7.84157 40.1939 7.84141 39.7497 7.84134C39.2707 7.84117 38.7918 7.84049 38.3129 7.83988C37.2655 7.83864 36.218 7.83809 35.1705 7.83769C34.5166 7.83744 33.8626 7.83706 33.2087 7.83665C31.3983 7.83554 29.5879 7.8346 27.7775 7.83429C27.6616 7.83427 27.5457 7.83425 27.4263 7.83423C27.2521 7.8342 27.2521 7.8342 27.0743 7.83417C26.8389 7.83413 26.6035 7.83409 26.3682 7.83405C26.2514 7.83403 26.1346 7.83401 26.0143 7.83399C24.1223 7.83363 22.2302 7.83204 20.3382 7.82993C18.3959 7.82777 16.4536 7.82664 14.5114 7.82653C13.4208 7.82645 12.3301 7.82592 11.2395 7.82427C10.3109 7.82287 9.38219 7.82241 8.45353 7.82316C7.97974 7.82351 7.50596 7.82343 7.03218 7.82215C6.59823 7.821 6.16431 7.8211 5.73037 7.82221C5.57359 7.82239 5.41682 7.8221 5.26005 7.82131C3.70957 7.80516 3.70957 7.80516 2.42958 8.58333ZM21.576 19.4949C21.576 20.7551 21.576 22.0154 21.576 23.3139C22.8457 23.3139 24.1154 23.3139 25.4236 23.3139C25.4236 22.0536 25.4236 20.7933 25.4236 19.4949C24.1539 19.4949 22.8842 19.4949 21.576 19.4949ZM2.06314 21.0407C2.05672 22.9029 2.05187 24.7651 2.0489 26.6273C2.04748 27.492 2.04555 28.3567 2.04241 29.2213C2.03966 29.975 2.03789 30.7288 2.03728 31.4825C2.03692 31.8815 2.03608 32.2805 2.03408 32.6795C2.03221 33.0553 2.03164 33.4311 2.03205 33.8069C2.03198 33.9446 2.03143 34.0823 2.03038 34.22C2.029 34.4085 2.02934 34.597 2.03009 34.7856C2.02984 34.8909 2.02958 34.9963 2.02932 35.1048C2.08975 35.6457 2.31433 36.1115 2.70441 36.4987C3.31146 36.8746 3.84869 36.9646 4.56147 36.9653C4.62793 36.9655 4.69438 36.9656 4.76285 36.9658C4.98616 36.9664 5.20946 36.9662 5.43277 36.9661C5.59424 36.9663 5.75571 36.9666 5.91718 36.9669C6.36142 36.9676 6.80566 36.9678 7.2499 36.9679C7.72882 36.968 8.20774 36.9687 8.68666 36.9693C9.73412 36.9706 10.7816 36.9711 11.829 36.9715C12.483 36.9718 13.1369 36.9722 13.7909 36.9726C15.6013 36.9737 17.4117 36.9746 19.2221 36.9749C19.3959 36.975 19.3959 36.975 19.5733 36.975C19.6894 36.975 19.8056 36.975 19.9253 36.975C20.1606 36.9751 20.396 36.9751 20.6314 36.9752C20.7482 36.9752 20.8649 36.9752 20.9852 36.9752C22.8773 36.9756 24.7693 36.9772 26.6614 36.9793C28.6037 36.9814 30.5459 36.9826 32.4882 36.9827C33.5788 36.9828 34.6694 36.9833 35.7601 36.9849C36.6887 36.9863 37.6174 36.9868 38.546 36.9861C39.0198 36.9857 39.4936 36.9858 39.9674 36.9871C40.4013 36.9882 40.8353 36.9881 41.2692 36.987C41.426 36.9868 41.5828 36.9871 41.7395 36.9879C43.0679 36.9992 43.0679 36.9992 44.2837 36.5157C44.8151 35.9728 44.948 35.5538 44.9474 34.8184C44.9475 34.7594 44.9476 34.7004 44.9477 34.6396C44.9478 34.4422 44.9473 34.2448 44.9468 34.0474C44.9468 33.9058 44.9468 33.7642 44.9469 33.6226C44.9469 33.2383 44.9464 32.8539 44.9457 32.4696C44.9451 32.0679 44.9451 31.6662 44.945 31.2645C44.9447 30.5039 44.944 29.7432 44.943 28.9826C44.942 28.1166 44.9415 27.2507 44.941 26.3847C44.9401 24.6033 44.9385 22.822 44.9364 21.0407C44.8756 21.0593 44.8148 21.0779 44.7521 21.0971C44.6308 21.1339 44.6308 21.1339 44.507 21.1714C44.4273 21.1956 44.3476 21.2199 44.2655 21.2449C43.7988 21.3754 43.3812 21.4164 42.8951 21.4188C42.7958 21.4194 42.7958 21.4194 42.6944 21.4201C42.473 21.4215 42.2516 21.4223 42.0302 21.4231C41.8713 21.4239 41.7124 21.4248 41.5535 21.4258C41.1223 21.4282 40.6912 21.4302 40.2601 21.432C39.8094 21.434 39.3588 21.4364 38.9081 21.4389C38.0548 21.4434 37.2015 21.4475 36.3483 21.4514C35.3768 21.4559 34.4053 21.4609 33.4338 21.466C31.4356 21.4763 29.4373 21.486 27.439 21.4953C27.4377 21.5893 27.4363 21.6834 27.435 21.7802C27.4296 22.1302 27.4226 22.4801 27.415 22.8301C27.4119 22.9813 27.4093 23.1326 27.4073 23.2838C27.4042 23.5017 27.3994 23.7194 27.3943 23.9373C27.3937 24.0045 27.3931 24.0718 27.3925 24.1411C27.381 24.5454 27.324 24.8107 27.0726 25.1325C26.8009 25.2673 26.5552 25.2372 26.2521 25.2395C26.1865 25.2401 26.1209 25.2407 26.0534 25.2413C25.8361 25.2431 25.6187 25.2442 25.4014 25.2451C25.3272 25.2455 25.2531 25.2458 25.1767 25.2462C24.7842 25.2481 24.3918 25.2494 23.9993 25.2503C23.5937 25.2513 23.1881 25.2544 22.7825 25.258C22.4708 25.2604 22.1591 25.2611 21.8474 25.2615C21.6979 25.2619 21.5484 25.263 21.3988 25.2647C21.1896 25.2669 20.9805 25.2668 20.7712 25.2662C20.6522 25.2667 20.5331 25.2672 20.4104 25.2678C20.0601 25.216 19.9565 25.1342 19.7438 24.8597C19.6013 24.5769 19.6301 24.2747 19.6232 23.9639C19.6213 23.8935 19.6194 23.8231 19.6174 23.7506C19.6114 23.5255 19.606 23.3004 19.6007 23.0752C19.5967 22.9227 19.5927 22.7702 19.5887 22.6177C19.5788 22.2436 19.5696 21.8695 19.5606 21.4953C19.4786 21.4952 19.3966 21.495 19.3121 21.4949C17.3133 21.4915 15.3144 21.4862 13.3156 21.4786C12.349 21.475 11.3824 21.472 10.4157 21.4707C9.57283 21.4695 8.72993 21.467 7.88703 21.4631C7.44107 21.461 6.99513 21.4596 6.54917 21.4597C6.1286 21.4597 5.70808 21.4581 5.28753 21.4552C5.13395 21.4544 4.98037 21.4543 4.82679 21.4548C3.98221 21.4572 3.27024 21.4033 2.46798 21.1185C2.25675 21.0306 2.25675 21.0306 2.06314 21.0407Z" fill="white"/>
</svg>
