<svg width="46" height="46" viewBox="0 0 46 46" fill="none" xmlns="http://www.w3.org/2000/svg">
<path d="M0 0C15.18 0 30.36 0 46 0C46 2.09379 46 4.18759 46 6.34483C44.9531 6.34483 43.9062 6.34483 42.8276 6.34483C42.8276 19.431 42.8276 32.5172 42.8276 46C29.7414 46 16.6552 46 3.17241 46C3.17241 32.9138 3.17241 19.8276 3.17241 6.34483C2.12552 6.34483 1.07862 6.34483 0 6.34483C0 4.25103 0 2.15724 0 0ZM1.58621 1.58621C1.58621 2.6331 1.58621 3.68 1.58621 4.75862C15.7193 4.75862 29.8524 4.75862 44.4138 4.75862C44.4138 3.71172 44.4138 2.66483 44.4138 1.58621C30.2807 1.58621 16.1476 1.58621 1.58621 1.58621ZM4.75862 6.34483C4.75862 18.9076 4.75862 31.4703 4.75862 44.4138C8.42276 44.4138 12.0869 44.4138 15.8621 44.4138C15.8621 41.2404 15.8621 38.067 15.8621 34.7974C20.5731 34.7974 25.2841 34.7974 30.1379 34.7974C30.1379 37.9708 30.1379 41.1442 30.1379 44.4138C33.8021 44.4138 37.4662 44.4138 41.2414 44.4138C41.2414 31.851 41.2414 19.2883 41.2414 6.34483C29.2021 6.34483 17.1628 6.34483 4.75862 6.34483ZM17.4483 36.4828C17.4483 39.0673 17.4483 41.6518 17.4483 44.3147C19.0186 44.3147 20.589 44.3147 22.2069 44.3147C22.2069 41.7301 22.2069 39.1456 22.2069 36.4828C20.6366 36.4828 19.0662 36.4828 17.4483 36.4828ZM23.7931 36.4828C23.7931 39.0673 23.7931 41.6518 23.7931 44.3147C25.3634 44.3147 26.9338 44.3147 28.5517 44.3147C28.5517 41.7301 28.5517 39.1456 28.5517 36.4828C26.9814 36.4828 25.411 36.4828 23.7931 36.4828Z" fill="white"/>
<path d="M30.1367 22.209C32.754 22.209 35.3712 22.209 38.0678 22.209C38.0678 25.3497 38.0678 28.4904 38.0678 31.7262C35.4505 31.7262 32.8333 31.7262 30.1367 31.7262C30.1367 28.5855 30.1367 25.4448 30.1367 22.209ZM31.7229 23.7952C31.7229 24.3186 31.7229 24.8421 31.7229 25.3814C33.2933 25.3814 34.8636 25.3814 36.4815 25.3814C36.4815 24.8579 36.4815 24.3345 36.4815 23.7952C34.9112 23.7952 33.3409 23.7952 31.7229 23.7952ZM31.7229 26.9676C31.7229 28.0145 31.7229 29.0614 31.7229 30.14C33.2933 30.14 34.8636 30.14 36.4815 30.14C36.4815 29.0931 36.4815 28.0462 36.4815 26.9676C34.9112 26.9676 33.3409 26.9676 31.7229 26.9676Z" fill="white"/>
<path d="M19.0332 22.209C21.6504 22.209 24.2677 22.209 26.9642 22.209C26.9642 25.3497 26.9642 28.4904 26.9642 31.7262C24.347 31.7262 21.7298 31.7262 19.0332 31.7262C19.0332 28.5855 19.0332 25.4448 19.0332 22.209ZM20.6194 23.7952C20.6194 24.3186 20.6194 24.8421 20.6194 25.3814C22.1898 25.3814 23.7601 25.3814 25.378 25.3814C25.378 24.8579 25.378 24.3345 25.378 23.7952C23.8077 23.7952 22.2373 23.7952 20.6194 23.7952ZM20.6194 26.9676C20.6194 28.0145 20.6194 29.0614 20.6194 30.14C22.1898 30.14 23.7601 30.14 25.378 30.14C25.378 29.0931 25.378 28.0462 25.378 26.9676C23.8077 26.9676 22.2373 26.9676 20.6194 26.9676Z" fill="white"/>
<path d="M7.92969 22.209C10.5469 22.209 13.1642 22.209 15.8607 22.209C15.8607 25.3497 15.8607 28.4904 15.8607 31.7262C13.2435 31.7262 10.6262 31.7262 7.92969 31.7262C7.92969 28.5855 7.92969 25.4448 7.92969 22.209ZM9.51589 23.7952C9.51589 24.3186 9.51589 24.8421 9.51589 25.3814C11.0862 25.3814 12.6566 25.3814 14.2745 25.3814C14.2745 24.8579 14.2745 24.3345 14.2745 23.7952C12.7042 23.7952 11.1338 23.7952 9.51589 23.7952ZM9.51589 26.9676C9.51589 28.0145 9.51589 29.0614 9.51589 30.14C11.0862 30.14 12.6566 30.14 14.2745 30.14C14.2745 29.0931 14.2745 28.0462 14.2745 26.9676C12.7042 26.9676 11.1338 26.9676 9.51589 26.9676Z" fill="white"/>
<path d="M30.1367 9.51562C32.754 9.51562 35.3712 9.51562 38.0678 9.51562C38.0678 12.6563 38.0678 15.797 38.0678 19.0329C35.4505 19.0329 32.8333 19.0329 30.1367 19.0329C30.1367 15.8922 30.1367 12.7515 30.1367 9.51562ZM31.7229 11.1018C31.7229 11.6253 31.7229 12.1487 31.7229 12.688C33.2933 12.688 34.8636 12.688 36.4815 12.688C36.4815 12.1646 36.4815 11.6411 36.4815 11.1018C34.9112 11.1018 33.3409 11.1018 31.7229 11.1018ZM31.7229 14.2742C31.7229 15.3211 31.7229 16.368 31.7229 17.4467C33.2933 17.4467 34.8636 17.4467 36.4815 17.4467C36.4815 16.3998 36.4815 15.3529 36.4815 14.2742C34.9112 14.2742 33.3409 14.2742 31.7229 14.2742Z" fill="white"/>
<path d="M19.0332 9.51562C21.6504 9.51562 24.2677 9.51562 26.9642 9.51562C26.9642 12.6563 26.9642 15.797 26.9642 19.0329C24.347 19.0329 21.7298 19.0329 19.0332 19.0329C19.0332 15.8922 19.0332 12.7515 19.0332 9.51562ZM20.6194 11.1018C20.6194 11.6253 20.6194 12.1487 20.6194 12.688C22.1898 12.688 23.7601 12.688 25.378 12.688C25.378 12.1646 25.378 11.6411 25.378 11.1018C23.8077 11.1018 22.2373 11.1018 20.6194 11.1018ZM20.6194 14.2742C20.6194 15.3211 20.6194 16.368 20.6194 17.4467C22.1898 17.4467 23.7601 17.4467 25.378 17.4467C25.378 16.3998 25.378 15.3529 25.378 14.2742C23.8077 14.2742 22.2373 14.2742 20.6194 14.2742Z" fill="white"/>
<path d="M7.92969 9.51562C10.5469 9.51562 13.1642 9.51562 15.8607 9.51562C15.8607 12.6563 15.8607 15.797 15.8607 19.0329C13.2435 19.0329 10.6262 19.0329 7.92969 19.0329C7.92969 15.8922 7.92969 12.7515 7.92969 9.51562ZM9.51589 11.1018C9.51589 11.6253 9.51589 12.1487 9.51589 12.688C11.0862 12.688 12.6566 12.688 14.2745 12.688C14.2745 12.1646 14.2745 11.6411 14.2745 11.1018C12.7042 11.1018 11.1338 11.1018 9.51589 11.1018ZM9.51589 14.2742C9.51589 15.3211 9.51589 16.368 9.51589 17.4467C11.0862 17.4467 12.6566 17.4467 14.2745 17.4467C14.2745 16.3998 14.2745 15.3529 14.2745 14.2742C12.7042 14.2742 11.1338 14.2742 9.51589 14.2742Z" fill="white"/>
</svg>
