<svg width="58" height="58" viewBox="0 0 58 58" fill="none" xmlns="http://www.w3.org/2000/svg">
<path d="M29.5248 3.29698C30.0213 3.59199 30.4394 3.97684 30.7445 4.46923C30.8174 4.76229 30.8174 4.76229 30.8511 5.00206C30.9582 4.96786 31.0653 4.93365 31.1757 4.89841C32.0147 4.66049 32.9817 4.6375 33.7837 5.00206C34.2846 5.29619 34.7031 5.67899 35.0101 6.17431C35.083 6.46737 35.083 6.46737 35.1167 6.70714C35.2053 6.67294 35.2938 6.63873 35.385 6.60349C36.2196 6.3576 37.2544 6.34167 38.056 6.70714C38.8018 7.15133 39.3385 7.79214 39.5956 8.62536C39.6363 8.96144 39.6331 9.29255 39.6269 9.63067C39.6264 9.72423 39.626 9.81779 39.6255 9.91419C39.6237 10.2106 39.6197 10.5069 39.6156 10.8033C39.614 11.0053 39.6126 11.2073 39.6112 11.4092C39.6077 11.9022 39.6022 12.3951 39.5956 12.8881C39.6593 12.9189 39.723 12.9498 39.7886 12.9816C40.0476 13.1142 40.2868 13.271 40.5311 13.4286C41.8426 14.2616 43.5521 14.998 45.1409 14.8063C45.4882 14.6164 45.4882 14.6164 45.7807 14.38C46.2709 14.1775 46.7284 14.1257 47.2537 14.1269C47.3288 14.127 47.4039 14.1271 47.4812 14.1272C48.1647 14.1427 48.7561 14.2812 49.2615 14.7583C49.6075 14.9708 49.9242 14.9559 50.3179 14.9524C50.4779 14.9542 50.6379 14.9561 50.7978 14.958C51.0482 14.9591 51.2985 14.9595 51.5489 14.9593C53.44 14.9623 53.44 14.9623 54.2311 15.6551C54.3173 15.7591 54.3173 15.7591 54.4052 15.8653C54.4644 15.9344 54.5235 16.0035 54.5844 16.0747C55.0621 16.7675 55.0237 17.51 54.9518 18.323C54.7725 19.0327 54.2625 19.515 53.6721 19.9215C53.2227 20.146 52.8125 20.163 52.3199 20.16C52.1598 20.1617 51.9997 20.1634 51.8396 20.1652C51.5895 20.167 51.3394 20.168 51.0893 20.1672C49.823 20.143 49.823 20.143 48.7667 20.7741C48.6611 20.7741 48.5555 20.7741 48.4467 20.7741C48.4736 20.8535 48.5005 20.933 48.5281 21.0149C49.1829 22.9561 49.8128 24.9035 50.4199 26.8601C50.5565 27.3001 50.6942 27.7397 50.8321 28.1794C51.2216 29.4224 51.6105 30.6653 51.9822 31.9137C52.1135 32.3538 52.2471 32.7931 52.3811 33.2324C52.4414 33.4326 52.5005 33.6332 52.5584 33.8341C52.6373 34.108 52.7202 34.3804 52.804 34.6528C52.8255 34.7315 52.8469 34.8102 52.8691 34.8913C52.9685 35.2028 53.067 35.4313 53.3414 35.6185C53.5676 35.7338 53.5676 35.7338 53.7938 35.822C54.0642 35.9374 54.2194 36.1019 54.4052 36.3263C54.4644 36.3954 54.5235 36.4645 54.5844 36.5356C55.0504 37.2116 54.9915 37.937 54.9913 38.7248C54.9918 38.9543 54.9956 39.1835 54.9997 39.413C55.0109 40.7668 54.7336 41.834 53.7787 42.8335C52.5577 43.9983 51.2596 44.0709 49.6598 44.0624C49.4682 44.0627 49.2766 44.0631 49.0851 44.0636C48.6853 44.0643 48.2856 44.0634 47.8858 44.0614C47.3763 44.0589 46.8669 44.0603 46.3574 44.0629C45.9624 44.0644 45.5673 44.0639 45.1723 44.0628C44.9845 44.0625 44.7968 44.0629 44.6091 44.0639C43.1045 44.0701 41.906 43.9185 40.7687 42.8335C39.7564 41.7739 39.5229 40.6254 39.54 39.2036C39.5423 38.9763 39.54 38.7493 39.5373 38.5219C39.5352 37.5852 39.5959 36.9256 40.2317 36.2005C40.3011 36.1431 40.3706 36.0857 40.4421 36.0265C40.5112 35.9675 40.5804 35.9084 40.6516 35.8475C40.8753 35.6935 40.8753 35.6935 41.1414 35.6124C41.4267 35.5032 41.4267 35.5032 41.5433 35.2336C41.5755 35.1297 41.6076 35.0258 41.6408 34.9188C41.6787 34.7997 41.7167 34.6807 41.7559 34.5581C41.7953 34.427 41.8348 34.2959 41.8755 34.1608C41.9189 34.0219 41.9626 33.883 42.0064 33.7443C42.1248 33.3676 42.2405 32.9902 42.3559 32.6126C42.4769 32.2179 42.6004 31.8239 42.7237 31.4298C42.9295 30.7713 43.1338 30.1123 43.3371 29.4531C43.6904 28.3077 44.048 27.1636 44.406 26.0197C44.4422 25.9042 44.4422 25.9042 44.4791 25.7863C44.5271 25.6329 44.5751 25.4795 44.6231 25.3262C44.7628 24.8796 44.9021 24.4328 45.0409 23.9859C45.1065 23.7747 45.1722 23.5635 45.2379 23.3522C45.3177 23.096 45.3972 22.8397 45.4765 22.5834C45.6669 21.9723 45.8682 21.3705 46.1007 20.7741C46.0237 20.7653 45.9467 20.7565 45.8674 20.7474C45.5675 20.6675 45.5675 20.6675 45.3433 20.4527C44.9124 20.1578 44.5647 20.1874 44.0545 20.1879C42.4763 20.1481 41.0443 19.7996 39.5956 19.1755C39.599 19.2647 39.599 19.2647 39.6024 19.3556C39.6754 21.6025 39.3005 23.5898 37.7428 25.2965C37.0494 26.0248 36.3371 26.6116 35.4367 27.0615C35.4015 28.4331 35.3663 29.8046 35.33 31.2177C35.7523 31.2177 36.1746 31.2177 36.6097 31.2177C37.0896 31.6972 37.0896 31.6972 37.0899 32.068C37.0911 32.1517 37.0922 32.2355 37.0933 32.3218C37.0924 32.4131 37.0914 32.5045 37.0904 32.5986C37.0914 32.7449 37.0914 32.7449 37.0924 32.8942C37.0942 33.2218 37.0928 33.5493 37.0915 33.8769C37.092 34.1114 37.0928 34.346 37.0937 34.5805C37.0957 35.2182 37.0949 35.8558 37.0936 36.4934C37.0925 37.16 37.0935 37.8265 37.0942 38.4931C37.095 39.6843 37.0937 40.8756 37.0915 42.0668C37.0896 43.147 37.0899 44.2272 37.0919 45.3075C37.0942 46.5617 37.095 47.8159 37.0937 49.0702C37.0931 49.7342 37.093 50.3982 37.0944 51.0622C37.0956 51.6864 37.0948 52.3105 37.0923 52.9347C37.0917 53.1641 37.0919 53.3936 37.0929 53.623C37.094 53.9355 37.0926 54.2479 37.0904 54.5604C37.0919 54.6975 37.0919 54.6975 37.0933 54.8373C37.0881 55.2293 37.0783 55.4505 36.8611 55.7845C36.5365 55.987 36.3281 55.995 35.9459 55.9955C35.7414 55.9973 35.7414 55.9973 35.5327 55.9991C35.3818 55.9983 35.231 55.9974 35.0801 55.9965C34.921 55.9971 34.762 55.9978 34.6029 55.9988C34.171 56.0007 33.7392 56 33.3074 55.9986C32.8556 55.9975 32.4037 55.9985 31.9519 55.9992C31.1931 56 30.4344 55.9989 29.6756 55.9969C28.7982 55.9946 27.9209 55.9953 27.0435 55.9977C26.2903 55.9996 25.5372 55.9999 24.784 55.9988C24.3342 55.9981 23.8843 55.998 23.4344 55.9994C23.0114 56.0007 22.5885 55.9998 22.1656 55.9974C22.0103 55.9968 21.855 55.997 21.6997 55.9979C21.4879 55.9991 21.2761 55.9973 21.0642 55.9955C20.9456 55.9953 20.8271 55.9952 20.7049 55.995C20.4004 55.9413 20.4004 55.9413 20.1491 55.7845C19.8883 55.3835 19.9148 55.0295 19.9197 54.5604C19.919 54.4629 19.9184 54.3654 19.9177 54.2649C19.916 53.9373 19.9173 53.6097 19.9187 53.2822C19.9181 53.0476 19.9173 52.813 19.9164 52.5785C19.9145 51.9409 19.9152 51.3033 19.9166 50.6656C19.9177 49.999 19.9167 49.3325 19.916 48.6659C19.9152 47.4747 19.9165 46.2835 19.9187 45.0922C19.9206 44.012 19.9202 42.9318 19.9183 41.8515C19.916 40.5973 19.9151 39.3431 19.9164 38.0888C19.9171 37.4248 19.9171 36.7608 19.9157 36.0968C19.9145 35.4726 19.9154 34.8485 19.9178 34.2243C19.9184 33.9949 19.9182 33.7655 19.9173 33.5361C19.9161 33.2235 19.9176 32.9111 19.9197 32.5986C19.9188 32.5072 19.9178 32.4159 19.9168 32.3218C19.9222 31.9148 19.9259 31.7099 20.1704 31.3737C20.4822 31.1622 20.6939 31.1748 21.0669 31.191C21.1819 31.1949 21.2968 31.1987 21.4152 31.2027C21.5026 31.2076 21.59 31.2126 21.6801 31.2177C21.6913 30.6373 21.6954 30.0575 21.6931 29.4771C21.6933 29.2799 21.6954 29.0827 21.6995 28.8855C21.7721 27.7714 21.7721 27.7714 21.3475 26.8029C21.0725 26.6416 20.8063 26.5304 20.5071 26.4221C18.8944 25.1665 17.7321 23.4573 17.4145 21.4135C17.3914 21.0198 17.3941 20.6287 17.4012 20.2346C17.4021 20.1321 17.4031 20.0297 17.4041 19.9242C17.4066 19.6746 17.4101 19.4251 17.4145 19.1755C17.3099 19.218 17.2053 19.2604 17.0975 19.3042C15.6503 19.8781 14.2787 20.1829 12.7185 20.1729C12.0487 20.1838 11.751 20.3594 11.2294 20.7741C11.1238 20.7741 11.0183 20.7741 10.9095 20.7741C10.9363 20.8535 10.9632 20.933 10.9909 21.0149C11.6457 22.9561 12.2755 24.9035 12.8826 26.8601C13.0192 27.3001 13.157 27.7397 13.2948 28.1794C13.6843 29.4224 14.0732 30.6653 14.445 31.9137C14.5763 32.3538 14.7099 32.7931 14.8438 33.2324C14.9041 33.4326 14.9633 33.6332 15.0211 33.8341C15.1001 34.108 15.1829 34.3804 15.2667 34.6528C15.2882 34.7315 15.3097 34.8102 15.3318 34.8913C15.4313 35.2028 15.5297 35.4313 15.8041 35.6185C16.0304 35.7338 16.0304 35.7338 16.2566 35.822C16.5269 35.9374 16.6821 36.1019 16.868 36.3263C16.9271 36.3954 16.9862 36.4645 17.0471 36.5356C17.5132 37.2116 17.4542 37.937 17.454 38.7248C17.4545 38.9543 17.4584 39.1835 17.4624 39.413C17.4736 40.7668 17.1963 41.834 16.2415 42.8335C15.0205 43.9983 13.7223 44.0709 12.1225 44.0624C11.9309 44.0627 11.7394 44.0631 11.5478 44.0636C11.1481 44.0643 10.7483 44.0634 10.3486 44.0614C9.83908 44.0589 9.32968 44.0603 8.82018 44.0629C8.42512 44.0644 8.03008 44.0639 7.63502 44.0628C7.44729 44.0625 7.25955 44.0629 7.07182 44.0639C5.56726 44.0701 4.36872 43.9185 3.23141 42.8335C2.21919 41.7739 1.98564 40.6254 2.00276 39.2036C2.00506 38.9763 2.00276 38.7493 2.00005 38.5219C1.99798 37.5852 2.05866 36.9256 2.69446 36.2005C2.79859 36.1144 2.79859 36.1144 2.90482 36.0265C2.97397 35.9675 3.04311 35.9084 3.11435 35.8475C3.33805 35.6935 3.33805 35.6935 3.60411 35.6124C3.88947 35.5032 3.88947 35.5032 4.00603 35.2336C4.0382 35.1297 4.07036 35.0258 4.10351 34.9188C4.14149 34.7997 4.17948 34.6807 4.21862 34.5581C4.25808 34.427 4.29755 34.2959 4.33821 34.1608C4.38167 34.0219 4.42532 33.883 4.46915 33.7443C4.58751 33.3676 4.70327 32.9902 4.8186 32.6126C4.93967 32.2179 5.06319 31.8239 5.18649 31.4298C5.39221 30.7713 5.59655 30.1123 5.79988 29.4531C6.15319 28.3077 6.51077 27.1636 6.86878 26.0197C6.89288 25.9427 6.91698 25.8657 6.94181 25.7863C6.98981 25.6329 7.03783 25.4795 7.08584 25.3262C7.22558 24.8796 7.36483 24.4328 7.50361 23.9859C7.56922 23.7747 7.63493 23.5635 7.70068 23.3522C7.7804 23.096 7.85994 22.8397 7.93925 22.5834C8.12967 21.9723 8.33096 21.3705 8.5634 20.7741C8.48642 20.7653 8.40944 20.7565 8.33013 20.7474C8.0302 20.6675 8.0302 20.6675 7.79581 20.4525C7.4207 20.1873 7.12415 20.184 6.68179 20.1913C6.56524 20.1901 6.56524 20.1901 6.44634 20.189C6.11601 20.1859 5.78574 20.1876 5.45541 20.1889C3.56915 20.1909 3.56915 20.1909 2.77902 19.499C2.69283 19.3949 2.69283 19.3949 2.6049 19.2888C2.54579 19.2197 2.48668 19.1506 2.42578 19.0794C1.94809 18.3866 1.98642 17.644 2.05837 16.8311C2.23761 16.1214 2.74767 15.6391 3.33805 15.2325C3.78739 15.0081 4.19761 14.9911 4.69021 14.994C4.85031 14.9924 5.01041 14.9906 5.1705 14.9888C5.42065 14.9871 5.67073 14.9861 5.92089 14.9869C7.18618 15.0086 7.18618 15.0086 8.24348 14.38C8.72998 14.1675 9.19084 14.1258 9.71645 14.1269C9.79146 14.1269 9.86647 14.1269 9.94376 14.127C10.7249 14.1441 11.235 14.3838 11.8692 14.8063C13.6141 14.9867 15.4988 14.1948 16.868 13.1545C16.9293 13.1028 16.9906 13.0512 17.0538 12.998C17.2012 12.8881 17.2012 12.8881 17.4145 12.8881C17.4189 12.7738 17.4233 12.6595 17.4278 12.5417C17.5667 11.4549 18.2573 10.4128 19.1108 9.74515C19.4792 9.49826 19.846 9.33242 20.268 9.19691C20.3531 9.16934 20.4382 9.14177 20.5259 9.11337C20.5901 9.09299 20.6542 9.07262 20.7204 9.05163C20.7208 8.99265 20.7212 8.93366 20.7217 8.87289C20.7523 6.51938 20.7523 6.51938 21.5589 5.63731C22.2268 5.00745 22.8957 4.73366 23.8196 4.75563C23.8922 4.75528 23.9649 4.75494 24.0397 4.75459C24.4999 4.75944 24.8782 4.83469 25.3059 5.00206C25.317 4.92294 25.3281 4.84381 25.3396 4.76229C25.484 4.18179 25.9212 3.79837 26.3856 3.44351C27.3006 2.89984 28.5551 2.86202 29.5248 3.29698ZM27.0121 5.42833C26.7405 6.08722 26.7404 6.73677 26.73 7.44091C26.727 7.58657 26.7219 7.73219 26.7147 7.8777C26.6503 8.75498 26.6503 8.75498 27.0067 9.51742C27.2569 9.71624 27.2569 9.71624 27.5206 9.86561C28.0141 10.1665 28.2229 10.6238 28.3784 11.1642C28.5716 12.1063 28.5186 12.8851 28.0119 13.714C27.7697 14.058 27.534 14.2579 27.1787 14.4799C26.9092 14.6651 26.8127 14.7349 26.7497 15.0598C26.7861 15.703 26.9767 16.0722 27.4387 16.5114C27.7839 16.6838 28.1319 16.6789 28.5051 16.6179C29.0236 16.2917 29.2098 16.0297 29.3582 15.4457C29.3874 15.1382 29.3884 14.8328 29.3875 14.5241C29.388 14.4337 29.3886 14.3433 29.3891 14.2502C29.3906 13.9528 29.3905 13.6554 29.3903 13.358C29.3907 13.1505 29.3911 12.9429 29.3917 12.7354C29.3924 12.3008 29.3924 11.8663 29.3919 11.4317C29.3912 10.8758 29.393 10.32 29.3955 9.76407C29.3971 9.33557 29.3972 8.90707 29.3968 8.47857C29.3969 8.27365 29.3975 8.06874 29.3985 7.86382C29.3999 7.57691 29.3991 7.29006 29.3979 7.00314C29.3987 6.91914 29.3995 6.83514 29.4004 6.74859C29.394 6.0815 29.2634 5.57241 28.805 5.06201C28.0777 4.65823 27.55 4.8396 27.0121 5.42833ZM22.7465 7.13341C22.408 7.76377 22.5332 8.28951 22.5332 9.05163C23.3778 9.05163 24.2224 9.05163 25.0926 9.05163C25.1464 7.75924 25.1464 7.75924 24.5394 6.76709C23.8121 6.36331 23.2844 6.54468 22.7465 7.13341ZM31.2777 7.13341C31.0769 7.61118 31.037 8.02239 31.0351 8.53791C31.0346 8.61165 31.0341 8.68538 31.0335 8.76135C31.032 9.0034 31.0321 9.24542 31.0324 9.48747C31.0319 9.6568 31.0315 9.82613 31.031 9.99545C31.0302 10.3497 31.0302 10.704 31.0308 11.0583C31.0314 11.511 31.0296 11.9636 31.0271 12.4163C31.0255 12.7658 31.0254 13.1153 31.0258 13.4648C31.0257 13.6317 31.0252 13.7985 31.0241 13.9654C31.0228 14.1992 31.0235 14.433 31.0247 14.6668C31.0247 14.7995 31.0246 14.9322 31.0245 15.069C31.0828 15.6188 31.2423 16.0334 31.6176 16.4514C32.0081 16.6682 32.3397 16.7149 32.7707 16.6179C33.2893 16.2916 33.4716 16.0283 33.6238 15.4457C33.6565 15.0764 33.6565 15.0764 33.6531 14.6806C33.6536 14.6069 33.6542 14.5331 33.6547 14.4572C33.6562 14.2151 33.6561 13.9731 33.6559 13.731C33.6563 13.5617 33.6567 13.3924 33.6572 13.223C33.658 12.8688 33.658 12.5145 33.6574 12.1602C33.6568 11.7075 33.6586 11.2549 33.6611 10.8022C33.6627 10.4527 33.6628 10.1032 33.6624 9.75366C33.6625 9.58681 33.6631 9.41997 33.6641 9.25313C33.6655 9.01929 33.6647 8.78554 33.6635 8.5517C33.6636 8.35262 33.6636 8.35262 33.6637 8.14951C33.6055 7.59974 33.446 7.18507 33.0706 6.76709C32.3433 6.36331 31.8156 6.54468 31.2777 7.13341ZM35.5433 8.83849C35.2433 9.4648 35.2974 10.1407 35.298 10.8196C35.2975 10.9494 35.297 11.0791 35.2966 11.2129C35.296 11.4869 35.2959 11.7609 35.2964 12.0349C35.2967 12.4533 35.2942 12.8716 35.2915 13.29C35.2913 13.5566 35.2912 13.8232 35.2913 14.0899C35.2903 14.2145 35.2893 14.3392 35.2883 14.4677C35.2928 15.261 35.3344 15.8403 35.8832 16.4514C36.2737 16.6682 36.6053 16.7149 37.0363 16.6179C37.5557 16.2911 37.7499 16.0341 37.8894 15.4457C37.9213 14.9984 37.9218 14.5523 37.9215 14.104C37.9219 13.9742 37.9224 13.8444 37.9228 13.7107C37.9235 13.4367 37.9235 13.1627 37.923 12.8887C37.9227 12.4703 37.9252 12.052 37.9279 11.6336C37.9282 11.367 37.9282 11.1003 37.9281 10.8337C37.9291 10.709 37.9301 10.5844 37.9311 10.4559C37.9266 9.66256 37.885 9.08328 37.3362 8.47217C36.6089 8.06839 36.0812 8.24976 35.5433 8.83849ZM23.3864 15.0194C23.3864 15.5469 23.3864 16.0744 23.3864 16.6179C23.8142 16.6397 24.1352 16.655 24.5394 16.5114C24.8679 16.2112 24.9913 15.8745 25.0926 15.4457C25.0926 15.305 25.0926 15.1643 25.0926 15.0194C24.5295 15.0194 23.9665 15.0194 23.3864 15.0194ZM16.4148 15.5256C15.3191 16.0839 14.2592 16.4259 13.0423 16.6179C13.0775 17.1806 13.1127 17.7433 13.1489 18.323C14.742 18.2687 16.0481 17.8597 17.4145 17.0442C17.4145 16.4112 17.4145 15.7782 17.4145 15.126C17.0464 15.126 16.7357 15.358 16.4148 15.5256ZM39.5956 15.126C39.5956 15.759 39.5956 16.392 39.5956 17.0442C41.0134 17.8032 42.2224 18.323 43.8612 18.323C43.8964 17.7603 43.9316 17.1977 43.9679 16.6179C43.8491 16.5958 43.7303 16.5737 43.6079 16.5509C42.3397 16.3003 41.1537 15.9381 40.0409 15.2629C39.8232 15.1079 39.8232 15.1079 39.5956 15.126ZM8.31013 16.6845C8.07509 17.1724 8.05183 17.5776 8.13684 18.1099C8.38528 18.6255 8.68726 18.9273 9.20324 19.1755C9.73585 19.2605 10.1414 19.2373 10.6296 19.0024C11.0118 18.6568 11.2929 18.38 11.3769 17.8543C11.4042 17.2486 11.3292 16.8684 10.9095 16.4048C10.4455 15.9853 10.0651 15.9104 9.45901 15.9377C8.93288 16.0216 8.65594 16.3026 8.31013 16.6845ZM45.8474 16.6845C45.6123 17.1724 45.5891 17.5776 45.6741 18.1099C45.9225 18.6255 46.2245 18.9273 46.7405 19.1755C47.2731 19.2605 47.6786 19.2373 48.1668 19.0024C48.549 18.6568 48.8301 18.38 48.9141 17.8543C48.9414 17.2486 48.8665 16.8684 48.4467 16.4048C47.9828 15.9853 47.6024 15.9104 46.9963 15.9377C46.4701 16.0216 46.1932 16.3026 45.8474 16.6845ZM3.97789 17.0442C3.82641 17.3469 3.83771 17.5616 3.87125 17.8967C4.10927 18.2002 4.24981 18.307 4.61773 18.4296C4.91001 18.4371 5.19875 18.4395 5.49084 18.4362C5.76577 18.434 6.0407 18.4318 6.32397 18.4296C6.32397 17.8669 6.32397 17.3042 6.32397 16.7245C5.92147 16.7146 5.92147 16.7146 5.51084 16.7045C5.42758 16.7016 5.34433 16.6987 5.25855 16.6957C4.75456 16.6897 4.41468 16.7669 3.97789 17.0442ZM50.6862 16.7245C50.6862 17.2872 50.6862 17.8498 50.6862 18.4296C51.0887 18.4395 51.0887 18.4395 51.4993 18.4496C51.5826 18.4525 51.6658 18.4554 51.7516 18.4584C52.2556 18.4643 52.5955 18.3872 53.0323 18.1099C53.1837 17.8071 53.1724 17.5925 53.1389 17.2573C52.9009 16.9538 52.7603 16.847 52.3924 16.7245C52.1001 16.717 51.8114 16.7145 51.5193 16.7178C51.2444 16.72 50.9694 16.7222 50.6862 16.7245ZM19.8672 11.5027C19.0452 12.4576 19.0887 13.6531 19.0924 14.8475C19.0923 14.9955 19.0921 15.1434 19.0918 15.2914C19.0915 15.6005 19.0919 15.9096 19.093 16.2187C19.0942 16.6105 19.0935 17.0022 19.0922 17.394C19.0914 17.6995 19.0917 18.005 19.0922 18.3105C19.0924 18.5238 19.0918 18.7371 19.0911 18.9504C19.1018 21.061 19.4683 22.8381 20.9399 24.4202C21.4885 24.9444 22.1032 25.2905 22.7761 25.6287C23.0664 25.7827 23.0664 25.7827 23.2797 25.9959C23.3094 26.2197 23.3094 26.2197 23.3137 26.4994C23.3159 26.6054 23.318 26.7114 23.3202 26.8206C23.322 26.9881 23.322 26.9881 23.3239 27.159C23.3258 27.2614 23.3276 27.3638 23.3296 27.4694C23.3363 27.8529 23.3412 28.2365 23.3464 28.6201C23.3596 29.4773 23.3728 30.3345 23.3864 31.2177C26.7647 31.2177 30.1431 31.2177 33.6238 31.2177C33.6462 29.5136 33.6462 29.5136 33.6652 27.8095C33.6686 27.5961 33.6722 27.3827 33.6759 27.1694C33.6765 27.0582 33.6772 26.9471 33.6779 26.8327C33.68 26.7267 33.6821 26.6207 33.6843 26.5115C33.6861 26.3734 33.6861 26.3734 33.6879 26.2326C33.7397 25.9443 33.8223 25.8545 34.0503 25.6762C34.2457 25.5781 34.4438 25.4854 34.6435 25.3964C36.0963 24.6846 37.0339 23.498 37.5695 21.9892C37.9339 20.75 37.9155 19.4948 37.8894 18.2164C37.8172 18.2332 37.745 18.25 37.6707 18.2672C36.6857 18.4419 35.7731 18.4437 34.9089 17.9067C34.6688 17.7567 34.6688 17.7567 34.2636 17.7902C34.1096 17.8737 33.9587 17.9633 33.8104 18.0566C33.0652 18.4422 32.3036 18.4299 31.491 18.323C31.18 18.2098 30.9191 18.0825 30.6395 17.9067C30.4029 17.7563 30.4029 17.7563 29.998 17.7902C29.844 17.8737 29.6931 17.9633 29.5448 18.0566C28.7996 18.4422 28.038 18.4299 27.2254 18.323C26.9144 18.2098 26.6535 18.0825 26.3739 17.9067C26.1373 17.7563 26.1373 17.7563 25.7324 17.7902C25.4849 17.9021 25.4849 17.9021 25.2326 18.0499C24.7096 18.3248 24.2936 18.4012 23.7063 18.4296C24.0425 18.6052 24.3863 18.7441 24.7393 18.8825C25.5822 19.2317 26.2908 19.6671 26.9055 20.3478C26.9824 20.4277 26.9824 20.4277 27.0608 20.5093C28.0679 21.5997 28.4124 22.9523 28.5051 24.3974C27.9068 24.3974 27.3086 24.3974 26.6922 24.3974C26.6922 24.116 26.6922 23.8347 26.6922 23.5448C26.4401 22.3945 25.7595 21.5138 24.8197 20.8273C24.0618 20.362 23.2508 20.1932 22.3766 20.0909C22.0646 20.0183 21.9782 19.9608 21.7868 19.7084C21.7461 19.4455 21.7461 19.4455 21.7454 19.1293C21.7444 19.0109 21.7433 18.8925 21.7423 18.7705C21.743 18.6426 21.7436 18.5147 21.7443 18.3829C21.744 18.2517 21.7437 18.1204 21.7433 17.9852C21.7431 17.6363 21.7444 17.2875 21.7461 16.9386C21.7468 16.7247 21.7461 16.5108 21.745 16.2969C21.7431 15.8866 21.7433 15.4763 21.7443 15.066C21.7436 14.9381 21.743 14.8103 21.7423 14.6785C21.7433 14.5601 21.7443 14.4417 21.7454 14.3196C21.7456 14.2153 21.7459 14.111 21.7461 14.0035C21.7868 13.7406 21.7868 13.7406 21.9282 13.5471C22.2209 13.3401 22.5057 13.3796 22.8582 13.3776C22.9684 13.3759 22.9684 13.3759 23.0809 13.3741C23.3161 13.3705 23.5511 13.3688 23.7863 13.3676C24.0946 13.3661 24.4027 13.3624 24.711 13.3576C24.848 13.3569 24.9851 13.3561 25.1262 13.3553C25.6849 13.297 26.1005 13.1427 26.5256 12.7615C26.7425 12.3713 26.7892 12.04 26.6922 11.6093C26.3657 11.0911 26.1031 10.9061 25.5192 10.7567C25.2258 10.737 24.9437 10.7268 24.6506 10.7284C24.5686 10.7282 24.4866 10.728 24.402 10.7278C24.2292 10.7276 24.0563 10.728 23.8834 10.7289C23.6215 10.7301 23.3597 10.7289 23.0979 10.7276C21.3673 10.7148 21.3673 10.7148 19.8672 11.5027ZM9.6298 23.3317C8.14304 27.9994 8.14305 27.9994 6.66826 32.6709C6.5988 32.8917 6.52919 33.1125 6.45942 33.3332C6.36329 33.6375 6.26773 33.942 6.17234 34.2465C6.14412 34.3355 6.1159 34.4244 6.08682 34.516C5.9834 34.848 5.89741 35.1305 5.89741 35.4804C8.43117 35.4804 10.9649 35.4804 13.5755 35.4804C13.4508 34.9196 13.3343 34.3974 13.1642 33.8556C13.1259 33.7331 13.0877 33.6106 13.0483 33.4844C12.9865 33.2888 12.9865 33.2888 12.9236 33.0893C12.8797 32.9495 12.836 32.8097 12.7922 32.6699C12.6757 32.2979 12.5586 31.926 12.4415 31.5541C12.3448 31.2469 12.2483 30.9396 12.1519 30.6323C11.3879 28.197 10.6187 25.7633 9.84308 23.3317C9.7727 23.3317 9.70232 23.3317 9.6298 23.3317ZM47.1671 23.3317C45.6803 27.9994 45.6803 27.9994 44.2055 32.6709C44.1361 32.8917 44.0664 33.1125 43.9967 33.3332C43.9005 33.6375 43.805 33.942 43.7096 34.2465C43.6814 34.3355 43.6532 34.4244 43.6241 34.516C43.5207 34.848 43.4347 35.1305 43.4347 35.4804C45.9684 35.4804 48.5022 35.4804 51.1127 35.4804C50.988 34.9196 50.8715 34.3974 50.7015 33.8556C50.6632 33.7331 50.625 33.6106 50.5855 33.4844C50.5238 33.2888 50.5238 33.2888 50.4608 33.0893C50.417 32.9495 50.3732 32.8097 50.3295 32.6699C50.2129 32.2979 50.0959 31.926 49.9787 31.5541C49.882 31.2469 49.7856 30.9396 49.6892 30.6323C48.9252 28.197 48.156 25.7633 47.3803 23.3317C47.31 23.3317 47.2396 23.3317 47.1671 23.3317ZM21.6801 32.9228C21.6801 39.9562 21.6801 46.9897 21.6801 54.2363C26.1846 54.2363 30.6891 54.2363 35.33 54.2363C35.33 47.2028 35.33 40.1693 35.33 32.9228C30.8256 32.9228 26.3211 32.9228 21.6801 32.9228ZM3.97789 37.5052C3.71654 37.9284 3.73128 38.3795 3.73795 38.8639C3.73875 38.9397 3.73954 39.0156 3.74037 39.0937C3.75951 40.0306 3.8835 40.8257 4.51109 41.5547C5.47113 42.3801 6.67689 42.3331 7.87691 42.329C8.02626 42.3292 8.1756 42.3294 8.32495 42.3296C8.6365 42.3299 8.94803 42.3295 9.25958 42.3285C9.65648 42.3273 10.0533 42.328 10.4502 42.3292C10.7582 42.33 11.0661 42.3298 11.3741 42.3292C11.5203 42.3291 11.6666 42.3292 11.8128 42.3297C13.3812 42.3487 13.3812 42.3487 14.7485 41.6613C15.5697 40.8347 15.7263 40.0413 15.7349 38.8905C15.7371 38.8175 15.7393 38.7444 15.7416 38.6691C15.7454 38.1656 15.6741 37.8157 15.3884 37.3986C14.9024 37.1245 14.407 37.1546 13.865 37.1562C13.7167 37.1554 13.7167 37.1554 13.5653 37.1545C13.2389 37.1531 12.9125 37.1532 12.5861 37.1534C12.3589 37.153 12.1317 37.1525 11.9045 37.152C11.4284 37.1512 10.9523 37.1513 10.4762 37.1518C9.86645 37.1524 9.25676 37.1506 8.64704 37.1482C8.17781 37.1466 7.70859 37.1465 7.23937 37.1468C7.01458 37.1468 6.78979 37.1462 6.56501 37.1451C6.25054 37.1438 5.93614 37.1445 5.62167 37.1458C5.48278 37.1446 5.48278 37.1446 5.34109 37.1433C4.80843 37.1479 4.43849 37.2075 3.97789 37.5052ZM41.5151 37.5052C41.2538 37.9284 41.2685 38.3795 41.2752 38.8639C41.276 38.9397 41.2768 39.0156 41.2776 39.0937C41.2968 40.0306 41.4208 40.8257 42.0483 41.5547C43.0084 42.3801 44.2141 42.3331 45.4142 42.329C45.5635 42.3292 45.7129 42.3294 45.8622 42.3296C46.1738 42.3299 46.4853 42.3295 46.7968 42.3285C47.1937 42.3273 47.5906 42.328 47.9875 42.3292C48.2954 42.33 48.6034 42.3298 48.9114 42.3292C49.0576 42.3291 49.2038 42.3292 49.3501 42.3297C50.9185 42.3487 50.9185 42.3487 52.2858 41.6613C53.107 40.8347 53.2635 40.0413 53.2722 38.8905C53.2744 38.8175 53.2766 38.7444 53.2789 38.6691C53.2827 38.1656 53.2113 37.8157 52.9256 37.3986C52.4396 37.1245 51.9443 37.1546 51.4023 37.1562C51.2539 37.1554 51.2539 37.1554 51.1026 37.1545C50.7762 37.1531 50.4498 37.1532 50.1234 37.1534C49.8962 37.153 49.6689 37.1525 49.4417 37.152C48.9656 37.1512 48.4895 37.1513 48.0134 37.1518C47.4037 37.1524 46.794 37.1506 46.1843 37.1482C45.7151 37.1466 45.2458 37.1465 44.7766 37.1468C44.5518 37.1468 44.327 37.1462 44.1023 37.1451C43.7878 37.1438 43.4734 37.1445 43.1589 37.1458C43.02 37.1446 43.02 37.1446 42.8783 37.1433C42.3457 37.1479 41.9757 37.2075 41.5151 37.5052Z" fill="#12A1DC"/>
</svg>
