<svg width="273" height="56" viewBox="0 0 273 56" fill="none" xmlns="http://www.w3.org/2000/svg">
<path d="M9.86269 6.41052C9.94397 6.57243 9.94397 6.57243 9.88503 6.7719C9.85314 6.8552 9.82125 6.93849 9.78839 7.02431C9.75351 7.11733 9.71863 7.21035 9.68269 7.3062C9.65457 7.3804 9.65457 7.3804 9.6259 7.4561C7.96831 11.8554 7.97433 16.7355 9.91254 21.0509C10.5476 22.4309 11.3158 23.7062 12.3011 24.8677C12.3378 24.9114 12.3745 24.9551 12.4123 25.0002C13.136 25.862 13.8775 26.6566 14.7678 27.3528C14.8625 27.4271 14.9567 27.5019 15.0506 27.5771C15.9555 28.3009 16.8999 28.9127 17.9094 29.4819C17.9646 29.5136 18.0198 29.5453 18.0767 29.5779C19.8674 30.5993 21.8306 31.3077 23.7514 32.0421C25.0772 32.549 26.3923 33.0569 27.663 33.6915C27.7575 33.7379 27.7575 33.7379 27.8539 33.7854C29.0518 34.3782 30.1459 35.0847 31.1581 35.9581C31.2255 36.0153 31.2928 36.0725 31.3622 36.1314C33.1361 37.6735 34.5572 39.6448 34.8157 42.0296C34.8699 43.2059 34.8619 44.365 34.5719 45.5105C34.5579 45.5667 34.544 45.6228 34.5296 45.6806C34.0445 47.5803 33.1398 49.1727 31.8083 50.6105C31.7525 50.6719 31.6966 50.7332 31.6391 50.7965C29.5451 52.9918 26.451 54.0801 23.467 54.1825C18.7175 54.2576 13.9241 51.7998 10.3504 48.8296C10.3068 48.7939 10.2632 48.7581 10.2184 48.7213C9.02006 47.7384 7.86099 46.6905 6.85532 45.5105C6.79047 45.437 6.72561 45.3634 6.65879 45.2876C6.02305 44.5613 5.45915 43.7898 4.9046 43.001C4.85136 42.9263 4.85136 42.9263 4.79705 42.85C3.2702 40.7005 2.15367 38.2898 1.32827 35.7962C1.3023 35.7178 1.27633 35.6394 1.24957 35.5587C-1.00604 28.6183 -0.112564 21.1064 3.16144 14.6507C3.44721 14.1016 3.75924 13.5707 4.0918 13.0486C4.12423 12.9976 4.15665 12.9466 4.19006 12.894C5.45828 10.9165 6.98936 9.18571 8.64857 7.52868C8.69446 7.48275 8.74036 7.43682 8.78765 7.3895C8.9198 7.2574 9.05226 7.12562 9.18483 6.99395C9.22492 6.95385 9.26502 6.91376 9.30633 6.87245C9.48493 6.69577 9.6522 6.55028 9.86269 6.41052Z" fill="#010101"/>
<path d="M27.4142 6.3262e-05C27.5077 0.00017699 27.5077 0.00017699 27.603 0.000293015C30.5233 0.00794919 33.4228 0.473867 36.1975 1.39143C36.0203 1.56799 35.9299 1.59795 35.6943 1.66749C35.6249 1.68876 35.5555 1.71003 35.484 1.73194C35.4093 1.75482 35.3346 1.77769 35.2577 1.80125C32.8626 2.56926 30.8625 4.09444 29.6739 6.32508C28.4413 8.72522 28.4459 11.5829 29.2277 14.1271C29.6339 15.3498 30.2209 16.5491 30.9956 17.5819C31.0521 17.66 31.1085 17.738 31.1667 17.8184C31.8154 18.7012 32.5336 19.5228 33.2802 20.3239C33.4268 20.4814 33.572 20.6397 33.7167 20.7989C34.2871 21.4266 34.8817 22.0263 35.4863 22.6212C36.536 23.6542 36.536 23.6542 36.9709 24.1627C37.1625 24.3821 37.3704 24.5838 37.5793 24.7867C37.8969 25.0992 38.2028 25.4155 38.4924 25.7543C38.668 25.957 38.8501 26.1531 39.0322 26.3501C39.4321 26.7874 39.8085 27.2398 40.1803 27.701C40.2563 27.7935 40.3324 27.8861 40.4085 27.9786C42.4093 30.4207 43.8243 33.1011 44.163 36.2819C44.1719 36.361 44.1808 36.4401 44.19 36.5216C44.599 40.8342 43.2609 45.2362 40.5054 48.5867C40.4715 48.6286 40.4376 48.6706 40.4027 48.7138C39.4799 49.8552 38.4492 50.8862 37.2542 51.7438C37.1832 51.7949 37.1832 51.7949 37.1109 51.8471C34.9238 53.4032 31.7096 54.9291 28.9636 54.82C29.2312 54.6423 29.5016 54.5467 29.8018 54.4405C31.3489 53.8736 32.5803 53.038 33.7591 51.9057C33.8233 51.8469 33.8876 51.788 33.9537 51.7274C36.0121 49.7887 37.2009 46.6102 37.2815 43.8279C37.2847 43.6045 37.2853 43.3812 37.2846 43.1578C37.2846 43.0702 37.2846 43.0702 37.2846 42.9808C37.2818 42.0123 37.1966 41.1014 36.929 40.1676C36.9147 40.1142 36.9003 40.0607 36.8855 40.0057C36.5241 38.6806 35.811 37.5243 34.9783 36.4438C34.9247 36.3722 34.871 36.3006 34.8158 36.2269C33.4887 34.5283 31.8104 33.206 29.939 32.1533C29.8369 32.096 29.8369 32.096 29.7329 32.0374C27.8098 30.9702 25.7544 30.2023 23.7021 29.4237C22.7031 29.0444 21.7168 28.6517 20.7543 28.1867C20.6983 28.1599 20.6423 28.1332 20.5846 28.1057C20.204 27.9235 19.8276 27.7345 19.4538 27.5391C19.3747 27.4978 19.3747 27.4978 19.294 27.4557C17.0656 26.2818 15.0885 24.6325 13.6016 22.601C13.5682 22.5563 13.5347 22.5117 13.5002 22.4657C12.4807 21.0943 11.7488 19.4747 11.3258 17.8248C11.3099 17.7642 11.294 17.7036 11.2777 17.6412C10.3125 13.8584 10.8858 9.68099 12.8635 6.31142C13.3695 5.4837 13.9765 4.75176 14.6583 4.06286C14.7224 3.99795 14.7865 3.93305 14.8526 3.86617C15.3609 3.38171 15.9247 3.03305 16.5349 2.6926C16.6802 2.61138 16.8242 2.52799 16.9681 2.44445C19.3649 1.10118 22.1663 0.33118 24.8996 0.0961942C24.9793 0.0892221 25.0591 0.0822501 25.1413 0.0750668C25.8997 0.0145976 26.6538 -0.00114369 27.4142 6.3262e-05Z" fill="#01A0DD"/>
<path d="M45.4631 6.49138C45.5342 6.54446 45.5342 6.54446 45.6066 6.59862C46.3303 7.14271 47.0055 7.72636 47.6577 8.35329C47.7125 8.40572 47.7674 8.45816 47.8239 8.51219C48.5536 9.21281 49.2358 9.92243 49.838 10.7352C49.9276 10.8549 50.0203 10.9721 50.1132 11.0892C51.0147 12.2367 51.7564 13.5099 52.3719 14.8295C52.4113 14.9114 52.4113 14.9114 52.4514 14.9951C52.8179 15.7593 53.1212 16.5364 53.393 17.339C53.4368 17.4674 53.4368 17.4674 53.4814 17.5985C53.5077 17.6781 53.5339 17.7578 53.5609 17.8399C53.5962 17.9468 53.5962 17.9468 53.6322 18.0559C53.6724 18.2295 53.6724 18.2295 53.5911 18.3914C53.532 18.3542 53.4729 18.3171 53.412 18.2788C52.5585 17.76 51.6673 17.3098 50.6469 17.542C50.1376 17.707 49.8261 18.0381 49.5271 18.4723C49.1945 19.2989 49.481 20.145 49.813 20.9237C50.0508 21.4585 50.3123 21.981 50.5782 22.5024C52.1614 25.6068 53.3057 28.8286 53.2965 32.3405C53.2964 32.4073 53.2963 32.474 53.2963 32.5428C53.2873 35.1096 52.7262 37.5629 51.7217 39.9247C51.689 40.0017 51.6563 40.0787 51.6226 40.158C50.6744 42.3619 49.4235 44.368 47.8202 46.158C47.7831 46.1995 47.7461 46.241 47.7079 46.2838C47.0015 47.0705 46.2784 47.8261 45.4479 48.4845C45.2981 48.6044 45.1506 48.7273 45.0059 48.8532C43.9628 49.7578 42.7719 50.5133 41.5616 51.1771C41.5616 50.9342 41.5616 50.9342 41.6667 50.8172C41.7176 50.7724 41.7684 50.7275 41.8207 50.6813C45.0443 47.5785 46.5273 42.7993 46.6975 38.4518C46.7607 34.6251 45.6136 30.7488 43.2685 27.7009C43.2319 27.6533 43.1953 27.6058 43.1576 27.5567C42.9003 27.224 42.6386 26.895 42.3744 26.5676C42.3135 26.4919 42.2525 26.4163 42.1897 26.3383C41.4261 25.4007 40.6327 24.4957 39.8011 23.6176C39.5713 23.3748 39.3469 23.1276 39.1232 22.8792C38.5985 22.3057 38.0422 21.7627 37.4878 21.2179C37.1155 20.8505 36.7558 20.4801 36.415 20.0836C36.1664 19.8031 35.8963 19.5438 35.6282 19.2819C35.2017 18.8653 34.7977 18.4384 34.409 17.9866C34.3358 17.9039 34.2626 17.8213 34.1893 17.7387C32.1498 15.3959 30.9979 12.8721 31.1578 9.72948C31.3278 7.95576 32.2866 6.39992 33.6445 5.27797C37.2925 2.40166 42.1082 3.97585 45.4631 6.49138Z" fill="#02A0DD"/>
<path d="M132.433 5.9248C134.257 5.9248 136.081 5.9248 137.96 5.9248C137.96 6.72623 137.96 7.52766 137.96 8.35338C138.415 8.38343 138.415 8.38343 138.879 8.41409C139.787 8.48281 140.657 8.60421 141.536 8.83909C141.596 8.85491 141.655 8.87074 141.717 8.88704C143.085 9.26529 144.467 9.90078 145.519 10.8629C145.584 10.9163 145.649 10.9698 145.716 11.0248C147.363 12.4103 148.338 14.4813 148.526 16.6105C148.67 19.1498 148.24 21.6465 146.512 23.6115C144.825 25.4631 142.585 26.4119 140.134 26.8004C140.075 26.8101 140.016 26.8199 139.954 26.8299C139.282 26.9242 138.656 26.8915 137.96 26.8915C137.96 27.9333 137.96 28.9752 137.96 30.0486C136.136 30.0486 134.312 30.0486 132.433 30.0486C132.433 29.0068 132.433 27.9649 132.433 26.8915C131.977 26.8915 131.521 26.8915 131.051 26.8915C130.78 26.8688 130.525 26.8441 130.259 26.8004C130.192 26.7898 130.125 26.7793 130.057 26.7684C127.524 26.3373 125.016 25.2274 123.492 23.0867C122.044 21.0019 121.597 18.2753 122.039 15.7909C122.083 15.5761 122.134 15.3649 122.192 15.1534C122.207 15.0948 122.223 15.0363 122.239 14.976C122.812 12.9263 124.076 11.1597 125.935 10.077C126.201 9.92774 126.471 9.78625 126.743 9.64861C126.822 9.60875 126.901 9.56889 126.982 9.52782C128.716 8.70148 130.537 8.48514 132.433 8.35338C132.433 7.55195 132.433 6.75052 132.433 5.9248ZM128.841 14.6654C127.848 15.7746 127.704 16.9945 127.782 18.4223C127.862 19.3446 128.276 20.1969 128.943 20.8403C129.951 21.6703 131.16 21.8724 132.433 21.8724C132.433 19.0941 132.433 16.3159 132.433 13.4534C131.137 13.4534 129.812 13.7464 128.841 14.6654ZM137.96 13.4534C137.96 16.2317 137.96 19.0099 137.96 21.8724C139.34 21.8724 140.755 21.6648 141.78 20.6581C142.71 19.5639 142.747 18.2159 142.674 16.8534C142.629 16.5345 142.556 16.259 142.43 15.9629C142.402 15.8937 142.373 15.8245 142.344 15.7532C141.888 14.7581 141.137 14.1415 140.112 13.7484C139.358 13.5104 138.769 13.4534 137.96 13.4534Z" fill="#020202"/>
<path d="M199.664 8.64941C199.911 8.86682 200.149 9.0931 200.383 9.32486C200.441 9.38148 200.441 9.38148 200.499 9.43925C202.477 11.4203 203.634 14.3259 203.651 17.1159C203.651 17.178 203.652 17.2401 203.652 17.3041C203.653 17.4351 203.654 17.5662 203.654 17.6972C203.655 17.8924 203.657 18.0875 203.66 18.2827C203.668 19.4205 203.528 20.5329 203.213 21.6296C203.188 21.718 203.188 21.718 203.162 21.8082C202.271 24.7857 200.165 27.2703 197.445 28.761C193.998 30.5107 189.971 30.6645 186.313 29.5089C183.526 28.5942 181.153 26.6491 179.796 24.0506C179.356 23.1794 179.02 22.3045 178.788 21.3564C178.772 21.2896 178.755 21.2228 178.738 21.154C178.499 20.1276 178.408 19.1046 178.412 18.0525C178.412 17.9983 178.413 17.944 178.413 17.8881C178.422 15.9496 178.802 14.1454 179.657 12.401C179.682 12.3488 179.708 12.2965 179.734 12.2426C180.262 11.1739 180.949 10.2721 181.77 9.40581C181.829 9.34111 181.888 9.27641 181.948 9.20975C186.331 4.57185 194.927 4.60833 199.664 8.64941ZM188.029 11.5106C187.953 11.5454 187.878 11.5803 187.8 11.6162C186.269 12.3841 185.168 13.7661 184.625 15.371C183.997 17.3024 184.12 19.4429 184.965 21.2837C185.873 23.0379 187.329 24.2709 189.205 24.8781C191.07 25.3643 193.023 25.1207 194.709 24.1999C195.19 23.9083 195.597 23.5638 195.994 23.1677C196.046 23.1162 196.098 23.0646 196.151 23.0115C197.44 21.6369 197.944 19.5773 197.881 17.7332C197.748 15.9974 197.271 14.3644 196.075 13.0487C195.994 12.9566 195.994 12.9566 195.912 12.8627C194.722 11.5901 193.057 10.9711 191.34 10.85C190.211 10.8104 189.049 11.0332 188.029 11.5106Z" fill="#030303"/>
<path d="M67.165 6.1676C68.989 6.1676 70.8129 6.1676 72.6921 6.1676C72.6921 9.13289 72.6921 12.0982 72.6921 15.1533C75.5084 15.1533 78.3248 15.1533 81.2265 15.1533C81.2265 12.188 81.2265 9.22275 81.2265 6.1676C83.0236 6.1676 84.8207 6.1676 86.6723 6.1676C86.6723 13.9682 86.6723 21.7687 86.6723 29.8057C84.8752 29.8057 83.0781 29.8057 81.2265 29.8057C81.2265 26.6801 81.2265 23.5546 81.2265 20.3343C78.4101 20.3343 75.5938 20.3343 72.6921 20.3343C72.6921 23.4598 72.6921 26.5854 72.6921 29.8057C70.8682 29.8057 69.0442 29.8057 67.165 29.8057C67.165 22.0051 67.165 14.2046 67.165 6.1676Z" fill="#030303"/>
<path d="M103.335 6.1676C104.971 6.1676 106.607 6.1676 108.293 6.1676C109.188 8.25425 110.068 10.3457 110.935 12.4437C111.257 13.2226 111.581 14.0009 111.905 14.7789C111.933 14.8457 111.961 14.9125 111.989 14.9814C112.497 16.2015 113.007 17.4208 113.518 18.64C114.013 19.8242 114.508 21.0089 115.001 22.1943C115.412 23.1827 115.825 24.1705 116.238 25.1579C117.297 27.6851 117.297 27.6851 117.782 28.8697C117.819 28.9583 117.855 29.047 117.893 29.1383C117.925 29.2165 117.957 29.2947 117.989 29.3753C118.03 29.4749 118.03 29.4749 118.072 29.5766C118.128 29.7247 118.128 29.7247 118.128 29.8057C116.197 29.8057 114.265 29.8057 112.276 29.8057C111.91 29.077 111.91 29.077 111.764 28.7081C111.732 28.626 111.699 28.544 111.666 28.4594C111.632 28.3729 111.598 28.2865 111.563 28.1974C111.528 28.1071 111.492 28.0167 111.455 27.9236C111.381 27.7339 111.306 27.5441 111.232 27.3542C111.117 27.0625 111.002 26.7711 110.887 26.4797C110.814 26.295 110.742 26.1104 110.669 25.9257C110.635 25.8382 110.6 25.7508 110.565 25.6607C110.533 25.5801 110.502 25.4996 110.469 25.4166C110.441 25.3456 110.413 25.2745 110.385 25.2014C110.325 25.0295 110.325 25.0295 110.325 24.8676C107.24 24.8676 104.156 24.8676 100.978 24.8676C100.897 25.108 100.817 25.3485 100.734 25.5962C100.664 25.7844 100.593 25.9722 100.52 26.1594C100.5 26.2097 100.48 26.2601 100.46 26.3119C100.398 26.4731 100.335 26.6342 100.272 26.7953C100.228 26.9069 100.185 27.0185 100.141 27.13C99.8886 27.7765 99.6349 28.4224 99.3776 29.067C99.351 29.1338 99.3245 29.2005 99.2972 29.2693C99.1181 29.715 99.1181 29.715 99.0271 29.8057C98.855 29.8133 98.6827 29.8152 98.5105 29.8149C98.4565 29.8149 98.4026 29.8149 98.3471 29.8149C98.1681 29.8149 97.9891 29.8142 97.8101 29.8136C97.6863 29.8135 97.5625 29.8133 97.4387 29.8133C97.1122 29.8129 96.7858 29.8121 96.4593 29.8113C96.1265 29.8104 95.7936 29.8101 95.4607 29.8096C94.8071 29.8088 94.1536 29.8074 93.5 29.8057C93.8367 28.8906 94.1995 27.9898 94.5799 27.092C94.6764 26.8644 94.7725 26.6367 94.8686 26.4089C95.0001 26.0971 95.1317 25.7854 95.2633 25.4737C95.5321 24.8371 95.7989 24.1998 96.0654 23.5622C96.0899 23.5036 96.1144 23.445 96.1397 23.3846C96.5682 22.3601 96.9949 21.3348 97.4215 20.3095C97.9354 19.0743 98.4514 17.84 98.9681 16.6059C99.4445 15.4678 99.9197 14.3293 100.394 13.1902C101.368 10.847 102.349 8.50628 103.335 6.1676ZM105.611 13.2914C105.39 13.8397 105.17 14.3881 104.949 14.9365C104.847 15.1914 104.744 15.4462 104.642 15.7011C104.225 16.7369 103.809 17.773 103.398 18.811C103.367 18.8894 103.336 18.9679 103.303 19.0486C103.275 19.12 103.247 19.1914 103.218 19.2649C103.193 19.3272 103.169 19.3894 103.143 19.4536C103.082 19.6044 103.082 19.6044 103.091 19.7676C104.781 19.7676 106.471 19.7676 108.212 19.7676C108.049 19.2288 107.882 18.714 107.673 18.1944C107.645 18.1241 107.617 18.0538 107.589 17.9814C107.499 17.7553 107.408 17.5295 107.318 17.3036C107.255 17.1478 107.193 16.9921 107.131 16.8363C106.659 15.6518 106.18 14.4699 105.692 13.2914C105.665 13.2914 105.638 13.2914 105.611 13.2914Z" fill="#020202"/>
<path d="M237.561 6.15796C237.647 6.15814 237.733 6.15832 237.823 6.1585C237.969 6.15851 237.969 6.15851 238.118 6.15852C238.225 6.15894 238.331 6.15936 238.44 6.15979C238.55 6.15994 238.659 6.16005 238.768 6.16014C239.056 6.16045 239.344 6.16124 239.632 6.16214C239.926 6.16296 240.219 6.16333 240.513 6.16374C241.089 6.16461 241.666 6.16599 242.242 6.16769C242.498 6.66449 242.736 7.16311 242.948 7.67986C242.975 7.74442 243.001 7.80897 243.029 7.87548C243.116 8.08528 243.202 8.29524 243.289 8.50519C243.35 8.65383 243.412 8.80246 243.474 8.95106C243.568 9.17861 243.662 9.40616 243.756 9.63376C244.025 10.2823 244.295 10.93 244.566 11.5773C245.018 12.654 245.467 13.7315 245.915 14.8094C246.423 16.031 246.933 17.2519 247.444 18.4725C247.947 19.6727 248.448 20.8734 248.948 22.0748C249.558 23.5401 250.169 25.0043 250.782 26.4681C250.846 26.6197 250.909 26.7712 250.972 26.9229C251.145 27.3356 251.319 27.7478 251.494 28.1595C251.532 28.2485 251.569 28.3375 251.608 28.4292C251.681 28.6014 251.754 28.7734 251.828 28.9453C251.861 29.0226 251.893 29.0999 251.927 29.1795C251.971 29.282 251.971 29.282 252.015 29.3865C252.077 29.5629 252.077 29.5629 252.077 29.8058C250.146 29.8058 248.215 29.8058 246.225 29.8058C245.575 28.1867 244.925 26.5677 244.274 24.9486C241.217 24.9486 238.159 24.9486 235.009 24.9486C234.458 26.3351 234.458 26.3351 233.907 27.7216C233.838 27.8962 233.768 28.0707 233.699 28.2452C233.663 28.335 233.628 28.4247 233.591 28.5172C233.556 28.6042 233.522 28.6913 233.486 28.7809C233.456 28.8559 233.426 28.9309 233.396 29.0081C233.287 29.2755 233.172 29.5405 233.058 29.8058C231.234 29.8058 229.41 29.8058 227.531 29.8058C227.685 29.2946 227.834 28.8231 228.046 28.3398C228.086 28.249 228.086 28.249 228.125 28.1563C228.182 28.0256 228.238 27.895 228.295 27.7645C228.451 27.4051 228.606 27.0451 228.76 26.685C228.809 26.5717 228.809 26.5717 228.858 26.4561C229.222 25.6074 229.576 24.7546 229.929 23.9013C229.994 23.7433 230.059 23.5853 230.125 23.4274C230.222 23.1916 230.32 22.9559 230.417 22.7201C230.739 21.9413 231.062 21.163 231.386 20.385C231.414 20.3181 231.442 20.2513 231.471 20.1825C231.979 18.9623 232.489 17.743 232.999 16.5238C233.495 15.3399 233.989 14.1555 234.482 12.9704C235.039 11.6323 235.598 10.2952 236.158 8.9585C236.223 8.80318 236.288 8.64786 236.353 8.49255C236.384 8.41848 236.415 8.34441 236.447 8.2681C236.595 7.91532 236.741 7.56224 236.886 7.20837C236.913 7.14391 236.939 7.07945 236.967 7.01304C237.016 6.89287 237.065 6.77262 237.114 6.65229C237.311 6.17042 237.311 6.17042 237.561 6.15796ZM239.642 13.2915C239.337 13.9406 239.062 14.5984 238.798 15.2647C238.757 15.3666 238.717 15.4684 238.676 15.5703C238.592 15.7822 238.508 15.9942 238.424 16.2063C238.317 16.4755 238.21 16.7446 238.103 17.0137C238.019 17.2235 237.936 17.4334 237.852 17.6434C237.794 17.79 237.735 17.9367 237.677 18.0833C237.641 18.1744 237.605 18.2654 237.568 18.3592C237.536 18.438 237.505 18.5167 237.473 18.5979C237.324 18.986 237.183 19.3772 237.041 19.7677C238.757 19.7677 240.474 19.7677 242.242 19.7677C241.87 18.7762 241.87 18.7762 241.49 17.7882C241.468 17.7314 241.445 17.6746 241.422 17.6161C241.352 17.436 241.282 17.256 241.211 17.076C241.162 16.9496 241.112 16.8231 241.063 16.6966C240.619 15.5606 240.171 14.4258 239.723 13.2915C239.696 13.2915 239.669 13.2915 239.642 13.2915Z" fill="#02A1DD"/>
<path d="M269.997 7.51773C271.217 8.61808 271.857 10.1626 271.944 11.7777C272.001 13.5637 271.593 14.9128 270.421 16.301C270.003 16.7387 269.535 17.1197 269.065 17.501C269.137 17.5286 269.209 17.5561 269.283 17.5845C270.558 18.0976 271.595 18.8538 272.235 20.0915C272.272 20.1619 272.309 20.2324 272.347 20.3049C273.101 21.9087 273.051 23.8572 272.459 25.5001C272.1 26.36 271.576 27.0322 270.935 27.701C270.892 27.7499 270.849 27.7987 270.804 27.849C269.854 28.8882 268.463 29.472 267.14 29.8716C267.088 29.8873 267.036 29.9031 266.982 29.9194C264.339 30.6675 261.285 30.2528 258.886 28.954C258.386 28.6693 257.951 28.3281 257.523 27.9439C257.455 27.8875 257.387 27.8312 257.317 27.7731C256.917 27.4356 256.579 27.0747 256.258 26.6638C256.206 26.5969 256.206 26.5969 256.152 26.5286C255.983 26.3043 255.847 26.1207 255.816 25.8391C255.897 25.694 255.897 25.694 256.026 25.5463C256.096 25.4635 256.096 25.4635 256.168 25.379C256.22 25.3204 256.271 25.2619 256.324 25.2016C256.43 25.0774 256.536 24.9532 256.642 24.8288C256.722 24.7361 256.722 24.7361 256.803 24.6415C257.014 24.3928 257.216 24.138 257.417 23.8811C257.452 23.8362 257.487 23.7912 257.523 23.7449C257.594 23.6541 257.666 23.5632 257.737 23.4723C257.941 23.2116 258.146 22.9519 258.351 22.6921C258.427 22.5962 258.503 22.5003 258.578 22.4043C258.633 22.3357 258.687 22.267 258.742 22.1963C259.047 22.4493 259.334 22.7028 259.606 22.9906C260.751 24.1375 262.436 24.9884 264.066 25.0498C265.023 25.0353 266.087 24.8437 266.784 24.1426C267.266 23.5389 267.341 22.9531 267.277 22.1963C267.183 21.7556 266.981 21.3514 266.627 21.0629C265.412 20.3247 264.139 20.3264 262.756 20.2888C262.343 20.2771 261.931 20.2654 261.506 20.2534C261.506 18.5704 261.506 16.8874 261.506 15.1534C262.786 15.1281 262.786 15.1281 263.184 15.122C264.16 15.0974 265.138 15.0328 265.895 14.3439C266.323 13.8141 266.442 13.3147 266.383 12.6439C266.27 12.1061 266.063 11.6519 265.59 11.3338C264.673 10.831 263.679 10.8749 262.689 11.1029C261.631 11.4097 260.811 12.0516 260.107 12.8804C259.958 13.0531 259.8 13.2132 259.637 13.3724C258.713 12.3058 258.713 12.3058 258.28 11.7736C257.991 11.4185 257.688 11.0796 257.379 10.7418C257.088 10.4153 256.817 10.0734 256.548 9.72959C257.292 8.0927 259.24 7.0114 260.846 6.39192C263.806 5.32093 267.518 5.38403 269.997 7.51773Z" fill="#03A1DD"/>
<path d="M153.403 6.1676C159.921 6.1676 166.439 6.1676 173.154 6.1676C173.154 7.8506 173.154 9.5336 173.154 11.2676C170.794 11.2676 168.434 11.2676 166.002 11.2676C166.002 17.3852 166.002 23.5027 166.002 29.8057C164.205 29.8057 162.408 29.8057 160.556 29.8057C160.556 23.6881 160.556 17.5706 160.556 11.2676C158.196 11.2676 155.835 11.2676 153.403 11.2676C153.403 9.5846 153.403 7.9016 153.403 6.1676Z" fill="#010101"/>
<path d="M211.844 6.1676C216.35 6.1676 220.856 6.1676 225.499 6.1676C225.499 7.8506 225.499 9.5336 225.499 11.2676C222.817 11.2676 220.134 11.2676 217.371 11.2676C217.371 17.3852 217.371 23.5027 217.371 29.8057C215.547 29.8057 213.723 29.8057 211.844 29.8057C211.844 22.0051 211.844 14.2046 211.844 6.1676Z" fill="#04A1DD"/>
<path d="M107.643 42.8391C109.815 42.8391 111.988 42.8391 114.226 42.8391C114.226 45.6975 114.226 48.556 114.226 51.501C114.682 51.501 115.138 51.501 115.608 51.501C115.689 51.582 115.689 51.582 115.699 51.7269C115.699 51.79 115.699 51.8531 115.699 51.9181C115.699 51.9894 115.699 52.0607 115.699 52.1342C115.698 52.2117 115.698 52.2892 115.697 52.369C115.697 52.4875 115.697 52.4875 115.697 52.6083C115.697 52.8615 115.696 53.1147 115.694 53.368C115.694 53.5392 115.694 53.7104 115.693 53.8817C115.693 54.3024 115.691 54.7231 115.689 55.1439C115.072 55.1439 114.456 55.1439 113.82 55.1439C113.82 54.5294 113.82 53.915 113.82 53.282C111.433 53.282 109.046 53.282 106.586 53.282C106.586 53.8964 106.586 54.5108 106.586 55.1439C105.996 55.1439 105.406 55.1439 104.798 55.1439C104.798 53.9417 104.798 52.7396 104.798 51.501C105.173 51.4743 105.549 51.4476 105.936 51.4201C106.172 51.2341 106.172 51.2341 106.261 50.9495C106.281 50.8995 106.302 50.8494 106.323 50.7979C106.39 50.6291 106.448 50.4589 106.505 50.2867C106.526 50.2266 106.547 50.1665 106.569 50.1045C107.276 48.0931 107.451 45.9639 107.534 43.8484C107.536 43.7866 107.539 43.7247 107.541 43.661C107.543 43.6075 107.545 43.5541 107.547 43.499C107.565 43.2775 107.606 43.0583 107.643 42.8391ZM109.512 44.6201C109.413 44.9161 109.393 45.2059 109.366 45.5147C109.354 45.6486 109.341 45.7826 109.329 45.9166C109.322 45.9866 109.316 46.0567 109.309 46.1289C109.149 47.8233 108.873 49.4101 108.293 51.0153C108.239 51.1756 108.186 51.3359 108.13 51.501C109.525 51.501 110.92 51.501 112.357 51.501C112.357 49.2303 112.357 46.9596 112.357 44.6201C111.418 44.6201 110.479 44.6201 109.512 44.6201Z" fill="#070707"/>
<path d="M117.478 42.8391C118.094 42.8391 118.711 42.8391 119.347 42.8391C119.374 45.19 119.401 47.5408 119.428 49.9629C120.1 49.0951 120.1 49.0951 120.749 48.2123C121.258 47.5068 121.774 46.8073 122.292 46.1089C122.482 45.8521 122.673 45.5952 122.862 45.338C122.957 45.2106 123.052 45.0837 123.148 44.9574C123.398 44.6268 123.627 44.2949 123.838 43.9386C123.883 43.8672 123.928 43.7959 123.975 43.7223C124.108 43.516 124.108 43.516 124.215 43.3077C124.336 43.1215 124.336 43.1215 124.711 42.8391C125.275 42.8391 125.838 42.8391 126.418 42.8391C126.418 46.2853 126.418 49.7314 126.418 53.282C125.801 53.282 125.185 53.282 124.549 53.282C124.522 50.9311 124.495 48.5803 124.468 46.1582C123.626 47.2539 123.626 47.2539 122.813 48.3676C122.419 48.9199 122.012 49.4624 121.608 50.007C121.416 50.2657 121.224 50.5246 121.033 50.7838C120.939 50.911 120.844 51.0376 120.748 51.1636C120.498 51.4942 120.269 51.8261 120.058 52.1825C120.013 52.2538 119.968 52.3252 119.921 52.3988C119.788 52.605 119.788 52.605 119.681 52.8133C119.56 52.9996 119.56 52.9996 119.184 53.282C118.621 53.282 118.058 53.282 117.478 53.282C117.478 49.8358 117.478 46.3897 117.478 42.8391Z" fill="#040404"/>
<path d="M94.2314 42.8391C94.8484 42.8391 95.4653 42.8391 96.1009 42.8391C96.1277 45.19 96.1545 47.5408 96.1822 49.9629C96.8536 49.0951 96.8536 49.0951 97.503 48.2123C98.0115 47.5068 98.5278 46.8073 99.046 46.1089C99.2364 45.8521 99.4266 45.5952 99.6163 45.338C99.7108 45.2106 99.806 45.0837 99.902 44.9574C100.152 44.6268 100.381 44.2949 100.592 43.9386C100.637 43.8672 100.682 43.7959 100.729 43.7223C100.862 43.516 100.862 43.516 100.969 43.3077C101.09 43.1215 101.09 43.1215 101.465 42.8391C102.029 42.8391 102.592 42.8391 103.172 42.8391C103.172 46.2853 103.172 49.7314 103.172 53.282C102.555 53.282 101.938 53.282 101.303 53.282C101.276 50.9311 101.249 48.5803 101.222 46.1582C100.38 47.2539 100.38 47.2539 99.567 48.3676C99.1734 48.9199 98.7659 49.4624 98.3617 50.007C98.1697 50.2657 97.9781 50.5246 97.7869 50.7838C97.6926 50.911 97.5976 51.0376 97.5018 51.1636C97.2521 51.4942 97.0231 51.8261 96.8118 52.1825C96.7667 52.2538 96.7216 52.3252 96.6751 52.3988C96.5417 52.605 96.5417 52.605 96.4351 52.8133C96.3139 52.9996 96.3139 52.9996 95.9383 53.282C95.3751 53.282 94.8118 53.282 94.2314 53.282C94.2314 49.8358 94.2314 46.3897 94.2314 42.8391Z" fill="#040404"/>
<path d="M129.344 42.8391C129.961 42.8391 130.578 42.8391 131.214 42.8391C131.214 44.2283 131.214 45.6174 131.214 47.0486C132.769 47.0486 134.325 47.0486 135.928 47.0486C135.928 45.6595 135.928 44.2703 135.928 42.8391C136.545 42.8391 137.162 42.8391 137.797 42.8391C137.797 46.2853 137.797 49.7314 137.797 53.282C137.18 53.282 136.564 53.282 135.928 53.282C135.928 51.8127 135.928 50.3434 135.928 48.8296C134.372 48.8296 132.817 48.8296 131.214 48.8296C131.214 50.2989 131.214 51.7682 131.214 53.282C130.597 53.282 129.98 53.282 129.344 53.282C129.344 49.8358 129.344 46.3897 129.344 42.8391Z" fill="#040404"/>
<path d="M85.6157 42.8391C87.6274 42.8391 89.6391 42.8391 91.7117 42.8391C91.7117 43.4268 91.7117 44.0145 91.7117 44.6201C90.317 44.6201 88.9222 44.6201 87.4852 44.6201C87.4852 45.4482 87.4852 46.2763 87.4852 47.1296C88.7458 47.1296 90.0065 47.1296 91.3053 47.1296C91.3053 47.6906 91.3053 48.2516 91.3053 48.8296C91.2241 48.9105 91.2241 48.9105 91.0723 48.9203C91.0061 48.9201 90.9399 48.9199 90.8716 48.9197C90.7593 48.9197 90.7593 48.9197 90.6448 48.9197C90.5634 48.9193 90.4821 48.9189 90.3982 48.9184C90.2739 48.9183 90.2739 48.9183 90.1471 48.9181C89.8812 48.9176 89.6154 48.9166 89.3495 48.9156C89.1698 48.9152 88.99 48.9148 88.8103 48.9145C88.3686 48.9137 87.9269 48.9121 87.4852 48.9105C87.4852 49.7654 87.4852 50.6203 87.4852 51.501C88.9336 51.501 90.382 51.501 91.8743 51.501C91.8743 52.0887 91.8743 52.6764 91.8743 53.282C89.809 53.282 87.7436 53.282 85.6157 53.282C85.6157 49.8358 85.6157 46.3897 85.6157 42.8391Z" fill="#060606"/>
<path d="M76.4312 42.7582C81.5607 42.7582 81.5607 42.7582 82.6084 43.6487C83.2712 44.3734 83.55 45.0951 83.5381 46.0671C83.5375 46.138 83.5369 46.209 83.5362 46.2821C83.5094 47.3334 83.101 48.0431 82.3544 48.7638C81.6942 49.33 80.898 49.57 80.0389 49.5661C79.9018 49.5658 79.9018 49.5658 79.762 49.5655C79.5893 49.5644 79.5893 49.5644 79.4131 49.5632C79.046 49.5616 78.6789 49.5599 78.3006 49.5582C78.3006 50.787 78.3006 52.0159 78.3006 53.282C77.6837 53.282 77.0668 53.282 76.4312 53.282C76.4312 49.8091 76.4312 46.3363 76.4312 42.7582ZM78.3006 44.5391C78.3006 45.581 78.3006 46.6228 78.3006 47.6963C78.5997 47.8452 78.9518 47.7992 79.281 47.8025C79.3556 47.8049 79.4301 47.8072 79.5069 47.8096C80.0941 47.815 80.596 47.7095 81.0546 47.3252C81.4125 46.9719 81.5275 46.5707 81.5518 46.0772C81.5268 45.5993 81.3716 45.2682 81.066 44.904C80.5025 44.4858 79.9078 44.5085 79.2353 44.524C78.9269 44.529 78.6184 44.534 78.3006 44.5391Z" fill="#050505"/>
<path d="M66.1899 42.8391C69.0599 42.8391 71.9299 42.8391 74.8869 42.8391C74.8869 43.4268 74.8869 44.0145 74.8869 44.6201C73.7604 44.6201 72.6338 44.6201 71.4732 44.6201C71.4732 47.4785 71.4732 50.3369 71.4732 53.282C70.8562 53.282 70.2393 53.282 69.6037 53.282C69.6037 50.4235 69.6037 47.5651 69.6037 44.6201C68.4772 44.6201 67.3506 44.6201 66.1899 44.6201C66.1899 44.0323 66.1899 43.4446 66.1899 42.8391Z" fill="#050505"/>
<path d="M140.724 42.8391C142.682 42.8391 144.64 42.8391 146.657 42.8391C146.657 43.4268 146.657 44.0145 146.657 44.6201C145.316 44.6201 143.975 44.6201 142.593 44.6201C142.593 47.4785 142.593 50.3369 142.593 53.282C141.976 53.282 141.359 53.282 140.724 53.282C140.724 49.8358 140.724 46.3897 140.724 42.8391Z" fill="#040404"/>
<path d="M95.8569 40.2486C96.1464 40.2297 96.4357 40.2182 96.7256 40.2081C96.8484 40.2 96.8484 40.2 96.9737 40.1916C97.2137 40.1853 97.4128 40.1871 97.6451 40.2486C97.7982 40.4044 97.8822 40.5464 97.9731 40.7441C98.0458 40.9201 98.0458 40.9201 98.275 41.0176C98.7244 41.0865 99.1074 41.1093 99.545 40.9721C99.824 40.7947 99.824 40.7947 100.002 40.2486C100.592 40.2486 101.182 40.2486 101.79 40.2486C101.79 40.862 101.732 41.1683 101.325 41.6184C100.596 42.2962 99.7428 42.5076 98.7586 42.5181C97.8127 42.4718 97.0396 42.253 96.3503 41.5852C96.0158 41.181 95.8569 40.7702 95.8569 40.2486Z" fill="#0D0D0D"/>
<path d="M9.86261 6.41052C9.90284 6.49067 9.90284 6.49067 9.94389 6.57243C9.78133 6.81528 9.78133 6.81528 9.56031 6.96051C9.25819 7.16284 9.02001 7.39115 8.76596 7.64884C8.71794 7.6969 8.66992 7.74495 8.62045 7.79447C8.46854 7.94666 8.31721 8.09941 8.16589 8.25219C8.06242 8.35605 7.95891 8.45988 7.85537 8.56367C7.60284 8.81695 7.35083 9.07074 7.09908 9.32481C7.04544 9.29809 6.99179 9.27138 6.93652 9.24386C7.31377 8.86608 7.69133 8.48863 8.06911 8.11139C8.19761 7.983 8.32604 7.85454 8.45439 7.726C8.63881 7.54135 8.82349 7.35695 9.00822 7.17261C9.06563 7.11501 9.12304 7.05742 9.18219 6.99807C9.26272 6.91786 9.26272 6.91786 9.34487 6.83604C9.39197 6.78894 9.43908 6.74184 9.48762 6.69331C9.61877 6.57243 9.61877 6.57243 9.86261 6.41052Z" fill="#2F2F30"/>
<path d="M125.118 10.62C125.172 10.6467 125.225 10.6734 125.281 10.7009C124.771 11.2085 124.261 11.7161 123.736 12.239C123.736 11.898 123.929 11.7553 124.153 11.5206C124.211 11.4578 124.211 11.4578 124.27 11.3938C124.535 11.1106 124.815 10.8626 125.118 10.62Z" fill="#444444"/>
<path d="M258.173 7.86768C258.227 7.89439 258.281 7.9211 258.336 7.94863C257.88 8.40277 257.424 8.85691 256.954 9.32482C256.9 9.2981 256.847 9.27139 256.792 9.24387C257.228 8.75211 257.658 8.28013 258.173 7.86768Z" fill="#42B8E5"/>
<path d="M33.759 5.19617C33.8126 5.22288 33.8663 5.2496 33.9215 5.27712C33.4924 5.70455 33.0632 6.13198 32.6211 6.57236C32.5674 6.54564 32.5138 6.51893 32.4585 6.49141C33.3017 5.54376 33.3017 5.54376 33.759 5.19617Z" fill="#44B9E6"/>
<path d="M30.3451 54.4153C30.3451 54.4954 30.3451 54.5755 30.3451 54.6581C29.4087 54.844 29.4087 54.844 28.9634 54.82C29.2092 54.6568 29.421 54.5745 29.7 54.481C29.7864 54.4515 29.8729 54.422 29.9619 54.3915C30.1826 54.3343 30.1826 54.3343 30.3451 54.4153Z" fill="#5CC2E9"/>
<path d="M9.86234 6.41052C9.88917 6.46395 9.91599 6.51738 9.94362 6.57243C9.70034 6.93588 9.35603 7.11291 8.96826 7.301C9.24307 6.96616 9.51007 6.6685 9.86234 6.41052Z" fill="#A5A9B1"/>
</svg>
