<svg width="21" height="27" viewBox="0 0 21 27" fill="none" xmlns="http://www.w3.org/2000/svg">
<path fill-rule="evenodd" clip-rule="evenodd" d="M10.5 26.3967L11.4991 25.2709C12.6328 23.9726 13.6524 22.7408 14.5597 21.5691L15.3086 20.5811C18.4357 16.3678 20 13.0238 20 10.5523C20 5.27658 15.7472 1 10.5 1C5.25283 1 1 5.27658 1 10.5523C1 13.0238 2.56433 16.3678 5.69142 20.5811L6.44033 21.5691C7.73461 23.2275 9.08873 24.8367 10.5 26.3967Z" stroke="black" stroke-linecap="round" stroke-linejoin="round"/>
<path d="M10.5013 14.4584C12.6874 14.4584 14.4596 12.6862 14.4596 10.5001C14.4596 8.31392 12.6874 6.54172 10.5013 6.54172C8.31517 6.54172 6.54297 8.31392 6.54297 10.5001C6.54297 12.6862 8.31517 14.4584 10.5013 14.4584Z" stroke="black" stroke-linecap="round" stroke-linejoin="round"/>
</svg>
