<svg width="41" height="30" viewBox="0 0 41 30" fill="none" xmlns="http://www.w3.org/2000/svg">
<path d="M6.8913 0.164293C7.42993 0.500377 7.69002 0.890463 7.89003 1.49049C7.89728 1.6353 7.8996 1.78039 7.89872 1.92537C7.89829 2.05056 7.89829 2.05056 7.89785 2.17827C7.89673 2.30862 7.89673 2.30862 7.89559 2.4416C7.89519 2.52953 7.89479 2.61746 7.89438 2.70806C7.89333 2.92515 7.89173 3.14225 7.89003 3.35934C8.38928 3.35934 8.88853 3.35934 9.40291 3.35934C9.39826 3.179 9.39826 3.179 9.39352 2.99502C9.39101 2.83465 9.38859 2.67428 9.38622 2.51391C9.38398 2.43498 9.38175 2.35606 9.37944 2.27474C9.37242 1.63824 9.48254 1.17284 9.82006 0.622814C10.2703 0.184779 10.6881 0.0427566 11.3162 0.0165517C11.855 0.0340315 12.2067 0.150125 12.6066 0.511573C13.4318 1.40183 13.1406 1.90966 13.1406 3.35934C15.4019 3.35934 17.6632 3.35934 19.993 3.35934C19.993 2.77199 19.993 2.18463 19.993 1.57948C20.2578 0.873485 20.424 0.443839 21.1079 0.131964C21.6247 -0.0215271 22.1978 -0.0440198 22.7049 0.151431C23.1748 0.429018 23.5198 0.806172 23.7307 1.31251C23.7509 1.54081 23.7509 1.54081 23.7481 1.79501C23.7475 1.88621 23.747 1.97741 23.7464 2.07138C23.7449 2.16602 23.7434 2.26066 23.7418 2.35817C23.741 2.45419 23.7402 2.55021 23.7394 2.64913C23.7373 2.88588 23.7341 3.12261 23.7307 3.35934C24.2593 3.35934 24.788 3.35934 25.3326 3.35934C25.3285 3.22626 25.3243 3.09319 25.3201 2.95609C25.3167 2.77903 25.3135 2.60197 25.3103 2.42491C25.3074 2.3375 25.3044 2.25009 25.3013 2.16002C25.2929 1.53303 25.3719 1.02216 25.8174 0.554201C26.3505 0.0890908 26.7506 0.0250656 27.4451 0.0398427C27.953 0.0866792 28.2761 0.217918 28.6058 0.612037C28.9315 1.0783 29.0826 1.43273 29.079 2.00359C29.0787 2.08274 29.0784 2.1619 29.0781 2.24345C29.0774 2.32536 29.0766 2.40727 29.0758 2.49166C29.0754 2.57494 29.075 2.65823 29.0746 2.74404C29.0736 2.94914 29.0721 3.15424 29.0703 3.35934C29.1447 3.35794 29.2192 3.35654 29.2959 3.3551C29.5752 3.35052 29.8545 3.34719 30.1338 3.34467C30.3129 3.34269 30.492 3.33929 30.6711 3.33587C31.4266 3.33018 31.9565 3.37685 32.6077 3.77649C33.1918 4.37683 33.2146 4.9838 33.2043 5.77987C33.2044 5.88673 33.2045 5.9936 33.2045 6.10371C33.2043 6.39474 33.2025 6.68572 33.2 6.97675C33.1978 7.28163 33.1976 7.58651 33.1972 7.8914C33.1961 8.46784 33.1932 9.04426 33.1896 9.6207C33.1856 10.2773 33.1836 10.934 33.1819 11.5906C33.1781 12.9405 33.1719 14.2904 33.1639 15.6403C33.3019 15.6581 33.3019 15.6581 33.4427 15.6762C33.5645 15.6921 33.6862 15.708 33.8079 15.7239C33.8684 15.7317 33.929 15.7394 33.9913 15.7474C35.8418 15.9905 37.4172 17.0122 38.5702 18.4603C38.9957 19.0555 39.3063 19.6775 39.5714 20.3569C39.6102 20.456 39.649 20.5552 39.6889 20.6573C40.2666 22.4348 40.039 24.4218 39.2377 26.0803C38.9394 26.6631 38.5913 27.1707 38.1475 27.6543C38.0884 27.7215 38.0294 27.7888 37.9685 27.858C36.7926 29.1231 35.0786 29.931 33.3523 29.998C31.5528 30.0243 29.7852 29.801 28.4062 28.5364C27.8795 28.114 27.4583 28.0886 26.7998 28.1011C26.6907 28.1003 26.5817 28.0995 26.4693 28.0987C26.1689 28.0972 25.8687 28.099 25.5683 28.102C25.2435 28.1046 24.9188 28.103 24.594 28.1019C24.0319 28.1005 23.4698 28.1017 22.9078 28.1047C22.0945 28.1089 21.2813 28.1089 20.4681 28.1079C19.1477 28.1064 17.8274 28.1077 16.5071 28.1112C15.2262 28.1146 13.9453 28.1172 12.6645 28.1183C12.5855 28.1184 12.5066 28.1185 12.4253 28.1186C11.5634 28.1193 10.7015 28.1197 9.8396 28.1196C9.72598 28.1196 9.72598 28.1196 9.61007 28.1196C9.30729 28.1196 9.0045 28.1195 8.70172 28.1195C7.81557 28.1192 6.92944 28.1201 6.04329 28.1229C5.48776 28.1247 4.93224 28.1256 4.3767 28.1258C4.05617 28.126 3.73565 28.1266 3.41512 28.1284C3.06773 28.1304 2.72036 28.1303 2.37297 28.13C2.2716 28.1309 2.17023 28.1318 2.06579 28.1328C1.42542 28.13 1.02921 28.0548 0.531454 27.6265C0.0655079 27.085 0.0197302 26.6359 0.0235816 25.9493C0.0230396 25.8585 0.0224977 25.7677 0.0219392 25.6742C0.0204581 25.37 0.0208843 25.0659 0.0213112 24.7618C0.020658 24.5436 0.0198939 24.3255 0.0190272 24.1074C0.0172538 23.5765 0.0167494 23.0456 0.0169081 22.5147C0.0170246 22.0831 0.0166855 21.6515 0.0160248 21.2199C0.015838 21.0954 0.0156512 20.971 0.0154647 20.8466C0.0153718 20.7847 0.0152793 20.7228 0.0151836 20.659C0.0135021 19.4882 0.0135945 18.3174 0.0142018 17.1466C0.0146979 16.0762 0.0128446 15.0058 0.00989788 13.9353C0.00689399 12.8355 0.00554603 11.7358 0.00595719 10.636C0.0061568 10.0188 0.00569261 9.40164 0.00347492 8.78445C0.00140704 8.20403 0.00165831 7.62365 0.00346813 7.04323C0.00377198 6.83028 0.00331776 6.61732 0.00204638 6.40437C0.000429648 6.1135 0.0015601 5.82275 0.00337579 5.53188C0.00226179 5.44775 0.00114775 5.36362 0 5.27695C0.00914308 4.59301 0.232978 4.15702 0.720564 3.68193C1.17499 3.39376 1.58686 3.33741 2.11872 3.34196C2.17722 3.34221 2.23573 3.34246 2.296 3.34272C2.48096 3.34371 2.66588 3.34594 2.85082 3.34821C2.97701 3.34911 3.1032 3.34992 3.22939 3.35065C3.53705 3.3526 3.84469 3.35566 4.15234 3.35934C4.15048 3.30376 4.14861 3.24818 4.14669 3.19091C4.13923 2.93559 4.13464 2.6803 4.13009 2.42491C4.12562 2.29379 4.12562 2.29379 4.12106 2.16002C4.1127 1.53303 4.19162 1.02216 4.6372 0.554201C5.27536 -0.00263644 6.08639 -0.153822 6.8913 0.164293ZM5.13126 1.22351C4.97296 1.48741 4.93061 1.68238 4.92883 1.98862C4.92798 2.06912 4.92714 2.14961 4.92626 2.23254C4.92634 2.31886 4.92642 2.40517 4.92651 2.49409C4.92613 2.5834 4.92575 2.6727 4.92535 2.76471C4.92484 2.95344 4.9248 3.14217 4.92518 3.3309C4.92546 3.61938 4.92338 3.90778 4.92112 4.19625C4.92092 4.37974 4.92085 4.56323 4.92095 4.74672C4.92013 4.83285 4.91931 4.91898 4.91846 5.00772C4.92218 5.5498 4.98011 5.87797 5.37599 6.27384C5.65708 6.43 5.87823 6.46301 6.19917 6.47408C6.57157 6.33801 6.79692 6.19334 7.00011 5.85113C7.08152 5.60689 7.10156 5.4564 7.10485 5.20428C7.10599 5.12792 7.10713 5.05155 7.10831 4.97288C7.10897 4.89056 7.10963 4.80824 7.1103 4.72343C7.11102 4.63837 7.11174 4.55331 7.11248 4.46568C7.11371 4.28554 7.11467 4.10541 7.11537 3.92527C7.1169 3.65084 7.1208 3.3765 7.12473 3.10209C7.12563 2.92689 7.12639 2.75168 7.12699 2.57648C7.12855 2.49488 7.13011 2.41328 7.13171 2.32921C7.12992 1.79524 7.04408 1.48313 6.73313 1.04553C6.22055 0.678098 5.54581 0.771278 5.13126 1.22351ZM10.3818 1.31251C10.2272 1.56945 10.181 1.76 10.178 2.05845C10.1768 2.13481 10.1757 2.21116 10.1745 2.28984C10.1743 2.37169 10.1741 2.45355 10.1739 2.53789C10.1734 2.62282 10.1728 2.70776 10.1721 2.79526C10.1712 2.97486 10.1708 3.15447 10.1709 3.33407C10.1705 3.60772 10.1672 3.88125 10.1639 4.15488C10.1633 4.32968 10.163 4.50448 10.1628 4.67928C10.1615 4.7606 10.1603 4.84192 10.1589 4.9257C10.1627 5.45823 10.2473 5.77192 10.5598 6.2071C10.8635 6.42309 11.0326 6.47408 11.4052 6.47408C11.7947 6.3628 11.9625 6.22142 12.2507 5.94012C12.3564 5.72864 12.3532 5.59435 12.3568 5.35828C12.3583 5.2745 12.3597 5.19071 12.3612 5.10439C12.3651 4.72059 12.3688 4.33681 12.3708 3.953C12.3723 3.75067 12.3747 3.54835 12.3781 3.34604C12.383 3.05427 12.3849 2.76261 12.3862 2.4708C12.3883 2.38068 12.3903 2.29056 12.3924 2.1977C12.3911 1.78863 12.3892 1.4943 12.1254 1.16781C11.7855 0.856517 11.571 0.831925 11.1226 0.836257C10.7687 0.889792 10.6236 1.05307 10.3818 1.31251ZM20.883 1.4015C20.8015 1.64574 20.7815 1.79623 20.7782 2.04835C20.7771 2.12471 20.7759 2.20107 20.7747 2.27975C20.7741 2.36207 20.7734 2.44439 20.7728 2.5292C20.772 2.61426 20.7713 2.69932 20.7706 2.78695C20.7693 2.96708 20.7684 3.14722 20.7677 3.32735C20.7662 3.60179 20.7623 3.87613 20.7583 4.15054C20.7574 4.32574 20.7567 4.50094 20.7561 4.67615C20.7545 4.75775 20.753 4.83934 20.7513 4.92342C20.7531 5.45754 20.8361 5.77083 21.1499 6.2071C21.4537 6.42309 21.6227 6.47408 21.9954 6.47408C22.3848 6.3628 22.5526 6.22142 22.8408 5.94012C22.9457 5.7303 22.9427 5.60049 22.9455 5.36645C22.9467 5.28445 22.9478 5.20244 22.949 5.11796C22.9497 5.02906 22.9503 4.94016 22.951 4.84857C22.9517 4.75725 22.9524 4.66593 22.9532 4.57184C22.9544 4.37824 22.9554 4.18463 22.9561 3.99102C22.9576 3.69548 22.9615 3.40004 22.9654 3.10453C22.9663 2.91646 22.9671 2.72839 22.9677 2.54033C22.9692 2.45215 22.9708 2.36397 22.9724 2.27313C22.9708 1.75955 22.928 1.44713 22.5738 1.04553C21.9414 0.623903 21.3409 0.841312 20.883 1.4015ZM26.3115 1.22351C26.1522 1.48891 26.1103 1.68738 26.1063 1.99538C26.1048 2.07737 26.1034 2.15936 26.1019 2.24383C26.1015 2.33181 26.101 2.41979 26.1005 2.51043C26.0997 2.6015 26.0989 2.69257 26.0981 2.7864C26.0968 2.97894 26.096 3.17148 26.0956 3.36403C26.0946 3.65802 26.0902 3.95184 26.0857 4.24579C26.0849 4.43304 26.0842 4.6203 26.0838 4.80755C26.0821 4.89517 26.0803 4.98279 26.0785 5.07306C26.0812 5.47461 26.0873 5.76065 26.3459 6.08078C26.685 6.39472 26.8717 6.4795 27.3349 6.46295C27.6808 6.37648 27.844 6.28351 28.0914 6.02911C28.3255 5.6061 28.2966 5.17002 28.2961 4.69979C28.2965 4.61456 28.2969 4.52933 28.2973 4.44152C28.2978 4.26171 28.2978 4.08189 28.2974 3.90207C28.2972 3.62727 28.2992 3.35255 28.3015 3.07776C28.3017 2.90279 28.3018 2.72781 28.3017 2.55284C28.3025 2.47088 28.3033 2.38892 28.3042 2.30448C28.3001 1.73891 28.2023 1.44104 27.8133 1.01772C27.2795 0.704442 26.7352 0.761343 26.3115 1.22351ZM0.965293 4.59411C0.710466 5.05012 0.757637 5.57086 0.758124 6.0782C0.757859 6.16427 0.757595 6.25034 0.757323 6.33902C0.75655 6.62765 0.756415 6.91628 0.756282 7.20492C0.755871 7.41177 0.755423 7.61862 0.754944 7.82546C0.753776 8.38755 0.753202 8.94963 0.752807 9.51172C0.752546 9.86281 0.752181 10.2139 0.751783 10.565C0.750706 11.5374 0.749782 12.5099 0.749481 13.4823C0.749461 13.5445 0.749441 13.6067 0.749421 13.6708C0.749401 13.7331 0.749382 13.7955 0.749362 13.8597C0.749323 13.986 0.749283 14.1124 0.749243 14.2387C0.749223 14.3013 0.749204 14.364 0.749183 14.4286C0.748832 15.4441 0.747278 16.4597 0.745207 17.4752C0.743096 18.5184 0.741987 19.5615 0.741883 20.6047C0.74179 21.1902 0.741262 21.7757 0.739674 22.3612C0.73821 22.9118 0.738015 23.4624 0.738797 24.013C0.738866 24.2151 0.738477 24.4171 0.737599 24.6192C0.73647 24.8951 0.736988 25.1709 0.737918 25.4468C0.737201 25.5268 0.736484 25.6067 0.735745 25.6891C0.740405 26.2806 0.828546 26.6865 1.21261 27.1566C1.63451 27.3781 2.03958 27.3461 2.50908 27.3412C2.61412 27.3415 2.71916 27.3418 2.82739 27.3421C3.11862 27.3426 3.4098 27.3415 3.70103 27.3397C4.0152 27.3381 4.32937 27.3386 4.64354 27.3389C5.18775 27.3391 5.73195 27.338 6.27616 27.336C7.06299 27.3331 7.84981 27.3322 8.63665 27.3317C9.91323 27.3309 11.1898 27.3286 12.4664 27.3252C13.7065 27.3219 14.9465 27.3194 16.1866 27.3179C16.2631 27.3178 16.3395 27.3177 16.4182 27.3176C16.8017 27.3172 17.1852 27.3167 17.5687 27.3163C20.7499 27.3126 23.9312 27.3063 27.1124 27.2983C27.0639 27.2146 27.0155 27.1309 26.9655 27.0446C26.901 26.9327 26.8366 26.8207 26.7721 26.7088C26.7243 26.6264 26.7243 26.6264 26.6756 26.5423C25.6891 24.8258 25.3965 22.9093 25.8795 20.9843C26.0515 20.3642 26.3025 19.7805 26.5785 19.2C26.497 19.1946 26.4156 19.1892 26.3317 19.1837C26.2259 19.1762 26.1201 19.1688 26.0112 19.1611C25.8532 19.1502 25.8532 19.1502 25.692 19.1392C25.4216 19.111 25.4216 19.111 25.2436 19.022C25.2436 17.4949 25.2436 15.9678 25.2436 14.3944C26.0053 14.3926 26.767 14.3907 27.5518 14.3889C27.7926 14.388 28.0334 14.3872 28.2815 14.3864C28.4711 14.3861 28.6606 14.3859 28.8502 14.3857C28.9497 14.3853 29.0492 14.3848 29.1516 14.3843C29.2456 14.3843 29.3395 14.3843 29.4363 14.3843C29.5183 14.3841 29.6003 14.3839 29.6848 14.3837C29.8712 14.3944 29.8712 14.3944 29.9602 14.4834C29.9741 14.6092 29.9825 14.7356 29.9884 14.862C29.9921 14.938 29.9958 15.014 29.9997 15.0923C30.0049 15.2121 30.0049 15.2121 30.0103 15.3344C30.0141 15.4146 30.0179 15.4949 30.0219 15.5776C30.0314 15.7765 30.0405 15.9754 30.0492 16.1743C30.1417 16.1506 30.2341 16.127 30.3294 16.1027C30.4548 16.0709 30.5801 16.0392 30.7055 16.0074C30.766 15.9919 30.8264 15.9764 30.8887 15.9605C31.2386 15.8722 31.5889 15.7933 31.9429 15.7234C32.0614 15.6999 32.0614 15.6999 32.1823 15.6759C32.242 15.6642 32.3016 15.6524 32.363 15.6403C32.3692 14.244 32.3739 12.8477 32.3768 11.4514C32.3782 10.8031 32.3801 10.1547 32.3831 9.50641C32.3858 8.94129 32.3875 8.37618 32.3881 7.81105C32.3885 7.51185 32.3893 7.21266 32.3912 6.91347C32.3932 6.57937 32.3934 6.24531 32.3933 5.9112C32.3943 5.81211 32.3952 5.71302 32.3962 5.61093C32.3957 5.47411 32.3957 5.47411 32.3951 5.33452C32.3954 5.25552 32.3956 5.17652 32.3959 5.09513C32.3551 4.81859 32.2588 4.65286 32.096 4.42725C31.7123 4.17854 31.4174 4.12797 30.9648 4.1342C30.7988 4.13549 30.7988 4.13549 30.6294 4.13681C30.4578 4.14016 30.4578 4.14016 30.2828 4.14358C30.1664 4.14479 30.0499 4.14599 29.93 4.14723C29.6434 4.15037 29.3568 4.15476 29.0703 4.16027C29.0669 4.26868 29.0636 4.37709 29.0602 4.48878C29.0543 4.63328 29.0484 4.77777 29.0425 4.92227C29.0405 4.99345 29.0385 5.06463 29.0364 5.13797C29.007 5.79134 28.8484 6.36512 28.3583 6.83005C27.7714 7.1693 27.2369 7.26965 26.5785 7.09703C26.0783 6.90192 25.7518 6.58823 25.5047 6.11394C25.3858 5.7378 25.38 5.37027 25.366 4.97789C25.3625 4.89925 25.3591 4.82061 25.3555 4.73959C25.3472 4.54651 25.3398 4.35339 25.3326 4.16027C24.804 4.16027 24.2754 4.16027 23.7307 4.16027C23.7274 4.28256 23.7241 4.40485 23.7206 4.53084C23.7148 4.69284 23.7089 4.85483 23.7029 5.01682C23.7009 5.09724 23.6989 5.17766 23.6968 5.26051C23.6779 5.73262 23.6227 6.05979 23.3747 6.47408C23.3454 6.56218 23.316 6.65028 23.2858 6.74106C23.1252 6.83735 23.1252 6.83735 22.9298 6.91904C22.8708 6.94508 22.8119 6.97112 22.7511 6.99795C22.16 7.22151 21.6295 7.25973 21.037 7.0129C20.5897 6.76231 20.3788 6.49454 20.171 6.02911C20.0483 5.4155 20.0321 4.78482 19.993 4.16027C17.7317 4.16027 15.4704 4.16027 13.1406 4.16027C13.1112 4.74762 13.0819 5.33497 13.0516 5.94012C12.9635 6.11633 12.8754 6.29253 12.7846 6.47408C12.7553 6.56218 12.7259 6.65028 12.6956 6.74106C12.535 6.83735 12.535 6.83735 12.3397 6.91904C12.2807 6.94508 12.2217 6.97112 12.161 6.99795C11.5699 7.22151 11.0394 7.25973 10.4468 7.0129C9.95712 6.73852 9.6903 6.39981 9.52946 5.85487C9.49132 5.67033 9.47371 5.49553 9.46374 5.30744C9.46035 5.2469 9.45696 5.18636 9.45346 5.12398C9.44771 5.01037 9.44771 5.01037 9.44184 4.89446C9.42257 4.53104 9.42257 4.53104 9.40291 4.16027C8.90366 4.16027 8.40441 4.16027 7.89003 4.16027C7.8867 4.26868 7.88338 4.37709 7.87995 4.48878C7.8741 4.63328 7.86819 4.77777 7.86222 4.92227C7.86021 4.99345 7.85821 5.06463 7.85614 5.13797C7.8268 5.79134 7.66815 6.36512 7.17809 6.83005C6.59113 7.1693 6.05666 7.26965 5.39824 7.09703C4.89805 6.90192 4.57152 6.58823 4.32442 6.11394C4.20551 5.7378 4.19976 5.37027 4.18571 4.97789C4.18055 4.85993 4.18055 4.85993 4.17528 4.73959C4.16694 4.54651 4.15954 4.35339 4.15234 4.16027C3.74818 4.1525 3.34403 4.14777 2.93982 4.14358C2.82544 4.14135 2.71107 4.13911 2.59323 4.13681C2.48253 4.13594 2.37183 4.13508 2.25777 4.1342C2.15618 4.1328 2.05458 4.1314 1.9499 4.12996C1.54848 4.17201 1.24694 4.30275 0.965293 4.59411ZM25.9555 15.1064C25.9555 16.193 25.9555 17.2796 25.9555 18.3991C27.0148 18.507 27.0148 18.507 27.4215 18.1905C27.5014 18.0995 27.5782 18.0057 27.652 17.9096C28.0005 17.5013 28.2947 17.2522 28.781 17.003C28.9352 16.8764 29.0894 16.7497 29.2483 16.6192C29.2483 16.12 29.2483 15.6207 29.2483 15.1064C28.1617 15.1064 27.0751 15.1064 25.9555 15.1064ZM28.0024 18.5771C26.7454 20.0273 26.2801 21.6336 26.3817 23.5241C26.4957 24.8245 27.0864 25.9572 27.9134 26.9424C27.9776 27.0305 28.0419 27.1186 28.108 27.2094C29.1143 28.3932 30.7513 29.0669 32.2629 29.2451C34.1748 29.3496 35.8454 28.6496 37.2656 27.4019C38.5033 26.2379 39.1354 24.5959 39.2151 22.9228C39.2161 21.9353 38.9986 21.0751 38.5925 20.1789C38.5551 20.0957 38.5177 20.0124 38.4792 19.9266C37.7221 18.3993 36.2626 17.2467 34.6653 16.7023C32.2121 16.0114 29.7627 16.7513 28.0024 18.5771Z" fill="#00A0DD"/>
<path d="M36.2393 18.5663C37.252 19.4115 37.9578 20.6532 38.1475 21.9588C38.275 23.5465 37.9658 24.9196 36.9794 26.2026C36.2704 27.0257 35.4365 27.5753 34.4098 27.9213C34.2692 27.97 34.2692 27.97 34.1258 28.0197C32.6802 28.3592 31.2004 28.1013 29.9275 27.3665C29.5128 27.0884 29.1562 26.7601 28.8032 26.4084C28.753 26.3602 28.7028 26.312 28.651 26.2624C27.7252 25.2925 27.3334 23.8834 27.3481 22.5756C27.4034 20.9743 28.1813 19.6875 29.3149 18.5993C31.2916 16.886 34.2009 17.0693 36.2393 18.5663ZM29.3264 19.6964C28.4697 20.8006 28.0413 21.9755 28.1803 23.3826C28.4778 24.8015 29.2313 25.9202 30.4444 26.7227C31.5182 27.3391 32.7153 27.4696 33.9262 27.2375C35.2473 26.8224 36.2458 26.0199 36.9016 24.8065C37.4471 23.6412 37.539 22.3815 37.1084 21.1606C36.5356 19.8495 35.6021 19.003 34.293 18.4602C32.5915 17.7937 30.5547 18.3732 29.3264 19.6964Z" fill="#00A0DD"/>
<path d="M17.9472 8.16493C18.1431 8.13103 18.1431 8.13103 18.3894 8.13039C18.4814 8.12955 18.5735 8.12871 18.6683 8.12784C18.8179 8.12865 18.8179 8.12865 18.9706 8.12948C19.0726 8.12922 19.1747 8.12896 19.2798 8.1287C19.4959 8.12852 19.7119 8.12901 19.928 8.13013C20.2596 8.13156 20.5912 8.13014 20.9229 8.12843C21.1324 8.12861 21.3419 8.12895 21.5514 8.12948C21.701 8.12867 21.701 8.12867 21.8536 8.12784C21.9917 8.1291 21.9917 8.1291 22.1326 8.13039C22.2545 8.13071 22.2545 8.13071 22.3789 8.13103C22.4759 8.14781 22.4759 8.14781 22.5748 8.16493C22.765 8.45022 22.775 8.52255 22.7744 8.85011C22.7748 8.97707 22.7748 8.97707 22.7752 9.10659C22.7746 9.19781 22.7739 9.28903 22.7733 9.38302C22.7732 9.47682 22.7732 9.57063 22.7732 9.66727C22.7729 9.86566 22.7722 10.064 22.7711 10.2624C22.7695 10.5665 22.7693 10.8706 22.7693 11.1747C22.7688 11.3673 22.7683 11.5599 22.7677 11.7524C22.7676 11.8437 22.7675 11.9349 22.7674 12.0289C22.7669 12.1135 22.7663 12.1982 22.7657 12.2854C22.7652 12.3971 22.7652 12.3971 22.7647 12.5111C22.7528 12.7036 22.7528 12.7036 22.6638 12.9705C22.4466 13.0791 22.3041 13.072 22.0614 13.0739C21.9732 13.0747 21.8849 13.0756 21.7941 13.0765C21.6507 13.077 21.6507 13.077 21.5044 13.0776C21.4066 13.0781 21.3087 13.0786 21.2078 13.0791C21.0005 13.08 20.7932 13.0806 20.5859 13.0809C20.2682 13.0818 19.9504 13.0845 19.6326 13.0873C19.4315 13.0879 19.2304 13.0884 19.0293 13.0887C18.9339 13.0898 18.8385 13.0909 18.7403 13.0921C18.6518 13.0918 18.5633 13.0915 18.4721 13.0912C18.3552 13.0917 18.3552 13.0917 18.236 13.0922C18.0362 13.0595 18.0362 13.0595 17.8775 12.9507C17.7361 12.7443 17.7359 12.6155 17.7361 12.3662C17.7355 12.2798 17.7349 12.1933 17.7344 12.1043C17.7352 12.0111 17.736 11.918 17.7369 11.822C17.7368 11.7262 17.7368 11.6304 17.7367 11.5317C17.7369 11.3292 17.7378 11.1266 17.7393 10.924C17.7414 10.6135 17.7411 10.303 17.7405 9.99241C17.741 9.79577 17.7416 9.59913 17.7424 9.40249C17.7423 9.30932 17.7423 9.21615 17.7422 9.12016C17.743 9.03374 17.7439 8.94732 17.7447 8.85828C17.7452 8.78221 17.7456 8.70614 17.746 8.62777C17.7692 8.43191 17.7692 8.43191 17.9472 8.16493ZM18.5701 8.96587C18.5701 10.0525 18.5701 11.1391 18.5701 12.2586C19.6861 12.2586 20.8021 12.2586 21.9518 12.2586C21.9518 11.172 21.9518 10.0854 21.9518 8.96587C20.8359 8.96587 19.7199 8.96587 18.5701 8.96587Z" fill="#00A0DD"/>
<path d="M18.4707 20.3209C18.603 20.3193 18.603 20.3193 18.738 20.3175C18.8331 20.3178 18.9282 20.318 19.0262 20.3183C19.124 20.3178 19.2217 20.3174 19.3224 20.3169C19.5292 20.3163 19.736 20.3164 19.9427 20.3172C20.2598 20.318 20.5766 20.3154 20.8937 20.3126C21.0944 20.3124 21.2951 20.3125 21.4958 20.3128C21.6384 20.3113 21.6384 20.3113 21.784 20.3097C21.9163 20.311 21.9163 20.311 22.0513 20.3123C22.1677 20.3123 22.1677 20.3123 22.2866 20.3123C22.4858 20.3569 22.4858 20.3569 22.6444 20.5109C22.7683 20.7418 22.7861 20.8804 22.7859 21.1412C22.7867 21.2681 22.7867 21.2681 22.7876 21.3976C22.7868 21.4884 22.7859 21.5792 22.7851 21.6727C22.7852 21.8132 22.7852 21.8132 22.7852 21.9565C22.785 22.1544 22.7842 22.3523 22.7827 22.5501C22.7806 22.8534 22.7809 23.1567 22.7815 23.46C22.781 23.6522 22.7803 23.8444 22.7795 24.0365C22.7797 24.173 22.7797 24.173 22.7798 24.3121C22.7789 24.3965 22.7781 24.4808 22.7772 24.5677C22.7768 24.642 22.7764 24.7162 22.776 24.7926C22.7528 24.9845 22.7528 24.9845 22.5748 25.2515C22.3789 25.2854 22.3789 25.2854 22.1326 25.286C22.0405 25.2869 21.9485 25.2877 21.8536 25.2886C21.704 25.2878 21.704 25.2878 21.5514 25.287C21.3983 25.2873 21.3983 25.2873 21.2422 25.2877C21.0261 25.2879 20.8101 25.2874 20.594 25.2863C20.2623 25.2849 19.9308 25.2863 19.5991 25.288C19.3896 25.2878 19.1801 25.2875 18.9706 25.287C18.8708 25.2875 18.7711 25.288 18.6683 25.2886C18.5302 25.2873 18.5302 25.2873 18.3894 25.286C18.2674 25.2857 18.2674 25.2857 18.1431 25.2854C18.0784 25.2742 18.0138 25.263 17.9472 25.2515C17.7563 24.9652 17.7465 24.8879 17.7447 24.5582C17.7439 24.4717 17.743 24.3853 17.7422 24.2963C17.7423 24.2031 17.7423 24.1099 17.7424 24.0139C17.742 23.9182 17.7417 23.8224 17.7413 23.7237C17.7408 23.5211 17.7407 23.3186 17.7411 23.116C17.7414 22.8054 17.7393 22.4949 17.737 22.1844C17.7368 21.9877 17.7368 21.7911 17.7369 21.5945C17.736 21.5013 17.7352 21.4081 17.7344 21.3121C17.7349 21.2257 17.7355 21.1393 17.7361 21.0502C17.736 20.9742 17.7359 20.8981 17.7359 20.8197C17.7692 20.6239 17.7692 20.6239 17.8776 20.466C18.0858 20.3227 18.2188 20.3225 18.4707 20.3209ZM18.5701 21.1578C18.5701 22.2444 18.5701 23.331 18.5701 24.4506C19.6861 24.4506 20.8021 24.4506 21.9518 24.4506C21.9518 23.364 21.9518 22.2774 21.9518 21.1578C20.8359 21.1578 19.7199 21.1578 18.5701 21.1578Z" fill="#00A0DD"/>
<path d="M25.6763 8.15201C25.7684 8.15144 25.8605 8.15087 25.9553 8.15029C26.0555 8.15019 26.1557 8.15009 26.259 8.14999C26.3611 8.14969 26.4633 8.14939 26.5686 8.14909C26.7852 8.14864 27.0017 8.14843 27.2183 8.14844C27.5508 8.14825 27.8832 8.14663 28.2156 8.14495C28.4255 8.14468 28.6354 8.14451 28.8453 8.14442C28.9454 8.14378 29.0454 8.14315 29.1484 8.14249C29.2408 8.14276 29.3331 8.14303 29.4283 8.14332C29.5098 8.14319 29.5914 8.14306 29.6754 8.14293C29.8719 8.16493 29.8719 8.16493 30.0499 8.34292C30.0725 8.53543 30.0725 8.53543 30.0729 8.77693C30.0734 8.86721 30.074 8.95749 30.0746 9.0505C30.0742 9.1483 30.0739 9.2461 30.0735 9.34687C30.0737 9.49697 30.0737 9.49697 30.074 9.6501C30.0741 9.86196 30.0738 10.0738 30.0731 10.2857C30.0721 10.6109 30.073 10.936 30.0742 11.2613C30.0741 11.4667 30.0738 11.6721 30.0735 11.8776C30.0739 11.9754 30.0742 12.0732 30.0746 12.174C30.074 12.2642 30.0735 12.3545 30.0729 12.4475C30.0727 12.5272 30.0726 12.6069 30.0725 12.689C30.0499 12.8815 30.0499 12.8815 29.8719 13.0595C29.6794 13.0821 29.6794 13.0821 29.4379 13.0826C29.3024 13.0834 29.3024 13.0834 29.1643 13.0843C29.0665 13.0839 28.9687 13.0835 28.8679 13.0832C28.7679 13.0833 28.6678 13.0835 28.5647 13.0837C28.3528 13.0838 28.141 13.0835 27.9291 13.0827C27.6039 13.0818 27.2787 13.0827 26.9535 13.0839C26.7481 13.0837 26.5426 13.0835 26.3372 13.0832C26.1905 13.0837 26.1905 13.0837 26.0408 13.0843C25.9506 13.0837 25.8603 13.0831 25.7673 13.0826C25.6477 13.0823 25.6477 13.0823 25.5258 13.0821C25.3332 13.0595 25.3332 13.0595 25.1553 12.8815C25.1333 12.6851 25.1333 12.6851 25.1336 12.4379C25.1334 12.3456 25.1331 12.2533 25.1328 12.1581C25.1335 12.0581 25.1341 11.9581 25.1348 11.855C25.1348 11.7527 25.1348 11.6505 25.1349 11.5451C25.1351 11.3287 25.1358 11.1123 25.1369 10.8959C25.1386 10.5633 25.1388 10.2307 25.1387 9.89803C25.1392 9.68824 25.1397 9.47844 25.1403 9.26865C25.1404 9.16845 25.1405 9.06824 25.1406 8.965C25.1415 8.8269 25.1415 8.8269 25.1423 8.68601C25.1427 8.60453 25.143 8.52306 25.1434 8.43911C25.1662 8.08316 25.3666 8.1533 25.6763 8.15201ZM25.9562 8.96587C25.9562 10.0525 25.9562 11.1391 25.9562 12.2586C27.0428 12.2586 28.1294 12.2586 29.2489 12.2586C29.2489 11.172 29.2489 10.0854 29.2489 8.96587C28.1623 8.96587 27.0757 8.96587 25.9562 8.96587Z" fill="#00A0DD"/>
<path d="M3.7733 20.3339C3.90562 20.333 3.90562 20.333 4.0406 20.3322C4.18397 20.3327 4.18397 20.3327 4.33022 20.3333C4.4281 20.3331 4.52598 20.3329 4.62683 20.3328C4.83412 20.3326 5.04142 20.333 5.24872 20.3337C5.5665 20.3347 5.88424 20.3337 6.20202 20.3326C6.40313 20.3327 6.60423 20.3329 6.80533 20.3333C6.90072 20.3329 6.99612 20.3326 7.0944 20.3322C7.22714 20.333 7.22714 20.333 7.36256 20.3339C7.44047 20.334 7.51839 20.3342 7.59867 20.3343C7.7985 20.3569 7.7985 20.3569 8.06548 20.5349C8.09878 20.7274 8.09878 20.7274 8.09861 20.9689C8.09944 21.1043 8.09944 21.1043 8.10029 21.2425C8.09947 21.3403 8.09865 21.4381 8.09781 21.5388C8.09788 21.6889 8.09788 21.6889 8.09794 21.8421C8.09773 22.0539 8.09687 22.2658 8.0954 22.4777C8.0933 22.8029 8.09357 23.128 8.09416 23.4532C8.09366 23.6587 8.09303 23.8641 8.09225 24.0696C8.09237 24.2163 8.09237 24.2163 8.09249 24.3659C8.09164 24.4562 8.0908 24.5465 8.08992 24.6395C8.08951 24.7192 8.0891 24.7989 8.08868 24.881C8.06548 25.0735 8.06548 25.0735 7.88749 25.2515C7.69101 25.2735 7.69101 25.2735 7.4439 25.2731C7.35155 25.2734 7.2592 25.2737 7.16406 25.274C7.01402 25.273 7.01402 25.273 6.86095 25.272C6.7587 25.272 6.65645 25.2719 6.5511 25.2719C6.33467 25.2716 6.11825 25.2709 5.90182 25.2698C5.5692 25.2682 5.23661 25.268 4.90398 25.268C4.69419 25.2676 4.4844 25.2671 4.2746 25.2665C4.1744 25.2664 4.07419 25.2663 3.97095 25.2662C3.87888 25.2656 3.78681 25.265 3.69196 25.2644C3.56975 25.2639 3.56975 25.2639 3.44506 25.2634C3.25988 25.2515 3.25988 25.2515 3.17089 25.1625C3.16165 25.0187 3.15856 24.8745 3.15796 24.7304C3.15739 24.6384 3.15682 24.5463 3.15624 24.4514C3.15614 24.3512 3.15604 24.251 3.15594 24.1478C3.15549 23.9945 3.15549 23.9945 3.15504 23.8382C3.15459 23.6216 3.15438 23.405 3.15439 23.1884C3.1542 22.856 3.15259 22.5236 3.1509 22.1912C3.15064 21.9813 3.15046 21.7714 3.15038 21.5614C3.14974 21.4614 3.1491 21.3614 3.14844 21.2583C3.14871 21.166 3.14899 21.0736 3.14927 20.9785C3.14914 20.8969 3.14901 20.8154 3.14888 20.7314C3.1938 20.3302 3.42815 20.3345 3.7733 20.3339ZM3.97182 21.1578C3.97182 22.2444 3.97182 23.331 3.97182 24.4506C5.05842 24.4506 6.14502 24.4506 7.26455 24.4506C7.26455 23.364 7.26455 22.2774 7.26455 21.1578C6.17795 21.1578 5.09135 21.1578 3.97182 21.1578Z" fill="#00A0DD"/>
<path d="M10.8405 8.14293C10.9202 8.14306 10.9999 8.14319 11.082 8.14332C11.1723 8.14304 11.2626 8.14277 11.3556 8.14249C11.4534 8.14313 11.5512 8.14377 11.652 8.14442C11.8021 8.14449 11.8021 8.14449 11.9552 8.14455C12.1671 8.14482 12.3789 8.14552 12.5908 8.14662C12.916 8.14824 13.2412 8.14844 13.5664 8.14842C13.7718 8.14886 13.9773 8.14938 14.1827 8.14999C14.2805 8.15009 14.3783 8.15018 14.4791 8.15029C14.6145 8.15114 14.6145 8.15114 14.7526 8.15201C14.8323 8.15235 14.912 8.15269 14.9941 8.15303C15.1867 8.16493 15.1867 8.16493 15.3646 8.25393C15.3691 8.90971 15.3723 9.56549 15.3744 10.2213C15.3753 10.4445 15.3765 10.6678 15.3781 10.891C15.3802 11.2113 15.3812 11.5316 15.382 11.8519C15.3829 11.9522 15.3839 12.0525 15.3848 12.1558C15.3848 12.2948 15.3848 12.2948 15.3848 12.4365C15.3852 12.5184 15.3856 12.6002 15.386 12.6845C15.3646 12.8815 15.3646 12.8815 15.1867 13.0595C14.9941 13.0821 14.9941 13.0821 14.7526 13.0826C14.6172 13.0834 14.6172 13.0834 14.4791 13.0843C14.3813 13.0839 14.2835 13.0835 14.1827 13.0832C14.0826 13.0833 13.9826 13.0835 13.8795 13.0837C13.6676 13.0838 13.4558 13.0835 13.2439 13.0827C12.9187 13.0818 12.5935 13.0827 12.2683 13.0839C12.0629 13.0837 11.8574 13.0835 11.652 13.0832C11.5053 13.0837 11.5053 13.0837 11.3556 13.0843C11.2653 13.0837 11.1751 13.0831 11.082 13.0826C10.9625 13.0823 10.9625 13.0823 10.8405 13.0821C10.648 13.0595 10.648 13.0595 10.47 12.8815C10.4474 12.689 10.4474 12.689 10.447 12.4475C10.4465 12.3573 10.4459 12.267 10.4453 12.174C10.4457 12.0762 10.446 11.9784 10.4464 11.8776C10.4462 11.7775 10.4461 11.6775 10.4459 11.5744C10.4458 11.3625 10.4461 11.1506 10.4468 10.9388C10.4478 10.6136 10.4468 10.2884 10.4457 9.96321C10.4458 9.75776 10.4461 9.55232 10.4464 9.34687C10.446 9.24907 10.4457 9.15127 10.4453 9.0505C10.4459 8.96023 10.4464 8.86995 10.447 8.77693C10.4472 8.69724 10.4473 8.61754 10.4474 8.53543C10.4795 8.26204 10.5669 8.1742 10.8405 8.14293ZM11.271 8.96587C11.271 10.0525 11.271 11.1391 11.271 12.2586C12.3576 12.2586 13.4442 12.2586 14.5637 12.2586C14.5637 11.172 14.5637 10.0854 14.5637 8.96587C13.4771 8.96587 12.3905 8.96587 11.271 8.96587Z" fill="#00A0DD"/>
<path d="M11.1752 20.3238C11.2637 20.3232 11.3522 20.3227 11.4434 20.3221C11.5865 20.3233 11.5865 20.3233 11.7325 20.3246C11.8304 20.3246 11.9284 20.3245 12.0293 20.3245C12.2365 20.3247 12.4436 20.3255 12.6507 20.327C12.9687 20.3291 13.2866 20.3288 13.6046 20.3282C13.8056 20.3287 14.0066 20.3294 14.2076 20.3302C14.3509 20.33 14.3509 20.33 14.4972 20.3299C14.6295 20.3312 14.6295 20.3312 14.7645 20.3325C14.8423 20.3329 14.9202 20.3333 15.0004 20.3337C15.1889 20.3569 15.1889 20.3569 15.3669 20.5349C15.3889 20.7314 15.3889 20.7314 15.3885 20.9785C15.3889 21.117 15.3889 21.117 15.3894 21.2583C15.3887 21.3584 15.3881 21.4584 15.3874 21.5615C15.3874 21.6637 15.3873 21.766 15.3873 21.8713C15.387 22.0877 15.3863 22.3042 15.3852 22.5206C15.3836 22.8532 15.3834 23.1858 15.3834 23.5184C15.383 23.7282 15.3825 23.938 15.3819 24.1478C15.3818 24.248 15.3817 24.3482 15.3816 24.4515C15.381 24.5435 15.3804 24.6356 15.3798 24.7304C15.3793 24.8527 15.3793 24.8527 15.3788 24.9773C15.3669 25.1625 15.3669 25.1625 15.2779 25.2515C15.1341 25.2608 14.9899 25.2638 14.8458 25.2644C14.7538 25.265 14.6617 25.2656 14.5668 25.2662C14.4165 25.2663 14.4165 25.2663 14.2632 25.2665C14.161 25.2668 14.0589 25.2671 13.9536 25.2674C13.737 25.2678 13.5204 25.268 13.3038 25.268C12.9714 25.2682 12.639 25.2698 12.3066 25.2715C12.0967 25.2718 11.8868 25.2719 11.6768 25.272C11.5768 25.2727 11.4768 25.2733 11.3737 25.274C11.2814 25.2737 11.189 25.2734 11.0939 25.2731C11.0123 25.2733 10.9308 25.2734 10.8468 25.2735C10.6503 25.2515 10.6503 25.2515 10.4723 25.0735C10.4491 24.885 10.4491 24.885 10.4479 24.6491C10.447 24.5609 10.4462 24.4727 10.4453 24.3818C10.4454 24.2862 10.4455 24.1907 10.4455 24.0922C10.4452 23.9943 10.4448 23.8964 10.4444 23.7956C10.4439 23.5883 10.4438 23.381 10.4442 23.1737C10.4445 22.8559 10.4424 22.5382 10.4402 22.2204C10.44 22.0193 10.4399 21.8182 10.44 21.6171C10.4392 21.5217 10.4383 21.4263 10.4375 21.328C10.4381 21.2395 10.4386 21.151 10.4392 21.0599C10.4391 20.9819 10.4391 20.904 10.439 20.8237C10.4723 20.6239 10.4723 20.6239 10.5806 20.4652C10.7897 20.3225 10.9229 20.3236 11.1752 20.3238ZM11.2732 21.1579C11.2732 22.2445 11.2732 23.3311 11.2732 24.4506C12.3598 24.4506 13.4464 24.4506 14.566 24.4506C14.566 23.364 14.566 22.2774 14.566 21.1579C13.4794 21.1579 12.3928 21.1579 11.2732 21.1579Z" fill="#00A0DD"/>
<path d="M3.78517 8.1419C3.87544 8.14134 3.96572 8.14078 4.05874 8.1402C4.20544 8.14074 4.20544 8.14074 4.3551 8.14129C4.45517 8.14112 4.55523 8.14095 4.65833 8.14077C4.87019 8.14065 5.08205 8.14098 5.29391 8.14172C5.61912 8.14268 5.94428 8.14173 6.26949 8.14059C6.47493 8.14071 6.68038 8.14094 6.88583 8.14129C6.98363 8.14093 7.08143 8.14057 7.18219 8.1402C7.27247 8.14076 7.36275 8.14132 7.45576 8.1419C7.57531 8.14211 7.57531 8.14211 7.69727 8.14233C7.88978 8.16493 7.88978 8.16493 8.06776 8.34291C8.09036 8.53542 8.09036 8.53542 8.09079 8.77693C8.09135 8.86721 8.09191 8.95748 8.09249 9.0505C8.09213 9.1483 8.09177 9.2461 8.0914 9.34686C8.09166 9.49696 8.09166 9.49696 8.09192 9.65009C8.09204 9.86195 8.09171 10.0738 8.09097 10.2857C8.09001 10.6109 8.09096 10.936 8.0921 11.2612C8.09198 11.4667 8.09175 11.6721 8.0914 11.8776C8.09176 11.9754 8.09212 12.0732 8.09249 12.174C8.09193 12.2642 8.09137 12.3545 8.09079 12.4475C8.09065 12.5272 8.09051 12.6069 8.09036 12.689C8.06776 12.8815 8.06776 12.8815 7.88978 13.0595C7.69727 13.0821 7.69727 13.0821 7.45576 13.0826C7.32035 13.0834 7.32035 13.0834 7.18219 13.0843C7.08439 13.0839 6.98659 13.0835 6.88583 13.0832C6.78576 13.0833 6.6857 13.0835 6.5826 13.0837C6.37074 13.0838 6.15888 13.0835 5.94702 13.0827C5.62181 13.0818 5.29665 13.0827 4.97144 13.0839C4.766 13.0837 4.56055 13.0835 4.3551 13.0832C4.2084 13.0837 4.2084 13.0837 4.05874 13.0843C3.96846 13.0837 3.87818 13.0831 3.78517 13.0826C3.66562 13.0823 3.66562 13.0823 3.54366 13.0821C3.35115 13.0595 3.35115 13.0595 3.17317 12.8815C3.15057 12.689 3.15057 12.689 3.15014 12.4475C3.14958 12.3572 3.14902 12.267 3.14844 12.174C3.1488 12.0762 3.14916 11.9784 3.14953 11.8776C3.14936 11.7775 3.14919 11.6775 3.14901 11.5744C3.14889 11.3625 3.14922 11.1506 3.14996 10.9388C3.15092 10.6136 3.14997 10.2884 3.14883 9.9632C3.14895 9.75776 3.14918 9.55231 3.14953 9.34686C3.14917 9.24906 3.14881 9.15126 3.14844 9.0505C3.149 8.96022 3.14956 8.86994 3.15014 8.77693C3.15028 8.69723 3.15042 8.61753 3.15057 8.53542C3.19785 8.13272 3.44023 8.14251 3.78517 8.1419ZM3.9741 8.96586C3.9741 10.0525 3.9741 11.1391 3.9741 12.2586C5.0607 12.2586 6.1473 12.2586 7.26683 12.2586C7.26683 11.172 7.26683 10.0854 7.26683 8.96586C6.18023 8.96586 5.09363 8.96586 3.9741 8.96586Z" fill="#00A0DD"/>
<path d="M17.9472 14.3054C18.1431 14.2715 18.1431 14.2715 18.3894 14.2709C18.4814 14.27 18.5735 14.2692 18.6683 14.2683C18.8179 14.2692 18.8179 14.2692 18.9706 14.27C19.0726 14.2697 19.1747 14.2695 19.2798 14.2692C19.4959 14.269 19.7119 14.2695 19.928 14.2706C20.2596 14.2721 20.5912 14.2706 20.9229 14.2689C21.1324 14.2691 21.3419 14.2695 21.5514 14.27C21.701 14.2692 21.701 14.2692 21.8536 14.2683C21.9917 14.2696 21.9917 14.2696 22.1326 14.2709C22.2545 14.2712 22.2545 14.2712 22.3789 14.2715C22.4759 14.2883 22.4759 14.2883 22.5748 14.3054C22.7641 14.5895 22.7754 14.6631 22.7772 14.9892C22.7785 15.1157 22.7785 15.1157 22.7798 15.2448C22.7797 15.3358 22.7796 15.4267 22.7795 15.5204C22.7799 15.614 22.7803 15.7076 22.7807 15.804C22.7812 16.002 22.7813 16.2 22.7809 16.398C22.7806 16.7012 22.7827 17.0042 22.7849 17.3074C22.7851 17.4997 22.7852 17.692 22.7851 17.8843C22.7859 17.975 22.7867 18.0658 22.7876 18.1593C22.787 18.2439 22.7865 18.3286 22.7859 18.4158C22.786 18.4901 22.786 18.5643 22.7861 18.6409C22.7438 18.8989 22.6732 19.018 22.4858 19.2C22.2866 19.2446 22.2866 19.2446 22.0513 19.2447C21.9631 19.2455 21.8749 19.2463 21.784 19.2472C21.6889 19.2462 21.5938 19.2452 21.4958 19.2442C21.398 19.2443 21.3002 19.2444 21.1995 19.2446C20.9928 19.2444 20.786 19.2434 20.5792 19.2416C20.2622 19.239 19.9453 19.2397 19.6283 19.2409C19.4276 19.2403 19.2269 19.2396 19.0262 19.2386C18.9311 19.2389 18.836 19.2391 18.738 19.2394C18.6498 19.2383 18.5616 19.2372 18.4707 19.236C18.3931 19.2355 18.3154 19.235 18.2354 19.2345C18.0362 19.2 18.0362 19.2 17.8776 19.0909C17.736 18.8847 17.7359 18.756 17.7361 18.5067C17.7355 18.4203 17.7349 18.3338 17.7344 18.2448C17.7352 18.1516 17.736 18.0585 17.7369 17.9625C17.7368 17.8667 17.7368 17.7709 17.7367 17.6722C17.7369 17.4697 17.7378 17.2671 17.7393 17.0645C17.7414 16.754 17.7411 16.4435 17.7405 16.1329C17.741 15.9363 17.7416 15.7396 17.7424 15.543C17.7423 15.4498 17.7423 15.3567 17.7422 15.2607C17.743 15.1742 17.7439 15.0878 17.7447 14.9988C17.7452 14.9227 17.7456 14.8466 17.746 14.7683C17.7692 14.5724 17.7692 14.5724 17.9472 14.3054ZM18.5701 15.0174C18.5701 16.1333 18.5701 17.2493 18.5701 18.3991C19.6861 18.3991 20.8021 18.3991 21.9518 18.3991C21.9518 17.2831 21.9518 16.1672 21.9518 15.0174C20.8359 15.0174 19.7199 15.0174 18.5701 15.0174Z" fill="#00A0DD"/>
<path d="M10.8468 14.2834C10.9691 14.2836 10.9691 14.2836 11.0939 14.2838C11.1862 14.2835 11.2786 14.2832 11.3737 14.283C11.5238 14.2839 11.5238 14.2839 11.6768 14.2849C11.8302 14.285 11.8302 14.285 11.9867 14.285C12.2031 14.2853 12.4195 14.286 12.636 14.2871C12.9686 14.2887 13.3012 14.2889 13.6338 14.2889C13.8436 14.2893 14.0534 14.2899 14.2632 14.2905C14.4135 14.2906 14.4135 14.2906 14.5668 14.2908C14.6589 14.2913 14.751 14.2919 14.8458 14.2925C14.968 14.293 14.968 14.293 15.0927 14.2935C15.2779 14.3054 15.2779 14.3054 15.3669 14.3944C15.3766 14.5382 15.3802 14.6824 15.3812 14.8265C15.3821 14.9185 15.383 15.0106 15.3838 15.1055C15.3842 15.2057 15.3846 15.3059 15.385 15.4091C15.3855 15.5113 15.386 15.6135 15.3865 15.7187C15.3874 15.9353 15.3879 16.1519 15.3883 16.3685C15.3892 16.7009 15.3919 17.0333 15.3947 17.3657C15.3953 17.5757 15.3958 17.7856 15.3961 17.9955C15.3972 18.0955 15.3983 18.1955 15.3994 18.2986C15.3992 18.3909 15.3989 18.4833 15.3986 18.5784C15.3991 18.7007 15.3991 18.7007 15.3996 18.8255C15.3888 18.8904 15.378 18.9552 15.3669 19.022C15.0806 19.2129 15.0033 19.2227 14.6736 19.2244C14.5439 19.2257 14.5439 19.2257 14.4117 19.227C14.3185 19.2269 14.2253 19.2269 14.1294 19.2268C14.0336 19.2271 13.9378 19.2275 13.8391 19.2279C13.6365 19.2284 13.434 19.2285 13.2314 19.2281C12.9208 19.2278 12.6103 19.2299 12.2998 19.2322C12.1031 19.2324 11.9065 19.2324 11.7099 19.2323C11.6167 19.2331 11.5235 19.234 11.4275 19.2348C11.3411 19.2343 11.2547 19.2337 11.1657 19.2331C11.0896 19.2332 11.0135 19.2332 10.9351 19.2333C10.7393 19.2 10.7393 19.2 10.5812 19.0917C10.4377 18.8826 10.439 18.7498 10.4392 18.4971C10.4386 18.4086 10.4381 18.3201 10.4375 18.2289C10.4387 18.0858 10.4387 18.0858 10.44 17.9399C10.4399 17.7929 10.4399 17.7929 10.4398 17.643C10.4401 17.4358 10.4409 17.2287 10.4424 17.0216C10.4445 16.7036 10.4442 16.3857 10.4436 16.0677C10.4441 15.8667 10.4448 15.6657 10.4455 15.4647C10.4455 15.3692 10.4454 15.2736 10.4453 15.1751C10.4461 15.0869 10.447 14.9987 10.4479 14.9078C10.4483 14.83 10.4487 14.7521 10.4491 14.6719C10.4828 14.398 10.5739 14.314 10.8468 14.2834ZM11.2732 15.0173C11.2732 16.1333 11.2732 17.2493 11.2732 18.3991C12.3598 18.3991 13.4464 18.3991 14.566 18.3991C14.566 17.2831 14.566 16.1671 14.566 15.0173C13.4794 15.0173 12.3928 15.0173 11.2732 15.0173Z" fill="#00A0DD"/>
<path d="M3.69423 14.2925C3.78629 14.2919 3.87836 14.2913 3.97322 14.2908C4.07342 14.2907 4.17363 14.2906 4.27687 14.2905C4.37904 14.2902 4.48121 14.2899 4.58647 14.2896C4.80305 14.2891 5.01963 14.2889 5.23622 14.2889C5.56865 14.2887 5.90106 14.2871 6.23349 14.2854C6.4434 14.2852 6.65331 14.285 6.86322 14.2849C6.96325 14.2843 7.06327 14.2836 7.16633 14.283C7.25868 14.2832 7.35102 14.2835 7.44617 14.2838C7.52771 14.2837 7.60926 14.2835 7.69328 14.2834C7.88976 14.3054 7.88976 14.3054 8.06775 14.4834C8.09095 14.6719 8.09095 14.6719 8.09219 14.9078C8.09346 15.0401 8.09346 15.0401 8.09476 15.1751C8.09468 15.2707 8.0946 15.3663 8.09452 15.4647C8.0949 15.5626 8.09528 15.6605 8.09567 15.7613C8.09618 15.9686 8.09623 16.1759 8.09584 16.3832C8.09556 16.701 8.09765 17.0188 8.0999 17.3365C8.10011 17.5376 8.10017 17.7387 8.10008 17.9399C8.1009 18.0352 8.10172 18.1306 8.10256 18.2289C8.10201 18.3174 8.10145 18.4059 8.10088 18.4971C8.10094 18.575 8.10099 18.6529 8.10105 18.7332C8.06775 18.933 8.06775 18.933 7.95884 19.0917C7.75248 19.2331 7.62371 19.2333 7.37441 19.2331C7.24477 19.234 7.24477 19.234 7.11252 19.2348C7.01936 19.234 6.92619 19.2332 6.8302 19.2323C6.73442 19.2324 6.63864 19.2324 6.53996 19.2325C6.33738 19.2323 6.1348 19.2314 5.93223 19.2299C5.62168 19.2278 5.31119 19.2281 5.00063 19.2287C4.80399 19.2282 4.60735 19.2276 4.41071 19.2268C4.31754 19.2268 4.22437 19.2269 4.12838 19.227C4.04196 19.2262 3.95554 19.2253 3.8665 19.2244C3.7524 19.2238 3.7524 19.2238 3.63599 19.2232C3.44013 19.2 3.44013 19.2 3.17316 19.022C3.14045 18.8255 3.14045 18.8255 3.14143 18.5784C3.14117 18.4861 3.1409 18.3937 3.14062 18.2986C3.14172 18.1986 3.14282 18.0985 3.14395 17.9955C3.14412 17.8932 3.14429 17.791 3.14446 17.6856C3.14506 17.4692 3.1463 17.2528 3.14813 17.0363C3.1509 16.7037 3.15177 16.3711 3.1523 16.0385C3.15311 15.8287 3.15404 15.6189 3.15508 15.4091C3.15546 15.3089 3.15584 15.2087 3.15622 15.1055C3.15708 15.0134 3.15793 14.9213 3.15882 14.8265C3.15942 14.745 3.16003 14.6635 3.16066 14.5796C3.18467 14.2238 3.38423 14.2938 3.69423 14.2925ZM3.97409 15.0173C3.97409 16.1333 3.97409 17.2493 3.97409 18.3991C5.06069 18.3991 6.14729 18.3991 7.26682 18.3991C7.26682 17.2831 7.26682 16.1671 7.26682 15.0173C6.18022 15.0173 5.09362 15.0173 3.97409 15.0173Z" fill="#00A0DD"/>
<path d="M34.9852 19.9843C35.2132 20.001 35.2132 20.001 35.3912 20.179C35.3881 20.7073 35.1068 21.0167 34.7905 21.4082C34.6856 21.5414 34.5807 21.6747 34.4759 21.8079C34.3945 21.9105 34.3945 21.9105 34.3114 22.015C34.0382 22.3617 33.7724 22.714 33.5057 23.0657C33.41 23.1917 33.3142 23.3177 33.2182 23.4435C33.1579 23.5228 33.1579 23.5228 33.0964 23.6036C32.9884 23.7387 32.9884 23.7387 32.8104 23.9166C32.4613 23.8886 32.2474 23.7697 31.9709 23.5621C31.8984 23.5081 31.826 23.4542 31.7514 23.3987C31.6396 23.3137 31.6396 23.3137 31.5256 23.227C31.4514 23.1717 31.3772 23.1164 31.3008 23.0594C31.0907 22.9019 30.8824 22.7423 30.6746 22.5818C30.6177 22.5391 30.5607 22.4965 30.5021 22.4525C30.3537 22.3374 30.3537 22.3374 30.1406 22.1368C30.1517 21.842 30.1517 21.842 30.2296 21.6028C30.4427 21.5194 30.4427 21.5194 30.7636 21.5138C31.0761 21.6886 31.3477 21.9121 31.6257 22.1368C31.7756 22.2562 31.9261 22.375 32.0773 22.4928C32.1433 22.546 32.2093 22.5992 32.2774 22.6541C32.3358 22.6889 32.3942 22.7238 32.4544 22.7597C32.7635 22.6567 32.8102 22.582 32.995 22.3235C33.0468 22.2519 33.0985 22.1804 33.1519 22.1067C33.2062 22.0303 33.2606 21.954 33.3165 21.8754C33.4283 21.7208 33.5403 21.5664 33.6524 21.412C33.7334 21.3002 33.7334 21.3002 33.816 21.1862C34.6804 20.0077 34.6804 20.0077 34.9852 19.9843Z" fill="#00A0DD"/>
</svg>
