<svg width="62" height="68" viewBox="0 0 62 68" fill="none" xmlns="http://www.w3.org/2000/svg">
<path d="M15.9086 0.311081C16.1719 0.311354 16.1719 0.311354 16.4405 0.311632C16.6256 0.311008 16.8106 0.310384 17.0013 0.309741C17.6264 0.307909 18.2514 0.3076 18.8765 0.307287C19.3226 0.306315 19.7688 0.30526 20.2149 0.304127C21.4306 0.301364 22.6463 0.300016 23.862 0.299084C24.6209 0.29847 25.3797 0.297608 26.1386 0.296668C28.5109 0.293794 30.8831 0.291765 33.2554 0.290955C35.9974 0.290014 38.7395 0.286329 41.4815 0.280244C43.5984 0.275709 45.7153 0.273586 47.8322 0.273305C49.0977 0.273084 50.3632 0.271836 51.6287 0.268092C52.8191 0.264639 54.0095 0.264174 55.1999 0.266021C55.6372 0.266183 56.0745 0.265265 56.5118 0.263195C57.1082 0.260537 57.7044 0.26175 58.3008 0.263947C58.4744 0.262255 58.6481 0.260563 58.827 0.25882C59.7892 0.267127 60.4188 0.343681 61.1982 0.971192C61.6508 1.65179 61.6699 1.83527 61.6716 2.62048C61.6739 2.93744 61.6739 2.93744 61.6761 3.2608C61.6756 3.4936 61.6751 3.72639 61.6746 3.96624C61.6757 4.21304 61.6768 4.45983 61.6779 4.71411C61.6805 5.4003 61.6812 6.08647 61.6811 6.77267C61.6815 7.51227 61.6842 8.25187 61.6866 8.99147C61.6914 10.6091 61.6931 12.2268 61.6941 13.8445C61.6948 14.8542 61.6962 15.8639 61.6977 16.8737C61.7018 19.6684 61.7052 22.4631 61.7058 25.2578C61.7059 25.4367 61.7059 25.6156 61.706 25.7999C61.706 26.1626 61.7061 26.5253 61.7062 26.888C61.7062 27.068 61.7063 27.2481 61.7063 27.4336C61.7064 27.7039 61.7064 27.7039 61.7064 27.9798C61.7072 30.9017 61.7128 33.8236 61.7206 36.7455C61.7286 39.7441 61.7327 42.7428 61.7327 45.7414C61.7329 47.4256 61.7347 49.1097 61.7407 50.7938C61.7458 52.2277 61.7474 53.6615 61.7442 55.0953C61.7427 55.8271 61.7429 56.5588 61.7477 57.2905C61.7519 58.0835 61.7497 58.8761 61.7459 59.669C61.7487 59.9009 61.7515 60.1328 61.7543 60.3716C61.7371 61.93 61.7371 61.93 61.1116 62.7504C60.2606 63.3584 59.8079 63.3709 58.7632 63.3606C58.5142 63.3587 58.2653 63.3568 58.0088 63.3549C57.8171 63.3524 57.6254 63.35 57.4278 63.3475C57.4351 63.5324 57.4424 63.7173 57.4499 63.9078C57.4556 64.1517 57.4613 64.3957 57.4671 64.647C57.4744 64.8882 57.4817 65.1294 57.4892 65.378C57.4217 66.1477 57.2629 66.5181 56.7994 67.1279C55.9869 67.671 55.3114 67.6082 54.369 67.6055C54.1827 67.6066 53.9964 67.6077 53.8045 67.6088C53.1779 67.612 52.5512 67.6121 51.9246 67.6123C51.4763 67.6139 51.028 67.6156 50.5797 67.6176C49.3602 67.6222 48.1406 67.624 46.921 67.6251C46.1596 67.6258 45.3981 67.6272 44.6367 67.6287C41.9816 67.6338 39.3266 67.6365 36.6716 67.6373C34.1944 67.638 31.7173 67.6443 29.2402 67.6531C27.1153 67.6604 24.9904 67.6637 22.8654 67.6638C21.5955 67.664 20.3256 67.6658 19.0557 67.6718C17.8615 67.6773 16.6673 67.6777 15.4731 67.6744C15.0344 67.674 14.5957 67.6754 14.1571 67.6787C13.5588 67.683 12.961 67.6808 12.3627 67.677C12.1885 67.6798 12.0143 67.6826 11.8349 67.6854C10.9429 67.6724 10.6066 67.626 9.88093 67.0542C9.29599 66.2808 9.22477 65.7384 9.2302 64.7955C9.23088 64.5891 9.23155 64.3826 9.23225 64.1699C9.23488 63.8473 9.23488 63.8473 9.23757 63.5181C9.23851 63.3006 9.23946 63.0831 9.24043 62.8589C9.2429 62.3217 9.24635 61.7845 9.25066 61.2473C9.10605 61.2506 8.96144 61.2539 8.81245 61.2573C8.15122 61.2704 7.49002 61.2786 6.82871 61.2867C6.48748 61.2946 6.48748 61.2946 6.13935 61.3027C4.31669 61.3193 3.07843 61.0731 1.70988 59.7771C0.796305 58.5013 0.840183 57.2219 0.838264 55.7109C0.837224 55.5145 0.836184 55.318 0.835113 55.1155C0.832059 54.4669 0.830627 53.8183 0.829468 53.1697C0.828263 52.7179 0.827057 52.2662 0.82585 51.8145C0.823651 50.8679 0.822426 49.9212 0.821695 48.9746C0.820546 47.7629 0.815511 46.5514 0.809553 45.3398C0.805648 44.4068 0.80456 43.4739 0.804239 42.5409C0.803606 42.0943 0.801927 41.6476 0.799173 41.201C0.795592 40.5757 0.795995 39.9505 0.797353 39.3252C0.795423 39.1416 0.793493 38.9581 0.791504 38.7689C0.801118 37.3521 1.0499 36.3577 1.9979 35.2572C3.04358 34.3585 3.83167 33.9171 5.20044 33.924C5.43535 33.9247 5.67026 33.9254 5.91229 33.9261C6.15855 33.9278 6.4048 33.9296 6.65852 33.9314C6.90639 33.9323 7.15426 33.9333 7.40965 33.9343C8.02333 33.9367 8.63699 33.9402 9.25066 33.9445C9.25008 33.8015 9.2495 33.6585 9.2489 33.5112C9.23502 30.0318 9.22463 26.5524 9.2181 23.073C9.21486 21.3903 9.21044 19.7077 9.20325 18.0251C9.19699 16.5585 9.19293 15.092 9.19153 13.6254C9.19071 12.8488 9.18879 12.0723 9.18422 11.2958C9.17915 10.4289 9.17903 9.562 9.17932 8.69506C9.17706 8.43764 9.1748 8.18023 9.17247 7.91501C9.17334 7.67853 9.1742 7.44206 9.17509 7.19842C9.17451 6.9934 9.17393 6.78838 9.17334 6.57715C9.2652 5.90538 9.48899 5.51048 9.87906 4.96159C10.5858 4.43799 11.2746 4.49813 12.1308 4.5153C12.376 4.51909 12.6212 4.52288 12.8738 4.52679C13.0606 4.53166 13.2475 4.53653 13.44 4.54155C13.4278 4.34148 13.4157 4.14141 13.4032 3.93528C13.327 1.81223 13.327 1.81223 13.6658 1.17957C13.9506 0.90556 13.9506 0.90556 14.4873 0.551149C14.8692 0.168227 15.4001 0.313676 15.9086 0.311081Z" fill="white"/>
<path d="M15.9086 0.311081C16.1719 0.311354 16.1719 0.311354 16.4405 0.311632C16.6256 0.311008 16.8106 0.310384 17.0013 0.309741C17.6264 0.307909 18.2514 0.3076 18.8765 0.307287C19.3226 0.306315 19.7688 0.30526 20.2149 0.304127C21.4306 0.301364 22.6463 0.300016 23.862 0.299084C24.6209 0.29847 25.3797 0.297608 26.1386 0.296668C28.5109 0.293794 30.8831 0.291765 33.2554 0.290955C35.9974 0.290014 38.7395 0.286329 41.4815 0.280244C43.5984 0.275709 45.7153 0.273586 47.8322 0.273305C49.0977 0.273084 50.3632 0.271836 51.6287 0.268092C52.8191 0.264639 54.0095 0.264174 55.1999 0.266021C55.6372 0.266183 56.0745 0.265265 56.5118 0.263195C57.1082 0.260537 57.7044 0.26175 58.3008 0.263947C58.4744 0.262255 58.6481 0.260563 58.827 0.25882C59.7892 0.267127 60.4188 0.343681 61.1982 0.971192C61.6508 1.65179 61.6699 1.83527 61.6716 2.62048C61.6739 2.93744 61.6739 2.93744 61.6761 3.2608C61.6756 3.4936 61.6751 3.72639 61.6746 3.96624C61.6757 4.21304 61.6768 4.45983 61.6779 4.71411C61.6805 5.4003 61.6812 6.08647 61.6811 6.77267C61.6815 7.51227 61.6842 8.25187 61.6866 8.99147C61.6914 10.6091 61.6931 12.2268 61.6941 13.8445C61.6948 14.8542 61.6962 15.8639 61.6977 16.8737C61.7018 19.6684 61.7052 22.4631 61.7058 25.2578C61.7059 25.4367 61.7059 25.6156 61.706 25.7999C61.706 26.1626 61.7061 26.5253 61.7062 26.888C61.7062 27.068 61.7063 27.2481 61.7063 27.4336C61.7064 27.7039 61.7064 27.7039 61.7064 27.9798C61.7072 30.9017 61.7128 33.8236 61.7206 36.7455C61.7286 39.7441 61.7327 42.7428 61.7327 45.7414C61.7329 47.4256 61.7347 49.1097 61.7407 50.7938C61.7458 52.2277 61.7474 53.6615 61.7442 55.0953C61.7427 55.8271 61.7429 56.5588 61.7477 57.2905C61.7519 58.0835 61.7497 58.8761 61.7459 59.669C61.7487 59.9009 61.7515 60.1328 61.7543 60.3716C61.7371 61.93 61.7371 61.93 61.1116 62.7504C60.2606 63.3584 59.8079 63.3709 58.7632 63.3606C58.5142 63.3587 58.2653 63.3568 58.0088 63.3549C57.8171 63.3524 57.6254 63.35 57.4278 63.3475C57.4351 63.5324 57.4424 63.7173 57.4499 63.9078C57.4556 64.1517 57.4613 64.3957 57.4671 64.647C57.4744 64.8882 57.4817 65.1294 57.4892 65.378C57.4217 66.1477 57.2629 66.5181 56.7994 67.1279C55.9869 67.671 55.3114 67.6082 54.369 67.6055C54.1827 67.6066 53.9964 67.6077 53.8045 67.6088C53.1779 67.612 52.5512 67.6121 51.9246 67.6123C51.4763 67.6139 51.028 67.6156 50.5797 67.6176C49.3602 67.6222 48.1406 67.624 46.921 67.6251C46.1596 67.6258 45.3981 67.6272 44.6367 67.6287C41.9816 67.6338 39.3266 67.6365 36.6716 67.6373C34.1944 67.638 31.7173 67.6443 29.2402 67.6531C27.1153 67.6604 24.9904 67.6637 22.8654 67.6638C21.5955 67.664 20.3256 67.6658 19.0557 67.6718C17.8615 67.6773 16.6673 67.6777 15.4731 67.6744C15.0344 67.674 14.5957 67.6754 14.1571 67.6787C13.5588 67.683 12.961 67.6808 12.3627 67.677C12.1885 67.6798 12.0143 67.6826 11.8349 67.6854C10.9429 67.6724 10.6066 67.626 9.88093 67.0542C9.29599 66.2808 9.22477 65.7384 9.2302 64.7955C9.23088 64.5891 9.23155 64.3826 9.23225 64.1699C9.23488 63.8473 9.23488 63.8473 9.23757 63.5181C9.23851 63.3006 9.23946 63.0831 9.24043 62.8589C9.2429 62.3217 9.24635 61.7845 9.25066 61.2473C9.10605 61.2506 8.96144 61.2539 8.81245 61.2573C8.15122 61.2704 7.49002 61.2786 6.82871 61.2867C6.48748 61.2946 6.48748 61.2946 6.13935 61.3027C4.31669 61.3193 3.07843 61.0731 1.70988 59.7771C0.796305 58.5013 0.840183 57.2219 0.838264 55.7109C0.837224 55.5145 0.836184 55.318 0.835113 55.1155C0.832059 54.4669 0.830627 53.8183 0.829468 53.1697C0.828263 52.7179 0.827057 52.2662 0.82585 51.8145C0.823651 50.8679 0.822426 49.9212 0.821695 48.9746C0.820546 47.7629 0.815511 46.5514 0.809553 45.3398C0.805648 44.4068 0.80456 43.4739 0.804239 42.5409C0.803606 42.0943 0.801927 41.6476 0.799173 41.201C0.795592 40.5757 0.795995 39.9505 0.797353 39.3252C0.795423 39.1416 0.793493 38.9581 0.791504 38.7689C0.801118 37.3521 1.0499 36.3577 1.9979 35.2572C3.04358 34.3585 3.83167 33.9171 5.20044 33.924C5.43535 33.9247 5.67026 33.9254 5.91229 33.9261C6.15855 33.9278 6.4048 33.9296 6.65852 33.9314C6.90639 33.9323 7.15426 33.9333 7.40965 33.9343C8.02333 33.9367 8.63699 33.9402 9.25066 33.9445C9.25008 33.8015 9.2495 33.6585 9.2489 33.5112C9.23502 30.0318 9.22463 26.5524 9.2181 23.073C9.21486 21.3903 9.21044 19.7077 9.20325 18.0251C9.19699 16.5585 9.19293 15.092 9.19153 13.6254C9.19071 12.8488 9.18879 12.0723 9.18422 11.2958C9.17915 10.4289 9.17903 9.562 9.17932 8.69506C9.17706 8.43764 9.1748 8.18023 9.17247 7.91501C9.17334 7.67853 9.1742 7.44206 9.17509 7.19842C9.17451 6.9934 9.17393 6.78838 9.17334 6.57715C9.2652 5.90538 9.48899 5.51048 9.87906 4.96159C10.5858 4.43799 11.2746 4.49813 12.1308 4.5153C12.376 4.51909 12.6212 4.52288 12.8738 4.52679C13.0606 4.53166 13.2475 4.53653 13.44 4.54155C13.4278 4.34148 13.4157 4.14141 13.4032 3.93528C13.327 1.81223 13.327 1.81223 13.6658 1.17957C13.9506 0.90556 13.9506 0.90556 14.4873 0.551149C14.8692 0.168227 15.4001 0.313676 15.9086 0.311081ZM15.3252 2.23132C15.3252 2.9937 15.3252 3.75607 15.3252 4.54155C15.7041 4.54139 16.0831 4.54122 16.4735 4.54105C20.0456 4.54029 23.6176 4.54605 27.1897 4.55841C29.0261 4.5646 30.8625 4.56846 32.6989 4.56678C34.3001 4.56532 35.9011 4.56829 37.5023 4.57651C38.3496 4.5807 39.1969 4.58273 40.0442 4.57944C40.8429 4.57642 41.6414 4.57934 42.44 4.5867C42.7321 4.58836 43.0241 4.58791 43.3162 4.58511C45.1765 4.56878 46.3776 4.76322 47.7924 6.0117C48.0632 6.24293 48.0632 6.24293 48.3395 6.47883C48.4854 6.62394 48.6312 6.76904 48.7815 6.91855C48.9506 7.08542 49.1197 7.2523 49.2939 7.42424C49.4694 7.60081 49.6449 7.77739 49.8257 7.95932C50.0117 8.14468 50.1976 8.33004 50.3892 8.52101C50.8787 9.01014 51.3667 9.50081 51.8541 9.99196C52.1522 10.2912 52.4516 10.5889 52.7516 10.8861C53.3321 11.4616 53.9096 12.0399 54.4863 12.6192C54.6639 12.7949 54.8416 12.9706 55.0246 13.1517C55.1903 13.3199 55.3561 13.4881 55.527 13.6614C55.672 13.8068 55.817 13.9523 55.9664 14.1021C56.9511 15.3397 57.3442 16.4719 57.3191 18.0436C57.3199 18.2106 57.3206 18.3775 57.3213 18.5496C57.3227 19.1046 57.3181 19.6594 57.3135 20.2144C57.3133 20.614 57.3134 21.0136 57.3139 21.4132C57.3141 22.4948 57.3092 23.5764 57.3033 24.6581C57.2981 25.7897 57.2976 26.9212 57.2966 28.0528C57.294 30.1942 57.2871 32.3355 57.2787 34.4769C57.2693 36.9154 57.2647 39.3539 57.2605 41.7923C57.2518 46.8072 57.2371 51.822 57.2184 56.8368C56.7995 56.8458 56.3804 56.8454 55.9616 56.8368C55.5597 56.4339 55.7197 55.6835 55.719 55.1345C55.7179 54.9765 55.7169 54.8185 55.7158 54.6557C55.7126 54.1224 55.7109 53.589 55.7091 53.0556C55.7071 52.6748 55.705 52.2941 55.7028 51.9133C55.6971 50.8763 55.6928 49.8392 55.6886 48.8022C55.684 47.7197 55.6783 46.6371 55.6726 45.5546C55.6622 43.5032 55.6528 41.4518 55.6437 39.4004C55.6334 37.0655 55.6219 34.7307 55.6103 32.3959C55.5864 27.5916 55.5641 22.7872 55.5426 17.9829C55.4247 17.9821 55.3068 17.9814 55.1853 17.9806C53.9551 17.9718 52.7251 17.9572 51.495 17.9393C51.0362 17.9334 50.5775 17.9289 50.1187 17.926C49.4583 17.9215 48.7981 17.9117 48.1377 17.9009C47.9334 17.9006 47.7291 17.9004 47.5187 17.9001C46.328 17.8745 45.5736 17.7653 44.6504 16.9328C43.0863 13.7964 44.098 9.93756 44.022 6.43174C33.1696 6.43174 22.3171 6.43174 11.1359 6.43174C11.0667 16.7585 10.9976 27.0852 10.9264 37.7249C10.5808 37.7942 10.2351 37.8635 9.87906 37.9349C9.30046 37.3548 9.33893 36.8413 9.25066 36.0447C8.43906 36.0141 7.62761 35.9955 6.81562 35.9791C6.58637 35.9703 6.35713 35.9615 6.12094 35.9524C4.69091 35.9084 4.69091 35.9084 3.44125 36.5148C2.82708 37.2655 2.80668 37.6026 2.86849 38.5322C3.01278 39.1977 3.31607 39.5742 3.80454 40.0351C4.43668 40.352 5.08946 40.2752 5.78284 40.2741C5.94554 40.2747 6.10824 40.2753 6.27587 40.2759C6.82404 40.2777 7.3722 40.278 7.92037 40.2783C8.31222 40.2793 8.70407 40.2803 9.09591 40.2815C9.94136 40.2839 10.7868 40.2857 11.6323 40.287C12.9693 40.2892 14.3062 40.2935 15.6432 40.2982C19.4457 40.3112 23.2481 40.3225 27.0506 40.3295C29.1495 40.3333 31.2483 40.3394 33.3471 40.3479C34.458 40.3524 35.569 40.3556 36.6799 40.3561C37.7254 40.3565 38.7709 40.3599 39.8164 40.3654C40.1998 40.3669 40.5833 40.3674 40.9667 40.3666C41.4909 40.3658 42.0149 40.3689 42.5391 40.3728C42.6902 40.3717 42.8413 40.3705 42.997 40.3693C44.0596 40.3832 44.7697 40.6022 45.6977 41.0852C46.6682 42.1094 46.7767 42.943 46.7788 44.3048C46.7799 44.4609 46.7809 44.6171 46.782 44.7779C46.785 45.2945 46.7865 45.811 46.7876 46.3276C46.7888 46.6867 46.79 47.0459 46.7912 47.405C46.7934 48.1582 46.7947 48.9114 46.7954 49.6645C46.7965 50.629 46.8016 51.5934 46.8075 52.5579C46.8114 53.2998 46.8125 54.0418 46.8129 54.7838C46.8135 55.1393 46.8152 55.4948 46.8179 55.8503C46.8215 56.3481 46.8211 56.8456 46.8197 57.3433C46.8217 57.4898 46.8236 57.6362 46.8256 57.7871C46.8177 58.7053 46.6317 59.2355 46.1167 59.9871C46.1167 60.1258 46.1167 60.2644 46.1167 60.4072C45.8704 60.5047 45.8704 60.5047 45.6192 60.6041C45.0854 60.8123 45.0854 60.8123 44.6504 61.0373C44.2099 61.0596 43.7687 61.0681 43.3277 61.0705C43.1905 61.0715 43.0533 61.0726 42.9119 61.0736C42.45 61.0769 41.9882 61.0786 41.5263 61.0804C41.1961 61.0824 40.8658 61.0845 40.5356 61.0867C39.6372 61.0924 38.7388 61.0968 37.8404 61.101C36.9022 61.1055 35.964 61.1113 35.0258 61.1169C33.2483 61.1274 31.4709 61.1369 29.6934 61.1459C27.6702 61.1563 25.647 61.1678 23.6238 61.1795C19.4612 61.2034 15.2985 61.2258 11.1359 61.2473C11.1359 62.7027 11.1359 64.1582 11.1359 65.6577C25.7901 65.6577 40.4443 65.6577 55.5426 65.6577C55.6118 63.6478 55.6809 61.6379 55.7521 59.5671C56.1669 59.5671 56.5816 59.5671 57.0089 59.5671C57.4377 59.997 57.3651 60.8911 57.4278 61.4573C58.1882 61.4573 58.9486 61.4573 59.732 61.4573C59.732 41.9127 59.732 22.3682 59.732 2.23132C45.0777 2.23132 30.4235 2.23132 15.3252 2.23132Z" fill="#12A1DC"/>
<path d="M2.75716 41.7153C2.96406 41.7835 3.17095 41.8518 3.38411 41.9221C4.2292 42.1627 5.04816 42.1938 5.92233 42.1882C6.08737 42.1888 6.25241 42.1895 6.42245 42.1901C6.97224 42.1917 7.52197 42.1903 8.07175 42.189C8.46718 42.1896 8.8626 42.1904 9.25802 42.1913C10.1078 42.193 10.9576 42.1935 11.8074 42.193C13.1504 42.1924 14.4934 42.1954 15.8364 42.1991C19.6547 42.209 23.473 42.214 27.2913 42.2154C29.4014 42.2161 31.5115 42.2199 33.6216 42.2269C34.9575 42.2312 36.2933 42.2317 37.6292 42.2294C38.4587 42.2288 39.288 42.2318 40.1175 42.2357C40.5029 42.2368 40.8884 42.2365 41.2739 42.2347C41.7988 42.2323 42.3235 42.2351 42.8484 42.2392C43.0789 42.2364 43.0789 42.2364 43.314 42.2334C43.9885 42.2437 44.3473 42.2574 44.8496 42.7297C45.1676 43.3894 45.1509 43.944 45.1539 44.6749C45.1554 44.8232 45.1568 44.9715 45.1583 45.1243C45.1621 45.6135 45.1613 46.1026 45.1601 46.5918C45.1611 46.9323 45.1622 47.2728 45.1635 47.6133C45.1653 48.3266 45.1648 49.0398 45.1627 49.7531C45.1603 50.667 45.1646 51.5807 45.1707 52.4946C45.1745 53.1976 45.1745 53.9006 45.1733 54.6037C45.1732 54.9406 45.1745 55.2776 45.1771 55.6145C45.1802 56.0857 45.178 56.5565 45.1744 57.0276C45.1744 57.2956 45.1743 57.5635 45.1743 57.8396C45.0461 58.667 44.8945 58.8601 44.2314 59.3571C43.6678 59.4392 43.19 59.4699 42.6268 59.4624C42.4643 59.4635 42.3018 59.4647 42.1344 59.4659C41.5894 59.4688 41.0446 59.4656 40.4996 59.4625C40.109 59.4633 39.7185 59.4644 39.328 59.4659C38.2668 59.4689 37.2057 59.4665 36.1445 59.463C35.0346 59.4601 33.9247 59.4615 32.8147 59.4622C30.9505 59.4628 29.0862 59.46 27.222 59.4551C25.0662 59.4495 22.9105 59.4491 20.7547 59.4516C18.6818 59.4539 16.609 59.4526 14.5361 59.4496C13.6536 59.4484 12.7711 59.4484 11.8885 59.4494C10.8492 59.4504 9.80996 59.4483 8.77065 59.4437C8.38907 59.4426 8.00748 59.4425 7.62589 59.4435C7.10524 59.4448 6.58475 59.4422 6.06411 59.4385C5.83726 59.4404 5.83726 59.4404 5.60583 59.4424C4.69091 59.4308 4.1123 59.2912 3.38556 58.7271C2.75684 57.7717 2.68013 57.0085 2.68583 55.8779C2.68573 55.7241 2.68564 55.5703 2.68555 55.4118C2.68598 54.9072 2.69086 54.4028 2.6958 53.8982C2.69697 53.5469 2.69786 53.1955 2.69849 52.8441C2.70088 51.9223 2.70705 51.0004 2.71402 50.0786C2.72046 49.1367 2.72332 48.1949 2.72648 47.253C2.73321 45.4071 2.74392 43.5612 2.75716 41.7153Z" fill="white"/>
<path d="M23.3766 47.084C24.5883 48.2397 25.3767 49.0612 25.4581 50.7856C25.4392 51.938 25.051 52.7947 24.3323 53.6865C23.2041 54.6273 22.0698 55.0409 20.5938 55.0188C19.4668 54.8384 18.5828 54.0826 17.8519 53.2402C17.0228 52.0814 17.0837 50.8661 17.2104 49.4861C17.5682 48.3485 18.3694 47.6445 19.3051 46.9658C20.5981 46.5337 22.1354 46.5183 23.3766 47.084Z" fill="#12A1DC"/>
<path d="M13.2306 46.7558C14.2437 47.0823 14.8807 47.6476 15.43 48.5541C15.9578 49.804 15.9666 51.2052 15.6059 52.5043C15.244 53.3352 14.7346 54.0608 13.9719 54.5594C13.1834 54.8221 12.4207 54.8347 11.5941 54.8416C11.4337 54.843 11.2733 54.8443 11.1079 54.8457C10.6474 54.8351 10.6474 54.8351 9.87913 54.7366C9.18626 53.6945 9.39049 52.4429 9.39407 51.2222C9.39473 50.7479 9.38982 50.2738 9.38451 49.7995C9.38403 49.4981 9.38388 49.1968 9.3841 48.8954C9.38347 48.6211 9.38285 48.3469 9.38221 48.0643C9.46019 47.3859 9.46019 47.3859 9.73604 46.9826C10.678 46.3766 12.1553 46.639 13.2306 46.7558Z" fill="#12A1DC"/>
<path d="M45.9073 7.06183C47.0516 8.01892 48.1143 9.03394 49.1663 10.0915C49.3316 10.2571 49.4969 10.4226 49.6672 10.5932C50.0137 10.9405 50.3599 11.288 50.7059 11.6358C51.2383 12.1707 51.7718 12.7045 52.3054 13.2382C52.6424 13.5762 52.9794 13.9144 53.3163 14.2526C53.4767 14.4129 53.637 14.5733 53.8022 14.7385C54.0216 14.9594 54.0216 14.9594 54.2454 15.1848C54.3749 15.3149 54.5044 15.4449 54.6379 15.5789C54.9143 15.8827 54.9143 15.8827 54.9143 16.0927C53.7326 16.1083 52.5509 16.1197 51.3691 16.1274C50.967 16.1305 50.5649 16.1348 50.1628 16.1403C49.5852 16.1479 49.0076 16.1515 48.4299 16.1543C48.2498 16.1575 48.0698 16.1608 47.8843 16.1641C47.7166 16.1642 47.5489 16.1642 47.3761 16.1643C47.2287 16.1657 47.0812 16.1671 46.9293 16.1685C46.4035 16.0673 46.2221 15.8923 45.9073 15.4627C45.8317 15.068 45.8317 15.068 45.8359 14.62C45.836 14.4518 45.836 14.2837 45.8361 14.1105C45.8393 13.9299 45.8426 13.7494 45.8459 13.5635C45.8468 13.3779 45.8477 13.1923 45.8486 13.0011C45.8521 12.4083 45.86 11.8156 45.868 11.2229C45.8712 10.821 45.874 10.4192 45.8766 10.0173C45.8835 9.03209 45.8944 8.04698 45.9073 7.06183Z" fill="white"/>
<path d="M25.8773 18.2061C26.6712 18.4904 26.8422 18.9399 27.265 19.6631C27.5014 20.2178 27.6928 20.7834 27.8803 21.3564C28.3298 22.7008 28.3298 22.7008 28.8425 24.0219C29.7388 26.1762 29.7388 26.1762 29.3596 27.4339C28.7705 27.4995 28.7705 27.4995 28.1028 27.4339C27.7232 26.9351 27.7232 26.9351 27.4744 26.3838C27.4053 26.2452 27.3362 26.1065 27.265 25.9637C26.7309 25.8981 26.2169 25.856 25.6809 25.8325C25.532 25.8243 25.3831 25.8162 25.2296 25.8079C24.8608 25.788 24.4919 25.7706 24.123 25.7537C24.0582 25.9919 23.9934 26.2302 23.9266 26.4757C23.704 27.2239 23.704 27.2239 23.4946 27.4339C22.8793 27.4733 22.8793 27.4733 22.2378 27.4339C22.0995 27.2953 21.9613 27.1566 21.8188 27.0138C21.8993 26.0503 22.201 25.1932 22.5307 24.2893C22.5801 24.1537 22.6294 24.0181 22.6803 23.8785C22.7843 23.5936 22.8889 23.3089 22.994 23.0244C23.1538 22.5914 23.3112 22.1575 23.4684 21.7235C23.5703 21.4455 23.6723 21.1675 23.7744 20.8896C23.8663 20.6391 23.9582 20.3887 24.0529 20.1307C24.858 18.1792 24.858 18.1792 25.8773 18.2061Z" fill="#12A1DC"/>
<path d="M36.416 46.6377C37.2475 46.7793 37.3161 46.9331 37.7906 47.5959C37.8911 47.7519 37.9915 47.9078 38.095 48.0685C38.1847 48.1898 38.2743 48.311 38.3667 48.436C38.5049 48.436 38.6432 48.436 38.7856 48.436C38.9874 48.163 39.1777 47.8814 39.3616 47.5959C39.952 46.7712 39.952 46.7712 40.7362 46.6377C41.2992 46.7558 41.2992 46.7558 41.5087 46.9659C41.6177 48.0176 41.4135 48.4873 40.7624 49.3023C40.2051 49.9459 40.2051 49.9459 40.0481 50.7389C40.4325 51.5453 41.0331 52.2049 41.5888 52.8981C41.9276 53.4765 41.9276 53.4765 41.9129 54.0483C41.7181 54.5266 41.7181 54.5266 41.0897 54.9467C40.4752 54.9159 40.2786 54.7645 39.8493 54.3174C39.7229 54.1482 39.5966 53.979 39.4664 53.8047C39.3378 53.636 39.2093 53.4673 39.0769 53.2936C38.7856 52.8464 38.7856 52.8464 38.7856 52.4264C38.2026 52.9785 37.745 53.4652 37.3324 54.1591C36.9004 54.7366 36.9004 54.7366 36.2458 54.9467C36.0471 54.9467 35.8484 54.9467 35.6436 54.9467C35.2247 54.5266 35.2247 54.5266 35.1985 53.9097C35.365 52.8479 36.1218 52.101 36.7916 51.3025C37.1785 50.7703 37.1785 50.7703 36.992 50.2031C36.7006 49.7124 36.3915 49.291 36.0233 48.856C35.4324 48.0954 35.4324 48.0954 35.4472 47.399C35.7247 46.787 35.7371 46.7802 36.416 46.6377Z" fill="#12A1DC"/>
<path d="M23.789 33.8869C23.9955 33.8853 23.9955 33.8853 24.2061 33.8836C24.6622 33.8807 25.1183 33.8809 25.5745 33.8814C25.8912 33.8806 26.208 33.8796 26.5247 33.8786C27.1893 33.8771 27.8538 33.8771 28.5183 33.8782C29.3697 33.8795 30.221 33.8759 31.0723 33.871C31.7268 33.8679 32.3812 33.8678 33.0357 33.8684C33.3496 33.8683 33.6634 33.8672 33.9772 33.8651C34.4165 33.8625 34.8556 33.8639 35.2949 33.8664C35.5448 33.8662 35.7947 33.8661 36.0522 33.866C36.741 33.9507 37.0278 34.1061 37.5288 34.5746C37.4633 35.0734 37.4633 35.0734 37.3193 35.6247C36.5645 36.1293 36.2197 36.099 35.322 36.1024C35.184 36.1035 35.046 36.1046 34.9038 36.1057C34.4478 36.1086 33.9918 36.1084 33.5358 36.1079C33.2189 36.1087 32.9019 36.1097 32.585 36.1107C31.9208 36.1122 31.2566 36.1122 30.5925 36.1111C29.7408 36.1098 28.8893 36.1134 28.0377 36.1183C27.3832 36.1214 26.7288 36.1215 26.0744 36.1209C25.7603 36.121 25.4463 36.1221 25.1323 36.1242C24.6935 36.1268 24.2549 36.1254 23.8161 36.123C23.5664 36.1231 23.3166 36.1232 23.0593 36.1234C22.4472 36.0448 22.4472 36.0448 22.045 35.7585C21.8188 35.4147 21.8188 35.4147 21.8581 34.8765C22.2152 33.8022 22.7619 33.8908 23.789 33.8869Z" fill="#12A1DC"/>
<path d="M32.7502 46.8994C33.0906 47.0971 33.0906 47.0971 33.5488 47.5959C33.6273 48.2785 33.6273 48.2785 33.5488 48.856C32.1349 49.0923 32.1349 49.0923 31.6636 48.856C30.4804 48.7766 30.4804 48.7766 29.3595 49.0661C28.9238 49.8305 28.8503 50.5074 28.9405 51.3763C29.3102 52.1558 29.3102 52.1558 29.9879 52.6364C31.1357 52.7107 31.5965 52.726 32.5015 52.0064C33.4253 52.0925 33.4253 52.0925 33.7583 52.4264C33.8368 53.0171 33.8368 53.0171 33.7583 53.6865C32.9441 54.5262 32.1228 54.9032 30.9697 55.0123C29.6509 54.9002 28.7066 54.6086 27.8147 53.5946C26.9073 52.4587 26.741 51.5748 26.7657 50.126C26.9217 48.8807 27.5484 48.127 28.4431 47.294C29.637 46.5065 31.4013 46.4768 32.7502 46.8994Z" fill="#12A1DC"/>
<path d="M32.0938 29.6864C32.4933 29.6834 32.4933 29.6834 32.9009 29.6803C33.1929 29.6804 33.485 29.6806 33.777 29.6809C34.0754 29.6801 34.3739 29.6792 34.6724 29.6782C35.2983 29.6766 35.9243 29.6767 36.5503 29.6778C37.3529 29.679 38.1553 29.6755 38.9579 29.6706C39.5744 29.6675 40.1909 29.6673 40.8074 29.668C41.1033 29.6679 41.3992 29.6667 41.6951 29.6646C42.1088 29.662 42.5225 29.6639 42.9362 29.6659C43.1717 29.6658 43.4071 29.6656 43.6498 29.6655C44.2315 29.7441 44.2315 29.7441 44.6283 30.0304C44.8599 30.3742 44.8599 30.3742 44.8337 30.9123C44.6504 31.4243 44.6504 31.4243 44.022 31.8443C43.4483 31.8976 43.4483 31.8976 42.7459 31.8987C42.4831 31.9 42.2203 31.9013 41.9496 31.9027C41.6626 31.9019 41.3756 31.9011 41.0887 31.9001C40.7947 31.9004 40.5007 31.9008 40.2068 31.9013C39.591 31.9019 38.9753 31.901 38.3595 31.8991C37.5694 31.8967 36.7794 31.8981 35.9893 31.9006C35.3824 31.9021 34.7756 31.9016 34.1688 31.9005C33.8774 31.9002 33.586 31.9006 33.2946 31.9016C32.888 31.9026 32.4813 31.9007 32.0746 31.8987C31.843 31.8983 31.6114 31.898 31.3728 31.8976C30.8256 31.8443 30.8256 31.8443 30.4067 31.4243C30.3543 30.7942 30.3543 30.7942 30.4067 30.1641C30.9786 29.5907 31.2934 29.6897 32.0938 29.6864Z" fill="#12A1DC"/>
<path d="M33.0451 21.2856C33.2904 21.2836 33.5358 21.2815 33.7886 21.2795C34.0548 21.2797 34.321 21.2799 34.5952 21.2801C34.8675 21.2792 35.1397 21.2783 35.4202 21.2773C35.9969 21.2758 36.5735 21.2758 37.1502 21.2769C37.8894 21.2782 38.6284 21.2746 39.3675 21.2697C40.0722 21.2659 40.7768 21.2667 41.4814 21.2669C41.8801 21.264 41.8801 21.264 42.2868 21.2611C42.6558 21.263 42.6558 21.263 43.0323 21.265C43.2492 21.2649 43.4661 21.2648 43.6896 21.2646C44.2315 21.3432 44.2315 21.3432 44.6223 21.6295C44.8599 21.9733 44.8599 21.9733 44.8337 22.5115C44.6504 23.0234 44.6504 23.0234 44.022 23.4434C43.4881 23.4968 43.4881 23.4968 42.8421 23.4978C42.6003 23.4991 42.3584 23.5004 42.1093 23.5018C41.7175 23.5005 41.7175 23.5005 41.3178 23.4992C41.05 23.4996 40.7822 23.5 40.5063 23.5005C39.9399 23.5007 39.3735 23.5002 38.807 23.4982C38.0803 23.4958 37.3537 23.4972 36.627 23.4997C35.9344 23.5016 35.2419 23.5003 34.5494 23.4992C34.157 23.5005 34.157 23.5005 33.7567 23.5018C33.3949 23.4998 33.3949 23.4998 33.0258 23.4978C32.7063 23.4973 32.7063 23.4973 32.3804 23.4968C31.873 23.4434 31.873 23.4434 31.4541 23.0234C31.4017 22.3933 31.4017 22.3933 31.4541 21.7633C32.0094 21.2064 32.2697 21.289 33.0451 21.2856Z" fill="#12A1DC"/>
<path d="M21.0332 48.5935C21.8614 48.6489 22.2175 48.7744 22.866 49.2761C23.4248 50.1165 23.4347 50.808 23.285 51.7963C22.892 52.3217 22.6065 52.5565 22.0282 52.8464C20.5431 52.9685 20.5431 52.9685 19.7371 52.4526C19.0806 51.7744 19.0144 51.2819 19.0195 50.3344C19.146 49.6228 19.6016 49.2929 20.143 48.856C20.3524 48.646 20.3524 48.646 21.0332 48.5935Z" fill="white"/>
<path d="M40.9974 25.476C41.2309 25.4767 41.4643 25.4774 41.7048 25.4781C41.9374 25.4747 42.17 25.4713 42.4097 25.4678C42.744 25.4676 42.744 25.4676 43.0852 25.4674C43.3921 25.4665 43.3921 25.4665 43.7053 25.4655C44.2315 25.5437 44.2315 25.5437 44.619 25.8299C44.8599 26.1738 44.8599 26.1738 44.8337 26.712C44.6504 27.2239 44.6504 27.2239 44.022 27.6439C43.5151 27.6983 43.5151 27.6983 42.9215 27.6997C42.6013 27.7005 42.6013 27.7005 42.2747 27.7014C42.0521 27.6997 41.8294 27.6981 41.6001 27.6964C41.3766 27.6981 41.1532 27.6997 40.923 27.7014C40.6032 27.7005 40.6032 27.7005 40.277 27.6997C40.0814 27.6992 39.8857 27.6988 39.6841 27.6983C39.2043 27.6439 39.2043 27.6439 38.7854 27.2239C38.733 26.5938 38.733 26.5938 38.7854 25.9638C39.4337 25.3137 40.1119 25.482 40.9974 25.476Z" fill="#12A1DC"/>
<path d="M23.5197 29.6883C23.7329 29.6878 23.9461 29.6873 24.1657 29.6867C24.3892 29.6883 24.6126 29.69 24.8428 29.6916C25.1767 29.6892 25.1767 29.6892 25.5174 29.6867C25.8376 29.6875 25.8376 29.6875 26.1642 29.6883C26.4581 29.6891 26.4581 29.6891 26.7578 29.6898C27.2647 29.7441 27.2647 29.7441 27.8931 30.1642C27.9717 30.7942 27.9717 30.7942 27.8931 31.4243C26.9353 32.0645 25.9824 31.9134 24.8559 31.91C24.5234 31.9151 24.5234 31.9151 24.1841 31.9202C23.9716 31.9204 23.7591 31.9205 23.5402 31.9206C23.2484 31.9216 23.2484 31.9216 22.9506 31.9225C22.447 31.8443 22.447 31.8443 22.0621 31.5582C21.8186 31.2143 21.8186 31.2143 21.8579 30.6761C22.1778 29.7139 22.5861 29.6906 23.5197 29.6883Z" fill="#12A1DC"/>
<path d="M41.6725 33.8768C41.856 33.8775 42.0395 33.8782 42.2285 33.8789C42.4112 33.8755 42.5938 33.8721 42.782 33.8686C43.0455 33.8684 43.0455 33.8684 43.3143 33.8682C43.4751 33.8676 43.6358 33.867 43.8015 33.8663C44.3437 33.9649 44.5339 34.1353 44.8599 34.5746C44.8337 35.1128 44.8337 35.1128 44.6505 35.6247C44.0099 36.0529 43.8732 36.0983 43.1506 36.1005C42.9844 36.1011 42.8183 36.1016 42.647 36.1022C42.388 36.0997 42.388 36.0997 42.1238 36.0972C41.9503 36.0989 41.7768 36.1005 41.5981 36.1022C41.4321 36.1016 41.2662 36.1011 41.0953 36.1005C40.9435 36.1001 40.7917 36.0996 40.6354 36.0991C40.2517 36.0447 40.2517 36.0447 39.8327 35.6247C39.7804 34.9946 39.7804 34.9946 39.8327 34.3646C40.4234 33.7723 40.8652 33.8837 41.6725 33.8768Z" fill="#12A1DC"/>
<path d="M11.5549 48.6461C13.0212 48.8561 13.0212 48.8561 13.4205 49.1063C13.9353 49.9599 13.7898 51.0535 13.6496 52.0064C13.1914 52.584 13.1914 52.584 12.6023 52.8465C12.2566 52.8465 11.911 52.8465 11.5549 52.8465C11.5549 51.4603 11.5549 50.0742 11.5549 48.6461Z" fill="white"/>
<path d="M34.3735 25.4781C34.6346 25.4746 34.8957 25.471 35.1648 25.4674C35.8529 25.5437 35.8529 25.5437 36.2612 25.8292C36.4813 26.1738 36.4813 26.1738 36.4551 26.7119C36.2718 27.2239 36.2718 27.2239 35.6434 27.6439C35.0011 27.6997 35.0011 27.6997 34.2688 27.6964C33.9055 27.698 33.9055 27.698 33.5349 27.6997C32.9204 27.6439 32.9204 27.6439 32.5014 27.2239C32.4491 26.5938 32.4491 26.5938 32.5014 25.9637C33.1012 25.3624 33.5388 25.4807 34.3735 25.4781Z" fill="#12A1DC"/>
<path d="M6.10884 52.8465C7.27519 52.9658 7.27519 52.9658 7.5751 53.2665C7.61438 53.7784 7.61438 53.7784 7.5751 54.3166C7.15617 54.7367 7.15617 54.7367 6.63251 54.7892C6.10884 54.7367 6.10884 54.7367 5.68991 54.3166C5.63754 53.7916 5.63754 53.7916 5.68991 53.2665C5.82816 53.1279 5.9664 52.9893 6.10884 52.8465Z" fill="#12A1DC"/>
<path d="M25.5891 21.9733C26.2824 22.6685 26.323 22.9251 26.427 23.8635C25.9431 23.8635 25.4592 23.8635 24.9607 23.8635C25.1681 23.2398 25.3754 22.616 25.5891 21.9733Z" fill="white"/>
</svg>
