<svg width="62" height="68" viewBox="0 0 62 68" fill="none" xmlns="http://www.w3.org/2000/svg"><path d="M15.909.311h.531l.561-.001 1.875-.003c.447 0 .893-.002 1.339-.003a2421.514 2421.514 0 015.924-.007L33.255.29c2.742 0 5.485-.004 8.226-.009 2.117-.005 4.234-.007 6.351-.008 1.266 0 2.531-.001 3.797-.005 1.19-.003 2.38-.004 3.57-.002.438 0 .876 0 1.313-.003.596-.002 1.192-.001 1.789 0 .173 0 .347-.002.526-.004.962.008 1.592.085 2.371.712.453.68.472.864.474 1.65l.004.64-.001.705.003.748c.003.686.003 1.372.003 2.059 0 .74.003 1.479.006 2.218.004 1.618.006 3.236.007 4.854 0 1.01.002 2.019.004 3.029.004 2.794.007 5.59.008 8.384v2.722c.001 2.922.007 5.844.015 8.765.008 3 .012 5.998.012 8.996 0 1.685.002 3.369.008 5.053.005 1.434.006 2.867.003 4.301-.001.732-.001 1.464.004 2.196.004.793.002 1.585-.002 2.378l.008.703c-.017 1.558-.017 1.558-.642 2.378-.851.608-1.304.62-2.349.61l-.754-.005-.581-.008.022.56.017.74.022.731c-.067.77-.226 1.14-.69 1.75-.812.543-1.488.48-2.43.478l-.565.003c-.626.003-1.253.003-1.88.003l-1.344.006c-1.22.004-2.44.006-3.659.007a4918.18 4918.18 0 01-10.25.012c-2.477.001-4.954.007-7.43.016-2.126.007-4.25.01-6.376.01-1.27.001-2.54.003-3.81.009-1.194.005-2.388.006-3.582.002-.439 0-.877.001-1.316.005-.598.004-1.196.002-1.794-.002l-.528.008c-.892-.013-1.228-.059-1.954-.63-.585-.774-.656-1.317-.65-2.26l.001-.625.006-.652.002-.66.01-1.61-.438.01c-.66.012-1.322.02-1.983.029l-.69.016c-1.822.016-3.06-.23-4.43-1.526-.913-1.276-.869-2.555-.87-4.066l-.004-.596C.832 54.467.831 53.819.83 53.17c0-.452-.002-.904-.003-1.355-.002-.947-.004-1.894-.004-2.84A915.72 915.72 0 00.81 45.34c-.004-.933-.005-1.866-.006-2.8 0-.446-.002-.892-.005-1.339-.003-.625-.003-1.25-.002-1.876l-.005-.556c.01-1.417.258-2.411 1.206-3.512 1.046-.898 1.834-1.34 3.202-1.333l.712.002.747.005.75.003 1.842.01-.002-.433c-.014-3.48-.024-6.959-.03-10.438a2831.41 2831.41 0 00-.016-5.048c-.006-1.466-.01-2.933-.011-4.4-.001-.776-.003-1.553-.008-2.33-.005-.866-.005-1.733-.005-2.6l-.007-.78.003-.717-.002-.62c.092-.673.316-1.068.706-1.616.707-.524 1.396-.464 2.252-.447l.743.012.566.015-.037-.607c-.076-2.123-.076-2.123.263-2.755.285-.274.285-.274.821-.629.382-.383.913-.237 1.422-.24z" fill="#fff"/><path d="M15.909.311h.531l.561-.001 1.875-.003c.447 0 .893-.002 1.339-.003a2421.514 2421.514 0 015.924-.007L33.255.29c2.742 0 5.485-.004 8.226-.009 2.117-.005 4.234-.007 6.351-.008 1.266 0 2.531-.001 3.797-.005 1.19-.003 2.38-.004 3.57-.002.438 0 .876 0 1.313-.003.596-.002 1.192-.001 1.789 0 .173 0 .347-.002.526-.004.962.008 1.592.085 2.371.712.453.68.472.864.474 1.65l.004.64-.001.705.003.748c.003.686.003 1.372.003 2.059 0 .74.003 1.479.006 2.218.004 1.618.006 3.236.007 4.854 0 1.01.002 2.019.004 3.029.004 2.794.007 5.59.008 8.384v2.722c.001 2.922.007 5.844.015 8.765.008 3 .012 5.998.012 8.996 0 1.685.002 3.369.008 5.053.005 1.434.006 2.867.003 4.301-.001.732-.001 1.464.004 2.196.004.793.002 1.585-.002 2.378l.008.703c-.017 1.558-.017 1.558-.642 2.378-.851.608-1.304.62-2.349.61l-.754-.005-.581-.008.022.56.017.74.022.731c-.067.77-.226 1.14-.69 1.75-.812.543-1.488.48-2.43.478l-.565.003c-.626.003-1.253.003-1.88.003l-1.344.006c-1.22.004-2.44.006-3.659.007a4918.18 4918.18 0 01-10.25.012c-2.477.001-4.954.007-7.43.016-2.126.007-4.25.01-6.376.01-1.27.001-2.54.003-3.81.009-1.194.005-2.388.006-3.582.002-.439 0-.877.001-1.316.005-.598.004-1.196.002-1.794-.002l-.528.008c-.892-.013-1.228-.059-1.954-.63-.585-.774-.656-1.317-.65-2.26l.001-.625.006-.652.002-.66.01-1.61-.438.01c-.66.012-1.322.02-1.983.029l-.69.016c-1.822.016-3.06-.23-4.43-1.526-.913-1.276-.869-2.555-.87-4.066l-.004-.596C.832 54.467.831 53.819.83 53.17c0-.452-.002-.904-.003-1.355-.002-.947-.004-1.894-.004-2.84A915.72 915.72 0 00.81 45.34c-.004-.933-.005-1.866-.006-2.8 0-.446-.002-.892-.005-1.339-.003-.625-.003-1.25-.002-1.876l-.005-.556c.01-1.417.258-2.411 1.206-3.512 1.046-.898 1.834-1.34 3.202-1.333l.712.002.747.005.75.003 1.842.01-.002-.433c-.014-3.48-.024-6.959-.03-10.438a2831.41 2831.41 0 00-.016-5.048c-.006-1.466-.01-2.933-.011-4.4-.001-.776-.003-1.553-.008-2.33-.005-.866-.005-1.733-.005-2.6l-.007-.78.003-.717-.002-.62c.092-.673.316-1.068.706-1.616.707-.524 1.396-.464 2.252-.447l.743.012.566.015-.037-.607c-.076-2.123-.076-2.123.263-2.755.285-.274.285-.274.821-.629.382-.383.913-.237 1.422-.24zm-.584 1.92v2.31h1.149c3.572 0 7.144.005 10.716.017 1.836.007 3.672.01 5.509.009a794.52 794.52 0 014.803.01c.848.004 1.695.006 2.542.002.799-.003 1.597 0 2.396.008.292.001.584 0 .876-.002 1.86-.016 3.062.178 4.476 1.427.271.23.271.23.547.467l.443.44.512.505.532.535.563.562c.49.49.978.98 1.465 1.471.298.3.598.597.898.894.58.576 1.158 1.154 1.734 1.733l.539.533.502.51.44.44c.984 1.238 1.377 2.37 1.352 3.942l.002.506c.002.555-.003 1.11-.008 1.664v1.2a501.57 501.57 0 01-.01 3.244c-.005 1.132-.005 2.263-.006 3.395-.003 2.141-.01 4.283-.018 6.424-.01 2.438-.014 4.877-.019 7.315-.008 5.015-.023 10.03-.042 15.045-.419.009-.838.008-1.256 0-.402-.403-.242-1.154-.243-1.703l-.003-.478-.007-1.6-.006-1.143c-.006-1.037-.01-2.074-.014-3.11l-.016-3.248-.03-6.155a28852.979 28852.979 0 01-.101-21.417l-.357-.002c-1.23-.01-2.46-.024-3.69-.042-.459-.006-.917-.01-1.376-.013-.66-.004-1.32-.014-1.981-.025h-.62c-1.19-.026-1.944-.136-2.868-.968-1.564-3.137-.552-6.995-.628-10.501H11.136l-.21 31.293-1.047.21c-.579-.58-.54-1.094-.628-1.89-.812-.03-1.623-.05-2.435-.066l-.695-.027c-1.43-.044-1.43-.044-2.68.563-.614.75-.634 1.088-.573 2.017.145.666.448 1.042.937 1.503.632.317 1.284.24 1.978.24h.493a2302.87 2302.87 0 012.82.006c.845.003 1.69.005 2.536.006 1.337.002 2.674.007 4.011.011 3.803.013 7.605.024 11.408.032 2.099.003 4.197.01 6.296.018 1.111.004 2.222.008 3.333.008 1.045 0 2.09.004 3.136.01h1.15c.525 0 1.049.003 1.573.007l.458-.004c1.063.014 1.773.233 2.7.716.971 1.024 1.08 1.858 1.082 3.22l.003.473c.003.517.005 1.033.006 1.55l.003 1.077c.002.753.004 1.506.004 2.26.002.964.007 1.928.012 2.893.004.742.005 1.484.006 2.226 0 .355.002.71.005 1.066.004.498.003.996.002 1.493l.006.444c-.008.918-.194 1.449-.71 2.2v.42l-.497.197c-.534.208-.534.208-.969.433-.44.023-.881.031-1.322.034l-.416.003-1.386.006-.99.007-2.696.014-2.814.016-5.333.029-6.07.033c-4.162.024-8.325.047-12.487.068v4.41h44.407l.21-6.09h1.256c.429.43.356 1.324.419 1.89h2.304V2.231H15.325z" fill="#12A1DC"/><path d="M2.757 41.715l.627.207c.845.24 1.664.272 2.538.266l.5.002c.55.002 1.1 0 1.65-.001l1.186.002c.85.002 1.7.002 2.55.002 1.342 0 2.685.002 4.028.006 3.819.01 7.637.015 11.455.016 2.11.001 4.22.005 6.33.012 1.337.004 2.672.005 4.008.002.83 0 1.659.003 2.489.007l1.156-.001c.525-.003 1.05 0 1.574.004l.466-.006c.675.01 1.033.024 1.536.497.318.66.3 1.214.304 1.945l.004.45c.004.489.003.978.002 1.467l.004 1.021c.001.714 0 1.427-.001 2.14-.003.914.002 1.828.008 2.742.004.703.004 1.406.002 2.109 0 .337.002.674.004 1.01.003.472.001.943-.003 1.414v.812c-.128.827-.28 1.02-.943 1.517a9.66 9.66 0 01-1.604.105l-.493.004c-.545.003-1.09 0-1.634-.004l-1.172.004c-1.061.003-2.122 0-3.184-.003a2085.302 2085.302 0 01-8.922-.008 1742.69 1742.69 0 00-6.467-.003c-2.073.002-4.146 0-6.219-.002-.882-.002-1.765-.002-2.647 0-1.04 0-2.079-.002-3.118-.006-.382-.001-.764-.002-1.145 0-.52 0-1.041-.002-1.562-.006l-.458.004c-.915-.011-1.494-.15-2.22-.715-.63-.955-.706-1.718-.7-2.85v-.465c0-.505.005-1.01.01-1.514l.002-1.054c.003-.922.01-1.844.016-2.765.006-.942.01-1.884.012-2.826.007-1.846.018-3.692.031-5.538z" fill="#fff"/><path d="M23.377 47.084c1.211 1.156 2 1.977 2.081 3.702-.019 1.152-.407 2.009-1.126 2.9-1.128.941-2.262 1.355-3.738 1.333-1.127-.18-2.011-.936-2.742-1.779-.83-1.159-.768-2.374-.642-3.754.358-1.137 1.16-1.841 2.095-2.52 1.293-.432 2.83-.448 4.072.118zm-10.147-.328c1.014.326 1.65.892 2.2 1.798.528 1.25.537 2.651.176 3.95-.362.831-.871 1.557-1.634 2.055-.789.263-1.551.276-2.378.283l-.486.004c-.46-.01-.46-.01-1.229-.11-.693-1.041-.489-2.293-.485-3.514 0-.474-.004-.948-.01-1.422v-.905l-.002-.83c.078-.68.078-.68.354-1.082.942-.606 2.42-.344 3.495-.227z" fill="#12A1DC"/><path d="M45.907 7.062c1.145.957 2.207 1.972 3.26 3.03l.5.501 1.039 1.043a3224.582 3224.582 0 012.61 2.617l.486.486c.22.22.22.22.443.446l.393.394c.276.304.276.304.276.514-1.181.015-2.363.027-3.545.034l-1.206.013c-.578.008-1.155.011-1.733.014l-.546.01h-.508l-.447.005c-.526-.102-.707-.277-1.022-.706-.075-.395-.075-.395-.071-.843v-.51l.01-.546.003-.563c.003-.593.011-1.185.019-1.778l.009-1.206c.006-.985.017-1.97.03-2.955z" fill="#fff"/><path d="M25.877 18.206c.794.284.965.734 1.388 1.457.236.555.428 1.12.615 1.693.45 1.345.45 1.345.963 2.666.896 2.154.896 2.154.517 3.412-.59.066-.59.066-1.257 0-.38-.499-.38-.499-.629-1.05l-.209-.42a20.006 20.006 0 00-1.584-.131l-.451-.025c-.37-.02-.738-.037-1.107-.054l-.196.722c-.223.748-.223.748-.432.958-.616.04-.616.04-1.257 0l-.42-.42c.081-.964.383-1.82.713-2.725l.15-.41c.103-.285.208-.57.313-.855.16-.433.317-.867.474-1.3a1183.619 1183.619 0 01.585-1.593c.805-1.952.805-1.952 1.824-1.925zm10.539 28.432c.832.141.9.295 1.375.958l.304.473.272.367h.419c.201-.273.392-.555.576-.84.59-.825.59-.825 1.374-.958.563.118.563.118.773.328.109 1.052-.096 1.521-.747 2.336-.557.644-.557.644-.714 1.437.384.806.985 1.466 1.54 2.16.34.578.34.578.325 1.15-.195.478-.195.478-.823.898-.615-.031-.811-.183-1.24-.63l-.384-.512-.39-.511c-.29-.448-.29-.448-.29-.868-.583.552-1.041 1.04-1.454 1.733-.432.578-.432.578-1.086.788h-.602c-.42-.42-.42-.42-.445-1.037.166-1.062.923-1.809 1.593-2.607.386-.533.386-.533.2-1.1a9.69 9.69 0 00-.969-1.347c-.59-.76-.59-.76-.576-1.457.278-.612.29-.619.969-.761zM23.789 33.887l.417-.003c.456-.003.912-.003 1.369-.003l.95-.002c.664-.002 1.329-.002 1.993 0 .852 0 1.703-.003 2.554-.008.655-.003 1.31-.003 1.964-.003.314 0 .627 0 .941-.003.44-.003.879-.001 1.318.001h.757c.689.085.976.24 1.477.709-.066.498-.066.498-.21 1.05-.755.504-1.1.474-1.997.477l-.418.004c-.456.003-.912.002-1.368.002l-.951.003h-1.992c-.852-.001-1.704.002-2.555.007-.655.003-1.31.003-1.964.003l-.942.003c-.439.003-.877.001-1.316-.001h-.757c-.612-.078-.612-.078-1.014-.364-.226-.344-.226-.344-.187-.883.357-1.074.904-.985 1.931-.99zM32.75 46.9c.34.197.34.197.799.696.078.683.078.683 0 1.26-1.414.236-1.414.236-1.885 0-1.184-.08-1.184-.08-2.305.21-.435.764-.509 1.441-.419 2.31.37.78.37.78 1.048 1.26 1.148.075 1.608.09 2.514-.63.923.087.923.087 1.256.42.079.591.079.591 0 1.26-.814.84-1.635 1.217-2.788 1.326-1.32-.112-2.263-.403-3.155-1.417-.908-1.136-1.074-2.02-1.05-3.469.157-1.245.783-1.999 1.678-2.832 1.194-.787 2.958-.817 4.307-.395zm-.656-17.214l.807-.006h.876c.298 0 .597 0 .895-.002h1.878c.803.001 1.605-.003 2.408-.007.616-.003 1.233-.004 1.85-.003l.887-.003c.414-.003.828-.001 1.241 0h.714c.581.08.581.08.978.365.232.344.232.344.206.882-.184.512-.184.512-.812.932-.574.054-.574.054-1.276.055l-.796.004-.861-.003-.882.001c-.616 0-1.232 0-1.848-.002-.79-.002-1.58 0-2.37.002a424.9 424.9 0 01-1.82 0h-.874c-.407.002-.814 0-1.22-.002l-.702-.001c-.547-.054-.547-.054-.966-.474-.053-.63-.053-.63 0-1.26.572-.573.886-.474 1.687-.478zm.951-8.4l.744-.007.806.001.825-.003h1.73c.74.001 1.478-.002 2.218-.007.704-.004 1.409-.003 2.113-.003l.806-.006.745.004h.658c.541.078.541.078.932.364.238.344.238.344.212.883-.184.511-.184.511-.812.931-.534.054-.534.054-1.18.055l-.733.004-.791-.003-.812.002c-.566 0-1.133 0-1.699-.003-.727-.002-1.453 0-2.18.002-.693.002-1.385 0-2.078 0l-.792.002-.731-.004-.646-.001c-.507-.054-.507-.054-.926-.474-.052-.63-.052-.63 0-1.26.555-.557.816-.474 1.591-.477z" fill="#12A1DC"/><path d="M21.033 48.593c.828.056 1.184.181 1.833.683.559.84.569 1.532.419 2.52-.393.526-.678.76-1.257 1.05-1.485.123-1.485.123-2.29-.393-.657-.679-.724-1.171-.718-2.119.126-.711.582-1.041 1.123-1.478.21-.21.21-.21.89-.263z" fill="#fff"/><path d="M40.997 25.476l.708.002.705-.01h.675l.62-.003c.526.079.526.079.914.365.24.344.24.344.215.882-.184.512-.184.512-.812.932-.507.054-.507.054-1.1.056l-.647.001-.675-.005-.677.005-.646-.001-.593-.002c-.48-.054-.48-.054-.899-.474-.052-.63-.052-.63 0-1.26.649-.65 1.327-.482 2.212-.488zM23.52 29.688l.646-.001.677.005.674-.005.647.001.594.002c.507.054.507.054 1.135.474.079.63.079.63 0 1.26-.958.64-1.91.49-3.037.486l-.672.01h-.644c-.292.002-.292.002-.59.002-.503-.078-.503-.078-.888-.364-.243-.344-.243-.344-.204-.882.32-.962.728-.985 1.662-.988zm18.152 4.189l.556.002.554-.01h.532l.487-.003c.543.099.733.27 1.059.709-.026.538-.026.538-.21 1.05-.64.428-.777.473-1.5.475l-.503.002-.523-.005-.526.005c-.166 0-.332 0-.503-.002h-.46c-.383-.055-.383-.055-.802-.475-.053-.63-.053-.63 0-1.26.59-.593 1.032-.481 1.84-.488z" fill="#12A1DC"/><path d="M11.555 48.646c1.466.21 1.466.21 1.866.46.514.854.369 1.947.229 2.9-.459.578-.459.578-1.048.84h-1.047v-4.2z" fill="#fff"/><path d="M34.373 25.478l.792-.01c.688.076.688.076 1.096.361.22.345.22.345.194.883-.183.512-.183.512-.812.932-.642.056-.642.056-1.374.052l-.734.004c-.615-.056-.615-.056-1.034-.476-.052-.63-.052-.63 0-1.26.6-.602 1.038-.483 1.873-.486zM6.109 52.846c1.166.12 1.166.12 1.466.42.04.512.04.512 0 1.05-.419.42-.419.42-.942.473-.524-.052-.524-.052-.943-.472-.052-.525-.052-.525 0-1.05.138-.14.276-.278.419-.42z" fill="#12A1DC"/><path d="M25.59 21.973c.692.696.733.952.837 1.89h-1.466l.628-1.89z" fill="#fff"/></svg>