<svg width="58" height="58" viewBox="0 0 58 58" fill="none" xmlns="http://www.w3.org/2000/svg"><path d="M10.845 5.004c.13 0 .261 0 .392-.002h1.075c.387.002.774 0 1.161 0C14.231 5 14.99 5 15.747 5h2.648c1.67-.001 3.34 0 5.01.002 1.433.002 2.866.002 4.298 0a2596.153 2596.153 0 015.79-.001L35.338 5h2.25c.382.002.764.002 1.147.001.35-.001.7 0 1.05.001.187.001.373 0 .56-.001.77.006 1.297.093 1.893.615l.155.186.159.186c.309.45.36.877.385 1.411a118.933 118.933 0 01.035.68l.264-.013c1.284-.038 1.284-.038 1.818.392.49.466.826.88.878 1.573l.003.394v.212l.001.44c0 .226.002.45.004.675v.43l.003.203c-.003.291-.021.493-.164.75-.232.222-.408.238-.725.244-.263-.114-.42-.204-.579-.446-.109-.283-.112-.526-.119-.83l-.01-.357-.007-.372-.018-.732-.007-.327c.011-.241.011-.241-.111-.343-.524.041-.95.19-1.43.396a272.03 272.03 0 00-.703.296c-.345.147-.692.292-1.038.437l-.547.23c-.871.365-1.745.723-2.62 1.08a997.888 997.888 0 00-4.534 1.861l-.272.113a10965.438 10965.438 0 00-4.104 1.697l-.27.112a982.565 982.565 0 01-4.642 1.904l-.484.197-.234.096c-.403.165-.804.332-1.205.502l-.249.105-.468.2-.212.09-.186.08c-.64.244-1.45.306-2.087.032-.878-.527-1.423-1.484-1.981-2.312a31.778 31.778 0 00-.977-1.384l-.212-.284c-.355-.393-.751-.688-1.29-.735-.488-.01-.796 0-1.2.303h-.19l-.083.165a6.7 6.7 0 01-.206.384c-.109.253-.114.441-.114.716l-.001.314v1.719l-.002 1.087-.002 1.883-.003 2.725-.007 4.422v.267l-.003 2.954v1.071l-.001.267c-.001 1.469-.004 2.937-.007 4.405-.002.907-.003 1.813-.002 2.719l-.003 1.862c-.001.358-.002.716 0 1.074 0 .388-.001.777-.003 1.165l.002.344-.002.315v.271c-.044.3-.145.478-.32.722-.293.146-.53.122-.852.094-.25-.191-.364-.305-.426-.617v-.276l-.004-.319.002-.35L11.03 44a87.382 87.382 0 010-1.024l-.003-1.103c-.003-.721-.003-1.442-.003-2.163v-2.012l-.002-.508c-.002-1.59-.001-3.18 0-4.77 0-1.454-.001-2.907-.005-4.36-.004-1.494-.005-2.987-.004-4.48 0-.837 0-1.675-.003-2.513a332.29 332.29 0 010-2.142c0-.364.001-.728-.001-1.091-.003-.396 0-.791.002-1.186l-.005-.346c.011-.857.234-1.598.805-2.257.779-.74 1.793-.96 2.818-1.133l.401-.072c.35-.062.7-.122 1.049-.181l.797-.139c.81-.14 1.62-.278 2.43-.415l1.137-.192a4116.522 4116.522 0 014.958-.84l.254-.042 1.268-.215 1.013-.172a4105.17 4105.17 0 009.306-1.588l.64-.11c1.13-.193 2.259-.387 3.388-.582.008-.23.013-.46.018-.692l.007-.198c.007-.376.007-.376-.144-.71-.336-.21-.675-.21-1.062-.21h-.673l-.375-.001h-1.03l-1.112-.001a2164.078 2164.078 0 00-3.946-.002l-5.013-.001h-.547l-4.388-.002a4695.839 4695.839 0 00-7.034-.004 1023.555 1023.555 0 00-3.252 0h-1.19l-.353-.002-.322.002h-.277c-.382.035-.643.13-.915.402a7.501 7.501 0 00-.024.673l-.001.213v1.231c-.002.473-.002.947-.001 1.421l-.001 1.53c-.002 1-.002 2.001-.002 3.002a3475.932 3475.932 0 010 2.787v.704c-.002 2.201-.001 4.403 0 6.605l-.003 6.048c-.002 2.068-.003 4.136-.002 6.204 0 1.162 0 2.324-.002 3.486v7.05c0 .066 0 .133-.002.2.003.268.01.445.165.667.24.156.46.152.742.167l.312.019.239.01-.01-.214-.008-.282-.01-.28c.032-.304.098-.426.311-.643.338-.11.5-.124.829.018.234.189.3.27.402.55.019.267.028.526.029.793l.007.471.007.74c.002.24.006.478.01.717v.224c.004.392.004.392.162.741.336.205.675.206 1.06.206l.321.001h1.758l1.111.002a2256.824 2256.824 0 003.946.001l5.014.002h.546c1.463 0 2.926 0 4.389.002a4830.005 4830.005 0 007.033.003 1030.378 1030.378 0 003.252 0c.397.002.794.001 1.19 0l.353.002.322-.001h.277c.383-.036.643-.13.915-.403.029-.2.029-.2.024-.437l.002-.28-.001-.312v-.328c.002-.302.002-.604.001-.906 0-.325 0-.65.002-.975l.001-1.692c0-.816.002-1.631.004-2.447a4045.215 4045.215 0 00.01-6.866v-1.202l.007-3.956c.002-.814.003-1.627.003-2.441 0-.558 0-1.115.003-1.673v-.965c0-.35 0-.698.002-1.047l-.001-.309c.004-.536.017-.924.416-1.324.67-.055.67-.055.956.125.29.41.232.832.228 1.322l.002.334v.919a448.788 448.788 0 01.002 2.932c-.002.526-.002 1.053-.001 1.579v.683c.001 1.426 0 2.853-.002 4.28-.002 1.223-.001 2.447 0 3.67.003 1.421.003 2.842.002 4.263v2.256c.002.641.002 1.282 0 1.922-.002.327-.002.653 0 .98 0 .355 0 .709-.003 1.063l.003.312c-.008.717-.13 1.22-.615 1.774l-.187.154-.186.16c-.397.273-.743.349-1.221.35l-.335.001h-.758c-.358.002-.716.002-1.074.002-.386 0-.772 0-1.158.002l-2.268.002H36.31c-1.743.003-3.485.003-5.227.003h-.57c-1.525 0-3.05.002-4.574.005-1.565.002-3.13.004-4.695.003-.879 0-1.758.001-2.636.003-.749.002-1.497.002-2.245 0-.382 0-.763 0-1.145.002H14.17c-.186-.001-.372 0-.558.002-.808-.006-1.304-.12-1.94-.641-.634-.775-.637-1.47-.591-2.437l-.284.013c-.882.03-1.459-.036-2.153-.605-.695-.848-.646-1.662-.64-2.705 0-.174 0-.349-.002-.523v-1.434c.002-.516 0-1.032 0-1.547C8 42.666 8 41.655 8 40.645v-3.529c-.001-2.162 0-4.324.002-6.486.002-1.974.002-3.947 0-5.92a4610.391 4610.391 0 01-.001-7.715L8 14.535v-2.998c.002-.51.002-1.02.001-1.53-.001-.467 0-.934.001-1.4V8.1c-.005-.967-.005-1.682.647-2.456.73-.612 1.255-.646 2.194-.64zm26.008 5.649l-.216.036a252.893 252.893 0 00-1.226.21 1064.802 1064.802 0 00-2.858.488l-2.784.476-3.136.536-3.837.655c-.09.015-.181.03-.274.047l-1.31.224a348.35 348.35 0 01-3.38.569l-.307.051-.264.044c-.242.046-.242.046-.502.243l.103.14.488.658.18.244c.298.404.592.808.878 1.22l.152.22c.094.136.188.273.28.41.357.518.357.518.852.893.572-.032 1.029-.177 1.55-.402l.227-.096c.246-.103.492-.208.737-.312a581.277 581.277 0 011.33-.56c.793-.334 1.589-.662 2.386-.987l1.138-.466.234-.096c.968-.397 1.935-.798 2.903-1.198 1.954-.807 3.91-1.611 5.867-2.413l.184-.075 1.898-.776v-.095a6.322 6.322 0 00-1.293.112z" fill="#12A1DC"/><path d="M46.373 14.853l.228-.006c.63.118 1.073.54 1.505.982.05.047.098.095.148.144.437.44.72.874.734 1.512l.012.25c-.167.72-.856 1.29-1.364 1.796l-.217.219-.719.72-.516.518a1160.23 1160.23 0 01-2.279 2.284l-2.433 2.438-.157.157-.316.315-.158.158-.158.159c-.846.845-1.69 1.692-2.533 2.54l-2.608 2.613c-.488.487-.976.976-1.462 1.465-.458.46-.917.92-1.377 1.378l-.502.504c-1.129 1.139-2.257 2.17-3.749 2.809l-.403.181-.202.091c-.35.161-.695.335-1.04.508l-.19.096c-.352.177-.352.177-.7.36-.29.132-.52.116-.83.077-.262-.228-.365-.374-.414-.719.05-.456.237-.807.443-1.214l.128-.258c.09-.18.18-.36.272-.54.137-.27.272-.544.406-.817.438-.878.868-1.683 1.53-2.414l.165-.188c.742-.844 1.544-1.63 2.339-2.425l.5-.503a2166.973 2166.973 0 012.203-2.205l2.349-2.352.151-.151.152-.152.304-.304.153-.153 2.45-2.454a2854.47 2854.47 0 013.932-3.938 665.149 665.149 0 011.814-1.817l.665-.664.194-.197c.454-.449.883-.802 1.55-.803zm-.314 1.762l-.26.267-.26.266-.2.207c.14.326.325.534.58.78l.207.203.159.152c.327-.14.535-.325.78-.58l.203-.207.152-.159c-.139-.322-.32-.535-.567-.78l-.202-.203c-.276-.238-.324-.191-.592.054zm-2.35 2.342l-.167.168-.177.176-.592.59-.422.42c-.384.382-.768.764-1.15 1.147l-.718.716-2.5 2.495c-.777.778-1.556 1.554-2.335 2.33-.668.664-1.335 1.33-2.002 1.996-.398.398-.797.796-1.197 1.193-.376.374-.75.748-1.124 1.123l-.415.413c-.188.186-.375.374-.562.563l-.169.165c-.168.166-.168.166-.36.423.044.389.249.563.526.828l.237.23.183.172c.441-.37.86-.752 1.266-1.16l.173-.173a505.35 505.35 0 00.975-.976l1.105-1.106 1.157-1.158 2.188-2.19 2.491-2.493 5.124-5.128a2.576 2.576 0 00-.568-.781l-.201-.203c-.35-.3-.482-.06-.766.22zM28.448 34.34c-.43.54-1.185 1.498-1.185 2.227a6.955 6.955 0 001.284-.55c.06-.032.122-.063.185-.095.4-.212.688-.44.992-.775a108.266 108.266 0 00-.721-.74c-.278-.265-.278-.265-.555-.067zm-.408 9.31l.317-.002h.35l.367-.001.998-.003h.624c.65-.002 1.3-.003 1.951-.003.75 0 1.502-.002 2.253-.005a531.7 531.7 0 011.74-.003c.347 0 .694-.001 1.04-.003.387-.002.774-.001 1.16 0l.348-.003c.106 0 .211 0 .32.002h.277c.302.041.48.14.726.318.146.293.122.53.095.852-.194.255-.308.365-.625.426l-.285.001-.328.004-.36-.002-.378.002a121.4 121.4 0 01-1.028.001l-.857.001c-.675.002-1.35.002-2.024 0-.696-.002-1.392 0-2.088.003-.598.002-1.196.003-1.793.002-.357 0-.714 0-1.071.002-.336.002-.671.001-1.007-.001-.182 0-.364 0-.545.002l-.328-.003h-.286c-.341-.082-.44-.242-.625-.533-.047-.29-.047-.29 0-.568.33-.405.553-.485 1.062-.486zm.012-3.028l.317-.002h.35l.366-.002.997-.002.623-.001 1.95-.003c.75 0 1.5-.002 2.25-.005l1.74-.003c.346 0 .692 0 1.039-.002.386-.002.772-.001 1.159 0 .114-.002.229-.002.347-.003l.32.001h.276c.301.042.48.141.726.319.146.292.122.53.094.852-.194.255-.307.364-.625.426h-.285l-.328.005c-.178-.002-.178-.002-.359-.002l-.378.002a121.4 121.4 0 01-1.028.001l-.858.001c-.675.002-1.35.001-2.024 0-.696-.002-1.392 0-2.088.003-.598.002-1.195.003-1.793.002-.357 0-.714 0-1.07.002-.336.001-.672 0-1.007-.002l-.546.003-.328-.003h-.285c-.342-.083-.441-.242-.625-.533-.047-.33-.04-.497.124-.787.282-.282.57-.266.949-.267zm-4.48-.65c.284.19.284.19.39.533.024.257.016.374-.129.59l-.164.176-.184.199-.197.206-.19.202c-.432.456-.873.903-1.314 1.35l-.48.495c-.232.24-.466.478-.7.715l-.214.225c-.561.559-.561.559-1.018.569-.376-.06-.503-.12-.768-.386l-.236-.231-.133-.135c-.178-.182-.36-.36-.542-.538-.27-.266-.54-.533-.807-.802l-.171-.17c-.24-.261-.332-.41-.364-.768.03-.337.03-.337.13-.562.278-.234.485-.248.845-.248.517.286.904.692 1.314 1.112l.197.2c.16.161.318.324.477.486a2.11 2.11 0 00.695-.487c.09-.09.09-.09.18-.183l.193-.197.2-.202.63-.64.832-.844.192-.197.18-.182.158-.16c.327-.28.606-.215.998-.126zm-.094-16.75c.304.225.446.372.544.74-.174.74-1.012 1.35-1.537 1.874a16281.477 16281.477 0 01-1.863 1.863l-.216.217-.2.2-.177.175c-.195.18-.323.228-.585.278-.805-.12-1.513-1.132-2.064-1.686l-.261-.26-.248-.247-.224-.225c-.235-.251-.264-.343-.296-.693.03-.343.03-.343.177-.574.334-.214.502-.22.893-.148.289.184.517.42.757.663l.3.296c.281.278.559.558.836.84a2.13 2.13 0 00.696-.488l.182-.183.193-.197.2-.202a426.543 426.543 0 011.661-1.681l.181-.181.159-.161c.28-.26.52-.264.892-.22zm0 8.328c.304.225.446.372.544.74-.174.739-1.012 1.35-1.537 1.874a15573.509 15573.509 0 01-.692.691l-.716.718-.455.454-.216.217-.2.2-.177.175c-.22.202-.338.23-.64.271-.486-.055-.67-.256-1.003-.597l-.176-.173a40.325 40.325 0 01-.362-.366 41.66 41.66 0 00-.558-.554l-.354-.356-.169-.165c-.279-.29-.38-.422-.433-.833.046-.309.046-.309.235-.593.308-.205.464-.232.826-.176.466.177.782.583 1.114.94l.236.244c.191.2.38.4.569.601a2.13 2.13 0 00.696-.487l.182-.183.193-.197.2-.202a479.022 479.022 0 011.661-1.68l.181-.183.158-.16c.281-.26.52-.264.893-.22zm11.459 3.745l.346-.004h.37l.383-.002c.267-.002.534-.002.8-.001.342 0 .684-.003 1.025-.006.264-.003.527-.003.79-.003.187 0 .374-.002.56-.005.943.008.943.008 1.237.28.21.335.222.529.159.917-.202.267-.315.367-.648.427l-.314.002-.357.004-.384-.001-.396.002-.83-.001c-.353-.002-.707 0-1.06.004a76.84 76.84 0 01-.818.001c-.13 0-.26 0-.391.002-.183.002-.365 0-.548-.002h-.314c-.372-.079-.516-.244-.754-.533-.042-.202-.042-.202-.012-.39l.023-.19c.214-.453.681-.497 1.133-.5zM28.6 23.916l.338-.001c.236 0 .472 0 .707.003.361.002.722 0 1.082-.004l.688.002.327-.003c.746.011.746.011 1.125.289.169.25.169.25.228.534-.084.402-.2.514-.532.757-.383.072-.76.067-1.148.063l-.338.002-.708-.003c-.36-.003-.72 0-1.082.003-.229 0-.458 0-.687-.002l-.327.003c-.746-.011-.746-.011-1.125-.289-.169-.25-.169-.25-.228-.534.186-.893.933-.826 1.68-.82zm9.895 8.364c.199-.002.398-.007.597-.01.127-.002.253-.003.38-.003l.35-.004c.368.052.523.162.784.423.063.189.063.189.06.378l.003.19c-.099.297-.278.397-.536.567-.308.048-.308.048-.654.047h-.378l-.196-.003a29.934 29.934 0 00-.592 0c-.952-.006-.952-.006-1.243-.168-.246-.254-.243-.478-.25-.822.342-.748.953-.592 1.675-.596zm-10.002-5.332l.283-.005c.453.003.685.01 1.056.287.175.25.175.25.235.535-.083.397-.207.513-.533.757-.348.07-.687.066-1.04.059l-.283.005c-.454-.003-.686-.01-1.057-.287-.175-.25-.175-.25-.234-.534.177-.85.854-.83 1.573-.817z" fill="#12A1DC"/></svg>