<svg width="58" height="58" viewBox="0 0 58 58" fill="none" xmlns="http://www.w3.org/2000/svg">
<path d="M10.8445 5.00413C10.9753 5.00369 11.1061 5.00309 11.2369 5.00234C11.5954 5.00076 11.9539 5.00154 12.3124 5.00271C12.6994 5.00357 13.0864 5.00225 13.4734 5.00121C14.2312 4.99952 14.9889 4.99989 15.7467 5.00099C16.3627 5.00184 16.9786 5.00196 17.5946 5.00154C17.6822 5.00149 17.7699 5.00143 17.8603 5.00137C18.0384 5.00125 18.2165 5.00112 18.3946 5.001C20.0648 4.99992 21.735 5.00116 23.4051 5.0032C24.8379 5.00489 26.2707 5.00459 27.7034 5.00285C29.3675 5.00082 31.0316 5.00002 32.6957 5.00119C32.8731 5.00131 33.0506 5.00143 33.2281 5.00154C33.3591 5.00163 33.3591 5.00163 33.4928 5.00172C34.1078 5.00205 34.7229 5.0015 35.338 5.00061C36.0878 4.99954 36.8375 4.99983 37.5873 5.00185C37.9697 5.00284 38.3522 5.00323 38.7347 5.00198C39.085 5.00085 39.4352 5.00148 39.7856 5.00349C39.9719 5.00411 40.1583 5.00287 40.3446 5.00157C41.1151 5.00839 41.6424 5.09453 42.2383 5.61668C42.2893 5.67828 42.3402 5.73989 42.3928 5.80336C42.4452 5.86472 42.4977 5.92608 42.5517 5.9893C42.861 6.43811 42.9124 6.86585 42.9369 7.40032C42.9406 7.46589 42.9443 7.53146 42.948 7.59902C42.9569 7.75948 42.9648 7.91999 42.9724 8.08051C43.1027 8.07392 43.1027 8.07392 43.2356 8.0672C44.5195 8.02944 44.5195 8.02944 45.0544 8.45905C45.5441 8.9254 45.8796 9.33944 45.9321 10.0324C45.934 10.1636 45.9347 10.2948 45.9346 10.426C45.935 10.4959 45.9354 10.5657 45.9358 10.6377C45.9363 10.7848 45.9364 10.9318 45.936 11.0789C45.9357 11.3036 45.9379 11.5283 45.9403 11.753C45.9405 11.8962 45.9406 12.0395 45.9405 12.1827C45.9414 12.2496 45.9422 12.3166 45.9431 12.3856C45.9404 12.6771 45.9217 12.8788 45.779 13.1359C45.5466 13.3576 45.3715 13.3737 45.0544 13.3801C44.7909 13.2663 44.6333 13.1759 44.4755 12.9345C44.3664 12.6512 44.3627 12.4077 44.3561 12.1043C44.3529 11.9864 44.3496 11.8685 44.3463 11.7471C44.3425 11.5629 44.3425 11.5629 44.3387 11.375C44.3331 11.1311 44.3271 10.8873 44.3206 10.6434C44.3183 10.5353 44.3161 10.4272 44.3137 10.3158C44.3251 10.0749 44.3251 10.0749 44.2027 9.97321C43.6795 10.014 43.2525 10.1633 42.7732 10.3691C42.6994 10.4 42.6256 10.4309 42.5496 10.4628C42.3898 10.5298 42.2301 10.5972 42.0705 10.665C41.7247 10.8117 41.3781 10.9568 41.0316 11.102C40.8493 11.1784 40.6671 11.2548 40.485 11.3314C39.6139 11.6971 38.7398 12.0551 37.865 12.4117C36.3522 13.0284 34.8412 13.6491 33.3315 14.2732C33.1965 14.329 33.1965 14.329 33.0587 14.3859C32.4201 14.6499 31.7816 14.914 31.1431 15.1781C30.4136 15.4799 29.6842 15.7815 28.9546 16.0831C28.8654 16.1199 28.7762 16.1568 28.6843 16.1948C27.1388 16.8335 25.5916 17.4677 24.043 18.0989C23.8818 18.1647 23.7206 18.2304 23.5594 18.2963C23.4821 18.3278 23.4048 18.3593 23.3252 18.3918C22.9224 18.5566 22.5207 18.7236 22.12 18.8935C21.9968 18.9458 21.9968 18.9458 21.8711 18.9991C21.7148 19.0655 21.5586 19.1322 21.4026 19.1992C21.2977 19.2439 21.2977 19.2439 21.1906 19.2895C21.1295 19.3157 21.0684 19.3419 21.0054 19.3689C20.3652 19.6133 19.5559 19.6748 18.9175 19.4012C18.0401 18.8744 17.4946 17.9169 16.9369 17.0894C16.6207 16.6204 16.3009 16.1561 15.9601 15.7045C15.8549 15.5642 15.8549 15.5642 15.7476 15.421C15.3932 15.0284 14.997 14.7332 14.4585 14.6857C13.9704 14.6768 13.6616 14.6855 13.2571 14.9888C13.1947 14.9888 13.1322 14.9888 13.0678 14.9888C13.0405 15.0435 13.0132 15.0982 12.985 15.1545C12.9201 15.2844 12.852 15.4128 12.7788 15.5382C12.67 15.7908 12.6655 15.979 12.6653 16.2538C12.6648 16.3574 12.6643 16.4611 12.6637 16.5678C12.6641 16.6817 12.6645 16.7955 12.6649 16.9128C12.6645 17.0337 12.6642 17.1547 12.6638 17.2793C12.6629 17.6152 12.6631 17.9512 12.6635 18.2871C12.6637 18.6494 12.6629 19.0116 12.6621 19.3738C12.661 20.0016 12.6605 20.6293 12.6604 21.2571C12.6603 22.1653 12.6589 23.0734 12.6571 23.9816C12.6542 25.4557 12.6519 26.9297 12.6502 28.4038C12.6501 28.4921 12.65 28.5803 12.6499 28.6712C12.6488 29.6559 12.6478 30.6405 12.647 31.6252C12.6467 31.9822 12.6464 32.3393 12.6461 32.6964C12.646 32.7845 12.646 32.8726 12.6459 32.9634C12.6447 34.4318 12.6423 35.9002 12.6391 37.3685C12.6372 38.2746 12.6362 39.1806 12.6365 40.0866C12.6366 40.7073 12.6357 41.3279 12.634 41.9486C12.633 42.3068 12.6325 42.6651 12.6333 43.0234C12.6341 43.4115 12.6327 43.7996 12.6311 44.1877C12.6317 44.3014 12.6323 44.415 12.6329 44.532C12.6321 44.6359 12.6314 44.7398 12.6305 44.8468C12.6305 44.9364 12.6304 45.026 12.6303 45.1183C12.5874 45.4171 12.4864 45.5963 12.3108 45.8398C12.0182 45.9861 11.7813 45.9622 11.459 45.9344C11.2085 45.7427 11.0951 45.6292 11.0328 45.3166C11.0327 45.2257 11.0325 45.1347 11.0323 45.041C11.0312 44.9358 11.0301 44.8306 11.029 44.7222C11.0297 44.6066 11.0304 44.491 11.0312 44.3719C11.0304 44.2491 11.0297 44.1263 11.029 43.9998C11.027 43.6586 11.0274 43.3175 11.0283 42.9764C11.0287 42.6085 11.027 42.2407 11.0256 41.8728C11.0232 41.1519 11.0228 40.4309 11.0233 39.71C11.0236 39.1237 11.0233 38.5374 11.0225 37.9512C11.0223 37.8261 11.0223 37.8261 11.0221 37.6984C11.0219 37.529 11.0217 37.3596 11.0215 37.1901C11.0194 35.6 11.0198 34.0099 11.021 32.4198C11.0219 30.9662 11.0198 29.5127 11.0162 28.0592C11.0125 26.5663 11.011 25.0734 11.0117 23.5805C11.0121 22.7426 11.0116 21.9046 11.0089 21.0667C11.0066 20.3529 11.0064 19.6391 11.0087 18.9253C11.0098 18.5613 11.01 18.1974 11.0077 17.8335C11.0053 17.4381 11.0073 17.0429 11.0097 16.6475C11.0083 16.5336 11.0069 16.4197 11.0055 16.3023C11.0164 15.4455 11.2389 14.7038 11.8101 14.0453C12.5886 13.3041 13.603 13.085 14.628 12.912C14.7618 12.8883 14.8956 12.8644 15.0293 12.8405C15.3786 12.7784 15.7282 12.7182 16.078 12.6585C16.3436 12.613 16.6091 12.5667 16.8746 12.5204C17.6841 12.3792 18.4942 12.242 19.3045 12.1054C19.6837 12.0414 20.0629 11.9771 20.4422 11.9128C21.0878 11.8034 21.7334 11.6942 22.3791 11.5851C23.386 11.4149 24.3929 11.2444 25.3998 11.0738C25.4836 11.0596 25.5674 11.0454 25.6537 11.0307C26.0766 10.9591 26.4994 10.8874 26.9223 10.8157C27.2599 10.7585 27.5976 10.7013 27.9352 10.6441C31.0378 10.1185 34.1397 9.58893 37.2411 9.05643C37.4545 9.0198 37.6679 8.98317 37.8813 8.94654C39.0106 8.75268 40.1398 8.55866 41.269 8.36441C41.2767 8.13368 41.2823 7.9032 41.2867 7.6724C41.2891 7.60707 41.2915 7.54175 41.294 7.47444C41.301 7.09839 41.3009 7.09839 41.1496 6.76339C40.8144 6.55475 40.4753 6.55446 40.0884 6.55418C39.9294 6.55372 39.9294 6.55372 39.7673 6.55326C39.6509 6.5534 39.5345 6.55355 39.4146 6.5537C39.2909 6.55349 39.1672 6.55327 39.0399 6.55305C38.6963 6.55247 38.3528 6.55248 38.0093 6.5526C37.639 6.55262 37.2686 6.55209 36.8983 6.55164C36.1726 6.55086 35.447 6.5506 34.7213 6.55055C34.1316 6.5505 33.5419 6.55031 32.9522 6.55001C31.281 6.54917 29.6099 6.54874 27.9387 6.54881C27.8486 6.54881 27.7585 6.54881 27.6656 6.54882C27.5754 6.54882 27.4852 6.54883 27.3922 6.54883C25.9294 6.54887 24.4665 6.54796 23.0037 6.54663C21.5024 6.54527 20.001 6.54462 18.4997 6.5447C17.6565 6.54473 16.8134 6.54447 15.9702 6.54345C15.2524 6.54259 14.5347 6.54238 13.8169 6.54303C13.4506 6.54334 13.0842 6.54334 12.7179 6.54252C12.3211 6.54164 11.9243 6.54222 11.5275 6.54296C11.3532 6.54223 11.3532 6.54223 11.1753 6.54148C11.0161 6.54213 11.0161 6.54213 10.8535 6.5428C10.7619 6.54278 10.6703 6.54276 10.5759 6.54274C10.1938 6.57848 9.93306 6.67282 9.66099 6.94489C9.64227 7.17274 9.63547 7.38972 9.63691 7.61769C9.6366 7.68812 9.6363 7.75856 9.63599 7.83113C9.6352 8.0696 9.63576 8.30806 9.63632 8.54653C9.63603 8.71825 9.63566 8.88996 9.63522 9.06168C9.63424 9.53546 9.63446 10.0092 9.63486 10.483C9.63509 10.9932 9.63424 11.5034 9.63353 12.0136C9.63232 13.0139 9.63216 14.0142 9.63238 15.0145C9.63255 15.8272 9.63238 16.6398 9.63198 17.4525C9.63192 17.5679 9.63186 17.6834 9.63181 17.8023C9.63169 18.0369 9.63158 18.2714 9.63146 18.5059C9.63043 20.7075 9.63064 22.909 9.63121 25.1106C9.6317 27.1268 9.63064 29.143 9.62884 31.1592C9.62701 33.2271 9.62622 35.295 9.62658 37.3628C9.62676 38.5247 9.62652 39.6866 9.62519 40.8485C9.62406 41.8376 9.62392 42.8267 9.62507 43.8158C9.62563 44.3209 9.62573 44.826 9.6246 45.331C9.62358 45.7928 9.62386 46.2546 9.62519 46.7164C9.62544 46.884 9.62521 47.0516 9.62446 47.2192C9.62351 47.446 9.62429 47.6727 9.62553 47.8995C9.62484 47.9655 9.62414 48.0315 9.62343 48.0995C9.62647 48.3666 9.63254 48.5435 9.7879 48.7659C10.0274 48.9218 10.2482 48.918 10.5304 48.9332C10.6333 48.9394 10.7361 48.9456 10.8421 48.952C10.9208 48.9555 10.9994 48.9591 11.0805 48.9627C11.0772 48.892 11.0739 48.8212 11.0705 48.7483C11.068 48.6551 11.0654 48.5619 11.0628 48.4659C11.0595 48.3737 11.0562 48.2814 11.0528 48.1864C11.0847 47.8816 11.1515 47.7601 11.3644 47.5432C11.7022 47.4331 11.8645 47.4193 12.1925 47.561C12.4272 47.75 12.4925 47.8307 12.5947 48.111C12.6137 48.3782 12.6231 48.6368 12.6239 48.904C12.6263 49.061 12.6287 49.218 12.6311 49.3751C12.6338 49.622 12.6361 49.8689 12.6378 50.1159C12.6399 50.3547 12.6436 50.5934 12.6475 50.8321C12.6475 50.9061 12.6476 50.98 12.6476 51.0562C12.6524 51.4477 12.6524 51.4477 12.8102 51.7973C13.1461 52.0015 13.4845 52.0029 13.8699 52.0032C13.9759 52.0035 14.0818 52.0038 14.191 52.0041C14.3074 52.004 14.4238 52.0038 14.5437 52.0037C14.6674 52.0039 14.7911 52.0041 14.9185 52.0043C15.262 52.0049 15.6055 52.0049 15.949 52.0048C16.3193 52.0048 16.6897 52.0053 17.06 52.0057C17.7857 52.0065 18.5113 52.0068 19.237 52.0069C19.8267 52.0069 20.4164 52.0071 21.0061 52.0074C22.6773 52.0082 24.3484 52.0087 26.0196 52.0086C26.1097 52.0086 26.1998 52.0086 26.2927 52.0086C26.3829 52.0086 26.4731 52.0086 26.5661 52.0086C28.0289 52.0085 29.4918 52.0094 30.9546 52.0108C32.4559 52.0121 33.9573 52.0128 35.4586 52.0127C36.3018 52.0127 37.1449 52.0129 37.9881 52.0139C38.7059 52.0148 39.4236 52.015 40.1414 52.0144C40.5077 52.0141 40.8741 52.0141 41.2404 52.0149C41.6372 52.0158 42.034 52.0152 42.4308 52.0144C42.6051 52.0152 42.6051 52.0152 42.783 52.0159C42.9422 52.0153 42.9422 52.0153 43.1048 52.0146C43.1964 52.0146 43.288 52.0146 43.3824 52.0147C43.7645 51.9789 44.0252 51.8846 44.2973 51.6125C44.326 51.4112 44.326 51.4112 44.3213 51.1752C44.3221 51.0362 44.3221 51.0362 44.3229 50.8943C44.3225 50.7917 44.3221 50.6891 44.3218 50.5834C44.3223 50.4207 44.3223 50.4207 44.3228 50.2548C44.3236 49.953 44.3235 49.6511 44.3231 49.3493C44.3229 49.0241 44.3237 48.6989 44.3245 48.3737C44.3256 47.8098 44.3261 47.246 44.3262 46.6822C44.3263 45.8664 44.3277 45.0507 44.3295 44.2349C44.3325 42.9109 44.3347 41.5868 44.3364 40.2627C44.3365 40.1834 44.3366 40.1041 44.3367 40.0224C44.3379 39.1379 44.3388 38.2533 44.3396 37.3688C44.3399 37.0482 44.3402 36.7275 44.3405 36.4069C44.3406 36.3278 44.3406 36.2487 44.3407 36.1672C44.3419 34.8485 44.3443 33.5298 44.3475 32.2112C44.3494 31.3974 44.3504 30.5837 44.3501 29.77C44.35 29.2124 44.3509 28.6548 44.3526 28.0972C44.3536 27.7753 44.3541 27.4535 44.3533 27.1316C44.3528 26.7828 44.3539 26.4341 44.3555 26.0853C44.3549 25.9833 44.3543 25.8814 44.3537 25.7763C44.3582 25.2401 44.3712 24.8516 44.7705 24.4523C45.4403 24.3974 45.4403 24.3974 45.7263 24.5774C46.0165 24.9864 45.9582 25.4095 45.9542 25.8988C45.9551 26.0643 45.9551 26.0643 45.956 26.2331C45.9572 26.5394 45.9568 26.8456 45.9556 27.1519C45.9547 27.4822 45.9561 27.8125 45.9571 28.1428C45.9588 28.79 45.9584 29.4372 45.9573 30.0844C45.9565 30.6105 45.9563 31.1366 45.9568 31.6627C45.9568 31.7376 45.9569 31.8124 45.9569 31.8895C45.9571 32.0416 45.9572 32.1936 45.9573 32.3457C45.9584 33.7723 45.9571 35.1989 45.9551 36.6255C45.9534 37.8492 45.9537 39.0728 45.9555 40.2964C45.9575 41.7173 45.9583 43.1382 45.9571 44.559C45.957 44.7107 45.9569 44.8623 45.9568 45.0139C45.9567 45.1258 45.9567 45.1258 45.9566 45.2399C45.9563 45.7651 45.9568 46.2903 45.9577 46.8155C45.9588 47.456 45.9585 48.0965 45.9565 48.737C45.9555 49.0637 45.9551 49.3904 45.9563 49.717C45.9574 50.0715 45.9561 50.4259 45.9542 50.7804C45.9554 50.9347 45.9554 50.9347 45.9567 51.0921C45.9493 51.8092 45.827 52.3117 45.3416 52.8657C45.28 52.9167 45.2184 52.9677 45.1549 53.0202C45.0936 53.0726 45.0322 53.1251 44.969 53.1792C44.5719 53.4528 44.2259 53.5289 43.7476 53.5295C43.637 53.5302 43.5264 53.5308 43.4125 53.5314C43.2914 53.5311 43.1703 53.5308 43.0455 53.5305C42.9153 53.5309 42.785 53.5313 42.6548 53.5318C42.297 53.533 41.9391 53.5329 41.5813 53.5327C41.1953 53.5327 40.8093 53.5337 40.4234 53.5346C39.6672 53.5362 38.911 53.5367 38.1548 53.5368C37.5402 53.5369 36.9256 53.5373 36.3109 53.5379C34.5684 53.5396 32.826 53.5404 31.0835 53.5403C30.9895 53.5403 30.8956 53.5403 30.7988 53.5403C30.7047 53.5403 30.6107 53.5403 30.5138 53.5402C28.9893 53.5402 27.4649 53.542 25.9404 53.5446C24.3752 53.5474 22.8101 53.5487 21.2449 53.5485C20.3661 53.5484 19.4873 53.549 18.6086 53.551C17.8603 53.5527 17.1122 53.5531 16.3639 53.5519C15.9822 53.5512 15.6006 53.5512 15.2189 53.5529C14.8692 53.5544 14.5197 53.5541 14.17 53.5524C13.9841 53.552 13.7981 53.5534 13.6121 53.5549C12.8043 53.5486 12.3082 53.4343 11.672 52.9137C11.0379 52.1387 11.0352 51.4441 11.0805 50.4769C10.9868 50.4813 10.8931 50.4857 10.7966 50.4902C9.91529 50.5193 9.33832 50.4538 8.64367 49.8854C7.94938 49.0368 7.99846 48.2233 8.00413 47.1798C8.00369 47.0056 8.00309 46.8314 8.00234 46.6572C8.00076 46.1791 8.00154 45.7011 8.00271 45.223C8.00357 44.7072 8.00225 44.1914 8.00121 43.6755C7.99952 42.6653 7.99989 41.6551 8.00099 40.6448C8.00184 39.8239 8.00196 39.0029 8.00154 38.1819C8.00149 38.0651 8.00143 37.9482 8.00137 37.8279C8.00125 37.5906 8.00112 37.3533 8.001 37.1159C7.99995 34.9538 8.00104 32.7917 8.00302 30.6295C8.00482 28.6561 8.00466 26.6827 8.00285 24.7093C8.00082 22.4917 8.00002 20.2741 8.00119 18.0565C8.00131 17.8201 8.00143 17.5837 8.00154 17.3472C8.0016 17.2309 8.00166 17.1145 8.00172 16.9947C8.00205 16.1746 8.0015 15.3545 8.00061 14.5345C7.99954 13.5352 7.99983 12.5359 8.00185 11.5366C8.00284 11.0267 8.00323 10.5168 8.00198 10.0068C8.00085 9.54008 8.00147 9.07336 8.00349 8.6066C8.00391 8.43772 8.00369 8.26883 8.00278 8.09996C7.99793 7.13327 7.99814 6.41835 8.64958 5.64367C9.38054 5.0317 9.90521 4.99757 10.8445 5.00413ZM36.853 10.6528C36.7818 10.6648 36.7106 10.6769 36.6372 10.6893C36.3995 10.7296 36.1618 10.7705 35.9241 10.8115C35.7532 10.8406 35.5823 10.8697 35.4114 10.8987C34.947 10.9777 34.4827 11.0573 34.0185 11.1369C33.53 11.2207 33.0415 11.3039 32.5529 11.3871C31.6247 11.5454 30.6966 11.7041 29.7686 11.863C28.7234 12.042 27.678 12.2204 26.6327 12.3987C25.3537 12.6169 24.0748 12.8353 22.7958 13.054C22.7054 13.0695 22.6149 13.0849 22.5217 13.1009C22.0849 13.1756 21.6481 13.2504 21.2114 13.3254C20.5197 13.4443 19.8281 13.563 19.1358 13.6777C18.9368 13.7107 18.7378 13.744 18.5389 13.7773C18.3034 13.8167 18.0679 13.8555 17.8323 13.8937C17.7309 13.9108 17.6295 13.9279 17.525 13.9454C17.4379 13.9597 17.3507 13.9741 17.261 13.9888C17.0185 14.0353 17.0185 14.0353 16.7586 14.2318C16.7928 14.2778 16.827 14.3239 16.8622 14.3713C17.025 14.5908 17.1876 14.8105 17.3501 15.0303C17.4097 15.1108 17.4694 15.1914 17.5308 15.2744C17.8281 15.6777 18.1222 16.0824 18.4077 16.4941C18.4578 16.5664 18.508 16.6387 18.5597 16.7132C18.654 16.8498 18.7478 16.9869 18.8408 17.1244C19.1967 17.6424 19.1967 17.6424 19.6923 18.0172C20.2635 17.985 20.7205 17.8399 21.2423 17.6146C21.3172 17.5832 21.3922 17.5517 21.4694 17.5194C21.7153 17.416 21.9606 17.3114 22.206 17.2069C22.3802 17.1335 22.5544 17.0602 22.7286 16.987C22.9976 16.8741 23.2665 16.7611 23.5352 16.6477C24.3287 16.3131 25.1248 15.9854 25.9219 15.6597C26.3014 15.5046 26.6808 15.3492 27.0601 15.1936C27.1371 15.1621 27.2142 15.1305 27.2935 15.098C28.262 14.7007 29.2293 14.3005 30.1967 13.9005C32.1511 13.0926 34.107 12.2887 36.0641 11.4874C36.1247 11.4625 36.1853 11.4377 36.2478 11.4121C36.8805 11.1531 37.5132 10.8942 38.1461 10.6356C38.1461 10.6044 38.1461 10.5732 38.1461 10.541C37.7038 10.5281 37.2873 10.577 36.853 10.6528Z" fill="#12A1DC"/>
<path d="M46.3735 14.8528C46.4486 14.851 46.5236 14.8491 46.6009 14.8473C47.2304 14.9647 47.6741 15.3863 48.1065 15.8287C48.1553 15.8764 48.2041 15.9241 48.2544 15.9733C48.6907 16.413 48.9738 16.8469 48.9878 17.4848C48.9939 17.6089 48.9939 17.6089 49 17.7355C48.8328 18.4552 48.1438 19.0249 47.6362 19.5307C47.5645 19.603 47.4927 19.6752 47.4188 19.7497C47.1798 19.9901 46.9401 20.2299 46.7003 20.4697C46.5282 20.6426 46.356 20.8155 46.184 20.9884C45.7173 21.4572 45.25 21.9253 44.7825 22.3933C44.49 22.6861 44.1977 22.979 43.9054 23.272C43.0944 24.0848 42.2833 24.8975 41.4716 25.7095C41.3938 25.7873 41.3938 25.7873 41.3145 25.8667C41.2094 25.9718 41.1043 26.0769 40.9992 26.1821C40.9209 26.2604 40.9209 26.2604 40.8411 26.3402C40.7627 26.4186 40.7627 26.4186 40.6828 26.4985C39.8375 27.3442 38.9933 28.191 38.1495 29.0382C37.2811 29.9103 36.4118 30.7814 35.5415 31.6517C35.0538 32.1394 34.5665 32.6276 34.0802 33.1167C33.6223 33.5771 33.1631 34.0364 32.7032 34.4948C32.5354 34.6625 32.3679 34.8305 32.2009 34.999C31.0721 36.1375 29.9441 37.169 28.4521 37.8076C28.3177 37.8681 28.1834 37.9287 28.0491 37.9895C27.9824 38.0195 27.9156 38.0494 27.8468 38.0803C27.4963 38.2411 27.1521 38.4147 26.8078 38.5884C26.745 38.62 26.6822 38.6516 26.6174 38.6842C26.2654 38.8614 26.2654 38.8614 25.9165 39.0449C25.6279 39.1755 25.3966 39.1595 25.0866 39.1207C24.8252 38.8928 24.7222 38.7468 24.6733 38.4023C24.7225 37.9455 24.91 37.5948 25.1162 37.1881C25.1585 37.1029 25.2008 37.0177 25.2444 36.93C25.3343 36.7499 25.4247 36.5702 25.5156 36.3907C25.6529 36.1191 25.7878 35.8463 25.9224 35.5734C26.3603 34.6953 26.7896 33.8898 27.4525 33.1587C27.5337 33.0656 27.5337 33.0656 27.6166 32.9706C28.3591 32.1266 29.1613 31.3405 29.9556 30.5457C30.1226 30.3783 30.2897 30.2108 30.4567 30.0432C30.9081 29.5906 31.3598 29.1383 31.8116 28.6861C32.094 28.4034 32.3763 28.1207 32.6586 27.8379C33.4415 27.0539 34.2244 26.27 35.0077 25.4864C35.0826 25.4114 35.0826 25.4114 35.1591 25.3349C35.2342 25.2598 35.2342 25.2598 35.3108 25.1832C35.4122 25.0817 35.5137 24.9802 35.6151 24.8788C35.6654 24.8284 35.7157 24.7781 35.7676 24.7262C36.5846 23.9088 37.401 23.0907 38.2171 22.2724C39.0565 21.4308 39.8964 20.5897 40.7369 19.7491C41.2082 19.2777 41.6793 18.8061 42.1498 18.3339C42.5917 17.8904 43.0343 17.4476 43.4774 17.0054C43.6399 16.8429 43.8022 16.6802 43.9642 16.5173C44.1852 16.295 44.4071 16.0737 44.6292 15.8526C44.6933 15.7878 44.7573 15.723 44.8233 15.6562C45.2768 15.2074 45.7059 14.8539 46.3735 14.8528ZM46.0593 16.6154C45.9309 16.7471 45.9309 16.7471 45.7998 16.8815C45.7137 16.9694 45.6276 17.0572 45.5388 17.1477C45.4727 17.216 45.4066 17.2843 45.3385 17.3547C45.4783 17.6814 45.6638 17.8894 45.9181 18.1354C46.0209 18.2357 46.0209 18.2357 46.1259 18.338C46.1783 18.3883 46.2308 18.4385 46.2848 18.4903C46.6115 18.3505 46.8195 18.165 47.0655 17.9107C47.1658 17.8079 47.1658 17.8079 47.2681 17.7029C47.3184 17.6505 47.3686 17.598 47.4204 17.544C47.2813 17.2224 47.1005 17.0093 46.8526 16.7632C46.7863 16.6964 46.7199 16.6295 46.6515 16.5607C46.3751 16.3234 46.327 16.3696 46.0593 16.6154ZM43.7093 18.9572C43.6542 19.0126 43.5991 19.0679 43.5423 19.1249C43.4837 19.183 43.4252 19.2411 43.3648 19.3009C43.1672 19.4971 42.9703 19.6939 42.7735 19.8907C42.6325 20.0309 42.4916 20.1711 42.3506 20.3112C41.9667 20.693 41.5834 21.0754 41.2004 21.458C40.9613 21.6967 40.7221 21.9353 40.4829 22.1739C39.6493 23.0052 38.8161 23.8371 37.9835 24.6695C37.2059 25.4467 36.427 26.2227 35.6476 26.9981C34.9797 27.6628 34.3126 28.3284 33.6462 28.9948C33.2477 29.3932 32.8488 29.7912 32.449 30.1884C32.0732 30.5617 31.6985 30.9362 31.3247 31.3115C31.1869 31.4494 31.0488 31.5869 30.9102 31.724C30.7218 31.9105 30.5348 32.0984 30.3482 32.2868C30.2925 32.3413 30.2367 32.3958 30.1793 32.4519C30.0114 32.6177 30.0114 32.6177 29.8184 32.8748C29.8627 33.2638 30.0677 33.4375 30.3448 33.7029C30.423 33.7785 30.5012 33.8541 30.5817 33.9321C30.6421 33.9892 30.7025 34.0462 30.7647 34.1051C31.2064 33.7359 31.6255 33.3525 32.0314 32.9444C32.0883 32.8875 32.1453 32.8306 32.204 32.772C32.3931 32.583 32.5819 32.3938 32.7707 32.2045C32.9069 32.0682 33.0431 31.932 33.1794 31.7958C33.5479 31.4273 33.9161 31.0585 34.2843 30.6897C34.6696 30.3038 35.0552 29.9182 35.4407 29.5325C36.1702 28.8028 36.8994 28.0727 37.6286 27.3427C38.4589 26.5112 39.2896 25.6801 40.1202 24.849C41.8284 23.1398 43.5362 21.4303 45.2438 19.7206C45.0934 19.4027 44.9267 19.1887 44.676 18.9398C44.6097 18.873 44.5433 18.8061 44.4749 18.7373C44.125 18.4369 43.9927 18.6776 43.7093 18.9572ZM28.448 34.3394C28.0187 34.8798 27.2632 35.837 27.2632 36.5656C27.7212 36.4275 28.1266 36.2393 28.5467 36.0155C28.6079 35.9842 28.6691 35.9529 28.7321 35.9207C29.1314 35.7091 29.4195 35.4806 29.7237 35.146C29.5705 34.9878 29.4166 34.8302 29.2624 34.6729C29.1767 34.585 29.0911 34.4972 29.0029 34.4067C28.725 34.1408 28.725 34.1408 28.448 34.3394Z" fill="#12A1DC"/>
<path d="M28.04 43.65C28.1447 43.6494 28.2493 43.6489 28.3572 43.6483C28.4726 43.6482 28.588 43.6481 28.7069 43.648C28.8885 43.6473 28.8885 43.6473 29.0738 43.6466C29.4066 43.6454 29.7394 43.6447 30.0722 43.6443C30.2801 43.644 30.488 43.6437 30.6959 43.6432C31.3463 43.6419 31.9966 43.641 32.647 43.6407C33.3979 43.6402 34.1487 43.6386 34.8996 43.6358C35.4799 43.6338 36.0602 43.6328 36.6404 43.6327C36.9871 43.6326 37.3337 43.632 37.6803 43.6304C38.067 43.6285 38.4538 43.6289 38.8405 43.6295C39.0127 43.6282 39.0127 43.6282 39.1884 43.6269C39.2939 43.6274 39.3994 43.6279 39.5081 43.6285C39.5995 43.6284 39.691 43.6282 39.7852 43.6281C40.0869 43.6701 40.2657 43.7695 40.5111 43.9472C40.6574 44.2398 40.6335 44.4766 40.6058 44.7989C40.4118 45.0541 40.2984 45.1636 39.9807 45.2253C39.8396 45.2257 39.8396 45.2257 39.6956 45.2261C39.5332 45.2279 39.5332 45.2279 39.3676 45.2298C39.19 45.2289 39.19 45.2289 39.0088 45.2279C38.8826 45.2286 38.7563 45.2294 38.6301 45.2304C38.2875 45.2325 37.945 45.2322 37.6024 45.2314C37.3164 45.2309 37.0304 45.2316 36.7445 45.2323C36.0699 45.2339 35.3953 45.2336 34.7207 45.232C34.0246 45.2304 33.3286 45.2319 32.6326 45.2349C32.0349 45.2375 31.4373 45.2381 30.8397 45.2373C30.4827 45.2369 30.1258 45.2371 29.7689 45.239C29.4333 45.2408 29.0978 45.2402 28.7622 45.2379C28.5803 45.2372 28.3984 45.2388 28.2166 45.2405C28.0542 45.2387 28.0542 45.2387 27.8885 45.2369C27.7944 45.2368 27.7003 45.2368 27.6034 45.2367C27.2619 45.1546 27.1628 44.9954 26.9784 44.7042C26.931 44.4144 26.931 44.4144 26.9784 44.1364C27.3074 43.7307 27.5314 43.6515 28.04 43.65Z" fill="#12A1DC"/>
<path d="M28.0518 40.6217C28.1567 40.6211 28.2615 40.6206 28.3695 40.62C28.4845 40.6199 28.5996 40.6198 28.7181 40.6197C28.8392 40.6192 28.9603 40.6188 29.0851 40.6183C29.4175 40.617 29.7499 40.6164 30.0823 40.616C30.29 40.6157 30.4977 40.6153 30.7054 40.6149C31.3552 40.6136 32.0051 40.6127 32.6549 40.6123C33.405 40.6119 34.1551 40.6103 34.9052 40.6075C35.485 40.6055 36.0649 40.6045 36.6448 40.6044C36.9911 40.6043 37.3374 40.6037 37.6837 40.602C38.07 40.6002 38.4562 40.6006 38.8425 40.6012C38.9572 40.6003 39.0718 40.5995 39.19 40.5986C39.2953 40.5991 39.4007 40.5996 39.5092 40.6002C39.6005 40.6 39.6918 40.5999 39.7859 40.5997C40.0875 40.6418 40.2663 40.7412 40.5116 40.9189C40.6579 41.2114 40.634 41.4483 40.6063 41.7706C40.4122 42.0257 40.2989 42.1353 39.9812 42.197C39.8401 42.1974 39.8401 42.1974 39.6961 42.1978C39.5337 42.1996 39.5337 42.1996 39.3681 42.2015C39.1905 42.2005 39.1905 42.2005 39.0093 42.1996C38.883 42.2003 38.7568 42.2011 38.6306 42.2021C38.288 42.2042 37.9455 42.2039 37.6029 42.2031C37.3169 42.2026 37.0309 42.2033 36.7449 42.204C36.0703 42.2056 35.3958 42.2052 34.7212 42.2037C34.0251 42.202 33.3291 42.2035 32.6331 42.2066C32.0354 42.2091 31.4378 42.2098 30.8401 42.209C30.4832 42.2086 30.1263 42.2088 29.7694 42.2107C29.4338 42.2124 29.0983 42.2119 28.7627 42.2095C28.5808 42.2088 28.3989 42.2105 28.217 42.2122C28.0546 42.2104 28.0546 42.2104 27.889 42.2086C27.7949 42.2085 27.7008 42.2084 27.6039 42.2084C27.2623 42.1262 27.163 41.9673 26.9788 41.6759C26.9318 41.3469 26.9386 41.179 27.1031 40.8893C27.3855 40.6068 27.6731 40.6228 28.0518 40.6217Z" fill="#12A1DC"/>
<path d="M23.5724 39.9724C23.8563 40.1616 23.8563 40.1616 23.9628 40.5047C23.9856 40.7617 23.9776 40.8787 23.8331 41.0952C23.7791 41.1531 23.725 41.211 23.6692 41.2706C23.5782 41.3692 23.5782 41.3692 23.4853 41.4697C23.4204 41.5377 23.3554 41.6057 23.2885 41.6758C23.1945 41.7758 23.1945 41.7758 23.0986 41.8778C22.6663 42.3338 22.2252 42.7814 21.7841 43.2289C21.6232 43.3928 21.4631 43.5575 21.3037 43.7229C21.0722 43.9631 20.8382 44.2007 20.6036 44.4379C20.533 44.5121 20.4624 44.5864 20.3897 44.6628C19.8287 45.2217 19.8287 45.2217 19.3717 45.2318C18.9959 45.1718 18.8694 45.1114 18.6041 44.846C18.526 44.7697 18.4479 44.6933 18.3675 44.6146C18.3238 44.5701 18.2801 44.5255 18.2351 44.4796C18.0566 44.2981 17.875 44.1201 17.6932 43.9418C17.4231 43.6756 17.1535 43.4091 16.8859 43.1404C16.8294 43.0839 16.773 43.0273 16.7149 42.9691C16.4746 42.7085 16.3831 42.5596 16.3506 42.2022C16.3802 41.865 16.3802 41.865 16.4807 41.6403C16.7595 41.4064 16.9663 41.3919 17.3265 41.3919C17.8433 41.6779 18.2297 42.0836 18.6396 42.5038C18.7047 42.5698 18.7698 42.6358 18.837 42.7038C18.9964 42.8654 19.1553 43.0275 19.3138 43.1899C19.5968 43.063 19.792 42.9236 20.0088 42.7027C20.0984 42.6122 20.0984 42.6122 20.1897 42.5199C20.2848 42.4225 20.2848 42.4225 20.3818 42.3231C20.4478 42.2563 20.5138 42.1896 20.5818 42.1209C20.7925 41.9079 21.0025 41.6943 21.2124 41.4806C21.489 41.199 21.7662 40.918 22.0438 40.6374C22.1074 40.5722 22.171 40.5071 22.2365 40.4399C22.2959 40.3799 22.3553 40.3199 22.4165 40.2581C22.4945 40.1786 22.4945 40.1786 22.5741 40.0974C22.9009 39.8186 23.1801 39.8825 23.5724 39.9724Z" fill="#12A1DC"/>
<path d="M23.4778 23.2221C23.7817 23.4467 23.924 23.5944 24.0219 23.9614C23.8479 24.7011 23.01 25.3126 22.4852 25.836C22.411 25.9103 22.3367 25.9847 22.2603 26.0612C22.1047 26.2168 21.9491 26.3723 21.7934 26.5276C21.5542 26.7663 21.3156 27.0054 21.077 27.2446C20.9254 27.3962 20.7737 27.5477 20.6221 27.6991C20.5506 27.7708 20.4792 27.8425 20.4055 27.9163C20.3064 28.0149 20.3064 28.0149 20.2054 28.1155C20.1473 28.1736 20.0891 28.2316 20.0293 28.2914C19.8338 28.4709 19.7062 28.519 19.444 28.569C18.6388 28.4497 17.9311 27.4371 17.3797 26.8833C17.2937 26.7976 17.2076 26.7119 17.1189 26.6236C17.0373 26.5418 16.9556 26.46 16.8714 26.3757C16.7975 26.3016 16.7235 26.2276 16.6473 26.1512C16.4123 25.8996 16.383 25.8079 16.3506 25.4578C16.3802 25.1148 16.3802 25.1148 16.528 24.8841C16.8623 24.6699 17.0295 24.6645 17.4211 24.7363C17.7097 24.9201 17.9382 25.1563 18.1782 25.3987C18.2783 25.4977 18.3785 25.5967 18.4788 25.6955C18.7591 25.9732 19.0369 26.2532 19.3138 26.5343C19.5969 26.4073 19.7929 26.2675 20.0103 26.0471C20.0703 25.9868 20.1303 25.9265 20.1921 25.8643C20.2558 25.7994 20.3195 25.7344 20.3851 25.6674C20.4514 25.6007 20.5176 25.534 20.5858 25.4653C20.7971 25.2523 21.0078 25.0387 21.2184 24.825C21.4297 24.611 21.6412 24.3972 21.8529 24.1837C21.9846 24.0508 22.1161 23.9177 22.2472 23.7843C22.3363 23.6943 22.3363 23.6943 22.4272 23.6025C22.4795 23.5495 22.5317 23.4964 22.5855 23.4418C22.8663 23.1821 23.1058 23.1783 23.4778 23.2221Z" fill="#12A1DC"/>
<path d="M23.4777 31.55C23.7816 31.7746 23.924 31.9223 24.0219 32.2893C23.8478 33.0289 23.01 33.6405 22.4851 34.1639C22.4109 34.2382 22.3367 34.3125 22.2602 34.3891C22.1047 34.5447 21.949 34.7001 21.7933 34.8555C21.5541 35.0941 21.3155 35.3333 21.0769 35.5725C20.9253 35.724 20.7737 35.8755 20.622 36.027C20.5506 36.0986 20.4791 36.1703 20.4055 36.2441C20.3064 36.3428 20.3064 36.3428 20.2053 36.4434C20.1472 36.5014 20.0891 36.5595 20.0292 36.6192C19.8099 36.8207 19.6911 36.8497 19.3895 36.8902C18.9025 36.8351 18.7185 36.6343 18.3855 36.2932C18.3277 36.2359 18.2698 36.1787 18.2102 36.1197C18.0886 35.9985 17.9678 35.8765 17.8478 35.7538C17.6641 35.5666 17.4772 35.3832 17.2897 35.1999C17.1717 35.0815 17.054 34.9629 16.9364 34.8441C16.8526 34.7622 16.8526 34.7622 16.7671 34.6788C16.4885 34.3887 16.3877 34.2572 16.3335 33.846C16.3801 33.5373 16.3801 33.5373 16.5694 33.2534C16.8767 33.0485 17.0333 33.0211 17.3952 33.0774C17.8608 33.2535 18.1771 33.6595 18.5094 34.0164C18.5872 34.0972 18.665 34.178 18.7452 34.2613C18.9363 34.4602 19.1257 34.6604 19.3138 34.8622C19.5968 34.7352 19.7928 34.5953 20.0103 34.3749C20.0703 34.3146 20.1303 34.2543 20.1921 34.1922C20.2558 34.1272 20.3194 34.0622 20.3851 33.9953C20.4513 33.9286 20.5175 33.8619 20.5858 33.7931C20.7971 33.5801 21.0077 33.3665 21.2183 33.1528C21.4296 32.9389 21.6411 32.7251 21.8529 32.5115C21.9846 32.3787 22.116 32.2456 22.2472 32.1122C22.3363 32.0222 22.3363 32.0222 22.4272 31.9303C22.4794 31.8773 22.5316 31.8243 22.5854 31.7697C22.8662 31.5099 23.1057 31.5062 23.4777 31.55Z" fill="#12A1DC"/>
<path d="M34.937 35.2954C35.108 35.2932 35.108 35.2932 35.2825 35.2909C35.466 35.2909 35.466 35.2909 35.6532 35.2908C35.7808 35.2902 35.9084 35.2894 36.036 35.2886C36.303 35.2874 36.5699 35.2872 36.8369 35.2878C37.1784 35.2883 37.5198 35.2854 37.8612 35.2816C38.1246 35.2792 38.3879 35.2789 38.6513 35.2792C38.8382 35.279 39.0251 35.2767 39.2119 35.2743C40.1544 35.2816 40.1544 35.2816 40.4476 35.5542C40.6573 35.889 40.6702 36.0827 40.6067 36.4708C40.4046 36.738 40.2925 36.8377 39.9595 36.898C39.8559 36.8986 39.7522 36.8992 39.6454 36.8998C39.4687 36.9021 39.4687 36.9021 39.2884 36.9044C39.1602 36.904 39.0319 36.9035 38.9037 36.9029C38.7717 36.9034 38.6397 36.904 38.5077 36.9047C38.2312 36.9057 37.9548 36.9053 37.6784 36.9039C37.3247 36.9023 36.9712 36.9045 36.6175 36.9078C36.3449 36.9099 36.0724 36.9098 35.7999 36.909C35.6695 36.9089 35.5392 36.9095 35.4088 36.9109C35.2263 36.9126 35.0437 36.9109 34.8612 36.9091C34.7575 36.909 34.6538 36.9089 34.5469 36.9088C34.1752 36.8301 34.0309 36.6652 33.793 36.3762C33.7509 36.1743 33.7509 36.1743 33.7812 35.9858C33.7888 35.9231 33.7963 35.8604 33.8041 35.7958C34.0184 35.3426 34.4851 35.299 34.937 35.2954Z" fill="#12A1DC"/>
<path d="M28.5997 23.9163C28.7671 23.9156 28.7671 23.9156 28.938 23.9149C29.1738 23.9146 29.4095 23.9155 29.6453 23.9175C30.0061 23.92 30.3667 23.9175 30.7275 23.9144C30.9567 23.9148 31.1859 23.9154 31.4151 23.9163C31.5769 23.9149 31.5769 23.9149 31.7419 23.9134C32.4877 23.9244 32.4877 23.9244 32.8671 24.2019C33.0357 24.4523 33.0357 24.4523 33.0948 24.7362C33.0111 25.1381 32.8956 25.2497 32.5625 25.4933C32.1804 25.5649 31.8029 25.5596 31.4151 25.5561C31.2476 25.5568 31.2476 25.5568 31.0768 25.5575C30.841 25.5578 30.6052 25.557 30.3695 25.555C30.0086 25.5525 29.6481 25.555 29.2873 25.558C29.0581 25.5577 28.8289 25.5571 28.5997 25.5561C28.4379 25.5576 28.4379 25.5576 28.2729 25.559C27.527 25.548 27.527 25.548 27.1476 25.2705C26.9791 25.0201 26.9791 25.0201 26.9199 24.7362C27.106 23.8431 27.8534 23.9097 28.5997 23.9163Z" fill="#12A1DC"/>
<path d="M38.4952 32.2792C38.694 32.2776 38.8927 32.2734 39.0915 32.2692C39.2185 32.2683 39.3454 32.2675 39.4724 32.2668C39.6453 32.2647 39.6453 32.2647 39.8217 32.2626C40.1903 32.3153 40.3451 32.4254 40.6062 32.6856C40.669 32.8749 40.669 32.8749 40.6653 33.0642C40.6666 33.1266 40.6678 33.1891 40.669 33.2535C40.5703 33.5509 40.391 33.6511 40.133 33.8213C39.8247 33.8687 39.8247 33.8687 39.4791 33.8682C39.3542 33.8683 39.2294 33.8683 39.1007 33.8684C39.0362 33.8674 38.9716 33.8664 38.9051 33.8654C38.7078 33.8627 38.5107 33.8635 38.3133 33.8647C37.3611 33.8586 37.3611 33.8586 37.0702 33.6967C36.8243 33.4435 36.8267 33.2194 36.8208 32.8749C37.1622 32.1271 37.7735 32.2833 38.4952 32.2792Z" fill="#12A1DC"/>
<path d="M28.4932 26.9484C28.633 26.9456 28.633 26.9456 28.7757 26.9428C29.229 26.9459 29.461 26.9529 29.8322 27.23C30.0074 27.4807 30.0074 27.4807 30.0665 27.7646C29.9837 28.1623 29.8603 28.2781 29.5342 28.5217C29.1859 28.5918 28.8474 28.5878 28.4932 28.5808C28.3534 28.5835 28.3534 28.5835 28.2108 28.5863C27.7574 28.5833 27.5254 28.5763 27.1543 28.2991C26.9791 28.0485 26.9791 28.0485 26.9199 27.7646C27.0969 26.9149 27.7739 26.9342 28.4932 26.9484Z" fill="#12A1DC"/>
</svg>
