<svg width="58" height="52" viewBox="0 0 58 52" fill="none" xmlns="http://www.w3.org/2000/svg"><path d="M23.168 1.014l.307-.001c.34-.002.68-.001 1.02 0l.732-.003h1.78l1.447-.001h.627c1.308-.002 2.616-.002 3.924 0 1.197 0 2.393 0 3.59-.003 1.229-.003 2.457-.003 3.686-.003l2.07-.001c.648-.002 1.297-.002 1.945 0h.715c.325-.002.65 0 .974 0L46.272 1c.683.008.992.16 1.503.612l.151.156.172.176.177.182c.539.552.539.552 1.11 1.068.429.361.815.762 1.209 1.16.28.282.56.557.865.814.46.388.875.82 1.296 1.25.25.254.496.493.776.716.218.175.218.175.417.473.025.25.025.25.025.558l.002.354a5650.698 5650.698 0 000 .804c.002.38.002.76.002 1.14a1286.73 1286.73 0 01.004 3.634l.001 1.955.003 5.541v.605c0 1.616.001 3.233.004 4.85.003 1.66.004 3.319.004 4.978 0 .932 0 1.864.003 2.796.002.793.002 1.587 0 2.38 0 .405 0 .81.002 1.215v1.112c-.001.198 0 .395.002.593-.008 1.072-.008 1.072-.45 1.547-.339.256-.685.223-1.1.221h-.67c-.245-.002-.49-.001-.736 0-.698.002-1.396.004-2.094 0-3.456-.012-6.47.402-9.718 1.629l-.758.278c-.517.189-1.033.38-1.549.572-.712.265-1.425.526-2.14.785l-.337.122-.672.244-1.009.367a715.026 715.026 0 01-5.755 2.065c-1.508.535-3.014 1.074-4.52 1.616l-.934.337c-1.183.425-1.183.425-2.364.857l-.605.222c-.23.084-.459.169-.688.255-.648.236-1.134.381-1.808.156-.612-.422-.812-1.208-1.048-1.883l-.106-.298-.228-.645a437.195 437.195 0 00-3.963-11.034l-.227-.615c-.138-.373-.276-.746-.416-1.118l-.181-.492-.083-.22c-.147-.402-.226-.738-.184-1.167.149-.285.149-.285.397-.496.28-.071.52-.091.794 0 .385.403.546.827.725 1.343l.093.259c.103.287.204.574.306.862l.22.618.482 1.351c.271.764.545 1.527.82 2.29l.072.2.29.809.511 1.422c.456 1.268.912 2.535 1.372 3.802l.121.335.562 1.542.195.537.09.245c.2.55.2.55.2.77l.176-.066c1.488-.564 2.98-1.109 4.48-1.641l1.813-.646.372-.133c1.26-.45 2.52-.902 3.778-1.355l.298-.108 1.411-.508c1.021-.369 2.043-.736 3.064-1.104-1.188.156-2.366.363-3.546.57l-1.454.252c-.9.155-1.799.312-2.698.469a807.962 807.962 0 01-2.601.451 243.17 243.17 0 01-1.295.226c-1.587.269-1.587.269-2.26-.044-.47-.447-.599-.974-.7-1.598l-.04-.229-.127-.758-.093-.546c-.085-.498-.17-.995-.253-1.493l-.269-1.588c-.154-.903-.306-1.806-.459-2.71-.236-1.402-.474-2.803-.712-4.205l-.237-1.397-.06-.348-.411-2.428c-.44-2.6-.884-5.199-1.332-7.797l-.037-.213-.688-3.974-.226-1.303a864.486 864.486 0 00-.276-1.592c-.088-.507-.088-.507-.088-.729l-.322.122c-1.369.511-2.75.982-4.134 1.449a1785.212 1785.212 0 00-1.631.55l-.283.096-.246.084a8.801 8.801 0 00-.496.193c-.236.089-.236.089-.534.089a232.98 232.98 0 002.044 5.77 726.954 726.954 0 012.295 6.392l.196.553a770.7 770.7 0 01.347.978l.093.262c.062.172.129.342.198.51.095.246.12.43.12.691l.006.228c-.046.26-.126.344-.334.505-.346.105-.519.135-.85-.02-.277-.205-.346-.324-.468-.644l-.125-.324-.146-.403-.09-.244c-.262-.715-.517-1.433-.773-2.151a4084.977 4084.977 0 00-.638-1.788 1124.005 1124.005 0 00-1.532-4.266c-.316-.88-.633-1.76-.96-2.638l-.395-1.075-.185-.494c-.672-1.78-.672-1.78-.492-2.438.279-.547.6-.735 1.16-.928l.236-.086a55.042 55.042 0 011.076-.378c.733-.255 1.467-.503 2.202-.75a2782.412 2782.412 0 001.599-.54 96.762 96.762 0 002.074-.724c.47-.17.47-.17.69-.17l-.036-.197a128.49 128.49 0 01-.162-.895l-.058-.31c-.259-1.453-.259-1.453.033-2.005.344-.411.606-.591 1.136-.682l.314-.055.34-.057.354-.061c.38-.066.76-.13 1.14-.194l.776-.133c1.764-.303 3.53-.599 5.3-.872l-.007-.383a194.7 194.7 0 01-.015-1.409 88.35 88.35 0 00-.008-.61 82.724 82.724 0 01-.01-.876l-.005-.274c0-.553.058-.885.442-1.314.465-.378.923-.34 1.495-.337zm-.303 1.628c-.025 6.55-.025 6.55-.048 13.102l-.008 1.857-.004 1.244a523.13 523.13 0 01-.008 2.167c0 .261-.002.523-.004.785v.232c-.003.368-.008.664-.226.97-.282.142-.483.131-.795.1-.279-.211-.385-.33-.447-.677l-.002-.33-.004-.379.002-.415-.003-.437c-.003-.396-.004-.792-.003-1.188a657.339 657.339 0 01-.012-3.59 993.93 993.93 0 00-.01-2.675 2194.34 2194.34 0 01-.017-5.503c-.64.048-1.273.1-1.906.21l-.383.064-.4.07a705.055 705.055 0 01-1.292.224 479.965 479.965 0 01-1.982.343 538.878 538.878 0 01-.986.17l-.33.058c-.277.048-.277.048-.567.152.058 1.003.22 1.978.392 2.966l.092.532c.082.483.166.966.25 1.448l.266 1.55.457 2.652.713 4.137.238 1.387.06.347.419 2.431c.47 2.725.937 5.45 1.402 8.175l.214 1.25.666 3.898a2239.562 2239.562 0 00.615 3.603l.05.295.046.267.04.23c.032.193.032.193.138.384 2.274-.36 4.545-.742 6.814-1.132l.21-.036 2.576-.444 2.226-.383 4.56-.786v-.099l-.214-.001a3858.05 3858.05 0 01-7.655-.04 985.57 985.57 0 01-3.326-.019c-.361-.001-.723-.003-1.084-.006-.196-.002-.391-.002-.587-.002l-.354-.004-.307-.001c-.307-.03-.508-.066-.773-.225-.2-.417-.224-.796-.225-1.254l-.002-.396v-.888a1163.262 1163.262 0 01-.003-4.706l-.003-2.513c-.002-.72-.003-1.44-.002-2.159 0-.43 0-.86-.002-1.29v-2.605c.038-.277.038-.277.168-.462.287-.193.529-.154.863-.113 3.56 3.56.463 10.06.497 15.095h29.593V8.997l-5.462-.099c-.953-.358-.953-.358-1.29-.794-.502-1.754-.26-3.64-.299-5.462H22.865zm24.131.595a379.125 379.125 0 00-.015 2.26l-.004.824-.003.26c0 .21.01.42.022.629.174.214.174.214.381.222l.223-.001h.253l.274-.003.28-.001.886-.006.6-.003c.49-.002.982-.006 1.473-.01-.448-.535-.448-.535-.942-1.028l-.18-.167-.188-.17c-.465-.428-.921-.86-1.365-1.31a15.003 15.003 0 00-1.695-1.496z" fill="#12A1DC"/><path d="M27.62 27.704l.272-.002c.303-.002.605 0 .908.002l.65-.003c.588-.001 1.177 0 1.766.002.616.002 1.231 0 1.847 0 1.1 0 2.2.002 3.3.005.998.002 1.995.003 2.993.001 1.282-.002 2.564-.002 3.846 0h1.469c.576 0 1.153 0 1.729.003h.636c.288 0 .577.001.865.003l.256-.002c.366.005.58.018.877.243.158.223.203.334.202.605l.007.198c-.1.321-.278.418-.559.596-.294.058-.583.053-.882.05l-.27.002c-.297.001-.595 0-.893-.002l-.64.002c-.58.001-1.16 0-1.74-.002h-1.82c-1.02 0-2.038-.001-3.057-.003-1.178-.003-2.357-.003-3.535-.002-1.133.001-2.266 0-3.399-.001h-1.447c-.568 0-1.136 0-1.704-.003h-.626c-.284 0-.569 0-.853-.002l-.251.002c-.457-.005-.757-.043-1.128-.339-.142-.283-.13-.48-.1-.794.313-.568.683-.567 1.28-.559zm.174-10.578a216.875 216.875 0 011.164-.003l.64-.002a1265.608 1265.608 0 012.831-.005l3.403-.005c1.31 0 2.62-.003 3.93-.007 1.013-.003 2.025-.005 3.037-.005.605 0 1.21-.001 1.814-.004.57-.002 1.138-.002 1.707-.001.209 0 .417 0 .626-.002.285-.002.57-.001.855 0l.252-.003c.396.004.587.023.931.24.197.209.197.209.26.407l-.007.199v.199c-.085.3-.203.406-.453.595a6.07 6.07 0 01-.882.052l-.273.002h-.908c-.216 0-.433 0-.65.002-.589.002-1.177.002-1.766.001l-1.474.001c-1.224.002-2.449.001-3.673 0a728.2 728.2 0 00-2.993.002c-1.159.003-2.317.004-3.475.003-.613 0-1.227 0-1.84.002-.576.002-1.153.001-1.73-.001h-.635c-.288.003-.577.001-.866-.001l-.255.003c-.395-.006-.583-.025-.878-.299-.177-.32-.2-.498-.146-.859.336-.591.84-.511 1.454-.511zm-.072 15.841l.27-.002c.3-.002.6 0 .898.002l.644-.002c.583-.002 1.165 0 1.748.001.61.002 1.219.001 1.828 0 1.024 0 2.047.002 3.07.004 1.185.004 2.368.004 3.552.002 1.138-.002 2.277-.001 3.415 0H44.6c.57 0 1.14.001 1.711.004h.63c.285-.001.57 0 .856.003l.252-.003c.398.006.59.026.934.243.197.208.197.208.26.407l-.008.198v.199c-.084.3-.203.406-.453.596a6 6 0 01-.877.05l-.272.003c-.3.002-.602 0-.903 0l-.646.002c-.586.002-1.172.002-1.757.001l-1.466.001c-1.153.002-2.305.002-3.458 0-1.19-.002-2.38 0-3.57.003-1.02.003-2.042.003-3.063.002-.61 0-1.22 0-1.83.002-.573.002-1.147.002-1.72 0h-.633c-.287.002-.574 0-.861-.002l-.254.004c-.426-.007-.589-.03-.937-.3-.196-.263-.196-.263-.258-.56.167-.803.748-.867 1.444-.858zm.005-21.152l.272-.002c.3-.002.601 0 .902.001.216 0 .431 0 .647-.002.586-.002 1.172 0 1.757.002h1.838c1.029 0 2.057.001 3.086.004 1.19.003 2.38.003 3.57.001 1.144-.001 2.288 0 3.431.001h1.462c.574 0 1.147 0 1.72.003h.633c.287 0 .574 0 .86.003l.255-.003c.365.006.578.02.873.243.159.224.204.334.203.606l.007.198c-.1.321-.277.418-.559.596-.295.058-.585.054-.886.051l-.27.002c-.3.002-.599.001-.898 0-.215 0-.429.002-.644.003-.582.002-1.165.002-1.748 0-.486 0-.972 0-1.458.002h-3.44c-1.184-.002-2.368 0-3.552.002a884.56 884.56 0 01-3.047.003c-.607 0-1.214 0-1.821.002-.57.002-1.141 0-1.712-.002-.21 0-.419 0-.629.002-.285.001-.571 0-.857-.003l-.252.004c-.425-.007-.587-.03-.933-.3-.197-.262-.197-.262-.26-.56.168-.805.752-.867 1.45-.857zm-.107 10.638l.272-.002c.303-.002.605 0 .908 0l.65-.001c.589-.002 1.178-.002 1.767 0h1.846c1.1-.002 2.2 0 3.3.002h2.993c1.159-.003 2.317-.004 3.475-.002l1.84-.001c.577-.001 1.153 0 1.73.002h.635c.288-.002.577 0 .866.002l.255-.003c.36.005.581.02.877.233.216.32.2.536.147.913-.147.217-.147.217-.397.397a6.167 6.167 0 01-.882.05l-.273.002c-.303.002-.605 0-.908 0l-.65.001c-.588.002-1.177.001-1.766 0h-1.847c-1.1.001-2.2 0-3.3-.002a995.34 995.34 0 00-2.993 0c-1.158.003-2.317.003-3.475.002h-1.84c-.576.002-1.153.001-1.73-.001h-.635c-.288.002-.577 0-.866-.002l-.255.003c-.36-.005-.58-.02-.877-.233-.216-.32-.2-.537-.147-.913.329-.486.74-.453 1.28-.447z" fill="#12A1DC"/></svg>