<svg width="42" height="55" viewBox="0 0 42 55" fill="none" xmlns="http://www.w3.org/2000/svg">
<path d="M2.30368 0.0410952C2.41557 0.0406215 2.52746 0.0401479 2.64273 0.0396599C2.76608 0.0396794 2.88943 0.039699 3.01651 0.0397192C3.14722 0.0393286 3.27793 0.0389379 3.41259 0.0385354C3.77609 0.0375653 4.13959 0.0370758 4.50309 0.036794C4.89487 0.0363793 5.28665 0.0353616 5.67844 0.0344338C6.62494 0.0323335 7.57145 0.0312642 8.51796 0.0303188C8.96363 0.0298532 9.40931 0.0292829 9.85498 0.0287262C11.3364 0.0269186 12.8179 0.0253785 14.2993 0.024609C14.6838 0.0244061 15.0683 0.0242021 15.4527 0.0239943C15.5961 0.0239172 15.5961 0.0239172 15.7423 0.0238385C17.2904 0.0229565 18.8385 0.0202643 20.3866 0.0168136C21.9759 0.0133001 23.5651 0.011386 25.1543 0.0110464C26.0467 0.0108163 26.939 0.00988631 27.8314 0.00717229C28.5914 0.00486629 29.3513 0.00401025 30.1113 0.0050437C30.499 0.00552672 30.8866 0.00532439 31.2743 0.00326274C31.6948 0.00104558 32.1154 0.00213111 32.5359 0.00353187C32.6581 0.00236636 32.7802 0.00120084 32.9061 0C33.7098 0.00646869 34.3195 0.106815 34.9192 0.689141C34.9666 0.758309 35.014 0.827478 35.0628 0.898742C35.1364 1.00208 35.1364 1.00208 35.2114 1.10751C35.4852 1.57581 35.5806 1.95166 35.575 2.49462C35.5743 2.61275 35.5736 2.73089 35.5729 2.8526C35.5711 2.97484 35.5694 3.09709 35.5675 3.22303C35.5666 3.34733 35.5656 3.47163 35.5646 3.59969C35.5621 3.90582 35.5586 4.21189 35.5542 4.51799C35.6404 4.51615 35.7265 4.5143 35.8152 4.51239C35.9289 4.51095 36.0426 4.50952 36.1598 4.50803C36.2722 4.50618 36.3846 4.50434 36.5004 4.50243C37.2238 4.53667 37.7175 4.83231 38.2039 5.35474C38.6451 5.86993 38.7695 6.40453 38.7626 7.07389C38.7619 7.19168 38.7612 7.30947 38.7605 7.43083C38.7587 7.55218 38.757 7.67354 38.7551 7.79857C38.7542 7.92238 38.7532 8.0462 38.7522 8.17377C38.7497 8.47817 38.7462 8.78252 38.7418 9.08689C38.8394 9.08196 38.9369 9.07703 39.0374 9.07195C40.5009 9.0289 40.5009 9.0289 41.0794 9.5119C41.6423 10.1164 41.9542 10.694 41.9603 11.5303C41.9617 11.6562 41.963 11.7821 41.9644 11.9118C41.9648 12.1143 41.9648 12.1143 41.9651 12.321C41.9658 12.4605 41.9666 12.6 41.9673 12.7437C41.9686 13.0384 41.9689 13.3331 41.9688 13.6279C41.9688 14.0048 41.9717 14.3817 41.9754 14.7586C41.9783 15.1193 41.9782 15.4799 41.9784 15.8406C41.9799 15.9757 41.9815 16.1107 41.983 16.2498C41.9824 16.3757 41.9817 16.5016 41.9811 16.6313C41.9814 16.7418 41.9817 16.8522 41.982 16.9661C41.9159 17.3461 41.7699 17.5251 41.5044 17.7997C41.2919 17.8702 41.2919 17.8702 41.0794 17.8661C41.0093 17.8674 40.9392 17.8688 40.8669 17.8702C40.5368 17.7606 40.4211 17.5518 40.2294 17.2684C40.1764 16.9767 40.1764 16.9767 40.1764 16.6572C40.1754 16.537 40.1743 16.4168 40.1732 16.293C40.1741 16.1642 40.175 16.0355 40.1758 15.9029C40.1743 15.7035 40.1743 15.7035 40.1728 15.5001C40.1703 15.1477 40.1694 14.7954 40.1695 14.443C40.1697 13.9458 40.1687 13.4486 40.1653 12.9514C40.1635 12.6869 40.1632 12.4224 40.1646 12.1578C40.1635 11.9786 40.1635 11.9786 40.1623 11.7957C40.1624 11.6904 40.1625 11.5851 40.1626 11.4766C40.1149 11.1571 40.0548 11.0904 39.8044 10.8932C39.5393 10.8095 39.5393 10.8095 39.2532 10.767C39.1096 10.7417 39.1096 10.7417 38.9631 10.716C38.8901 10.7043 38.8171 10.6927 38.7418 10.6807C38.742 10.7595 38.7422 10.8382 38.7423 10.9194C38.7518 15.5882 38.7591 20.2571 38.7635 24.9259C38.7641 25.4865 38.7646 26.0471 38.7652 26.6077C38.7653 26.7193 38.7654 26.8309 38.7655 26.9458C38.7674 28.7529 38.7707 30.56 38.7746 32.3671C38.7786 34.2213 38.781 36.0755 38.7818 37.9297C38.7824 39.0739 38.7843 40.2181 38.7877 41.3622C38.79 42.1468 38.7906 42.9314 38.7901 43.7159C38.7898 44.1686 38.7902 44.6213 38.7925 45.0739C38.7946 45.4887 38.7947 45.9033 38.7932 46.3181C38.793 46.4678 38.7936 46.6175 38.7949 46.7673C38.803 47.7329 38.7426 48.5219 38.1118 49.2867C38.0436 49.3428 37.9754 49.3988 37.9051 49.4565C37.8374 49.5144 37.7698 49.5724 37.7001 49.6321C37.0542 50.0469 36.4042 50.0241 35.6635 50.02C35.487 50.0202 35.487 50.0202 35.3068 50.0205C34.9124 50.0209 34.5179 50.0197 34.1234 50.0185C33.8407 50.0185 33.5579 50.0185 33.2752 50.0186C32.6664 50.0187 32.0577 50.0181 31.4489 50.0169C30.5687 50.0151 29.6886 50.0146 28.8084 50.0143C27.3803 50.0139 25.9523 50.0125 24.5242 50.0104C23.1371 50.0085 21.75 50.007 20.3629 50.0061C20.2774 50.006 20.1918 50.006 20.1037 50.0059C19.6747 50.0056 19.2456 50.0054 18.8165 50.0051C15.258 50.0029 11.6994 49.9992 8.14089 49.9944C8.14948 50.3775 8.16147 50.7603 8.1741 51.1433C8.17649 51.2521 8.17889 51.3609 8.18136 51.473C8.18513 51.5775 8.18889 51.6819 8.19277 51.7895C8.19556 51.8858 8.19834 51.982 8.2012 52.0812C8.25558 52.378 8.32709 52.4714 8.56591 52.6507C8.87728 52.7545 9.07611 52.7704 9.40031 52.7707C9.50721 52.771 9.61412 52.7713 9.72426 52.7717C9.90092 52.7715 9.90092 52.7715 10.0812 52.7712C10.206 52.7714 10.3309 52.7717 10.4595 52.7719C10.8067 52.7725 11.1538 52.7726 11.501 52.7724C11.8751 52.7724 12.2493 52.773 12.6235 52.7735C13.3568 52.7744 14.0901 52.7747 14.8234 52.7747C15.4194 52.7748 16.0153 52.775 16.6112 52.7754C18.3 52.7763 19.9888 52.7768 21.6777 52.7767C21.7687 52.7767 21.8598 52.7767 21.9537 52.7767C22.0449 52.7767 22.1361 52.7767 22.23 52.7767C23.7083 52.7766 25.1865 52.7776 26.6647 52.7791C28.1818 52.7807 29.6989 52.7814 31.2159 52.7813C32.068 52.7813 32.92 52.7816 33.772 52.7827C34.4974 52.7837 35.2228 52.7839 35.9482 52.7832C36.3184 52.7828 36.6886 52.7828 37.0588 52.7838C37.4599 52.7846 37.861 52.7841 38.2621 52.7833C38.4381 52.7841 38.4381 52.7841 38.6176 52.7849C38.7251 52.7844 38.8325 52.7839 38.9432 52.7834C39.0358 52.7835 39.1284 52.7835 39.2238 52.7835C39.5227 52.7532 39.748 52.6775 40.0169 52.5445C40.1495 52.2792 40.1365 52.1015 40.1367 51.8045C40.137 51.6923 40.1373 51.58 40.1377 51.4644C40.1374 51.278 40.1374 51.278 40.1371 51.0878C40.1373 50.9565 40.1375 50.8252 40.1378 50.69C40.1382 50.4009 40.1384 50.1118 40.1383 49.8227C40.1381 49.3524 40.1387 48.8821 40.1393 48.4118C40.1402 47.729 40.1407 47.0462 40.1411 46.3634C40.1416 45.2845 40.1434 44.2055 40.1455 43.1266C40.1461 42.7577 40.1468 42.3887 40.1475 42.0198C40.1476 41.9276 40.1478 41.8354 40.148 41.7404C40.1499 40.6903 40.1516 39.6402 40.1532 38.5901C40.1534 38.494 40.1535 38.398 40.1536 38.2991C40.156 36.7428 40.1571 35.1866 40.1579 33.6304C40.1588 32.0336 40.1612 30.4368 40.1651 28.84C40.1675 27.8546 40.1685 26.8692 40.1678 25.8837C40.1675 25.2085 40.1687 24.5333 40.1711 23.8581C40.1725 23.4683 40.1731 23.0786 40.1719 22.6888C40.1707 22.2665 40.1726 21.8442 40.175 21.4219C40.1741 21.2983 40.1732 21.1748 40.1722 21.0475C40.1807 20.2193 40.1807 20.2193 40.432 19.7957C40.6709 19.5919 40.7692 19.5335 41.0794 19.5396C41.1495 19.5382 41.2197 19.5368 41.2919 19.5354C41.6471 19.6533 41.7378 19.8139 41.9294 20.1372C41.9944 20.567 41.9872 20.9943 41.9841 21.4283C41.9849 21.5608 41.9856 21.6933 41.9864 21.8297C41.9883 22.1972 41.9877 22.5646 41.9866 22.9321C41.9858 23.3285 41.9875 23.7249 41.9889 24.1214C41.9912 24.898 41.9912 25.6746 41.9903 26.4513C41.9896 27.0827 41.9898 27.7141 41.9905 28.3456C41.9906 28.4354 41.9906 28.5253 41.9907 28.6179C41.9909 28.8004 41.9911 28.983 41.9913 29.1655C41.9931 30.8781 41.9922 32.5906 41.9904 34.3031C41.9888 35.8689 41.9904 37.4347 41.9934 39.0006C41.9966 40.6088 41.9977 42.217 41.9967 43.8252C41.9966 44.0072 41.9965 44.1893 41.9964 44.3713C41.9963 44.4609 41.9963 44.5504 41.9962 44.6427C41.996 45.2729 41.9971 45.9031 41.9986 46.5333C42.0005 47.302 42.0005 48.0707 41.998 48.8395C41.9969 49.2315 41.9965 49.6235 41.9985 50.0155C42.0006 50.4411 41.9986 50.8666 41.9962 51.2922C41.9974 51.4153 41.9987 51.5383 42 51.6651C41.991 52.4487 41.8565 53.0649 41.3982 53.7133C40.8683 54.2091 40.4276 54.4699 39.6914 54.4713C39.5795 54.4718 39.4676 54.4723 39.3524 54.4727C39.229 54.4727 39.1057 54.4727 38.9786 54.4727C38.7825 54.4733 38.7825 54.4733 38.5825 54.4739C38.219 54.4748 37.8555 54.4753 37.492 54.4756C37.1002 54.476 36.7084 54.477 36.3166 54.478C35.3701 54.4801 34.4236 54.4811 33.4771 54.4821C33.0315 54.4826 32.5858 54.4831 32.1401 54.4837C30.6587 54.4855 29.1772 54.487 27.6958 54.4878C27.3113 54.488 26.9268 54.4882 26.5424 54.4884C26.4468 54.4885 26.3512 54.4885 26.2528 54.4886C24.7047 54.4894 23.1566 54.4921 21.6085 54.4956C20.0192 54.4991 18.43 54.501 16.8408 54.5014C15.9484 54.5016 15.056 54.5025 14.1637 54.5052C13.4037 54.5075 12.6438 54.5084 11.8838 54.5074C11.4961 54.5069 11.1085 54.5071 10.7208 54.5091C10.3002 54.5114 9.87973 54.5103 9.45917 54.5089C9.27593 54.5106 9.27593 54.5106 9.08898 54.5124C8.28533 54.5059 7.67556 54.4056 7.07587 53.8233C7.02848 53.7541 6.98109 53.6849 6.93226 53.6137C6.88323 53.5448 6.83419 53.4759 6.78367 53.4049C6.50984 52.9366 6.41452 52.5607 6.42009 52.0178C6.42077 51.8997 6.42146 51.7815 6.42216 51.6598C6.42394 51.5376 6.42572 51.4153 6.42756 51.2894C6.42852 51.1651 6.42948 51.0408 6.43046 50.9127C6.43296 50.6066 6.43645 50.3005 6.44084 49.9944C6.35473 49.9963 6.26862 49.9981 6.1799 50C6.00931 50.0022 6.00931 50.0022 5.83528 50.0044C5.66667 50.0071 5.66667 50.0071 5.49465 50.01C4.77131 49.9757 4.27755 49.6801 3.79115 49.1577C3.35 48.6425 3.22559 48.1079 3.23249 47.4385C3.23317 47.3207 3.23386 47.2029 3.23456 47.0816C3.23634 46.9602 3.23812 46.8389 3.23996 46.7138C3.24092 46.59 3.24188 46.4662 3.24286 46.3386C3.24536 46.0342 3.24885 45.7299 3.25324 45.4255C3.15572 45.4305 3.0582 45.4354 2.95772 45.4405C1.49419 45.4835 1.49419 45.4835 0.915668 45.0005C0.371358 44.4159 0.0394991 43.8411 0.0383058 43.0293C0.0376206 42.9112 0.0369355 42.7932 0.0362295 42.6715C0.0365586 42.5424 0.0368875 42.4132 0.0372266 42.2802C0.0367451 42.1426 0.0362639 42.0049 0.0357678 41.8632C0.0344678 41.4813 0.0344961 41.0995 0.0347466 40.7177C0.03479 40.3059 0.0336172 39.8941 0.0326093 39.4822C0.0308442 38.6755 0.03026 37.8688 0.0301415 37.0621C0.0300406 36.4065 0.0296039 35.751 0.02893 35.0954C0.0270587 33.2374 0.0260785 31.3793 0.0262379 29.5212C0.0262463 29.4211 0.0262548 29.3209 0.0262636 29.2177C0.0262723 29.1174 0.0262808 29.0171 0.0262897 28.9138C0.0263762 27.2875 0.0243414 25.6612 0.0213464 24.0349C0.0182964 22.3656 0.0168263 20.6963 0.01701 19.0269C0.0170807 18.0895 0.0164938 17.1521 0.0142097 16.2147C0.0122779 15.4167 0.0118099 14.6188 0.0132553 13.8209C0.0139507 13.4137 0.0139557 13.0065 0.0121176 12.5993C0.0101468 12.1581 0.0114573 11.7171 0.0131019 11.2759C0.0120089 11.1468 0.0109158 11.0176 0.00978959 10.8846C0.0169477 10.0198 0.0169478 10.0198 0.26815 9.592C0.507074 9.3919 0.607489 9.33322 0.915668 9.33924C0.985795 9.33787 1.05592 9.3365 1.12817 9.33509C1.48504 9.45358 1.57387 9.61088 1.76569 9.93691C1.83041 10.3792 1.82232 10.819 1.81869 11.2653C1.81927 11.4017 1.81984 11.5382 1.82043 11.6788C1.82196 12.0574 1.82086 12.436 1.81933 12.8146C1.81815 13.2229 1.81943 13.6313 1.82042 14.0396C1.82181 14.7471 1.82168 15.4546 1.82057 16.1621C1.81898 17.1854 1.82003 18.2087 1.82179 19.232C1.8246 20.8926 1.82576 22.5533 1.82564 24.2139C1.82564 24.3133 1.82563 24.4127 1.82562 24.5151C1.8256 24.9179 1.82556 25.3206 1.82552 25.7234C1.82542 26.8327 1.82556 27.9419 1.82585 29.0511C1.82589 29.2002 1.82589 29.2002 1.82593 29.3522C1.8264 31.0068 1.82812 32.6615 1.83066 34.3162C1.83215 35.3373 1.83245 36.3584 1.83123 37.3795C1.83045 38.0786 1.83077 38.7777 1.83197 39.4769C1.83261 39.8806 1.83272 40.2843 1.83145 40.6881C1.83008 41.1251 1.83114 41.5621 1.83244 41.9991C1.83123 42.1919 1.83123 42.1919 1.83 42.3886C1.83074 42.5051 1.83149 42.6216 1.83225 42.7417C1.83222 42.8426 1.8322 42.9435 1.83217 43.0475C1.87956 43.3489 1.94829 43.4395 2.19071 43.6192C2.48139 43.7161 2.65043 43.7389 2.94937 43.7393C3.08439 43.7399 3.08439 43.7399 3.22212 43.7405C3.32103 43.7404 3.41993 43.7402 3.52183 43.7401C3.6794 43.7406 3.6794 43.7406 3.84016 43.741C4.19377 43.7419 4.54738 43.7421 4.901 43.7422C5.15386 43.7427 5.40672 43.7433 5.65958 43.7439C6.20486 43.7451 6.75014 43.746 7.29542 43.7466C8.15696 43.7477 9.01848 43.7499 9.88001 43.7523C10.1747 43.7531 10.4693 43.7539 10.764 43.7546C10.8376 43.7548 10.9113 43.755 10.9871 43.7552C11.8254 43.7575 12.6636 43.7595 13.5019 43.7614C13.5785 43.7615 13.6552 43.7617 13.7341 43.7619C14.9768 43.7647 16.2196 43.7667 17.4623 43.7684C18.7375 43.7703 20.0128 43.7734 21.288 43.7775C22.0043 43.7797 22.7205 43.7814 23.4368 43.7816C24.1101 43.7818 24.7833 43.7835 25.4566 43.7863C25.7042 43.7871 25.9519 43.7873 26.1995 43.7869C26.5365 43.7865 26.8734 43.788 27.2104 43.7901C27.3093 43.7895 27.4082 43.7889 27.5101 43.7883C27.6001 43.7892 27.6901 43.7902 27.7829 43.7911C27.8607 43.7913 27.9385 43.7914 28.0187 43.7916C28.2823 43.8434 28.3774 43.9417 28.5415 44.1505C28.5839 44.3796 28.5839 44.3796 28.5814 44.6286C28.5822 44.7108 28.583 44.793 28.5839 44.8777C28.531 45.1639 28.4466 45.244 28.2228 45.4255C27.908 45.4562 27.6158 45.4671 27.301 45.4639C27.1581 45.4643 27.1581 45.4643 27.0123 45.4647C26.6917 45.4652 26.3711 45.4634 26.0505 45.4617C25.8212 45.4616 25.5919 45.4617 25.3626 45.4618C24.739 45.4619 24.1153 45.4601 23.4917 45.4578C22.8403 45.4559 22.189 45.4557 21.5377 45.4553C20.3038 45.4543 19.0699 45.4517 17.836 45.4485C16.4315 45.4449 15.0269 45.4432 13.6224 45.4416C10.7327 45.4382 7.843 45.4326 4.95329 45.4255C4.95881 45.8064 4.96891 46.187 4.97986 46.5677C4.98136 46.6757 4.98287 46.7836 4.98442 46.8948C4.98956 47.0509 4.98956 47.0509 4.9948 47.2102C4.99702 47.3059 4.99925 47.4017 5.00154 47.5003C5.07841 47.8486 5.20103 47.9756 5.48456 48.1881C5.73936 48.2512 5.73936 48.2512 6.02021 48.2416C6.12887 48.2427 6.23753 48.2438 6.34949 48.2449C6.52828 48.2435 6.52827 48.2435 6.71068 48.2421C6.83743 48.2427 6.96419 48.2434 7.09479 48.2441C7.44679 48.2455 7.79869 48.245 8.15069 48.2437C8.53022 48.2427 8.90975 48.2442 9.28928 48.2454C10.0328 48.2472 10.7764 48.2468 11.5199 48.2456C12.1241 48.2446 12.7283 48.2445 13.3325 48.245C13.4185 48.245 13.5044 48.2451 13.5929 48.2452C13.7675 48.2453 13.942 48.2454 14.1166 48.2456C15.7541 48.2468 17.3916 48.2454 19.0291 48.2431C20.4348 48.2412 21.8404 48.2416 23.2461 48.2435C24.8777 48.2458 26.5092 48.2467 28.1408 48.2454C28.3147 48.2452 28.4886 48.2451 28.6626 48.245C28.7481 48.2449 28.8337 48.2448 28.9219 48.2448C29.5255 48.2444 30.1291 48.245 30.7327 48.246C31.4681 48.2472 32.2035 48.2469 32.9389 48.2446C33.3142 48.2435 33.6896 48.2431 34.0649 48.2445C34.4714 48.246 34.8779 48.2442 35.2844 48.2421C35.4036 48.243 35.5228 48.244 35.6456 48.2449C35.8086 48.2433 35.8086 48.2433 35.9749 48.2416C36.1157 48.2415 36.1157 48.2415 36.2593 48.2414C36.607 48.1677 36.7283 48.0499 36.9355 47.7631C36.9992 47.4393 36.9992 47.4393 36.989 47.0715C36.9899 46.967 36.9899 46.967 36.9909 46.8605C36.9925 46.6262 36.991 46.3921 36.9895 46.1578C36.99 45.9886 36.9907 45.8193 36.9915 45.6501C36.9933 45.1842 36.9924 44.7184 36.9911 44.2526C36.9901 43.7505 36.9916 43.2484 36.9928 42.7463C36.9947 41.7624 36.9943 40.7785 36.993 39.7946C36.9921 38.9952 36.9919 38.1958 36.9924 37.3964C36.9925 37.2259 36.9925 37.2259 36.9926 37.052C36.9927 36.8211 36.9929 36.5903 36.993 36.3594C36.9942 34.1932 36.9928 32.027 36.9906 29.8608C36.9887 28.0009 36.989 26.1409 36.9909 24.281C36.9932 22.1227 36.9941 19.9644 36.9928 17.8061C36.9927 17.5761 36.9925 17.346 36.9924 17.116C36.9923 17.0028 36.9923 16.8897 36.9922 16.7731C36.9918 15.9743 36.9925 15.1756 36.9935 14.3768C36.9947 13.4038 36.9943 12.4309 36.9921 11.4579C36.991 10.9611 36.9905 10.4644 36.9919 9.96772C36.9932 9.51339 36.9925 9.0591 36.9902 8.60478C36.9898 8.44004 36.99 8.2753 36.991 8.11057C36.9923 7.8873 36.991 7.66421 36.989 7.44095C36.989 7.31675 36.9889 7.19255 36.9888 7.06459C36.9233 6.67713 36.8265 6.55306 36.5105 6.3243C36.2619 6.25148 36.2619 6.25148 36.0058 6.24461C35.9209 6.23858 35.836 6.23256 35.7485 6.22635C35.6844 6.22361 35.6203 6.22087 35.5542 6.21805C35.5544 6.29678 35.5546 6.37552 35.5549 6.45664C35.5667 11.1237 35.5759 15.7908 35.5814 20.4579C35.582 21.0183 35.5827 21.5787 35.5834 22.1392C35.5836 22.2508 35.5837 22.3623 35.5839 22.4773C35.5862 24.2836 35.5904 26.0899 35.5952 27.8963C35.6002 29.7499 35.6032 31.6035 35.6042 33.4571C35.605 34.6008 35.6073 35.7444 35.6116 36.8881C35.6144 37.6725 35.6152 38.4569 35.6145 39.2412C35.6142 39.6937 35.6147 40.1461 35.6176 40.5986C35.6202 41.0133 35.6203 41.4279 35.6185 41.8426C35.6183 41.9922 35.6189 42.1418 35.6206 42.2914C35.6301 43.1926 35.5671 43.9356 35.023 44.6817C34.2366 45.4149 33.5887 45.4533 32.537 45.4627C32.3926 45.4645 32.2482 45.4674 32.1039 45.4714C31.895 45.4773 31.6861 45.4792 31.4772 45.4811C31.3524 45.4832 31.2275 45.4853 31.0989 45.4875C30.7728 45.4255 30.7728 45.4255 30.5159 45.1805C30.3478 44.8943 30.3478 44.8943 30.3545 44.5091C30.4539 44.1512 30.487 44.0468 30.7728 43.8317C31.0152 43.7892 31.0152 43.7892 31.2966 43.7848C31.3987 43.782 31.5007 43.7792 31.6059 43.7763C31.7655 43.7742 31.7655 43.7742 31.9284 43.7719C32.1384 43.7683 32.3484 43.7637 32.5584 43.7583C32.6515 43.7569 32.7446 43.7556 32.8406 43.7543C33.1423 43.7221 33.3701 43.6472 33.6417 43.513C33.791 43.2143 33.7615 42.9673 33.7619 42.633C33.7621 42.5634 33.7623 42.4939 33.7626 42.4222C33.7632 42.1868 33.763 41.9514 33.7629 41.716C33.7631 41.5464 33.7635 41.3768 33.7638 41.2073C33.7647 40.7395 33.7649 40.2718 33.7649 39.8041C33.7651 39.3003 33.7659 38.7965 33.7667 38.2928C33.7681 37.1906 33.7687 36.0883 33.7692 34.9861C33.7695 34.2984 33.77 33.6107 33.7704 32.923C33.7717 31.0204 33.7728 29.1179 33.7732 27.2154C33.7732 27.0935 33.7732 26.9717 33.7733 26.8462C33.7733 26.724 33.7733 26.6019 33.7733 26.4761C33.7734 26.2286 33.7734 25.9811 33.7735 25.7336C33.7735 25.6108 33.7735 25.488 33.7735 25.3615C33.774 23.3709 33.7758 21.3803 33.7783 19.3897C33.7808 17.3479 33.7821 15.3062 33.7823 13.2644C33.7824 12.1172 33.783 10.9701 33.7849 9.82289C33.7865 8.84631 33.7871 7.86974 33.7862 6.89316C33.7858 6.39451 33.7859 5.89588 33.7874 5.39724C33.7887 4.94128 33.7886 4.48534 33.7873 4.02937C33.7871 3.86392 33.7874 3.69846 33.7883 3.53301C33.7895 3.30905 33.7887 3.08519 33.7875 2.86124C33.7875 2.73656 33.7876 2.61189 33.7877 2.48343C33.7727 2.18173 33.7727 2.18173 33.606 1.98513C33.2765 1.75503 32.9832 1.74206 32.5948 1.74174C32.4879 1.7414 32.381 1.74106 32.2708 1.7407C32.1531 1.74087 32.0353 1.74103 31.9139 1.7412C31.7266 1.74084 31.7266 1.74084 31.5356 1.74047C31.1884 1.73992 30.8413 1.73984 30.4941 1.73996C30.1199 1.73998 29.7458 1.7394 29.3716 1.73889C28.6383 1.73801 27.905 1.73772 27.1717 1.73766C26.5757 1.73761 25.9798 1.73739 25.3839 1.73705C23.695 1.73612 22.0062 1.73563 20.3174 1.73571C20.2263 1.73571 20.1353 1.73572 20.0414 1.73572C19.9502 1.73572 19.859 1.73573 19.7651 1.73573C18.2868 1.73578 16.8086 1.73476 15.3304 1.73326C13.8133 1.73174 12.2962 1.731 10.7792 1.73109C9.92712 1.73113 9.0751 1.73084 8.22307 1.72969C7.49766 1.72873 6.77226 1.72849 6.04686 1.72922C5.67666 1.72956 5.30647 1.72957 4.93627 1.72865C4.53515 1.72783 4.13406 1.72832 3.73294 1.72914C3.55699 1.72832 3.55699 1.72832 3.37748 1.72748C3.27002 1.72797 3.16257 1.72846 3.05185 1.72896C2.95927 1.72894 2.86669 1.72892 2.7713 1.72889C2.47237 1.75917 2.24709 1.83494 1.9782 1.96792C1.8521 2.22013 1.85807 2.37487 1.85688 2.65623C1.85613 2.75482 1.85538 2.85342 1.85461 2.955C1.85417 3.0618 1.85373 3.16861 1.85327 3.27865C1.85081 3.50361 1.84824 3.72857 1.84559 3.95352C1.84186 4.30913 1.83874 4.66469 1.83732 5.02031C1.83568 5.36288 1.8314 5.70534 1.82671 6.04788C1.82691 6.15425 1.82711 6.26063 1.82732 6.37023C1.81432 7.10701 1.81432 7.10701 1.56556 7.45143C1.29927 7.62658 1.12841 7.69003 0.809415 7.70559C0.40431 7.59254 0.3047 7.53292 0.0656416 7.17433C0.0365118 6.94146 0.0365116 6.94146 0.0330858 6.66732C0.0313871 6.56441 0.0296886 6.4615 0.0279384 6.35547C0.0273686 6.24424 0.0267988 6.13301 0.0262117 6.01841C0.0252524 5.90346 0.0242931 5.78851 0.0233047 5.67008C0.0217618 5.42633 0.020819 5.18258 0.0204269 4.93883C0.0191694 4.56847 0.0139502 4.1983 0.0085718 3.82797C0.00756542 3.59077 0.00679724 3.35357 0.00628921 3.11636C0.00421384 3.00664 0.00213826 2.89692 0 2.78387C0.00466748 2.02312 0.157795 1.42951 0.596908 0.79913C1.12618 0.302974 1.56794 0.0425382 2.30368 0.0410952Z" fill="#00A0DD"/>
<path d="M20.4667 6.11181C21.5813 6.95157 22.2094 7.92652 22.4855 9.29941C22.6558 10.8507 22.2102 12.0847 21.3167 13.337C21.3876 13.3695 21.4584 13.402 21.5313 13.4354C22.9476 14.1386 23.8469 15.1685 24.3981 16.6309C24.5995 17.332 24.6446 18.0054 24.6463 18.7319C24.6474 18.892 24.6474 18.892 24.6484 19.0553C24.6495 19.2798 24.65 19.5042 24.65 19.7287C24.6504 20.0692 24.6543 20.4095 24.6583 20.7499C24.659 20.9693 24.6594 21.1887 24.6596 21.4081C24.6619 21.5584 24.6619 21.5584 24.6642 21.7118C24.6569 22.7964 24.3311 23.7133 23.5788 24.4994C22.8259 25.1392 22.044 25.3552 21.077 25.3625C21.0001 25.3632 20.9231 25.3639 20.8439 25.3646C20.5896 25.3667 20.3354 25.3679 20.0811 25.369C19.9503 25.3696 19.9503 25.3696 19.8168 25.3703C19.3545 25.3725 18.8923 25.374 18.43 25.375C17.9551 25.3762 17.4803 25.3798 17.0054 25.3841C16.6381 25.3869 16.2708 25.3877 15.9035 25.3881C15.7286 25.3886 15.5537 25.3899 15.3788 25.3918C14.0201 25.4063 12.8776 25.291 11.8544 24.3118C11.3135 23.6754 11.0003 22.9289 10.9931 22.0946C10.992 21.9988 10.991 21.903 10.99 21.8042C10.9895 21.7012 10.9891 21.5981 10.9886 21.492C10.988 21.3848 10.9874 21.2775 10.9868 21.1671C10.9857 20.9399 10.9851 20.7126 10.9846 20.4854C10.9836 20.1415 10.9803 19.7976 10.977 19.4537C10.967 17.5288 11.1325 15.988 12.5176 14.5257C13.0583 14.0073 13.6251 13.6483 14.304 13.337C14.2553 13.2687 14.2065 13.2003 14.1563 13.1299C13.2711 11.8263 12.9124 10.5069 13.2016 8.93956C13.5487 7.63018 14.3354 6.62672 15.4728 5.8993C17.0508 5.10918 18.9654 5.13474 20.4667 6.11181ZM15.4728 8.13062C14.9413 8.92438 14.738 9.61964 14.8353 10.5744C15.0463 11.3859 15.4326 12.0693 16.1365 12.5405C16.9355 13.001 17.7069 13.1833 18.621 12.9456C19.5596 12.6003 20.1126 12.1076 20.5788 11.2277C20.901 10.4954 20.8872 9.70635 20.6128 8.96073C20.2143 8.07474 19.6543 7.56492 18.7667 7.17434C17.5728 6.80537 16.2873 7.18765 15.4728 8.13062ZM17.2791 14.7183C17.3492 15.104 17.4194 15.4897 17.4916 15.8871C17.702 15.8871 17.9124 15.8871 18.1291 15.8871C18.1993 15.5014 18.2694 15.1157 18.3416 14.7183C17.991 14.7183 17.6404 14.7183 17.2791 14.7183ZM13.7396 15.7477C13.1145 16.4145 12.7055 17.2376 12.6897 18.1573C12.688 18.2482 12.6863 18.339 12.6846 18.4326C12.6798 18.8471 12.6755 19.2617 12.673 19.6762C12.6713 19.8943 12.6684 20.1123 12.6643 20.3303C12.6585 20.6462 12.6562 20.9619 12.6546 21.2778C12.6522 21.3744 12.6498 21.4709 12.6473 21.5704C12.6495 22.2254 12.7696 22.7411 13.2415 23.2186C13.7687 23.5768 14.1093 23.697 14.7585 23.7003C14.8318 23.7012 14.9052 23.7021 14.9808 23.7031C15.2211 23.7055 15.4612 23.7048 15.7015 23.7038C15.8699 23.7043 16.0383 23.705 16.2068 23.7058C16.5589 23.7069 16.9111 23.7064 17.2632 23.7049C17.7128 23.703 18.1623 23.7055 18.6118 23.7093C18.9594 23.7116 19.307 23.7114 19.6546 23.7106C19.8202 23.7105 19.9859 23.7112 20.1516 23.7128C21.3079 23.7464 21.3079 23.7464 22.3291 23.2736C22.9024 22.6826 22.9736 22.1381 22.9633 21.3338C22.9635 21.1871 22.9635 21.1871 22.9637 21.0374C22.9635 20.8312 22.9623 20.625 22.9601 20.4188C22.957 20.1061 22.9579 19.7936 22.9593 19.4808C22.9586 19.2795 22.9578 19.0781 22.9566 18.8767C22.9569 18.7846 22.9572 18.6925 22.9576 18.5976C22.9395 17.4061 22.5853 16.5259 21.7501 15.6804C21.2498 15.217 20.7513 14.8246 20.0417 14.8246C19.9845 15.07 19.9295 15.3156 19.8757 15.5617C19.8596 15.6297 19.8435 15.6977 19.8269 15.7678C19.6448 16.6189 19.8234 17.4258 20.0255 18.2591C20.0639 18.4226 20.1023 18.5861 20.1407 18.7495C20.2009 19.0028 20.2613 19.2559 20.3219 19.5091C20.3809 19.7564 20.439 20.0039 20.497 20.2514C20.5153 20.3264 20.5335 20.4015 20.5523 20.4788C20.6518 20.9041 20.7116 21.2944 20.6792 21.731C20.3507 22.2161 19.7679 22.4164 19.2514 22.6541C19.1166 22.7183 19.1166 22.7183 18.979 22.7838C17.9032 23.2868 17.9032 23.2868 17.314 23.0849C17.1688 23.0204 17.0244 22.9542 16.8807 22.8866C16.8056 22.8524 16.7305 22.8182 16.6532 22.7829C15.1121 22.0722 15.1121 22.0722 14.9415 21.731C14.9285 20.6382 15.2761 19.5575 15.5485 18.5091C15.8838 17.2128 15.8838 17.2128 15.7916 15.8871C15.7728 15.7762 15.754 15.6652 15.7347 15.5509C15.7162 15.4646 15.6977 15.3783 15.6787 15.2894C15.6599 15.2004 15.6411 15.1114 15.6218 15.0197C15.6007 14.9231 15.6007 14.9231 15.5791 14.8246C14.8786 14.8246 14.2366 15.2818 13.7396 15.7477ZM17.4916 17.5872C17.2295 18.3244 17.0471 19.0597 16.8873 19.8251C16.8634 19.9374 16.8395 20.0496 16.8149 20.1653C16.7566 20.4392 16.6989 20.7132 16.6416 20.9873C16.7937 21.059 16.9462 21.1298 17.099 21.2002C17.1839 21.2397 17.2688 21.2792 17.3563 21.32C17.9426 21.544 18.4404 21.2212 18.9792 20.9873C18.8757 20.52 18.7717 20.0529 18.6672 19.5858C18.6317 19.4268 18.5964 19.2678 18.5612 19.1087C18.5106 18.8805 18.4596 18.6524 18.4085 18.4243C18.3928 18.3528 18.377 18.2813 18.3608 18.2077C18.3047 17.8685 18.3047 17.8685 18.1291 17.5872C17.9167 17.5828 17.7041 17.5826 17.4916 17.5872Z" fill="#00A0DD"/>
<path d="M6.73464 29.1516C6.92669 29.1501 6.92669 29.1501 7.12262 29.1485C7.26163 29.1481 7.40064 29.1476 7.54386 29.1471C7.6876 29.1465 7.83134 29.1459 7.97508 29.1453C8.27672 29.1442 8.57835 29.1436 8.87999 29.1432C9.26587 29.1426 9.65171 29.1401 10.0376 29.137C10.3346 29.135 10.6317 29.1345 10.9288 29.1343C11.14 29.1339 11.3513 29.1319 11.5625 29.1299C11.756 29.1304 11.756 29.1304 11.9535 29.1308C12.1235 29.1303 12.1235 29.1303 12.2969 29.1297C12.6538 29.1748 12.8493 29.274 13.1367 29.4875C13.3839 29.8582 13.3775 30.01 13.3818 30.4485C13.3834 30.5808 13.3851 30.713 13.3869 30.8493C13.3876 30.9939 13.3881 31.1384 13.3886 31.283C13.3896 31.4313 13.3905 31.5797 13.3915 31.728C13.3933 32.0391 13.3941 32.3501 13.3944 32.6611C13.395 33.059 13.399 33.4568 13.4038 33.8547C13.407 34.1612 13.4078 34.4676 13.4079 34.7741C13.4083 34.9208 13.4096 35.0674 13.4119 35.2141C13.4147 35.4195 13.4139 35.625 13.4129 35.8305C13.4134 35.9472 13.414 36.064 13.4145 36.1843C13.3278 36.6037 13.142 36.7612 12.8179 37.0315C12.2221 37.3325 11.5609 37.2746 10.9087 37.2722C10.7248 37.2725 10.7248 37.2725 10.5372 37.2728C10.2786 37.273 10.02 37.2726 9.76133 37.2717C9.3661 37.2705 8.97091 37.2717 8.57568 37.273C8.32402 37.2729 8.07236 37.2726 7.8207 37.2722C7.70281 37.2726 7.58492 37.2731 7.46346 37.2735C6.74861 37.2692 6.2302 37.2277 5.6104 36.8461C5.23303 36.279 5.30401 35.6655 5.30964 35.0027C5.30928 34.8546 5.30876 34.7066 5.3081 34.5585C5.30732 34.2488 5.30845 33.9391 5.31094 33.6293C5.31396 33.2331 5.31222 32.837 5.30904 32.4407C5.30711 32.1351 5.30773 31.8296 5.30911 31.5241C5.30946 31.378 5.30903 31.2319 5.30779 31.0859C5.29928 29.8023 5.29928 29.8023 5.63696 29.4536C6.04341 29.1891 6.25025 29.1547 6.73464 29.1516ZM6.974 30.8688C6.974 32.4116 6.974 33.9544 6.974 35.5439C8.55186 35.5439 10.1297 35.5439 11.7554 35.5439C11.7554 34.0011 11.7554 32.4583 11.7554 30.8688C10.1775 30.8688 8.59967 30.8688 6.974 30.8688Z" fill="#00A0DD"/>
<path d="M16.6771 33.6836C16.7915 33.6824 16.9059 33.6812 17.0238 33.68C17.2112 33.6813 17.2112 33.6813 17.4025 33.6826C17.6005 33.6815 17.6005 33.6815 17.8026 33.6803C18.1644 33.6788 18.5261 33.6791 18.8879 33.6805C19.2666 33.6816 19.6453 33.6806 20.0241 33.6799C20.66 33.6791 21.296 33.6802 21.9319 33.6822C22.6671 33.6845 23.4022 33.6837 24.1373 33.6814C24.7687 33.6795 25.3999 33.6792 26.0313 33.6803C26.4083 33.681 26.7852 33.6811 27.1622 33.6797C27.5825 33.6782 28.0027 33.6802 28.4229 33.6826C28.5479 33.6817 28.6729 33.6809 28.8017 33.68C28.9733 33.6818 28.9733 33.6818 29.1483 33.6836C29.2477 33.6838 29.347 33.6839 29.4494 33.6841C29.7926 33.7538 29.9204 33.8943 30.1379 34.1626C30.2133 34.4716 30.174 34.6878 30.1379 35.0126C29.9454 35.2968 29.8322 35.3271 29.5004 35.4376C29.3223 35.4479 29.1439 35.452 28.9655 35.4526C28.7997 35.4535 28.7997 35.4535 28.6305 35.4544C28.4487 35.4546 28.4487 35.4546 28.2632 35.4548C28.0716 35.4556 28.0716 35.4556 27.8762 35.4564C27.5258 35.4576 27.1755 35.4584 26.8251 35.4589C26.6061 35.4592 26.3872 35.4597 26.1683 35.4601C25.4831 35.4616 24.7979 35.4626 24.1128 35.463C23.3221 35.4635 22.5314 35.4654 21.7407 35.4684C21.1294 35.4707 20.518 35.4718 19.9066 35.472C19.5416 35.4721 19.1765 35.4727 18.8115 35.4746C18.4042 35.4767 17.997 35.4762 17.5897 35.4755C17.4085 35.477 17.4085 35.477 17.2237 35.4785C17.057 35.4776 17.057 35.4776 16.8869 35.4767C16.7426 35.4769 16.7426 35.4769 16.5953 35.4772C16.2647 35.4288 16.0636 35.3126 15.7937 35.1189C15.6295 34.7904 15.6563 34.5245 15.6875 34.1626C15.9882 33.7715 16.1899 33.6844 16.6771 33.6836Z" fill="#00A0DD"/>
<path d="M16.6771 30.3899C16.7915 30.3887 16.9059 30.3875 17.0238 30.3863C17.2112 30.3875 17.2112 30.3875 17.4025 30.3889C17.6005 30.3877 17.6005 30.3877 17.8026 30.3866C18.1644 30.3851 18.5261 30.3854 18.8879 30.3868C19.2666 30.3878 19.6453 30.3868 20.0241 30.3862C20.66 30.3854 21.296 30.3864 21.9319 30.3884C22.6671 30.3908 23.4022 30.39 24.1373 30.3877C24.7687 30.3857 25.4 30.3855 26.0313 30.3866C26.4083 30.3872 26.7852 30.3873 27.1622 30.3859C27.5825 30.3845 28.0027 30.3865 28.4229 30.3889C28.5479 30.388 28.6729 30.3871 28.8017 30.3863C28.9733 30.3881 28.9733 30.3881 29.1484 30.3899C29.2477 30.39 29.3471 30.3902 29.4494 30.3904C29.7962 30.4608 29.9234 30.5922 30.1379 30.8689C30.1874 31.2643 30.192 31.51 30.0051 31.865C29.6717 32.1746 29.294 32.1574 28.8552 32.1588C28.6921 32.1597 28.6921 32.1597 28.5257 32.1607C28.407 32.1608 28.2884 32.1609 28.1661 32.161C28.0406 32.1616 27.9151 32.1621 27.7859 32.1626C27.4421 32.1639 27.0983 32.1647 26.7545 32.1652C26.5395 32.1655 26.3246 32.1659 26.1097 32.1664C25.4367 32.1679 24.7637 32.1689 24.0908 32.1693C23.3148 32.1698 22.5388 32.1716 21.7627 32.1747C21.1623 32.177 20.5619 32.1781 19.9614 32.1782C19.603 32.1783 19.2447 32.179 18.8864 32.1809C18.4865 32.1827 18.0867 32.1825 17.6868 32.1818C17.5095 32.1833 17.5095 32.1833 17.3285 32.1847C16.7412 32.1816 16.2948 32.1707 15.7937 31.8251C15.6295 31.4966 15.6563 31.2307 15.6875 30.8689C15.9882 30.4777 16.1899 30.3907 16.6771 30.3899Z" fill="#00A0DD"/>
</svg>
