<svg width="42" height="35" viewBox="0 0 42 35" fill="none" xmlns="http://www.w3.org/2000/svg">
<path fill-rule="evenodd" clip-rule="evenodd" d="M8.90785 12.7273C10.258 12.7273 11.5529 12.1909 12.5077 11.2362C13.4624 10.2814 13.9988 8.98656 13.9988 7.63636C13.9988 6.28617 13.4624 4.99128 12.5077 4.03655C11.5529 3.08182 10.258 2.54545 8.90785 2.54545C7.55766 2.54545 6.26276 3.08182 5.30803 4.03655C4.3533 4.99128 3.81694 6.28617 3.81694 7.63636C3.81694 8.98656 4.3533 10.2814 5.30803 11.2362C6.26276 12.1909 7.55766 12.7273 8.90785 12.7273ZM8.90785 15.2727C10.9331 15.2727 12.8755 14.4682 14.3076 13.0361C15.7397 11.604 16.5442 9.66165 16.5442 7.63636C16.5442 5.61107 15.7397 3.66874 14.3076 2.23664C12.8755 0.804543 10.9331 0 8.90785 0C6.88256 0 4.94022 0.804543 3.50812 2.23664C2.07603 3.66874 1.27148 5.61107 1.27148 7.63636C1.27148 9.66165 2.07603 11.604 3.50812 13.0361C4.94022 14.4682 6.88256 15.2727 8.90785 15.2727Z" fill="white"/>
<path fill-rule="evenodd" clip-rule="evenodd" d="M5.992 12.4637C6.11052 12.5819 6.20456 12.7224 6.26872 12.877C6.33289 13.0316 6.36591 13.1974 6.36591 13.3648C6.36591 13.5322 6.33289 13.698 6.26872 13.8526C6.20456 14.0072 6.11052 14.1477 5.992 14.2659L5.13164 15.1237C3.47591 16.7799 2.54567 19.0258 2.54545 21.3677V26.0921C2.54545 26.4296 2.41136 26.7534 2.17268 26.992C1.934 27.2307 1.61028 27.3648 1.27273 27.3648C0.935179 27.3648 0.611456 27.2307 0.372773 26.992C0.134091 26.7534 0 26.4296 0 26.0921V21.3677C0.000360842 18.3508 1.19887 15.4575 3.332 13.3241L4.18982 12.4637C4.30804 12.3452 4.44849 12.2512 4.60311 12.187C4.75774 12.1228 4.9235 12.0898 5.09091 12.0898C5.25832 12.0898 5.42408 12.1228 5.5787 12.187C5.73333 12.2512 5.87377 12.3452 5.992 12.4637ZM36.008 11.7001C35.8895 11.8183 35.7954 11.9588 35.7313 12.1134C35.6671 12.268 35.6341 12.4338 35.6341 12.6012C35.6341 12.7686 35.6671 12.9343 35.7313 13.089C35.7954 13.2436 35.8895 13.384 36.008 13.5023L36.8684 14.3601C38.5241 16.0163 39.4543 18.2622 39.4545 20.6041V26.0921C39.4545 26.4296 39.5886 26.7534 39.8273 26.992C40.066 27.2307 40.3897 27.3648 40.7273 27.3648C41.0648 27.3648 41.3885 27.2307 41.6272 26.992C41.8659 26.7534 42 26.4296 42 26.0921V20.6041C41.9996 17.5872 40.8011 14.6939 38.668 12.5604L37.8102 11.7001C37.692 11.5816 37.5515 11.4875 37.3969 11.4234C37.2423 11.3592 37.0765 11.3262 36.9091 11.3262C36.7417 11.3262 36.5759 11.3592 36.4213 11.4234C36.2667 11.4875 36.1262 11.5816 36.008 11.7001Z" fill="white"/>
<path fill-rule="evenodd" clip-rule="evenodd" d="M31.8187 12.7273C30.4685 12.7273 29.1736 12.1909 28.2189 11.2362C27.2642 10.2814 26.7278 8.98656 26.7278 7.63636C26.7278 6.28617 27.2642 4.99128 28.2189 4.03655C29.1736 3.08182 30.4685 2.54545 31.8187 2.54545C33.1689 2.54545 34.4638 3.08182 35.4185 4.03655C36.3733 4.99128 36.9096 6.28617 36.9096 7.63636C36.9096 8.98656 36.3733 10.2814 35.4185 11.2362C34.4638 12.1909 33.1689 12.7273 31.8187 12.7273ZM31.8187 15.2727C29.7934 15.2727 27.8511 14.4682 26.419 13.0361C24.9869 11.604 24.1824 9.66165 24.1824 7.63636C24.1824 5.61107 24.9869 3.66874 26.419 2.23664C27.8511 0.804543 29.7934 0 31.8187 0C33.844 0 35.7863 0.804543 37.2184 2.23664C38.6505 3.66874 39.4551 5.61107 39.4551 7.63636C39.4551 9.66165 38.6505 11.604 37.2184 13.0361C35.7863 14.4682 33.844 15.2727 31.8187 15.2727ZM20.3642 23.5455C18.6764 23.5455 17.0578 24.2159 15.8644 25.4093C14.671 26.6027 14.0005 28.2214 14.0005 29.9091V33.2182C14.0005 33.5557 13.8664 33.8795 13.6278 34.1181C13.3891 34.3568 13.0654 34.4909 12.7278 34.4909C12.3903 34.4909 12.0665 34.3568 11.8279 34.1181C11.5892 33.8795 11.4551 33.5557 11.4551 33.2182V29.9091C11.4551 27.5463 12.3937 25.2802 14.0645 23.6094C15.7353 21.9386 18.0013 21 20.3642 21C22.727 21 24.9931 21.9386 26.6638 23.6094C28.3346 25.2802 29.2733 27.5463 29.2733 29.9091V33.2182C29.2733 33.5557 29.1392 33.8795 28.9005 34.1181C28.6618 34.3568 28.3381 34.4909 28.0005 34.4909C27.663 34.4909 27.3393 34.3568 27.1006 34.1181C26.8619 33.8795 26.7278 33.5557 26.7278 33.2182V29.9091C26.7278 28.2214 26.0574 26.6027 24.8639 25.4093C23.6705 24.2159 22.0519 23.5455 20.3642 23.5455Z" fill="white"/>
<path fill-rule="evenodd" clip-rule="evenodd" d="M20.3629 19.7273C21.7131 19.7273 23.008 19.1909 23.9627 18.2362C24.9175 17.2814 25.4538 15.9866 25.4538 14.6364C25.4538 13.2862 24.9175 11.9913 23.9627 11.0365C23.008 10.0818 21.7131 9.54545 20.3629 9.54545C19.0127 9.54545 17.7178 10.0818 16.7631 11.0365C15.8084 11.9913 15.272 13.2862 15.272 14.6364C15.272 15.9866 15.8084 17.2814 16.7631 18.2362C17.7178 19.1909 19.0127 19.7273 20.3629 19.7273ZM20.3629 22.2727C22.3882 22.2727 24.3306 21.4682 25.7627 20.0361C27.1947 18.604 27.9993 16.6617 27.9993 14.6364C27.9993 12.6111 27.1947 10.6687 25.7627 9.23664C24.3306 7.80454 22.3882 7 20.3629 7C18.3376 7 16.3953 7.80454 14.9632 9.23664C13.5311 10.6687 12.7266 12.6111 12.7266 14.6364C12.7266 16.6617 13.5311 18.604 14.9632 20.0361C16.3953 21.4682 18.3376 22.2727 20.3629 22.2727Z" fill="white"/>
</svg>
