<svg width="44" height="44" viewBox="0 0 44 44" fill="none" xmlns="http://www.w3.org/2000/svg">
<path d="M1 22C1 10.402 10.402 0.999989 22 0.99999C33.598 0.999991 43 10.402 43 22C43 33.598 33.598 43 22 43C10.402 43 1 33.598 1 22Z" stroke="#9E9E9E" stroke-width="2"/>
<path d="M29.4766 23C30.0288 23 30.4766 22.5523 30.4766 22C30.4766 21.4477 30.0288 21 29.4766 21L29.4766 23ZM12.9295 21.2929C12.5389 21.6834 12.5389 22.3166 12.9295 22.7071L19.2934 29.0711C19.6839 29.4616 20.3171 29.4616 20.7076 29.0711C21.0982 28.6805 21.0982 28.0474 20.7076 27.6569L15.0508 22L20.7076 16.3431C21.0982 15.9526 21.0982 15.3195 20.7076 14.9289C20.3171 14.5384 19.6839 14.5384 19.2934 14.9289L12.9295 21.2929ZM29.4766 21L13.6366 21L13.6366 23L29.4766 23L29.4766 21Z" fill="#9E9E9E"/>
</svg>
