<svg width="58" height="58" viewBox="0 0 58 58" fill="none" xmlns="http://www.w3.org/2000/svg"><path d="M29.525 3.297c.496.295.914.68 1.22 1.172.072.293.072.293.106.533l.325-.104c.839-.238 1.806-.26 2.608.104.5.294.92.677 1.226 1.172.073.293.073.293.107.533l.268-.104c.835-.245 1.87-.261 2.671.104.746.444 1.283 1.085 1.54 1.918.04.336.037.668.03 1.006v.283c-.002.297-.006.593-.01.89l-.005.605c-.003.493-.009.986-.015 1.48.063.03.127.06.193.093.259.132.498.289.742.447 1.312.833 3.021 1.569 4.61 1.377.347-.19.347-.19.64-.426.49-.203.947-.254 1.473-.253h.227c.684.016 1.275.154 1.78.631.346.213.663.198 1.057.194l.48.006c.25.001.5.002.75.001 1.892.003 1.892.003 2.683.696l.174.21.18.21c.477.692.439 1.435.367 2.248-.18.71-.69 1.192-1.28 1.599-.45.224-.86.241-1.352.238l-.48.005c-.25.002-.5.003-.75.002-1.267-.024-1.267-.024-2.323.607h-.32l.081.24a251.02 251.02 0 011.892 5.846c.136.44.274.88.412 1.32.39 1.242.779 2.485 1.15 3.734.132.44.265.88.4 1.318.06.2.119.401.176.602.08.274.162.546.246.819l.065.238c.1.312.198.54.472.727.227.116.227.116.453.204.27.115.425.28.611.504l.18.21c.465.676.407 1.401.406 2.189 0 .23.005.459.009.688.01 1.354-.266 2.421-1.221 3.42-1.221 1.165-2.52 1.238-4.12 1.23h-.574c-.4.001-.8 0-1.2-.002-.509-.002-1.018 0-1.528.002H44.61c-1.505.007-2.703-.145-3.84-1.23-1.013-1.06-1.246-2.208-1.229-3.63.002-.227 0-.454-.003-.681-.002-.937.059-1.596.695-2.322l.21-.174.21-.179c.223-.154.223-.154.49-.235.285-.109.285-.109.401-.378l.098-.315.115-.36.12-.398.13-.417c.119-.376.234-.754.35-1.131.12-.395.244-.79.368-1.183.206-.659.41-1.318.613-1.977.353-1.145.711-2.29 1.069-3.433l.073-.234a2593.874 2593.874 0 01.562-1.8l.197-.634.239-.769a27.2 27.2 0 01.624-1.809l-.234-.027c-.3-.08-.3-.08-.524-.294-.43-.295-.778-.266-1.289-.265-1.578-.04-3.01-.388-4.458-1.012l.006.18c.073 2.246-.301 4.234-1.86 5.94-.693.729-1.405 1.316-2.305 1.765l-.107 4.157h1.28c.48.48.48.48.48.85l.003.254-.003.277.002.295c.002.328 0 .655 0 .983a369.615 369.615 0 01.002 2.617c-.002.666 0 1.333 0 2 .001 1.19 0 2.382-.002 3.573a874.8 874.8 0 000 3.24c.002 1.255.003 2.509.002 3.763v1.992c.002.624 0 1.248-.002 1.873v.688c.002.313 0 .625-.002.937l.003.277c-.005.392-.015.613-.232.947-.325.203-.533.211-.915.212l-.413.003-.453-.003-.477.003c-.432.002-.864.001-1.296 0-.451-.002-.903 0-1.355 0-.759.001-1.518 0-2.276-.002-.878-.002-1.755-.002-2.632 0-.754.003-1.507.003-2.26.002h-1.35c-.423.002-.846 0-1.268-.002H21.7c-.212.002-.424 0-.636-.002h-.36c-.304-.054-.304-.054-.555-.21-.26-.401-.234-.755-.23-1.225l-.001-.295c-.002-.328 0-.655 0-.983 0-.234 0-.469-.002-.703-.002-.638 0-1.276 0-1.913.002-.667 0-1.333 0-2 0-1.191 0-2.383.003-3.574.002-1.08.001-2.16 0-3.24a1310.9 1310.9 0 01-.003-3.763v-1.992c-.002-.624 0-1.248.002-1.873v-.688c-.002-.313 0-.625.002-.937l-.003-.277c.005-.407.009-.612.253-.948.312-.212.524-.2.897-.183l.348.012.265.015c.011-.58.015-1.16.013-1.74 0-.198.002-.395.006-.593.073-1.114.073-1.114-.352-2.082a4.881 4.881 0 00-.84-.38c-1.613-1.256-2.775-2.966-3.093-5.01-.023-.393-.02-.784-.013-1.178l.003-.31.01-.75-.317.13c-1.447.573-2.818.878-4.379.868-.67.01-.967.186-1.489.601h-.32l.082.24a251.018 251.018 0 011.892 5.846c.136.44.274.88.412 1.32.39 1.242.778 2.485 1.15 3.734.131.44.265.88.399 1.318.06.2.12.401.177.602.08.274.162.546.246.819l.065.238c.1.312.198.54.472.727.226.116.226.116.453.204.27.115.425.28.611.504l.18.21c.465.676.406 1.401.406 2.189 0 .23.004.459.008.688.012 1.354-.266 2.421-1.22 3.42-1.222 1.165-2.52 1.238-4.12 1.23h-.574c-.4.001-.8 0-1.2-.002-.509-.002-1.018 0-1.528.002H7.072c-1.505.007-2.703-.145-3.84-1.23-1.013-1.06-1.246-2.208-1.23-3.63.003-.227 0-.454-.002-.681-.002-.937.059-1.596.694-2.322l.21-.174c.07-.059.14-.118.21-.179.224-.154.224-.154.49-.235.285-.109.285-.109.402-.378l.098-.315c.037-.12.075-.238.115-.36l.12-.398.13-.417c.119-.376.234-.754.35-1.131.12-.395.244-.79.367-1.183.206-.659.41-1.318.614-1.977.353-1.145.71-2.29 1.069-3.433l.073-.234a1965.58 1965.58 0 01.562-1.8 1411.723 1411.723 0 01.435-1.403c.19-.61.392-1.212.624-1.809l-.233-.027c-.3-.08-.3-.08-.534-.294-.375-.266-.672-.269-1.114-.262l-.236-.002c-.33-.003-.66-.001-.99 0-1.887.002-1.887.002-2.677-.69l-.174-.21-.18-.21c-.477-.692-.439-1.435-.367-2.248.18-.71.69-1.192 1.28-1.598.45-.225.86-.242 1.352-.239l.48-.005c.25-.002.5-.003.75-.002 1.266.022 1.266.022 2.323-.607.487-.213.948-.254 1.473-.253h.228c.78.017 1.291.257 1.925.68 1.745.18 3.63-.612 4.999-1.652l.186-.157c.147-.11.147-.11.36-.11l.014-.346c.139-1.087.83-2.13 1.683-2.797a4.445 4.445 0 011.157-.548l.258-.084.194-.061.002-.18c.03-2.353.03-2.353.837-3.235.668-.63 1.337-.903 2.26-.881l.22-.001c.46.004.84.08 1.267.247l.034-.24c.144-.58.581-.964 1.046-1.318.915-.544 2.17-.582 3.139-.147zm-2.513 2.131c-.271.66-.272 1.309-.282 2.013-.003.146-.008.291-.015.437-.065.877-.065.877.292 1.64.25.198.25.198.514.348.493.3.702.758.857 1.298.194.942.14 1.721-.366 2.55-.242.344-.478.544-.833.766-.27.185-.366.255-.43.58.037.643.228 1.012.69 1.451.345.173.693.168 1.066.107.519-.326.705-.588.853-1.172.03-.308.03-.613.03-.922l.001-.274c.002-.297.002-.595.001-.892l.002-.623v-1.303l.003-1.668c.002-.428.002-.857.002-1.285 0-.205 0-.41.002-.615l-.001-.86.002-.255c-.006-.667-.137-1.177-.595-1.687-.727-.404-1.255-.222-1.793.366zm-4.265 1.705c-.339.63-.214 1.157-.214 1.919h2.56c.053-1.293.053-1.293-.554-2.285-.727-.404-1.255-.222-1.793.366zm8.53 0c-.2.478-.24.89-.242 1.405 0 .074 0 .147-.002.223a97.64 97.64 0 000 .726l-.002.508v1.063c0 .453-.001.906-.004 1.358-.002.35-.002.7-.001 1.049 0 .167 0 .334-.002.5v1.104c.059.55.218.964.594 1.382.39.217.722.264 1.153.167.518-.326.7-.59.853-1.172.032-.37.032-.37.03-.765v-.224c.002-.242.002-.484.002-.726l.001-.508V12.16c0-.453.002-.905.004-1.358.002-.35.002-.699.001-1.048l.002-.5c.002-.235 0-.468 0-.702V8.15c-.059-.55-.218-.965-.593-1.383-.728-.404-1.255-.222-1.793.366zm4.266 1.705c-.3.627-.246 1.303-.245 1.982l-.001.393v.822c0 .418-.003.837-.005 1.255v.8l-.004.378c.005.793.046 1.372.595 1.983.39.217.722.264 1.153.167.52-.327.714-.584.853-1.172.032-.448.033-.894.032-1.342l.002-.393v-.822c0-.419.002-.837.005-1.255v-.8l.003-.378c-.004-.793-.046-1.373-.595-1.984-.727-.404-1.255-.222-1.793.366zM23.386 15.02v1.599c.428.022.75.037 1.153-.107.329-.3.452-.636.554-1.065v-.427h-1.707zm-6.971.507a10.93 10.93 0 01-3.373 1.092l.107 1.705c1.593-.054 2.9-.463 4.266-1.279v-1.918c-.369 0-.68.232-1 .4zm23.18-.4v1.918c1.418.76 2.627 1.279 4.266 1.279l.107-1.705-.36-.067c-1.268-.25-2.454-.613-3.567-1.288-.218-.155-.218-.155-.445-.137zM8.31 16.685c-.235.487-.258.893-.173 1.425.248.515.55.817 1.066 1.066.533.085.938.061 1.427-.174.382-.345.663-.622.747-1.148.027-.605-.048-.986-.468-1.45-.464-.419-.844-.494-1.45-.466-.526.084-.803.365-1.149.746zm37.537 0c-.235.487-.258.893-.173 1.425.248.515.55.817 1.066 1.066.533.085.939.061 1.427-.174.382-.345.663-.622.747-1.148.027-.605-.047-.986-.467-1.45-.464-.419-.845-.494-1.45-.466-.527.084-.804.365-1.15.746zm-41.87.36c-.15.302-.14.517-.106.852.238.303.379.41.747.533.292.007.58.01.873.006l.833-.006v-1.706l-.813-.02-.252-.008c-.504-.006-.844.07-1.281.348zm46.71-.32v1.705l.812.02.253.008c.504.006.843-.07 1.28-.348.152-.303.14-.517.107-.853-.238-.303-.379-.41-.747-.533-.292-.007-.58-.01-.873-.006l-.833.006zm-30.82-5.222c-.822.955-.778 2.15-.775 3.345v.443l.001.928v1.175c-.002.306-.001.611 0 .917l-.002.64c.01 2.11.377 3.887 1.849 5.47.548.523 1.163.87 1.836 1.208.29.154.29.154.504.367.03.224.03.224.034.503l.006.322.004.338.006.31.016 1.151.04 2.598h10.238c.022-1.704.022-1.704.041-3.409l.01-.64c.002-.11.002-.222.003-.336l.006-.321.004-.28c.052-.288.134-.377.362-.556.196-.098.394-.19.594-.28 1.452-.711 2.39-1.898 2.925-3.407.365-1.239.346-2.494.32-3.773l-.218.051c-.985.175-1.898.177-2.762-.36-.24-.15-.24-.15-.645-.117a8.128 8.128 0 00-.454.267c-.745.385-1.506.373-2.319.266a4.29 4.29 0 01-.851-.416c-.237-.15-.237-.15-.642-.117a8.128 8.128 0 00-.453.267c-.745.385-1.507.373-2.32.266a4.29 4.29 0 01-.851-.416c-.237-.15-.237-.15-.642-.117-.247.112-.247.112-.5.26-.522.275-.938.351-1.526.38.337.175.68.314 1.033.453.843.349 1.552.784 2.166 1.465l.156.161c1.007 1.09 1.351 2.443 1.444 3.888h-1.813v-.852c-.252-1.15-.933-2.031-1.872-2.718-.758-.465-1.57-.634-2.443-.736-.312-.073-.399-.13-.59-.383-.04-.262-.04-.262-.042-.579l-.003-.359.002-.387v-.398c0-.349 0-.697.002-1.046l-.001-.642c-.002-.41-.002-.82 0-1.231l-.003-.388.003-.358.001-.316c.04-.263.04-.263.182-.457.293-.207.578-.167.93-.17l.223-.003c.235-.004.47-.005.705-.006.309-.002.617-.006.925-.01l.415-.003c.559-.058.974-.212 1.4-.594a1.49 1.49 0 00.166-1.152c-.326-.518-.589-.703-1.173-.852-.293-.02-.575-.03-.868-.029a3282.726 3282.726 0 00-.768 0c-.261.002-.523 0-.785 0-1.73-.013-1.73-.013-3.23.775zM9.63 23.332c-1.487 4.667-1.487 4.667-2.962 9.339a493.523 493.523 0 01-.496 1.575l-.085.27c-.104.332-.19.614-.19.964h7.678a19.247 19.247 0 00-.41-1.624c-.04-.123-.077-.245-.117-.372l-.124-.395-.132-.42-.35-1.115-.29-.922c-.764-2.435-1.533-4.869-2.309-7.3H9.63zm37.537 0c-1.487 4.667-1.487 4.667-2.962 9.339a508.392 508.392 0 01-.495 1.575l-.086.27c-.103.332-.19.614-.19.964h7.679a19.285 19.285 0 00-.411-1.624l-.116-.372-.125-.395-.131-.42-.351-1.115-.29-.922c-.764-2.435-1.533-4.869-2.309-7.3h-.213zm-25.487 9.59v21.314h13.65V32.923H21.68zM3.978 37.506c-.261.423-.247.874-.24 1.359l.002.23c.02.937.143 1.732.771 2.46.96.826 2.166.78 3.366.775H9.26c.396-.002.793-.001 1.19 0a203.236 203.236 0 001.363 0c1.568.02 1.568.02 2.935-.668.822-.826.978-1.62.987-2.77l.007-.222c.003-.503-.068-.853-.354-1.27-.486-.275-.981-.244-1.523-.243l-.3-.002h-.979l-.681-.002h-1.429c-.61 0-1.22-.001-1.829-.004-.47-.001-.938-.002-1.408-.001-.224 0-.45 0-.674-.002h-.943l-.28-.002c-.534.005-.904.065-1.364.362zm37.537 0c-.261.423-.246.874-.24 1.359l.003.23c.019.937.143 1.732.77 2.46.96.826 2.166.78 3.366.775h1.383c.397-.002.794-.001 1.19 0a203.236 203.236 0 001.363 0c1.569.02 1.569.02 2.936-.668.821-.826.977-1.62.986-2.77l.007-.222c.004-.503-.068-.853-.353-1.27-.486-.275-.982-.244-1.524-.243l-.3-.002h-.979l-.681-.002h-1.429c-.61 0-1.219-.001-1.829-.004-.469-.001-.938-.002-1.407-.001-.225 0-.45 0-.675-.002h-.943l-.28-.002c-.533.005-.903.065-1.364.362z" fill="#12A1DC"/></svg>