<svg width="30" height="30" viewBox="0 0 30 30" fill="none" xmlns="http://www.w3.org/2000/svg">
<path fill-rule="evenodd" clip-rule="evenodd" d="M15.5 27.3967L16.4991 26.2709C17.6328 24.9726 18.6524 23.7408 19.5597 22.5691L20.3086 21.5811C23.4357 17.3678 25 14.0238 25 11.5523C25 6.27658 20.7472 2 15.5 2C10.2528 2 6 6.27658 6 11.5523C6 14.0238 7.56433 17.3678 10.6914 21.5811L11.4403 22.5691C12.7346 24.2275 14.0887 25.8367 15.5 27.3967Z" stroke="black" stroke-linecap="round" stroke-linejoin="round"/>
<path d="M15.5013 15.4584C17.6874 15.4584 19.4596 13.6862 19.4596 11.5001C19.4596 9.31395 17.6874 7.54175 15.5013 7.54175C13.3152 7.54175 11.543 9.31395 11.543 11.5001C11.543 13.6862 13.3152 15.4584 15.5013 15.4584Z" stroke="black" stroke-linecap="round" stroke-linejoin="round"/>
</svg>
