<svg width="27" height="27" viewBox="0 0 27 27" fill="none" xmlns="http://www.w3.org/2000/svg">
<path d="M13.1 12.73C13.5447 12.73 13.9247 12.5717 14.24 12.255C14.5553 11.9383 14.7127 11.5573 14.712 11.112C14.7113 10.6667 14.5527 10.2867 14.236 9.972C13.9193 9.65733 13.5383 9.5 13.093 9.5C12.6477 9.5 12.2677 9.65867 11.953 9.976C11.6383 10.2933 11.481 10.6743 11.481 11.119C11.481 11.5637 11.6393 11.9437 11.956 12.259C12.2727 12.5743 12.654 12.7317 13.1 12.731M13.096 20.677C14.976 19.041 16.462 17.3773 17.554 15.686C18.646 13.9947 19.192 12.5313 19.192 11.296C19.192 9.46667 18.613 7.95667 17.455 6.766C16.2957 5.576 14.8427 4.981 13.096 4.981C11.3493 4.981 9.89633 5.576 8.737 6.766C7.57767 7.956 6.99867 9.466 7 11.296C7 12.5307 7.546 13.994 8.638 15.686C9.73 17.378 11.216 19.0417 13.096 20.677ZM13.096 22.019C10.746 19.941 8.976 18.003 7.786 16.205C6.59533 14.407 6 12.7707 6 11.296C6 9.18067 6.68867 7.436 8.066 6.062C9.444 4.68733 11.1207 4 13.096 4C15.0713 4 16.748 4.68733 18.126 6.062C19.5033 7.436 20.192 9.18067 20.192 11.296C20.192 12.7707 19.597 14.407 18.407 16.205C17.2163 18.003 15.446 19.941 13.096 22.019Z" fill="white"/>
</svg>
