<svg width="27" height="27" viewBox="0 0 27 27" fill="none" xmlns="http://www.w3.org/2000/svg"><path d="M13.1 12.73a1.55 1.55 0 001.14-.475 1.56 1.56 0 00.472-1.143c0-.445-.16-.825-.476-1.14a1.563 1.563 0 00-1.143-.472 1.55 1.55 0 00-1.14.476 1.565 1.565 0 00-.472 1.143c0 .445.158.825.475 1.14a1.56 1.56 0 001.144.472m-.004 7.946c1.88-1.636 3.366-3.3 4.458-4.991 1.092-1.691 1.638-3.155 1.638-4.39 0-1.83-.579-3.34-1.737-4.53-1.16-1.19-2.612-1.785-4.359-1.785-1.747 0-3.2.595-4.359 1.785-1.16 1.19-1.738 2.7-1.737 4.53 0 1.235.546 2.698 1.638 4.39 1.092 1.692 2.578 3.356 4.458 4.991zm0 1.342c-2.35-2.078-4.12-4.016-5.31-5.814C6.596 14.407 6 12.771 6 11.296c0-2.115.689-3.86 2.066-5.234C9.444 4.687 11.121 4 13.096 4s3.652.687 5.03 2.062c1.377 1.374 2.066 3.119 2.066 5.234 0 1.475-.595 3.111-1.785 4.909-1.19 1.798-2.961 3.736-5.311 5.814z" fill="#fff"/></svg>