<svg width="27" height="27" viewBox="0 0 27 27" fill="none" xmlns="http://www.w3.org/2000/svg"><path d="M5.526 6.01l.085-.001h.282a277.905 277.905 0 00.765 0l.606-.002a822.516 822.516 0 012.15 0l2.732-.002h.074a739.537 739.537 0 002.466-.001A1898.077 1898.077 0 0118.667 6a392.27 392.27 0 011.772 0 82.11 82.11 0 01.747 0c.534-.004.959.084 1.358.462.257.273.445.59.446.974v.258a65.854 65.854 0 01.001.54l.001.426v.835l.001.679.001 1.926v.209a997.173 997.173 0 01.004 4.384A207.101 207.101 0 0123 17.944a53.696 53.696 0 01.001.591 1.575 1.575 0 01-.468 1.129c-.306.282-.634.444-1.058.442h-.085a53.016 53.016 0 01-.486 0l-.561.001h-.606l-1.186.002h-.963l-2.733.001h-.225l-2.316.001a1737.489 1737.489 0 01-3.981.003 382.47 382.47 0 01-1.772 0 77.072 77.072 0 01-.747.001c-.534.003-.959-.085-1.358-.462-.257-.274-.445-.591-.446-.974v-.259a459.508 459.508 0 00-.001-.539l-.001-.426a407.93 407.93 0 01-.001-1.515l-.001-1.925v-.21c0-.562 0-1.123-.002-1.684a874.714 874.714 0 01-.002-2.7A194.682 194.682 0 014 8.17a55.387 55.387 0 010-.59c.004-.44.158-.809.468-1.129.306-.282.634-.444 1.058-.442zm-.025.815c.17.2.17.2.352.383l.068.062.07.064.075.068c.162.148.325.294.49.44.112.1.223.201.334.303.14.13.282.258.425.385.184.162.364.328.545.493.248.227.497.454.75.678.164.146.327.295.49.444.15.138.302.274.455.41l.316.284c.135.123.27.246.407.367.23.205.459.412.687.62.22.2.44.4.662.596.107.095.212.191.318.287.165.15.332.3.5.448l.198.18.107.098.097.09c.193.163.389.302.653.302.256-.023.438-.13.625-.303l.097-.089.093-.085.14-.121c.155-.133.305-.27.455-.409.152-.139.305-.276.46-.412l.315-.286c.134-.122.27-.243.405-.364.144-.128.286-.257.428-.387.171-.157.344-.312.518-.466l.316-.286c.135-.123.27-.245.407-.366.211-.188.42-.378.63-.568.417-.38.417-.38.627-.566.184-.164.365-.33.546-.496.249-.227.498-.454.75-.677.163-.145.324-.292.484-.439.104-.094.207-.189.312-.282l.061-.056.169-.15c.092-.082.092-.082.161-.194H5.501zm-.667.623v11.218a.973.973 0 00.275-.184l.071-.066.073-.069.072-.066c.119-.111.236-.224.351-.34.086-.084.172-.165.265-.242a5.28 5.28 0 00.319-.298 6.23 6.23 0 01.388-.355c.113-.1.219-.209.326-.316.098-.096.201-.184.306-.273.1-.088.193-.182.285-.277.073-.07.147-.135.223-.2.153-.133.301-.27.449-.407.19-.178.383-.355.579-.528.112-.1.222-.2.333-.302.273-.25.55-.497.83-.74.088-.076.175-.153.262-.231.135-.12.27-.239.406-.357.137-.118.273-.238.409-.358-.059-.146-.156-.228-.273-.332l-.121-.108-.063-.055-.289-.26a22.393 22.393 0 00-.4-.36 42.739 42.739 0 01-.49-.445 32 32 0 00-.364-.328 40.716 40.716 0 01-.488-.442c-.12-.11-.242-.22-.364-.328a41.834 41.834 0 01-.488-.442c-.12-.11-.241-.22-.364-.327a40.79 40.79 0 01-.488-.442c-.12-.11-.241-.22-.363-.328a40.542 40.542 0 01-.489-.442c-.149-.137-.3-.272-.451-.406a13.152 13.152 0 01-.287-.265l-.126-.119a.589.589 0 00-.314-.18zm17.147.064l-.081.085a4.503 4.503 0 01-.313.298 13.7 13.7 0 00-.44.397c-.161.15-.323.298-.491.44-.123.108-.241.219-.36.33-.162.15-.324.298-.492.44-.122.108-.241.219-.36.33-.162.15-.324.297-.492.44-.122.108-.24.219-.36.33-.162.15-.324.297-.492.44-.122.107-.24.218-.36.329-.161.15-.323.298-.491.44-.123.108-.241.22-.36.33-.166.153-.332.306-.503.452-.15.128-.295.26-.442.39.06.157.179.252.301.36l.066.06c.136.122.274.242.413.361l.257.228c.11.098.221.196.333.293.307.265.607.537.907.81l.279.253.11.101a399.704 399.704 0 00.556.504l.056.051c.327.297.651.598.974.9l.318.296.156.145a290.004 290.004 0 00.492.458l.16.148c.14.132.28.265.416.401a4.917 4.917 0 00.29.267c.06.054.06.054.138.047V7.448c-.114-.012-.114-.012-.185.064zm-10.296 6.095c-.281.22-.545.454-.807.697a14.16 14.16 0 01-.539.47c-.307.258-.307.258-.596.536-.06.06-.123.114-.187.169a13.49 13.49 0 00-.435.392c-.277.256-.556.51-.836.763-.299.27-.593.544-.888.82l-.396.369-.158.146-.078.073-.238.222-.08.074-.156.146-.406.376-.084.077c-.052.05-.105.098-.159.146l-.07.066-.064.058c-.049.04-.049.04-.044.082h16.072a4.589 4.589 0 00-.442-.458 7.919 7.919 0 01-.363-.34 4.182 4.182 0 00-.264-.242 5.352 5.352 0 01-.32-.298 6.318 6.318 0 00-.39-.358c-.103-.09-.198-.188-.295-.285a4.295 4.295 0 00-.22-.198 5.21 5.21 0 01-.317-.295 6.182 6.182 0 00-.373-.344c-.123-.107-.243-.219-.363-.33a26.48 26.48 0 00-.555-.503l-.295-.271a16.58 16.58 0 00-.688-.611 13.377 13.377 0 01-.424-.372l-.056-.051-.054-.05a17.256 17.256 0 00-.802-.676.862.862 0 00-.27.184l-.068.065-.072.07c-.456.43-.891.685-1.53.678-.518-.03-.882-.328-1.245-.667a18.534 18.534 0 00-.162-.144l-.068-.061a1.003 1.003 0 00-.215-.125z" fill="#000"/></svg>