<svg width="30" height="30" viewBox="0 0 30 30" fill="none" xmlns="http://www.w3.org/2000/svg">
<path d="M4.94589 6.012C4.98164 6.01184 5.01739 6.01168 5.05422 6.01151C5.17413 6.01107 5.29403 6.0113 5.41394 6.01153C5.50074 6.01135 5.58753 6.01114 5.67432 6.01089C5.91294 6.01031 6.15154 6.01033 6.39016 6.01044C6.64746 6.01046 6.90476 6.00994 7.16206 6.0095C7.66621 6.00872 8.17037 6.00846 8.67452 6.00841C9.08429 6.00837 9.49406 6.00818 9.90384 6.00788C11.0654 6.00706 12.227 6.00662 13.3885 6.00669C13.4355 6.0067 13.4355 6.0067 13.4834 6.0067C13.5467 6.0067 13.61 6.00671 13.6733 6.00671C14.6581 6.00677 15.643 6.00607 16.6278 6.00479C17.7344 6.00335 18.841 6.00255 19.9476 6.00263C20.5334 6.00267 21.1193 6.00241 21.7052 6.0014C22.204 6.00055 22.7028 6.00035 23.2016 6.00098C23.4561 6.00129 23.7106 6.00129 23.9651 6.00048C24.1981 5.99975 24.4312 5.99988 24.6643 6.0007C24.7485 6.00084 24.8327 6.00067 24.9169 6.00015C25.5987 5.99621 26.1401 6.10807 26.6486 6.58996C26.9768 6.93888 27.2174 7.34349 27.2181 7.83216C27.2184 7.88422 27.2187 7.93627 27.219 7.9899C27.2189 8.04661 27.2187 8.10332 27.2186 8.16175C27.2188 8.22237 27.219 8.28298 27.2192 8.34544C27.2198 8.5134 27.2198 8.68137 27.2197 8.84933C27.2197 9.0306 27.2202 9.21187 27.2206 9.39314C27.2214 9.74818 27.2217 10.1032 27.2217 10.4583C27.2218 10.7469 27.222 11.0356 27.2223 11.3242C27.2231 12.1429 27.2235 12.9615 27.2235 13.7802C27.2235 13.8464 27.2235 13.8464 27.2234 13.9139C27.2234 13.9581 27.2234 14.0022 27.2234 14.0478C27.2234 14.7636 27.2243 15.4794 27.2256 16.1953C27.227 16.9305 27.2276 17.6658 27.2276 18.4011C27.2275 18.8138 27.2278 19.2265 27.2288 19.6392C27.2297 19.9906 27.2299 20.342 27.2292 20.6934C27.2289 20.8726 27.2289 21.0518 27.2297 21.231C27.2306 21.4255 27.23 21.62 27.2293 21.8145C27.2298 21.8708 27.2303 21.9271 27.2308 21.9851C27.2261 22.5474 27.0288 23.0163 26.6342 23.4243C26.2439 23.784 25.8254 23.9912 25.2849 23.988C25.2491 23.9882 25.2134 23.9883 25.1766 23.9885C25.0566 23.9889 24.9367 23.9887 24.8168 23.9885C24.73 23.9886 24.6432 23.9889 24.5564 23.9891C24.3178 23.9897 24.0792 23.9897 23.8406 23.9896C23.5833 23.9895 23.326 23.9901 23.0687 23.9905C22.5646 23.9913 22.0604 23.9915 21.5563 23.9916C21.1465 23.9916 20.7367 23.9918 20.3269 23.9921C19.1654 23.9929 18.0038 23.9934 16.8422 23.9933C16.7953 23.9933 16.7953 23.9933 16.7474 23.9933C16.6841 23.9933 16.6208 23.9933 16.5575 23.9933C15.5726 23.9932 14.5878 23.9939 13.603 23.9952C12.4964 23.9966 11.3898 23.9974 10.2832 23.9974C9.69734 23.9973 9.11148 23.9976 8.52562 23.9986C8.0268 23.9994 7.52799 23.9997 7.02917 23.999C6.77468 23.9987 6.52019 23.9987 6.2657 23.9995C6.03263 24.0003 5.79958 24.0001 5.56651 23.9993C5.48229 23.9992 5.39806 23.9993 5.31384 23.9999C4.63203 24.0038 4.09067 23.8919 3.58216 23.41C3.25393 23.0611 3.0134 22.6565 3.01268 22.1678C3.01237 22.1158 3.01207 22.0637 3.01175 22.0101C3.0119 21.9534 3.01204 21.8967 3.0122 21.8382C3.01198 21.7776 3.01177 21.717 3.01155 21.6546C3.01097 21.4866 3.01098 21.3186 3.01109 21.1507C3.01111 20.9694 3.01059 20.7881 3.01014 20.6069C3.00936 20.2518 3.0091 19.8968 3.00905 19.5417C3.009 19.2531 3.00881 18.9644 3.00851 18.6758C3.00768 17.8571 3.00724 17.0385 3.00731 16.2198C3.00732 16.1536 3.00732 16.1536 3.00732 16.0861C3.00733 16.0419 3.00733 15.9978 3.00733 15.9522C3.00737 15.2364 3.00647 14.5206 3.00514 13.8047C3.00378 13.0695 3.00313 12.3342 3.00321 11.5989C3.00324 11.1862 3.00298 10.7735 3.00196 10.3608C3.0011 10.0094 3.0009 9.65802 3.00154 9.30662C3.00185 9.12741 3.00186 8.94823 3.00103 8.76903C3.00015 8.57451 3.00074 8.38002 3.00147 8.18549C3.00099 8.1292 3.0005 8.07291 3 8.01491C3.00465 7.45264 3.20195 6.98371 3.59655 6.57572C3.98687 6.21595 4.40541 6.00885 4.94589 6.012ZM4.91398 7.05253C5.13097 7.30752 5.13097 7.30752 5.36339 7.54011C5.39201 7.56643 5.42063 7.59274 5.45012 7.61985C5.49449 7.66011 5.49449 7.66011 5.53976 7.70118C5.57098 7.72977 5.60221 7.75836 5.63438 7.78781C5.84095 7.97655 6.04928 8.16331 6.25889 8.34874C6.4021 8.47645 6.54362 8.60589 6.68505 8.73552C6.86499 8.90041 7.04557 9.06441 7.22818 9.2264C7.46177 9.43367 7.69211 9.64431 7.92241 9.85514C8.23925 10.1452 8.55695 10.4343 8.87824 10.7195C9.08862 10.9063 9.29629 11.096 9.50372 11.286C9.6957 11.4617 9.88952 11.6353 10.0842 11.808C10.2192 11.9284 10.3532 12.0499 10.487 12.1716C10.6593 12.3284 10.8323 12.4844 11.0065 12.6391C11.3005 12.9004 11.5912 13.1653 11.8822 13.43C12.1626 13.685 12.444 13.9389 12.7274 14.1906C12.8629 14.3117 12.9974 14.4337 13.1318 14.5559C13.3429 14.7479 13.5552 14.9385 13.7688 15.1278C13.8538 15.2037 13.9383 15.2803 14.0223 15.3572C14.09 15.419 14.09 15.419 14.159 15.4821C14.1997 15.5195 14.2403 15.557 14.2822 15.5955C14.5293 15.805 14.7782 15.9817 15.1159 15.9817C15.4419 15.9522 15.6746 15.8168 15.9124 15.5961C15.9533 15.5585 15.9943 15.521 16.0365 15.4823C16.0754 15.4466 16.1143 15.4108 16.1544 15.374C16.2142 15.3221 16.2742 15.2705 16.3345 15.2191C16.5313 15.0495 16.7224 14.8739 16.9138 14.6983C17.1073 14.5209 17.3027 14.3457 17.4991 14.1715C17.6341 14.0511 17.7681 13.9296 17.9019 13.8079C18.0732 13.652 18.2452 13.497 18.4184 13.3433C18.602 13.1803 18.7836 13.0153 18.9645 12.8495C19.1829 12.6494 19.4029 12.4513 19.6244 12.2547C19.7594 12.1343 19.8934 12.0128 20.0272 11.8911C20.1995 11.7344 20.3725 11.5784 20.5467 11.4236C20.8162 11.1841 21.0829 10.9416 21.3496 10.699C21.8822 10.2146 21.8822 10.2146 22.1495 9.97731C22.384 9.76897 22.6154 9.55741 22.8467 9.34564C23.1635 9.05561 23.4812 8.76652 23.8025 8.48132C24.0102 8.29679 24.2156 8.10993 24.4203 7.92217C24.5521 7.80138 24.6842 7.68109 24.8174 7.56185C24.8433 7.53861 24.8692 7.51537 24.8958 7.49142C24.9674 7.42726 25.039 7.36325 25.1107 7.29924C25.2284 7.19456 25.2284 7.19456 25.3168 7.05253C18.5839 7.05253 11.8509 7.05253 4.91398 7.05253ZM4.06386 7.84728C4.06386 12.5681 4.06386 17.2889 4.06386 22.1527C4.21613 22.0774 4.29626 22.029 4.41457 21.9184C4.45936 21.8768 4.45936 21.8768 4.50506 21.8343C4.53577 21.8054 4.56649 21.7764 4.59813 21.7466C4.6283 21.7185 4.65847 21.6905 4.68955 21.6616C4.84134 21.5198 4.99072 21.3762 5.13776 21.2296C5.24648 21.1213 5.35666 21.0179 5.47482 20.9197C5.61696 20.7986 5.75044 20.672 5.88217 20.5399C6.04091 20.3806 6.20507 20.2325 6.37659 20.087C6.52163 19.9589 6.65614 19.8209 6.79261 19.6839C6.91775 19.5618 7.04927 19.449 7.18262 19.3359C7.31007 19.2237 7.42858 19.1039 7.54698 18.9825C7.63929 18.8937 7.73356 18.81 7.83072 18.7265C8.02616 18.5584 8.21498 18.3843 8.403 18.2082C8.64662 17.9811 8.89179 17.7562 9.1415 17.5356C9.28423 17.4085 9.42515 17.2796 9.56601 17.1505C9.91487 16.831 10.2673 16.5157 10.6257 16.2067C10.7377 16.1093 10.8485 16.0105 10.9593 15.9116C11.1307 15.7585 11.3034 15.607 11.4775 15.4569C11.6521 15.3057 11.8251 15.1528 11.9983 15C11.9237 14.8129 11.8 14.7087 11.65 14.5763C11.5986 14.5306 11.5471 14.4849 11.4957 14.4392C11.4694 14.4159 11.4431 14.3927 11.416 14.3687C11.2922 14.2589 11.1701 14.1473 11.0478 14.0358C10.8785 13.8819 10.7083 13.729 10.5371 13.5771C10.3267 13.3902 10.119 13.2005 9.91156 13.0104C9.75806 12.8699 9.60365 12.7305 9.44794 12.5924C9.23842 12.4065 9.03173 12.2178 8.82529 12.0286C8.67179 11.8881 8.51738 11.7488 8.36167 11.6106C8.15216 11.4248 7.94547 11.2361 7.73903 11.0469C7.58553 10.9064 7.43112 10.767 7.27541 10.6289C7.0659 10.443 6.85921 10.2543 6.65277 10.0652C6.49926 9.92465 6.34486 9.78526 6.18915 9.64714C5.97964 9.4613 5.77295 9.27258 5.56651 9.08341C5.37609 8.90911 5.18392 8.73692 4.99035 8.56605C4.89498 8.48039 4.80107 8.39379 4.70772 8.30601C4.68026 8.28037 4.6528 8.25472 4.62452 8.2283C4.57062 8.17788 4.51698 8.12718 4.46364 8.07618C4.32529 7.94718 4.25297 7.89407 4.06386 7.84728ZM25.9317 7.92781C25.8973 7.96391 25.8629 8 25.8275 8.0372C25.6984 8.16928 25.5702 8.29773 25.429 8.41704C25.2368 8.58013 25.0527 8.75109 24.8681 8.92252C24.6621 9.11382 24.4551 9.30267 24.2409 9.48498C24.0851 9.6218 23.9338 9.76325 23.7819 9.90427C23.5758 10.0956 23.3688 10.2844 23.1546 10.4667C22.9988 10.6035 22.8475 10.745 22.6956 10.886C22.4895 11.0773 22.2826 11.2662 22.0683 11.4485C21.9126 11.5853 21.7612 11.7267 21.6093 11.8678C21.4033 12.0591 21.1963 12.2479 20.9821 12.4302C20.8263 12.567 20.675 12.7085 20.5231 12.8495C20.317 13.0408 20.1101 13.2297 19.8958 13.412C19.74 13.5488 19.5887 13.6902 19.4368 13.8313C19.2259 14.027 19.0145 14.2212 18.7954 14.408C18.6052 14.5713 18.4193 14.7394 18.2325 14.9065C18.3083 15.1055 18.4602 15.2272 18.6162 15.3652C18.644 15.3902 18.6718 15.4152 18.7004 15.4409C18.874 15.5965 19.0492 15.7503 19.2263 15.9019C19.337 15.9975 19.4459 16.0947 19.5549 16.1921C19.6957 16.3179 19.837 16.4428 19.9799 16.5661C20.3711 16.9038 20.7533 17.2514 21.1355 17.599C21.254 17.7067 21.3727 17.8143 21.4913 17.9219C21.5386 17.9648 21.5858 18.0077 21.6331 18.0506C21.727 18.1357 21.8208 18.2208 21.9147 18.3059C22.057 18.4349 22.1992 18.564 22.3414 18.6932C22.365 18.7147 22.3887 18.7362 22.4131 18.7583C22.8302 19.1375 23.2429 19.5211 23.6548 19.9057C23.7898 20.0316 23.9248 20.1575 24.0599 20.2832C24.1262 20.3451 24.1926 20.4069 24.259 20.4688C24.432 20.63 24.6051 20.7911 24.7785 20.952C24.8142 20.9853 24.85 21.0185 24.8868 21.0527C24.9546 21.1157 25.0225 21.1787 25.0903 21.2416C25.2705 21.4091 25.447 21.5796 25.6212 21.7532C25.711 21.8416 25.8034 21.9265 25.8983 22.0096C25.9293 22.037 25.9603 22.0644 25.9922 22.0926C26.0682 22.1621 26.0682 22.1621 26.1669 22.1527C26.1669 17.4319 26.1669 12.7111 26.1669 7.84728C26.0224 7.83193 26.0224 7.83193 25.9317 7.92781ZM12.8012 15.7012C12.442 15.982 12.1056 16.2801 11.7719 16.5897C11.5487 16.7967 11.3178 16.9939 11.0845 17.1898C10.6926 17.5191 10.6926 17.5191 10.3235 17.8729C10.2472 17.9489 10.1676 18.0186 10.0855 18.0884C9.89597 18.2502 9.71322 18.4187 9.53059 18.588C9.17786 18.9151 8.82225 19.2388 8.46499 19.561C8.08376 19.9056 7.70779 20.2555 7.33235 20.6062C7.16396 20.7635 6.99534 20.9205 6.82674 21.0775C6.75989 21.1397 6.69305 21.202 6.6262 21.2643C6.59309 21.2951 6.55998 21.326 6.52586 21.3578C6.42487 21.4519 6.32389 21.546 6.22291 21.6401C6.17277 21.6868 6.17277 21.6868 6.12162 21.7345C6.05504 21.7966 5.98848 21.8586 5.92193 21.9207C5.74976 22.0812 5.57718 22.2413 5.40397 22.4007C5.36882 22.4331 5.33366 22.4656 5.29744 22.499C5.22992 22.5612 5.1623 22.6233 5.09458 22.6853C5.06463 22.713 5.03468 22.7406 5.00382 22.7691C4.97727 22.7934 4.95073 22.8178 4.92337 22.8429C4.86127 22.8929 4.86127 22.8929 4.86675 22.9475C11.6308 22.9475 18.395 22.9475 25.364 22.9475C25.1767 22.7311 25.011 22.5496 24.8002 22.3631C24.6422 22.2223 24.4857 22.0811 24.3368 21.9307C24.2288 21.8217 24.1173 21.7204 24.0003 21.6209C23.8582 21.4998 23.7247 21.3733 23.5929 21.2411C23.4332 21.0808 23.268 20.9316 23.0954 20.7851C22.964 20.6695 22.8423 20.5453 22.719 20.4213C22.6285 20.3331 22.5352 20.2506 22.4388 20.1688C22.2976 20.0487 22.1652 19.9231 22.0344 19.7919C21.8811 19.6383 21.7238 19.4946 21.5584 19.3541C21.4012 19.2168 21.2486 19.0748 21.0957 18.9328C20.8622 18.7161 20.6269 18.5019 20.388 18.2909C20.2612 18.1771 20.1365 18.0614 20.0118 17.9452C19.725 17.678 19.4339 17.4183 19.1333 17.1664C18.9494 17.0119 18.7698 16.8537 18.5926 16.6918C18.5691 16.6703 18.5456 16.6488 18.5215 16.6267C18.4989 16.6061 18.4762 16.5854 18.4529 16.5641C18.1227 16.2631 17.7783 15.981 17.4296 15.7012C17.2916 15.763 17.193 15.8303 17.0855 15.9355C17.0568 15.9631 17.0281 15.9907 16.9986 16.0191C16.9684 16.0483 16.9382 16.0774 16.9071 16.1074C16.3261 16.6555 15.7703 16.9817 14.9549 16.9734C14.295 16.9351 13.8316 16.5539 13.3679 16.122C13.2994 16.0602 13.2306 15.9989 13.1613 15.9379C13.1184 15.8997 13.1184 15.8997 13.0746 15.8607C12.9876 15.7928 12.9017 15.7466 12.8012 15.7012Z" fill="black"/>
</svg>
