<svg width="50" height="52" viewBox="0 0 50 52" fill="none" xmlns="http://www.w3.org/2000/svg">
<path d="M22.2372 0.441965C22.3771 0.479931 22.5171 0.517897 22.6613 0.557013C24.3372 1.05945 25.7949 1.92176 27.0882 3.09846C27.1695 3.17037 27.2508 3.24228 27.3345 3.31637C29.4098 5.25733 30.3594 7.98733 30.7842 10.7214C30.9251 10.7225 31.066 10.7236 31.2111 10.7247C31.7386 10.7293 32.2659 10.7369 32.7933 10.7454C33.0207 10.7486 33.2481 10.7511 33.4755 10.7527C33.8041 10.7552 34.1326 10.7606 34.4612 10.7666C34.5614 10.7667 34.6615 10.7668 34.7647 10.767C35.8109 10.7915 36.734 11.1328 37.5034 11.8539C38.1824 12.6709 38.5384 13.6224 38.5358 14.6772C38.5357 14.7951 38.5357 14.913 38.5357 15.0345C38.5351 15.1603 38.5345 15.2862 38.5339 15.4159C38.5337 15.6108 38.5337 15.6108 38.5334 15.8096C38.5328 16.2238 38.5313 16.638 38.5299 17.0523C38.5293 17.3334 38.5288 17.6146 38.5283 17.8957C38.527 18.5843 38.5251 19.2729 38.5226 19.9614C38.6692 19.9587 38.6692 19.9587 38.8187 19.9559C39.1881 19.9499 39.5575 19.9456 39.9269 19.9424C40.0855 19.9407 40.2441 19.9383 40.4027 19.9353C42.478 19.8966 44.2268 20.384 45.7585 21.8509C47.1161 23.3754 47.672 25.0799 47.6584 27.108C47.6581 27.2483 47.6581 27.2483 47.6579 27.3914C47.6573 27.6868 47.6558 27.9821 47.6543 28.2774C47.6538 28.4791 47.6532 28.6807 47.6528 28.8824C47.6515 29.3737 47.6495 29.8651 47.6471 30.3564C47.8769 30.3521 48.1067 30.3479 48.3366 30.3437C48.6937 30.363 48.8825 30.4681 49.1486 30.7029C49.3757 31.237 49.4128 31.7306 49.4095 32.303C49.4101 32.4352 49.4101 32.4352 49.4107 32.5702C49.4117 32.8599 49.4111 33.1495 49.4103 33.4392C49.4104 33.6414 49.4107 33.8436 49.411 34.0458C49.4113 34.4688 49.4108 34.8918 49.4097 35.3148C49.4084 35.8565 49.4092 36.3981 49.4106 36.9398C49.4114 37.357 49.4111 37.7743 49.4105 38.1915C49.4104 38.3912 49.4106 38.5909 49.4111 38.7907C49.4117 39.0699 49.4108 39.349 49.4095 39.6282C49.41 39.7103 49.4104 39.7925 49.4109 39.8771C49.4062 40.4331 49.3259 40.8524 48.9984 41.3058C48.7256 41.4983 48.5329 41.4789 48.203 41.466C48.0989 41.4629 47.9948 41.4598 47.8876 41.4565C47.7686 41.4505 47.7686 41.4505 47.6471 41.4443C47.6495 41.5711 47.652 41.6979 47.6544 41.8285C47.6629 42.3081 47.6682 42.7877 47.6725 43.2674C47.6748 43.4732 47.6779 43.6791 47.682 43.8849C47.7265 46.21 47.3856 48.2077 45.7238 49.9584C44.1118 51.5275 42.2137 52.0123 39.998 51.998C39.8532 51.9985 39.7084 51.999 39.5592 51.9994C39.1623 52.0006 38.7655 51.9997 38.3686 51.9984C37.9386 51.9974 37.5087 51.9984 37.0787 51.9991C36.2385 52.0002 35.3984 51.9994 34.5582 51.998C33.5785 51.9964 32.5987 51.9966 31.619 51.9969C29.8705 51.9973 28.1219 51.9959 26.3733 51.9936C24.6788 51.9915 22.9844 51.9906 21.2899 51.9913C19.4415 51.992 17.5932 51.992 15.7449 51.9906C15.5477 51.9905 15.3504 51.9904 15.1532 51.9902C15.0561 51.9902 14.9591 51.9901 14.8591 51.99C14.1771 51.9896 13.495 51.9896 12.813 51.9898C11.9815 51.9901 11.15 51.9895 10.3185 51.9878C9.89468 51.987 9.47089 51.9865 9.04709 51.987C8.58685 51.9876 8.12663 51.9863 7.66639 51.9849C7.53367 51.9854 7.40096 51.9858 7.26423 51.9863C5.17396 51.975 3.39787 51.4005 1.85465 49.9548C0.546388 48.5941 0.00540654 46.9438 0.016473 45.0835C0.015851 44.956 0.0152281 44.8286 0.0145873 44.6973C0.0129449 44.2735 0.0137576 43.8497 0.014582 43.4259C0.0139229 43.1207 0.0131299 42.8156 0.0121798 42.5104C0.0102006 41.7695 0.0100964 41.0286 0.010703 40.2877C0.011171 39.6851 0.0110018 39.0826 0.0103857 38.48C0.0102993 38.394 0.0102122 38.308 0.0101231 38.2195C0.00994624 38.0448 0.00976935 37.8701 0.0095909 37.6954C0.00800784 36.0596 0.00863265 34.4239 0.00995924 32.7882C0.0111064 31.2939 0.00960997 29.7997 0.00684687 28.3054C0.00402625 26.7684 0.00292125 25.2314 0.00368867 23.6944C0.00409123 22.8326 0.00383949 21.9708 0.00181173 21.109C0.000107017 20.3754 4.40781e-05 19.6418 0.00205142 18.9082C0.00303103 18.5345 0.00303759 18.1608 0.00151389 17.787C-1.5894e-05 17.3806 0.00132561 16.9743 0.00336087 16.5679C0.00225149 16.4515 0.00114299 16.3351 0 16.2151C0.0162343 14.6311 0.651747 13.3971 1.71434 12.2518C2.95006 11.0823 4.31057 10.7777 5.96617 10.8153C6.09868 10.8168 6.23119 10.8184 6.36771 10.82C6.69111 10.8241 7.01439 10.8297 7.33773 10.8369C7.33401 10.7223 7.33029 10.6077 7.32645 10.4895C7.39933 7.51019 9.12099 4.89569 11.1515 2.8652C13.9816 0.22577 18.5708 -0.611064 22.2372 0.441965ZM11.2647 5.63945C10.9629 6.04733 10.7027 6.46678 10.4562 6.90995C10.3765 7.05042 10.3765 7.05042 10.2952 7.19373C9.10606 9.41744 8.90236 12.2754 9.6017 14.6894C10.3203 16.9035 11.6312 18.6808 13.5747 19.9614C13.6852 20.035 13.7957 20.1085 13.9095 20.1843C16.0829 21.542 18.7001 21.916 21.1882 21.3591C23.1235 20.8691 24.7461 19.854 26.1642 18.4599C26.2449 18.3807 26.3256 18.3015 26.4087 18.2199C28.168 16.3716 28.9086 13.8782 28.8486 11.3707C28.7456 8.92251 27.7061 6.54043 25.9332 4.83095C23.9787 3.05769 21.3743 1.82964 18.6842 1.9218C15.6828 2.17324 13.2647 3.3551 11.2647 5.63945ZM2.71774 14.0709C2.02219 15.0578 1.87147 16.0005 2.02474 17.1894C2.28917 18.2471 3.05125 19.0457 3.9553 19.614C4.7592 19.9685 5.53177 19.9932 6.39569 19.984C6.51231 19.9836 6.62892 19.9833 6.74908 19.983C7.11856 19.9817 7.48801 19.9788 7.85748 19.9758C8.10923 19.9747 8.36098 19.9736 8.61274 19.9727C9.22724 19.9702 9.84173 19.9663 10.4562 19.9614C10.1709 19.53 9.87737 19.1144 9.5611 18.7054C8.28203 16.9428 7.63006 14.944 7.33773 12.8004C6.93833 12.7868 6.53899 12.7787 6.13942 12.7716C6.0279 12.7677 5.91639 12.7638 5.80149 12.7598C4.57487 12.7434 3.52488 13.1189 2.71774 14.0709ZM30.6687 12.9159C30.6333 13.0695 30.6037 13.2245 30.5766 13.3797C30.1996 15.4558 29.5806 17.3756 28.2057 19.0261C27.9681 19.3236 27.7614 19.6446 27.5502 19.9614C30.5231 19.9614 33.4961 19.9614 36.5591 19.9614C36.5663 19.0443 36.5734 18.1271 36.5808 17.1822C36.584 16.8941 36.5871 16.606 36.5904 16.3092C36.5914 16.0791 36.5923 15.849 36.593 15.6189C36.5948 15.5008 36.5965 15.3828 36.5984 15.2611C36.5986 14.5081 36.5548 13.8817 36.0353 13.2922C35.4127 12.8304 35.0481 12.7832 34.2848 12.7851C34.1854 12.785 34.086 12.7849 33.9836 12.7848C33.7734 12.7847 33.5632 12.7849 33.353 12.7854C33.0301 12.786 32.7072 12.7854 32.3842 12.7846C32.1804 12.7847 31.9765 12.7849 31.7727 12.7851C31.6269 12.7847 31.6269 12.7847 31.4781 12.7844C31.0378 12.743 31.0378 12.743 30.6687 12.9159ZM2.02474 20.6544C2.01395 23.9606 2.0058 27.2667 2.00081 30.5729C1.99843 32.1081 1.99518 33.6432 1.98989 35.1783C1.98528 36.5166 1.9823 37.8549 1.98128 39.1931C1.98067 39.9015 1.97926 40.6099 1.9759 41.3183C1.97275 41.9856 1.9718 42.6529 1.97249 43.3202C1.97236 43.5646 1.97145 43.809 1.96967 44.0533C1.95696 45.8916 2.10513 47.2292 3.40668 48.6162C4.38401 49.5634 5.57372 50.0047 6.92831 50.0065C7.11267 50.0072 7.11267 50.0072 7.30075 50.0078C7.43448 50.0077 7.56822 50.0076 7.706 50.0075C7.84908 50.0079 7.99216 50.0082 8.13957 50.0086C8.53588 50.0094 8.93219 50.0097 9.32851 50.0098C9.75627 50.01 10.184 50.0109 10.6118 50.0117C11.5468 50.0132 12.4818 50.0139 13.4168 50.0144C14.0009 50.0148 14.585 50.0153 15.1691 50.0158C16.7872 50.0172 18.4053 50.0184 20.0234 50.0188C20.1269 50.0188 20.2304 50.0188 20.3371 50.0188C20.4927 50.0189 20.4927 50.0189 20.6515 50.0189C20.8617 50.019 21.0719 50.019 21.2821 50.0191C21.3864 50.0191 21.4907 50.0191 21.5981 50.0191C23.2874 50.0196 24.9767 50.0216 26.666 50.0243C28.4015 50.0271 30.137 50.0285 31.8725 50.0286C32.8465 50.0287 33.8204 50.0294 34.7944 50.0315C35.6238 50.0333 36.4532 50.0339 37.2827 50.0329C37.7055 50.0325 38.1284 50.0326 38.5512 50.0342C39.0105 50.0359 39.4697 50.035 39.929 50.0338C40.0615 50.0347 40.1939 50.0356 40.3304 50.0366C41.8417 50.0273 43.1876 49.6379 44.3107 48.6031C45.3593 47.5024 45.7047 46.2154 45.6949 44.7266C45.6947 44.6326 45.6946 44.5385 45.6944 44.4417C45.6938 44.1428 45.6923 43.8439 45.6908 43.545C45.6903 43.3417 45.6897 43.1385 45.6893 42.9352C45.688 42.4383 45.686 41.9413 45.6836 41.4443C45.5392 41.4427 45.3948 41.441 45.246 41.4392C44.7057 41.4325 44.1654 41.4236 43.6252 41.414C43.3922 41.4102 43.1592 41.407 42.9262 41.4043C42.5895 41.4004 42.253 41.3944 41.9163 41.388C41.8137 41.3872 41.711 41.3865 41.6052 41.3857C40.1808 41.3529 38.8232 40.8338 37.7863 39.8418C36.5722 38.5285 36.2119 37.0645 36.2767 35.3062C36.3681 33.9923 37.0053 32.753 37.9645 31.8543C39.6176 30.5114 41.4098 30.4177 43.4603 30.3925C43.6765 30.3886 43.8928 30.3846 44.109 30.3805C44.6339 30.3708 45.1587 30.363 45.6836 30.3564C45.6923 29.7896 45.6985 29.2229 45.7027 28.656C45.7044 28.4638 45.7067 28.2716 45.7098 28.0794C45.7388 26.1882 45.552 24.6228 44.2254 23.1665C43.3864 22.368 42.3332 21.9144 41.1837 21.9056C40.9722 21.9036 40.9722 21.9036 40.7564 21.9016C40.6005 21.9007 40.4445 21.8998 40.2886 21.899C40.1241 21.8977 39.9595 21.8963 39.795 21.895C39.2546 21.8908 38.7143 21.8878 38.1739 21.8852C38.0817 21.8847 37.9896 21.8843 37.8946 21.8838C37.024 21.8796 36.1534 21.876 35.2828 21.8735C34.1727 21.8704 33.0626 21.8645 31.9525 21.855C31.1702 21.8485 30.388 21.8452 29.6057 21.8441C29.1394 21.8434 28.6733 21.8414 28.2071 21.8359C27.7672 21.8308 27.3276 21.8297 26.8877 21.8313C26.6523 21.8313 26.4169 21.8273 26.1816 21.823C25.1622 21.832 24.4429 22.0655 23.5584 22.5338C21.1454 23.7467 18.0082 23.7188 15.4647 22.9188C14.214 22.4987 14.214 22.4987 13.6578 22.148C13.0029 21.8203 12.304 21.8611 11.5885 21.8653C11.3308 21.8667 11.0733 21.8654 10.8156 21.8634C10.3601 21.8603 9.90465 21.8597 9.44917 21.8598C8.72291 21.8601 7.99668 21.8584 7.27043 21.8534C7.01953 21.8523 6.76871 21.8533 6.51781 21.8544C4.93228 21.8522 3.61205 21.6088 2.25574 20.7699C2.17951 20.7318 2.10328 20.6937 2.02474 20.6544ZM39.1001 33.4749C38.3968 34.3273 38.1148 35.1609 38.1405 36.2658C38.2472 37.2467 38.7259 38.0159 39.4466 38.6724C40.4207 39.4128 41.2958 39.5142 42.4957 39.5034C42.6176 39.5032 42.7395 39.5029 42.8651 39.5027C43.3185 39.5015 43.772 39.4983 44.2254 39.4953C45.2402 39.4905 46.2551 39.4858 47.3006 39.4809C47.3006 37.1177 47.3006 34.7546 47.3006 32.3199C45.8499 32.3092 45.8499 32.3092 44.3698 32.2982C43.9153 32.2935 43.9153 32.2935 43.4515 32.2887C43.2081 32.2876 42.9647 32.2868 42.7212 32.286C42.5975 32.2843 42.4737 32.2825 42.3462 32.2807C41.051 32.2802 40.0349 32.549 39.1001 33.4749Z" fill="#00A0DD"/>
<path d="M25.0094 7.14084C25.3272 7.36088 25.4388 7.52034 25.5796 7.87716C25.5929 8.43612 25.2868 8.84404 24.9191 9.24091C24.7885 9.37459 24.657 9.50735 24.5247 9.63934C24.4527 9.71248 24.3807 9.78562 24.3066 9.86098C24.0695 10.1013 23.8312 10.3403 23.5927 10.5792C23.4268 10.7462 23.2609 10.9133 23.095 11.0804C22.7477 11.4298 22.3996 11.7785 22.0511 12.1268C21.6049 12.573 21.1611 13.0215 20.7179 13.4707C20.3762 13.8162 20.033 14.1601 19.6893 14.5036C19.525 14.6683 19.3613 14.8336 19.1981 14.9994C18.9698 15.2312 18.7394 15.4606 18.5083 15.6895C18.4416 15.7582 18.3748 15.8269 18.3061 15.8977C17.8694 16.3244 17.5601 16.49 16.9244 16.4963C16.3157 16.1911 15.8591 15.694 15.3845 15.2141C15.3063 15.1358 15.2281 15.0575 15.1475 14.9769C14.9833 14.8123 14.8194 14.6475 14.6557 14.4824C14.4045 14.229 14.1523 13.9766 13.9 13.7243C13.7403 13.5641 13.5806 13.4038 13.421 13.2434C13.3455 13.1677 13.2699 13.092 13.1921 13.0141C13.1227 12.9439 13.0532 12.8737 12.9817 12.8014C12.9204 12.7397 12.8592 12.678 12.7961 12.6144C12.4965 12.283 12.4955 11.965 12.5043 11.5271C12.5354 11.2988 12.5354 11.2988 12.7086 11.0101C13.0348 10.8144 13.2952 10.7499 13.6767 10.7711C13.9739 10.851 14.1154 10.9669 14.3419 11.1743C14.4219 11.2475 14.5019 11.3206 14.5843 11.396C15.064 11.8541 15.5337 12.3217 16.0004 12.7931C16.1009 12.8941 16.2014 12.9951 16.3049 13.0992C16.5502 13.3458 16.7952 13.5927 17.0399 13.8398C17.4879 13.6574 17.7883 13.3528 18.1214 13.0137C18.2119 12.923 18.2119 12.923 18.3042 12.8304C18.5031 12.6308 18.7011 12.4304 18.8992 12.23C19.0374 12.091 19.1758 11.9521 19.3142 11.8132C19.6782 11.4477 20.0415 11.0815 20.4046 10.7152C20.9862 10.1287 21.5685 9.54297 22.1511 8.95762C22.3545 8.75303 22.5576 8.54804 22.7605 8.34302C22.8851 8.21764 23.0097 8.09228 23.1343 7.96694C23.1907 7.90981 23.247 7.85268 23.3051 7.79383C23.8399 7.25717 24.237 7.01472 25.0094 7.14084Z" fill="#00A0DD"/>
<path d="M43.1426 34.9765C43.5681 35.2752 43.699 35.4466 43.7995 35.9583C43.7201 36.3625 43.7201 36.3625 43.4242 36.709C43.0271 36.94 43.0271 36.94 42.6012 36.94C42.0569 36.7757 42.0569 36.7757 41.8721 36.478C41.7344 36.0352 41.7358 35.8376 41.9082 35.4024C42.2331 34.8851 42.5555 34.9168 43.1426 34.9765Z" fill="#00A0DD"/>
</svg>
