<svg width="58" height="58" viewBox="0 0 58 58" fill="none" xmlns="http://www.w3.org/2000/svg"><path d="M24.153 22.43c.31.258.483.526.657.886l.143.291.15.31.313.638.159.323c.234.471.478.936.724 1.4l.129.244.29.546.176-.062c1.052-.363 2.018-.459 3.063-.018.966.484 1.537 1.135 1.892 2.152.287.927.133 1.911-.296 2.763-.316.539-.699.906-1.21 1.26-.184.124-.184.124-.368.319a722.573 722.573 0 00.648 1.306c.27.54.55 1.07.85 1.593.264.483.379.797.278 1.344-.586.784-2.63.771-3.54.916l-.983.158c-.931.152-1.863.303-2.794.45-.573.091-1.145.184-1.717.278-.216.035-.433.07-.65.103-1.074.168-2.054.326-3.023.842-.22.115-.22.115-.417.115.862 1.741.862 1.741 1.758 3.465.427.804.839 1.616 1.247 2.43l.218.43.305.61.094.184c.363.73.444 1.42.22 2.211-.42 1.097-1.349 1.554-2.362 2.017a3.048 3.048 0 01-2.221-.152c-.938-.55-1.364-1.61-1.812-2.549l-.313-.64-.206-.422a45.532 45.532 0 00-.807-1.578 113.781 113.781 0 01-1.548-3.046c-.388.12-.726.263-1.08.462a2.45 2.45 0 01-.863.278c-.393-.178-.47-.336-.692-.7l-.186-.301-.14-.233-.244.129c-.3.157-.601.312-.903.467l-.39.203a49.33 49.33 0 01-.563.29l-.341.177c-.37.133-.544.148-.913.017-.355-.348-.558-.78-.773-1.223l-.105-.213-.331-.673a395.338 395.338 0 00-.54-1.096 22.47 22.47 0 00-.553-1.057l-.112-.2c-.069-.124-.14-.246-.211-.368-.23-.41-.302-.722-.237-1.189.26-.359.602-.521.995-.714l.346-.171a543.603 543.603 0 01.727-.356l.892-.436-.084-.181-.11-.24-.109-.236a1.513 1.513 0 01-.091-.922c.381-.363.827-.585 1.293-.82.078-.04.155-.08.236-.12.252-.13.506-.258.759-.386l.525-.268a258.69 258.69 0 013.22-1.614c.293-.145.584-.294.874-.443l.195-.095c1.322-.642 2.264-1.479 3.27-2.539l.638-.655.389-.405c.297-.31.597-.604.922-.883.47-.405.905-.843 1.341-1.284l.261-.262.956-.962.942-.947.25-.254.232-.232.204-.206c.332-.31.613-.294 1.057-.256zm-.747 2.122l-.388.401a11 11 0 01-.578.522c-.602.526-1.159 1.098-1.722 1.664l-.362.362-.944.946-.966.969-1.891 1.895c.148.46.33.887.549 1.318l.104.208c.11.221.222.442.334.663l.23.458a131.44 131.44 0 001.644 3.175l.108.2c.193.361.388.722.583 1.083 1.049-.063 2.079-.256 3.113-.432l.586-.1 1.532-.26 1.568-.266 3.069-.521-.152-.303c-.365-.73-.73-1.459-1.093-2.189l-.646-1.295-.337-.676a150.991 150.991 0 00-1.77-3.47 93.612 93.612 0 01-1.17-2.305 471.78 471.78 0 00-.404-.812c-.029-.06-.058-.12-.089-.18a21 21 0 00-.655-1.203c-.122-.012-.122-.012-.253.148zm4.003 3.898c.137.446.317.857.53 1.272l.097.19.201.392c.104.2.205.401.307.602a228.657 228.657 0 00.376.733c.145.292.145.292.463.363.573-.274.867-.69 1.085-1.283.103-.581.031-1.084-.264-1.596-.399-.547-.84-.845-1.512-.97-.478-.06-.846.119-1.283.297zm-12.617 3.939l-.246.126-.27.139-.28.143-.593.305-1.527.783-.302.154a264.427 264.427 0 01-3.21 1.614c.063.482.267.868.485 1.296l.117.235.38.75.258.515c1.02 2.026 1.02 2.026 2.116 4.012.342-.132.671-.28 1-.444l.298-.149.32-.16.335-.167a1140.837 1140.837 0 001.759-.88l.682-.34.315-.158c.74-.371 1.47-.76 2.198-1.155-.08-.46-.252-.84-.462-1.253l-.111-.222-.358-.708-.245-.487a110.105 110.105 0 00-2.179-4.139c-.177 0-.325.11-.48.19zm-7.538 5.75L7 38.272l-.268.143-.27.142-.662.351c.06.466.26.844.476 1.254l.112.217.356.681.241.464c.196.379.394.756.591 1.134.31-.143.617-.288.926-.432l.265-.123.255-.12.235-.11c.21-.1.21-.1.392-.3a125.725 125.725 0 00-1.875-3.652c-.188 0-.357.13-.519.216zm9.312 3.518l-.348.175-.366.185-.368.186-.903.456c.058.344.146.624.303.936l.128.257a522.303 522.303 0 011.049 2.085c.468.933.942 1.864 1.425 2.79l.117.223c.186.355.38.706.583 1.05l.113.193c.158.196.292.27.525.36.544.052.88-.05 1.357-.309l.332-.173c.337-.247.453-.404.58-.801.002-.692-.267-1.18-.597-1.776l-.323-.602-.176-.329c-.309-.581-.599-1.172-.891-1.761a106.352 106.352 0 00-1.762-3.426c-.3 0-.51.146-.778.28zm20.876-30.106h.197c.217-.002.433-.001.65 0l.468-.001h4.823c.86.002 1.718.001 2.577 0a1165.39 1165.39 0 013.533 0 302.5 302.5 0 011.698 0l.622.001h.352c.314.026.526.069.8.223.198.279.223.514.224.85l.002.277v.62c.002.347.002.695.002 1.043l.001.725v1.52c0 .649.001 1.298.004 1.948v1.497l.002.718c.002.335.001.67 0 1.004l.002.3c-.006.85-.006.85-.335 1.24-.282.14-.521.112-.836.112l-.202.001-.67.001-.48.002-1.304.002-.814.001-2.547.003c-.981 0-1.962.002-2.943.005l-2.273.003-1.359.003c-.425.001-.851.002-1.277 0l-.47.002h-1.001c-.33-.04-.466-.098-.697-.332a2.03 2.03 0 01-.112-.742l-.001-.276V22l-.001-.32-.002-1.046v-.726l-.001-1.523-.003-1.953a624.584 624.584 0 01-.003-2.22v-1.006l-.002-.302.002-.277v-.24c.028-.255.073-.402.221-.612.381-.213.722-.223 1.153-.223zm1.314 1.505l.494.494.214.218c.396.4.798.784 1.225 1.15.324.286.638.581.953.877 1.003.938 2.018 1.864 3.035 2.787a59.489 59.489 0 002.257-2.01c.43-.405.86-.81 1.301-1.203a78.406 78.406 0 001.448-1.33l.182-.17.161-.15c.227-.218.448-.44.67-.663h-11.94zm-1.184.987v7.4c.555-.37 1.094-.737 1.622-1.14a56.626 56.626 0 011.58-1.162l.472-.334.217-.154.192-.136c.187-.141.187-.141.358-.428a149.208 149.208 0 00-.617-.627 21.696 21.696 0 00-.854-.77c-.336-.295-.66-.603-.984-.91-.924-.967-.924-.967-1.986-1.739zm14.055.148l-.389.401c-.267.26-.545.503-.827.747-.336.296-.66.604-.986.912-.528.499-1.061.99-1.608 1.47-.2.177-.2.177-.377.466.813.634 1.637 1.252 2.468 1.862.561.411 1.117.828 1.67 1.249.175.155.175.155.302.146v-7.401c-.123-.011-.123-.011-.253.148zm-9.066 5.396c-.617.482-1.25.942-1.886 1.398a98.386 98.386 0 00-1.283.933l-.142.118v.098h10.953c-.31-.309-.558-.556-.9-.805l-.229-.168-.24-.174-.25-.181a65.251 65.251 0 00-.504-.367l-1.103-.808-.623-.457c-.528.378-.528.378-.999.82-.256.23-.435.259-.777.266-.368-.19-.658-.43-.962-.71-.513-.471-.503-.396-1.055.037zm5.631 12.569c.726.745.859 1.658.848 2.655-.05.833-.27 1.561-.625 2.313l-.161.343-.123.258.368.001c.453.002.906.008 1.359.014.196.002.391.004.587.004.282.001.564.005.846.01l.263-.001c.614.014 1.037.166 1.51.564.34.434.508.776.506 1.326v.228c-.012.222-.012.222-.074.432l-.037.185c.182.256.182.256.395.493.166.499.22 1.108.003 1.597l-.114.192c-.135.23-.19.333-.16.6.04.15.083.3.126.45.08.386-.016.641-.151 1.01l-.206.227c-.243.343-.218.53-.189.944.017.614-.008.916-.395 1.394-.47.468-.833.604-1.49.608l-.379.003-.41.001a1563.496 1563.496 0 01-2.221.008c-4.584.034-4.584.034-6.157-1.015l-.08.334c-.117.357-.117.357-.413.554-.201.027-.201.027-.435.03l-.265.003h-.286l-.295.003-.617.001c-.314 0-.629.004-.944.008l-.599.001-.285.004c-.088 0-.176 0-.267-.002l-.233.001c-.32-.073-.423-.171-.609-.443-.059-.305-.055-.606-.053-.916l-.002-.28a1359.385 1359.385 0 00-.003-1.557l.001-1.34c.002-.571 0-1.143-.004-1.715-.002-.44-.002-.879-.001-1.319 0-.21 0-.421-.002-.632-.002-.295 0-.59.002-.884l-.004-.264c.007-.428.027-.612.29-.966.271-.193.381-.254.707-.254l.253-.004.268.004h.28c.195 0 .39 0 .584.003.298.004.595.002.893 0 .19 0 .379.002.569.003l.268-.001c.41.007.638.026.997.24.187.212.187.212.187.508 1.322-.76 2.503-1.838 3.012-3.32.09-.45.093-.91.116-1.367.048-.562.193-.875.554-1.314.812-.662 1.657-.463 2.497.037zm-1.443 1.03c-.18.18-.12.474-.13.715-.13 1.936-1.099 3.421-2.53 4.67-.688.544-1.213.768-2.076 1.128v5.723l1.085.394c.231.13.461.262.691.395 1.439.492 3.068.33 4.569.316.364-.003.729-.004 1.094-.005l2.132-.015c.067-.236.067-.236.099-.493-.252-.252-.353-.225-.703-.232l-.304-.008-.319-.007-.623-.015-.28-.006c-.238-.028-.238-.028-.534-.226-.105-.297-.108-.459-.025-.764.124-.222.124-.222.42-.321.21-.015.422-.025.633-.031l.375-.013.392-.012.395-.012c.322-.011.645-.021.968-.03l.197-.396-.197-.296c-.263-.047-.263-.047-.57-.043l-.345-.008-.362-.004c-.235-.003-.47-.008-.706-.013l-.317-.003c-.266-.027-.266-.027-.562-.224-.088-.313-.127-.511-.018-.82.117-.167.117-.167.314-.266.206-.013.411-.02.617-.024l.373-.01.783-.017.373-.01.344-.008c.287-.002.287-.002.47-.227-.031-.257-.031-.257-.098-.493l-.239-.005c-.356-.007-.712-.017-1.069-.026l-.375-.007-.36-.01-.332-.008c-.32-.047-.46-.108-.684-.34-.074-.586-.074-.586.118-.857.24-.174.402-.168.696-.172l.305-.008.318-.004.623-.013.28-.004c.245-.005.245-.005.423-.224-.04-.274-.04-.274-.198-.493a7.36 7.36 0 00-.458-.017l-.295-.004-.322-.004-.668-.01-1.058-.012-1.018-.014-.32-.003-.298-.005-.262-.003a1.33 1.33 0 01-.63-.224c-.273-.694.005-1.42.279-2.065.121-.28.244-.558.37-.834.325-.714.405-1.355.339-2.134-.132-.34-.238-.534-.494-.79h-.296zm-8.486 5.723v7.5h2.27v-7.5h-2.27zM16.24 5.037l.341-.003h.37l.391-.003a226.436 226.436 0 011.727-.005 599.08 599.08 0 012.322-.004c.72 0 1.439-.004 2.159-.008.619-.003 1.238-.005 1.857-.005.37 0 .739 0 1.108-.004.412-.003.825-.002 1.237 0L28.12 5c.833.007 1.504.16 2.142.722.857.88.744 2.082.74 3.218v.527c.001.367 0 .734-.001 1.102-.002.469 0 .937.001 1.406v1.606c.008 2.158.008 2.158-.755 2.978-.583.502-1.215.663-1.968.624a68.131 68.131 0 00-1.858-.058c-.375-.008-.748-.02-1.122-.041-1.636-.142-1.636-.142-3.088.438-.448.555-.724 1.17-.984 1.83-.555 1.325-.555 1.325-1.023 1.63-.314.108-.473.081-.787-.032-.605-.617-.992-1.465-1.412-2.214a400.188 400.188 0 00-.612-1.086c-.124-.238-.124-.238-.245-.35-.2-.02-.4-.038-.6-.054-.997-.083-1.607-.231-2.299-.983-.432-.512-.486-1.013-.486-1.667l-.003-.25-.004-.813-.002-.568-.003-1.191c0-.507-.004-1.014-.009-1.52a164.09 164.09 0 01-.003-1.175c0-.187-.002-.373-.004-.56-.02-1.948-.02-1.948.551-2.666.575-.545 1.153-.813 1.956-.816zm-.968 2c-.157.338-.113.731-.114 1.099a1007.705 1007.705 0 00-.005.907 782.143 782.143 0 00-.003 1.5c0 .433-.003.866-.006 1.298-.002.334-.002.668-.002 1.001 0 .16-.002.319-.003.478-.002.224-.001.448 0 .671l-.002.385c.05.487.167.895.536 1.237.501.186 1.022.147 1.551.142l.26.005.234-.001c.486.134.716.708.954 1.12l.185.319.19.33a1871.327 1871.327 0 00.665 1.153c.344-.115.359-.16.52-.466l.123-.228.128-.244c.845-1.566.845-1.566 1.203-1.924.218-.01.436-.012.654-.012h.207l.447-.002c.317 0 .634-.002.95-.004.591-.004 1.181-.007 1.772-.007.41 0 .82-.002 1.23-.006h.47c.218 0 .438-.001.657-.004l.377-.001c.45-.082.61-.237.933-.556.148-.296.114-.602.114-.927l.002-.229.002-.748.002-.52.002-1.092c0-.465.003-.931.006-1.397.002-.358.002-.716.002-1.075l.003-.515v-.721l.003-.215c-.003-.431-.06-.709-.334-1.047-.314-.198-.561-.223-.929-.224l-.328-.003h-.36l-.379-.003a214.033 214.033 0 00-1.673-.005c-.748-.003-1.497-.004-2.245-.004-.698 0-1.395-.004-2.092-.008-.6-.003-1.198-.005-1.798-.005-.357 0-.715 0-1.072-.003-.4-.004-.798-.003-1.197-.001l-.358-.005c-.666.006-1.043.033-1.482.557z" fill="#12A1DC"/><path d="M23.197 9.411c.43.311.786.67.956 1.178.069.71.039 1.202-.395 1.777-.43.408-.822.598-1.412.629a2.039 2.039 0 01-1.252-.432c-.457-.5-.629-.962-.62-1.637.06-.521.293-.905.67-1.262.657-.427 1.295-.496 2.053-.253zm-1.018 1.376l-.197.197c.031.208.031.208.099.395.186.067.186.067.394.098l.198-.197c-.032-.257-.032-.257-.1-.493h-.394zm5.068-1.391c.532.312.854.702 1.05 1.292.047.705-.054 1.193-.524 1.752-.486.406-.887.576-1.518.552-.536-.081-.952-.324-1.306-.731-.373-.531-.35-1.043-.303-1.672.173-.537.532-.867.987-1.184.519-.173 1.098-.207 1.614-.009zm-1.022 1.39c-.067.237-.067.237-.099.494l.198.197c.208-.031.208-.031.394-.098.068-.187.068-.187.1-.395l-.198-.197h-.395zm-7.143-1.367c.538.334.828.65.975 1.279.092.545.049.994-.245 1.47-.45.499-.89.76-1.56.827-.613-.019-1.044-.286-1.487-.691-.312-.495-.46-.977-.37-1.563.18-.615.485-.954 1.011-1.317.565-.199 1.117-.249 1.676-.005zm-1.047 1.368l-.197.394.197.296.494-.098c.067-.187.067-.187.098-.395l-.197-.197h-.395zm18.551 14.801c.229.158.286.27.382.53.017.36-.06.468-.284.753a8.217 8.217 0 01-.931.512l-.257.13c-.228.116-.457.23-.687.345l-.203.109c-.309.142-.548.13-.882.088-.247-.204-.247-.204-.395-.494-.024-.345-.024-.345.099-.69.153-.125.153-.125.346-.238l.216-.128c.373-.21.747-.413 1.128-.609l.23-.124c.45-.23.734-.349 1.238-.184zm-5.908-4.828c.437.141.437.141.58.388.067.728-.14 1.326-.376 2.01l-.107.327c-.268.795-.268.795-.603 1.018-.377.04-.605.049-.937-.142-.255-.435-.102-.932.016-1.401a22.8 22.8 0 01.255-.807l.086-.277c.193-.584.38-1.131 1.086-1.117zm5.488 11.766l.279.088c.853.284.853.284 1.127.67.05.335.038.52-.117.82-.229.214-.361.234-.672.266-.46-.1-.9-.262-1.344-.413l-.371-.12a671.695 671.695 0 00-.679-.227c-.294-.14-.413-.238-.566-.523.006-.365.025-.596.253-.888.64-.263 1.47.119 2.09.327z" fill="#12A1DC"/></svg>