<svg width="58" height="58" viewBox="0 0 58 58" fill="none" xmlns="http://www.w3.org/2000/svg">
<path d="M24.1528 22.4304C24.4632 22.6878 24.636 22.9556 24.8104 23.3158C24.8576 23.4119 24.9047 23.508 24.9533 23.607C25.0026 23.7092 25.0518 23.8114 25.1026 23.9167C25.207 24.1297 25.3116 24.3426 25.4163 24.5554C25.4687 24.662 25.5211 24.7686 25.575 24.8784C25.8091 25.3491 26.0529 25.8143 26.299 26.2787C26.3414 26.3589 26.3839 26.439 26.4276 26.5216C26.5243 26.7039 26.6213 26.886 26.7184 27.0681C26.7763 27.0477 26.8341 27.0272 26.8938 27.0062C27.9459 26.6434 28.9116 26.5472 29.9573 26.9883C30.9228 27.4717 31.4937 28.1228 31.8495 29.1403C32.1355 30.0674 31.982 31.0514 31.5534 31.9032C31.2375 32.4416 30.854 32.8092 30.3431 33.1636C30.1587 33.2868 30.1587 33.2868 29.9746 33.482C30.1408 33.8172 30.3075 34.1523 30.4742 34.4872C30.5234 34.5865 30.5726 34.6857 30.6233 34.7879C30.8926 35.3283 31.1723 35.8573 31.4733 36.3806C31.7373 36.8642 31.852 37.1783 31.7508 37.725C31.1648 38.5088 29.1215 38.4965 28.2116 38.6409C27.8836 38.6931 27.5557 38.7462 27.2279 38.7994C26.2967 38.9507 25.3654 39.1016 24.4336 39.2494C23.8612 39.3403 23.289 39.433 22.7171 39.5269C22.5007 39.562 22.2842 39.5965 22.0675 39.6303C20.9927 39.7983 20.0132 39.9556 19.044 40.4716C18.8244 40.5866 18.8244 40.5866 18.627 40.5866C19.4889 42.3282 19.4889 42.3282 20.3847 44.0525C20.8122 44.8563 21.224 45.6677 21.6325 46.4813C21.7047 46.6251 21.7771 46.7689 21.8497 46.9127C21.9519 47.1153 22.0535 47.3182 22.155 47.5212C22.2014 47.6128 22.2014 47.6128 22.2487 47.7063C22.6118 48.4364 22.6926 49.1253 22.4692 49.9175C22.0485 51.0139 21.12 51.4711 20.1072 51.9342C19.3862 52.1714 18.5664 52.1052 17.8856 51.7821C16.9485 51.2323 16.5223 50.1727 16.0738 49.233C15.9698 49.0192 15.8652 48.8056 15.7607 48.5921C15.692 48.4517 15.6235 48.3112 15.5552 48.1707C15.2966 47.6392 15.027 47.1145 14.7479 46.5934C14.2117 45.5881 13.7057 44.5678 13.1999 43.5468C12.8119 43.6668 12.4736 43.8097 12.1206 44.0094C11.81 44.1633 11.6057 44.2397 11.2572 44.2869C10.8638 44.1087 10.7862 43.9507 10.5646 43.5869C10.5034 43.4875 10.4423 43.3881 10.3793 43.2857C10.3332 43.2091 10.2871 43.1324 10.2397 43.0535C10.1591 43.0958 10.0785 43.1382 9.99543 43.1818C9.69483 43.3389 9.39357 43.4944 9.09174 43.6491C8.96148 43.7162 8.83152 43.7839 8.70186 43.8521C8.51497 43.9504 8.32711 44.0465 8.13896 44.1424C7.96998 44.2299 7.96998 44.2299 7.7976 44.3193C7.42831 44.4524 7.25411 44.4665 6.88471 44.3362C6.5304 43.9878 6.32743 43.5554 6.11227 43.1128C6.06006 43.0074 6.06006 43.0074 6.00681 42.8999C5.89595 42.6759 5.7859 42.4515 5.67594 42.2271C5.5677 42.0071 5.45928 41.7872 5.35063 41.5674C5.27875 41.422 5.20708 41.2764 5.13562 41.1307C4.95922 40.7734 4.77772 40.421 4.58261 40.0735C4.54587 40.0075 4.50913 39.9415 4.47127 39.8735C4.4021 39.7504 4.33172 39.6279 4.25989 39.5063C4.02965 39.0957 3.95762 38.7844 4.02313 38.3171C4.28332 37.9581 4.6247 37.7958 5.01759 37.6032C5.18931 37.5183 5.18931 37.5183 5.3645 37.4317C5.48475 37.3732 5.60501 37.3147 5.72528 37.2563C5.84711 37.1964 5.96892 37.1364 6.09068 37.0763C6.38791 36.93 6.68547 36.7845 6.98338 36.6396C6.95553 36.5798 6.92769 36.5201 6.89899 36.4585C6.84479 36.34 6.84479 36.34 6.7895 36.2191C6.73552 36.102 6.73552 36.102 6.68044 35.9825C6.54936 35.6525 6.52706 35.41 6.58868 35.0608C6.9703 34.6977 7.41614 34.4758 7.88186 34.2409C7.95966 34.2012 8.03746 34.1614 8.11762 34.1204C8.37037 33.9913 8.62353 33.8631 8.87671 33.7348C9.05168 33.6457 9.22664 33.5565 9.40157 33.4672C10.1637 33.0789 10.9269 32.6929 11.6928 32.3122C11.8043 32.2567 11.9159 32.2012 12.0308 32.1441C12.2279 32.0464 12.4252 31.9492 12.6228 31.8525C12.9155 31.7081 13.2055 31.5589 13.4959 31.4098C13.5604 31.3786 13.625 31.3473 13.6914 31.3151C15.0127 30.6728 15.9554 29.836 16.9619 28.7764C17.1737 28.5575 17.386 28.3391 17.5985 28.1208C17.7289 27.9865 17.8588 27.8517 17.988 27.7162C18.2845 27.4069 18.5852 27.1122 18.9101 26.8328C19.3807 26.4279 19.8147 25.9896 20.2513 25.5487C20.3803 25.4191 20.3803 25.4191 20.512 25.2869C20.8308 24.9666 21.1492 24.646 21.4675 24.3253C21.7814 24.0092 22.0956 23.6935 22.4098 23.3778C22.4927 23.2942 22.5755 23.2105 22.6609 23.1243C22.7373 23.0475 22.8138 22.9707 22.8925 22.8916C22.9598 22.8238 23.0271 22.756 23.0965 22.6861C23.4284 22.3763 23.709 22.3921 24.1528 22.4304ZM23.4062 24.5523C23.2767 24.6859 23.1472 24.8195 23.0177 24.9532C22.8293 25.1369 22.6406 25.3055 22.4403 25.4752C21.8382 26.0007 21.2812 26.5726 20.7177 27.1387C20.5972 27.2594 20.4766 27.3801 20.3561 27.5007C20.0411 27.816 19.7265 28.1316 19.412 28.4473C19.09 28.7702 18.7677 29.093 18.4455 29.4157C17.815 30.0472 17.1848 30.6791 16.5549 31.3111C16.7035 31.7715 16.8858 32.1978 17.1037 32.629C17.138 32.6976 17.1723 32.7662 17.2077 32.8369C17.3186 33.0583 17.4301 33.2794 17.5416 33.5005C17.6182 33.653 17.6949 33.8056 17.7715 33.9581C18.3072 35.0231 18.8519 36.0829 19.4164 37.133C19.4695 37.2319 19.4695 37.2319 19.5236 37.3329C19.7173 37.6943 19.9117 38.0553 20.1072 38.4157C21.156 38.3535 22.1856 38.1604 23.2197 37.9836C23.415 37.9506 23.6103 37.9175 23.8057 37.8845C24.3166 37.7981 24.8274 37.7112 25.3381 37.6242C25.8607 37.5352 26.3833 37.4468 26.9059 37.3583C27.9289 37.1849 28.9518 37.0111 29.9746 36.8369C29.8997 36.6871 29.8997 36.6871 29.8232 36.5341C29.4583 35.8047 29.0938 35.075 28.73 34.345C28.5147 33.9132 28.2992 33.4815 28.0838 33.0498C27.9714 32.8246 27.8591 32.5993 27.7469 32.374C27.1678 31.2114 26.5854 30.0516 25.9765 28.9043C25.5729 28.1427 25.1889 27.3718 24.8065 26.5994C24.6724 26.3284 24.538 26.0576 24.4034 25.7869C24.374 25.7273 24.3446 25.6676 24.3143 25.6062C24.1104 25.1961 23.8894 24.7997 23.6594 24.4039C23.5369 24.3925 23.5369 24.3925 23.4062 24.5523ZM27.4091 28.4496C27.5464 28.8964 27.726 29.3071 27.9391 29.7219C27.971 29.7844 28.0028 29.8468 28.0357 29.9112C28.1027 30.042 28.17 30.1728 28.2375 30.3035C28.3407 30.5039 28.4424 30.705 28.5441 30.9062C28.6096 31.0337 28.6751 31.1611 28.7408 31.2884C28.8 31.404 28.8592 31.5196 28.9202 31.6387C29.0649 31.9307 29.0649 31.9307 29.3826 32.0019C29.9559 31.7277 30.2501 31.3118 30.468 30.7191C30.5713 30.1378 30.499 29.6351 30.2044 29.1226C29.8054 28.5757 29.3638 28.278 28.6919 28.1535C28.214 28.0923 27.8459 28.2719 27.4091 28.4496ZM14.7922 32.3888C14.7108 32.4304 14.6295 32.4721 14.5457 32.515C14.4566 32.5609 14.3675 32.6068 14.2757 32.654C14.1835 32.7013 14.0914 32.7485 13.9965 32.7972C13.7986 32.8987 13.6007 33.0002 13.4029 33.1018C12.894 33.3633 12.3848 33.624 11.8755 33.8848C11.7759 33.9358 11.6763 33.9868 11.5736 34.0394C10.5078 34.5847 9.43799 35.122 8.36483 35.6528C8.42683 36.135 8.63123 36.5211 8.84857 36.9487C8.88741 37.0263 8.92626 37.1038 8.96628 37.1837C9.09205 37.4343 9.2187 37.6845 9.34541 37.9347C9.43166 38.106 9.51788 38.2772 9.60407 38.4485C10.6244 40.475 10.6244 40.475 11.7198 42.4614C12.0623 42.3288 12.3913 42.1812 12.7198 42.0171C12.8184 41.968 12.9169 41.9189 13.0185 41.8683C13.1241 41.8153 13.2298 41.7624 13.3387 41.7079C13.5039 41.6253 13.5039 41.6253 13.6725 41.5411C13.9057 41.4245 14.139 41.3078 14.3722 41.191C14.7251 41.0142 15.0784 40.8379 15.4317 40.6616C15.6591 40.5478 15.8865 40.434 16.1139 40.3202C16.27 40.2423 16.27 40.2423 16.4293 40.1629C17.1696 39.7915 17.8997 39.4038 18.627 39.0078C18.5463 38.5477 18.3754 38.1688 18.1649 37.7551C18.1282 37.6819 18.0916 37.6088 18.0538 37.5334C17.9351 37.2968 17.8155 37.0607 17.6958 36.8246C17.6141 36.6626 17.5325 36.5005 17.4509 36.3384C16.7486 34.9455 16.033 33.5612 15.2721 32.1992C15.0953 32.1992 14.9467 32.3094 14.7922 32.3888ZM7.25435 38.1382C7.12795 38.205 7.12795 38.205 6.99899 38.2731C6.8661 38.3437 6.8661 38.3437 6.73053 38.4157C6.64155 38.4628 6.55258 38.5099 6.46091 38.5584C6.24027 38.6751 6.01973 38.792 5.79928 38.9091C5.85959 39.3746 6.05872 39.7533 6.27454 40.163C6.31164 40.2346 6.34873 40.3061 6.38695 40.3799C6.50501 40.6074 6.62392 40.8344 6.74286 41.0615C6.82328 41.2161 6.90365 41.3707 6.98396 41.5253C7.18047 41.9035 7.37775 42.2812 7.57543 42.6588C7.88412 42.5156 8.19235 42.3714 8.50051 42.2271C8.58828 42.1864 8.67604 42.1456 8.76647 42.1037C8.85042 42.0643 8.93437 42.0248 9.02087 41.9842C9.09838 41.9481 9.17589 41.9119 9.25575 41.8746C9.46529 41.7748 9.46529 41.7748 9.64761 41.5733C9.04043 40.3466 8.41969 39.1287 7.77278 37.9224C7.58508 37.9224 7.41613 38.0525 7.25435 38.1382ZM16.5664 41.6566C16.4513 41.7145 16.3362 41.7723 16.2176 41.832C16.0957 41.8938 15.9737 41.9556 15.8518 42.0174C15.7291 42.0792 15.6064 42.141 15.4837 42.2028C15.1827 42.3544 14.882 42.5064 14.5814 42.6588C14.6389 43.0032 14.7273 43.2834 14.8839 43.5951C14.9262 43.6798 14.9684 43.7646 15.0119 43.852C15.058 43.9429 15.104 44.0337 15.1514 44.1273C15.1993 44.2229 15.2472 44.3185 15.2966 44.417C15.3984 44.62 15.5005 44.8229 15.6029 45.0257C15.7562 45.3291 15.9086 45.633 16.0609 45.937C16.5293 46.8703 17.0026 47.8011 17.4865 48.7265C17.5248 48.8002 17.5632 48.8739 17.6026 48.9499C17.7894 49.3047 17.9827 49.6555 18.1864 50.0008C18.2422 50.0959 18.2422 50.0959 18.299 50.193C18.4568 50.3892 18.5907 50.4622 18.8244 50.5528C19.368 50.6051 19.7044 50.5029 20.1812 50.2444C20.2905 50.1872 20.3999 50.1299 20.5126 50.0709C20.8499 49.8239 20.9662 49.6674 21.0939 49.27C21.0946 48.5778 20.8258 48.0896 20.4957 47.4938C20.3877 47.2933 20.2801 47.0926 20.1727 46.8918C20.1146 46.7834 20.0565 46.675 19.9966 46.5633C19.6882 45.9819 19.3981 45.3912 19.1056 44.8016C18.5347 43.6509 17.9566 42.5054 17.3443 41.376C17.0432 41.376 16.8339 41.5216 16.5664 41.6566Z" fill="#12A1DC"/>
<path d="M37.4419 11.5511C37.5393 11.5506 37.5393 11.5506 37.6387 11.5502C37.8556 11.5494 38.0724 11.55 38.2893 11.5506C38.4451 11.5504 38.6009 11.55 38.7567 11.5496C39.1793 11.5487 39.6019 11.549 40.0245 11.5497C40.4669 11.5502 40.9093 11.5497 41.3517 11.5494C42.0946 11.549 42.8375 11.5495 43.5804 11.5504C44.4392 11.5515 45.2979 11.5512 46.1567 11.5501C46.8941 11.5492 47.6316 11.5491 48.3691 11.5496C48.8094 11.5499 49.2498 11.5499 49.6902 11.5493C50.1043 11.5487 50.5183 11.5491 50.9323 11.5502C51.0842 11.5505 51.2361 11.5504 51.388 11.55C51.5955 11.5494 51.8029 11.5501 52.0103 11.5511C52.1844 11.5512 52.1844 11.5512 52.362 11.5513C52.6765 11.5767 52.8877 11.6197 53.1628 11.7735C53.36 12.0529 53.385 12.2877 53.3859 12.6244C53.3866 12.7156 53.3873 12.8067 53.388 12.9007C53.3878 13 53.3875 13.0993 53.3873 13.2016C53.3878 13.3067 53.3883 13.4118 53.3888 13.5202C53.3902 13.868 53.3901 14.2159 53.3899 14.5638C53.3902 14.8054 53.3907 15.047 53.3911 15.2886C53.3919 15.7952 53.3918 16.3018 53.3913 16.8083C53.3908 17.4578 53.3924 18.1073 53.3947 18.7567C53.3962 19.2558 53.3963 19.7548 53.3959 20.2538C53.396 20.4932 53.3965 20.7327 53.3975 20.9722C53.3987 21.3069 53.3981 21.6416 53.3969 21.9763C53.3977 22.0754 53.3984 22.1745 53.3992 22.2766C53.3928 23.126 53.3928 23.126 53.0641 23.5158C52.7823 23.6567 52.5428 23.6276 52.2276 23.6284C52.1612 23.6287 52.0949 23.629 52.0265 23.6293C51.803 23.6301 51.5795 23.6303 51.3561 23.6304C51.1963 23.6309 51.0365 23.6314 50.8767 23.6319C50.4418 23.6332 50.007 23.6338 49.5721 23.6343C49.3006 23.6346 49.0291 23.635 48.7576 23.6354C47.9086 23.6367 47.0596 23.6377 46.2106 23.6381C45.2296 23.6385 44.2487 23.6403 43.2677 23.6431C42.5101 23.6452 41.7524 23.6462 40.9948 23.6464C40.542 23.6465 40.0892 23.6471 39.6364 23.6488C39.2105 23.6504 38.7847 23.6507 38.3588 23.6498C38.2024 23.6497 38.046 23.6502 37.8896 23.6511C37.6763 23.6524 37.463 23.6518 37.2497 23.6508C37.1302 23.6509 37.0108 23.6511 36.8877 23.6512C36.5576 23.6111 36.4223 23.5533 36.1907 23.3185C36.0975 23.0388 36.0795 22.8671 36.0789 22.5774C36.0784 22.4863 36.078 22.3951 36.0776 22.3012C36.0776 22.2014 36.0777 22.1016 36.0777 21.9987C36.0774 21.8935 36.0771 21.7882 36.0767 21.6797C36.0758 21.3308 36.0756 20.9819 36.0755 20.6331C36.0752 20.3911 36.0748 20.1491 36.0745 19.9071C36.0739 19.3995 36.0737 18.892 36.0738 18.3844C36.0738 17.7332 36.0724 17.0821 36.0707 16.4309C36.0696 15.9311 36.0694 15.4312 36.0695 14.9314C36.0694 14.6913 36.0689 14.4512 36.0682 14.2111C36.0672 13.8756 36.0675 13.5402 36.0681 13.2047C36.0675 13.1051 36.067 13.0055 36.0664 12.9029C36.0668 12.8114 36.0672 12.72 36.0677 12.6258C36.0676 12.5465 36.0676 12.4672 36.0675 12.3855C36.0963 12.1306 36.1409 11.9836 36.2894 11.7735C36.6702 11.5606 37.0114 11.5514 37.4419 11.5511ZM38.7563 13.0563C38.9191 13.2191 39.0819 13.3819 39.2497 13.5497C39.3205 13.6217 39.3914 13.6937 39.4644 13.7678C39.8599 14.1685 40.2619 14.5517 40.6889 14.9184C41.0128 15.204 41.3274 15.4992 41.6425 15.7945C42.645 16.7335 43.6596 17.659 44.6768 18.5821C45.4439 17.9268 46.201 17.2651 46.934 16.5716C47.364 16.1665 47.7945 15.7625 48.2352 15.369C48.6597 14.99 49.0772 14.6038 49.4933 14.2157C49.556 14.1574 49.6187 14.0991 49.6832 14.039C49.7433 13.9828 49.8034 13.9267 49.8653 13.8688C49.9185 13.8192 49.9716 13.7695 50.0264 13.7184C50.2531 13.5013 50.474 13.2782 50.6959 13.0563C46.7559 13.0563 42.8158 13.0563 38.7563 13.0563ZM37.5722 14.043C37.5722 16.4852 37.5722 18.9275 37.5722 21.4437C38.1272 21.0736 38.6658 20.7061 39.1942 20.3027C39.6352 19.9681 40.0783 19.6376 40.529 19.316C40.6097 19.2583 40.6905 19.2006 40.7737 19.1412C40.931 19.0293 41.0886 18.9178 41.2464 18.8068C41.3179 18.7559 41.3893 18.705 41.4629 18.6526C41.5262 18.608 41.5896 18.5633 41.6548 18.5173C41.8417 18.3758 41.8417 18.3758 42.0126 18.0887C41.8813 17.9548 41.7497 17.8212 41.6179 17.6878C41.5446 17.6134 41.4713 17.539 41.3958 17.4624C41.119 17.1953 40.8324 16.944 40.542 16.692C40.2064 16.3967 39.8827 16.0893 39.558 15.7822C38.6344 14.8146 38.6344 14.8146 37.5722 14.043ZM51.6268 14.1914C51.4973 14.325 51.3678 14.4587 51.2383 14.5923C50.9714 14.8525 50.6929 15.0951 50.4114 15.3394C50.0752 15.6352 49.7507 15.9431 49.4255 16.2509C48.8967 16.7497 48.3639 17.2416 47.8166 17.7202C47.617 17.8979 47.617 17.8979 47.4397 18.1874C48.253 18.8211 49.077 19.4389 49.9084 20.0488C50.469 20.4602 51.0255 20.8766 51.5786 21.298C51.7531 21.4533 51.7531 21.4533 51.88 21.4437C51.88 19.0015 51.88 16.5593 51.88 14.043C51.7575 14.0317 51.7575 14.0317 51.6268 14.1914ZM42.5614 19.5873C41.9435 20.0687 41.3118 20.5293 40.6751 20.9854C40.3122 21.2456 39.9501 21.507 39.5908 21.7721C39.5252 21.8203 39.4597 21.8685 39.3922 21.9182C39.3452 21.957 39.2981 21.9958 39.2497 22.0357C39.2497 22.0683 39.2497 22.1008 39.2497 22.1344C42.8641 22.1344 46.4786 22.1344 50.2026 22.1344C49.8932 21.825 49.6453 21.5778 49.3029 21.3288C49.2274 21.2735 49.1519 21.2183 49.0741 21.1614C48.955 21.0752 48.955 21.0752 48.8335 20.9873C48.7104 20.8975 48.7104 20.8975 48.5849 20.8059C48.4169 20.6833 48.2488 20.5609 48.0805 20.4386C47.7118 20.1704 47.3446 19.9004 46.9771 19.6305C46.7696 19.4783 46.5619 19.3262 46.3543 19.1741C45.8263 19.5516 45.8263 19.5516 45.3552 19.9944C45.0991 20.2248 44.9196 20.2526 44.5781 20.2596C44.2099 20.0698 43.9196 19.83 43.616 19.5503C43.1027 19.0786 43.113 19.1542 42.5614 19.5873Z" fill="#12A1DC"/>
<path d="M48.1923 32.156C48.9179 32.9007 49.0508 33.8138 49.0396 34.811C48.9898 35.6435 48.7708 36.372 48.4151 37.1237C48.3619 37.237 48.3086 37.3502 48.2537 37.4669C48.2131 37.5521 48.1725 37.6373 48.1307 37.725C48.3128 37.7256 48.3128 37.7256 48.4986 37.7262C48.9518 37.7284 49.4048 37.7337 49.858 37.74C50.0536 37.7423 50.2492 37.7438 50.4448 37.7443C50.7271 37.7452 51.0091 37.7493 51.2914 37.7539C51.3779 37.7535 51.4645 37.7531 51.5537 37.7527C52.168 37.7671 52.5907 37.9195 53.0644 38.317C53.4033 38.7515 53.572 39.093 53.5701 39.643C53.5704 39.7182 53.5706 39.7933 53.5709 39.8708C53.5578 40.0932 53.5578 40.0932 53.4961 40.3029C53.4839 40.3639 53.4717 40.425 53.4591 40.4879C53.6412 40.7443 53.6412 40.7443 53.8538 40.9813C54.0199 41.4797 54.0737 42.0885 53.8573 42.5782C53.8195 42.6414 53.7817 42.7046 53.7428 42.7697C53.6079 42.9993 53.5522 43.1028 53.5825 43.3703C53.6235 43.5204 53.6656 43.6702 53.7089 43.8197C53.7898 44.2056 53.6929 44.4612 53.5578 44.8296C53.4899 44.9046 53.4219 44.9797 53.352 45.057C53.1086 45.3997 53.1341 45.5872 53.1631 46.0014C53.1798 46.6152 53.1549 46.9171 52.7684 47.3951C52.2982 47.8629 51.9355 47.999 51.2771 48.0031C51.1524 48.004 51.0278 48.005 50.8994 48.006C50.7627 48.0064 50.626 48.0069 50.4892 48.0072C50.4199 48.0075 50.3505 48.0078 50.279 48.0081C49.9104 48.0096 49.5418 48.0105 49.1731 48.0109C48.8714 48.0113 48.5697 48.0127 48.268 48.0149C43.6838 48.0486 43.6838 48.0486 42.1115 47.0004C42.085 47.1103 42.0586 47.2202 42.0313 47.3335C41.9142 47.6912 41.9142 47.6912 41.6181 47.8885C41.4166 47.9149 41.4166 47.9149 41.1832 47.9172C41.0956 47.9184 41.008 47.9197 40.9177 47.921C40.8233 47.9212 40.729 47.9214 40.6318 47.9217C40.5346 47.9223 40.4374 47.923 40.3372 47.9237C40.1316 47.9247 39.926 47.9251 39.7203 47.9251C39.4056 47.9255 39.0911 47.9291 38.7764 47.9328C38.5767 47.9334 38.377 47.9338 38.1772 47.934C38.0831 47.9354 37.9889 47.9368 37.8919 47.9383C37.804 47.9377 37.7161 47.9371 37.6255 47.9365C37.5484 47.9367 37.4713 47.937 37.3918 47.9373C37.0716 47.8643 36.9695 47.7655 36.7831 47.4938C36.7244 47.1888 36.7281 46.8881 36.7304 46.5782C36.7296 46.4856 36.7287 46.393 36.7278 46.2975C36.7256 45.9913 36.7263 45.6851 36.7272 45.3789C36.7266 45.166 36.726 44.9532 36.7253 44.7403C36.7243 44.2941 36.7247 43.848 36.7262 43.4018C36.7279 42.8299 36.7256 42.2582 36.7221 41.6863C36.7199 41.2467 36.7201 40.8071 36.7209 40.3675C36.721 40.1567 36.7203 39.9459 36.7188 39.735C36.7171 39.4402 36.7185 39.1455 36.7208 38.8507C36.7196 38.7636 36.7185 38.6765 36.7173 38.5868C36.7239 38.1589 36.7441 37.9748 37.0063 37.6215C37.278 37.4278 37.388 37.3671 37.7141 37.3667C37.7974 37.3655 37.8807 37.3642 37.9666 37.3629C38.0997 37.3649 38.0997 37.3649 38.2354 37.3669C38.3277 37.3667 38.42 37.3664 38.5152 37.3662C38.7099 37.3663 38.9046 37.3676 39.0994 37.3701C39.397 37.3735 39.6943 37.3721 39.9919 37.3702C40.1814 37.3709 40.3709 37.3718 40.5605 37.3731C40.6935 37.3723 40.6935 37.3723 40.8293 37.3716C41.2395 37.3793 41.4668 37.3977 41.8261 37.6113C42.0128 37.8237 42.0128 37.8237 42.0128 38.1197C43.335 37.3606 44.5155 36.2822 45.0247 34.8006C45.1154 34.3509 45.1175 33.8903 45.1411 33.433C45.1887 32.8714 45.3336 32.5581 45.6946 32.119C46.5074 31.4575 47.3516 31.6556 48.1923 32.156ZM46.7492 33.1859C46.5699 33.3653 46.629 33.6596 46.6197 33.9013C46.4882 35.837 45.5203 37.3225 44.0896 38.5714C43.4015 39.1155 42.8757 39.339 42.0128 39.6985C42.0128 41.5871 42.0128 43.4758 42.0128 45.4216C42.371 45.5519 42.7292 45.6821 43.0983 45.8163C43.3291 45.9469 43.5594 46.0783 43.789 46.211C45.228 46.7033 46.8572 46.5414 48.3579 46.5274C48.7225 46.5243 49.087 46.523 49.4516 46.5215C50.1625 46.5184 50.8734 46.5133 51.5843 46.5071C51.6514 46.2705 51.6514 46.2705 51.683 46.0137C51.4311 45.7618 51.33 45.7894 50.9803 45.7824C50.8297 45.778 50.8297 45.778 50.676 45.7736C50.5707 45.7714 50.4655 45.7692 50.357 45.767C50.1495 45.7627 49.942 45.7576 49.7345 45.7516C49.6423 45.7497 49.55 45.7479 49.4549 45.746C49.2161 45.7177 49.2161 45.7177 48.9201 45.5203C48.8155 45.2227 48.8121 45.0612 48.8954 44.7556C49.0187 44.5336 49.0187 44.5336 49.3148 44.4349C49.5256 44.42 49.7368 44.4104 49.9481 44.4037C50.0718 44.3995 50.1955 44.3954 50.3229 44.3911C50.4522 44.3873 50.5815 44.3834 50.7147 44.3794C50.8465 44.3751 50.9782 44.3708 51.11 44.3665C51.4325 44.356 51.7551 44.3459 52.0777 44.3362C52.1754 44.1408 52.1754 44.1408 52.275 43.9415C52.2099 43.8438 52.1448 43.7461 52.0777 43.6455C51.815 43.5984 51.815 43.5984 51.5076 43.6019C51.3938 43.5993 51.28 43.5967 51.1628 43.594C51.0434 43.5927 50.9241 43.5914 50.8011 43.59C50.5658 43.5866 50.3305 43.5824 50.0953 43.5773C49.9906 43.576 49.886 43.5748 49.7781 43.5736C49.5121 43.5468 49.5121 43.5468 49.2161 43.3495C49.1277 43.0368 49.0889 42.8386 49.1976 42.5292C49.3148 42.3627 49.3148 42.3627 49.5121 42.264C49.7175 42.2512 49.9232 42.244 50.1288 42.2398C50.252 42.2365 50.3751 42.2333 50.502 42.2299C50.763 42.2239 51.0241 42.2182 51.2852 42.213C51.4699 42.2079 51.4699 42.2079 51.6583 42.2028C51.7718 42.2003 51.8852 42.1978 52.0021 42.1953C52.2889 42.1927 52.2889 42.1927 52.4724 41.968C52.4408 41.7112 52.4408 41.7112 52.3737 41.4746C52.2951 41.4732 52.2164 41.4718 52.1354 41.4703C51.779 41.4629 51.4226 41.4534 51.0663 41.4438C50.9425 41.4416 50.8187 41.4394 50.6912 41.4371C50.5723 41.4336 50.4534 41.4301 50.3308 41.4265C50.2213 41.4239 50.1117 41.4213 49.9988 41.4186C49.6797 41.3716 49.5382 41.3106 49.3148 41.0799C49.2414 40.4927 49.2414 40.4927 49.4331 40.2223C49.6725 40.0484 49.8349 40.0539 50.1292 40.0496C50.2298 40.047 50.3303 40.0444 50.4339 40.0417C50.5388 40.0404 50.6437 40.0391 50.7517 40.0377C50.9595 40.0343 51.1673 40.0301 51.375 40.025C51.5132 40.0231 51.5132 40.0231 51.6543 40.0213C51.8997 40.0159 51.8997 40.0159 52.0777 39.7972C52.0377 39.5226 52.0377 39.5226 51.8803 39.3038C51.728 39.2927 51.5752 39.2883 51.4225 39.2867C51.325 39.2853 51.2275 39.284 51.127 39.2826C51.0209 39.2816 50.9147 39.2806 50.8053 39.2795C50.5826 39.2763 50.3599 39.273 50.1371 39.2697C49.7844 39.265 49.4316 39.2606 49.0789 39.2567C48.7395 39.2528 48.4002 39.2477 48.0609 39.2425C47.9553 39.2417 47.8498 39.2408 47.741 39.24C47.6426 39.2383 47.5441 39.2367 47.4427 39.235C47.3562 39.234 47.2698 39.233 47.1807 39.2319C46.9278 39.203 46.7663 39.1434 46.5519 39.0078C46.2783 38.314 46.5555 37.5888 46.8299 36.9431C46.9512 36.6639 47.0735 36.3854 47.2006 36.1088C47.5251 35.3953 47.6049 34.7545 47.5386 33.9753C47.4072 33.6348 47.3008 33.4415 47.0452 33.1859C46.9476 33.1859 46.8499 33.1859 46.7492 33.1859ZM38.2632 38.9091C38.2632 41.3839 38.2632 43.8586 38.2632 46.4084C39.0121 46.4084 39.7611 46.4084 40.5327 46.4084C40.5327 43.9336 40.5327 41.4589 40.5327 38.9091C39.7838 38.9091 39.0348 38.9091 38.2632 38.9091Z" fill="#12A1DC"/>
<path d="M16.2408 5.03653C16.3531 5.03554 16.4654 5.03456 16.5811 5.03354C16.7029 5.03348 16.8247 5.03341 16.9502 5.03334C17.0796 5.03252 17.209 5.0317 17.3423 5.03086C17.6963 5.0287 18.0502 5.02782 18.4042 5.02732C18.6257 5.02696 18.8472 5.02634 19.0688 5.02564C19.8428 5.02323 20.6168 5.02194 21.3908 5.02159C22.1104 5.02123 22.83 5.01828 23.5495 5.01415C24.1688 5.01072 24.7881 5.0092 25.4075 5.00913C25.7767 5.00905 26.1459 5.0082 26.5151 5.00538C26.9274 5.0023 27.3397 5.0032 27.7521 5.00444C27.8731 5.00297 27.9941 5.00151 28.1188 5C28.952 5.00708 29.6228 5.16061 30.2613 5.72231C31.1176 6.60178 31.0053 7.80367 31.0007 8.93965C31.0009 9.11545 31.0012 9.29126 31.0016 9.46706C31.002 9.83431 31.0014 10.2015 31 10.5688C30.9983 11.0376 30.9993 11.5064 31.0011 11.9752C31.0021 12.3378 31.0018 12.7005 31.001 13.0631C31.0008 13.2359 31.0011 13.4087 31.0018 13.5815C31.0085 15.7389 31.0085 15.7389 30.2456 16.5588C29.6626 17.061 29.0311 17.2221 28.2776 17.1833C27.6582 17.1549 27.0395 17.1361 26.4196 17.1246C26.0452 17.1171 25.672 17.1054 25.2982 17.0839C23.6619 16.9417 23.6619 16.9417 22.2099 17.5221C21.7619 18.0774 21.4859 18.6917 21.2262 19.3516C20.6711 20.6769 20.6711 20.6769 20.2025 20.9824C19.8889 21.0899 19.7297 21.063 19.4164 20.9502C18.8113 20.3328 18.4239 19.4855 18.0042 18.7362C17.8967 18.5454 17.7891 18.3546 17.6813 18.164C17.5847 17.9929 17.4885 17.8216 17.3923 17.6502C17.2683 17.4122 17.2683 17.4122 17.1469 17.2993C16.947 17.2801 16.7469 17.2615 16.5467 17.2456C15.5496 17.1627 14.9395 17.0149 14.2483 16.2632C13.816 15.7511 13.7623 15.2496 13.7617 14.596C13.7609 14.5138 13.7601 14.4316 13.7593 14.3469C13.7569 14.0756 13.756 13.8043 13.7554 13.533C13.7545 13.3436 13.7536 13.1542 13.7527 12.9648C13.751 12.5678 13.7503 12.1707 13.75 11.7736C13.7495 11.2668 13.7457 10.76 13.7412 10.2531C13.7383 9.86177 13.7376 9.47042 13.7375 9.07905C13.7371 8.89231 13.7358 8.70556 13.7338 8.51883C13.7139 6.5707 13.7139 6.5707 14.2853 5.85298C14.86 5.30812 15.4385 5.04032 16.2408 5.03653ZM15.2721 7.03708C15.1154 7.37526 15.1595 7.76815 15.1575 8.13592C15.157 8.20609 15.1565 8.27626 15.156 8.34855C15.1546 8.58015 15.1539 8.81174 15.1534 9.04334C15.1528 9.20483 15.1522 9.36632 15.1517 9.52782C15.1506 9.86632 15.1501 10.2048 15.1497 10.5433C15.1492 10.976 15.1468 11.4086 15.144 11.8413C15.1422 12.1749 15.1416 12.5085 15.1415 12.8421C15.1412 13.0016 15.1404 13.161 15.1391 13.3205C15.1374 13.5441 15.1376 13.7676 15.1383 13.9913C15.1379 14.1183 15.1375 14.2453 15.1372 14.3761C15.1865 14.8625 15.3041 15.2707 15.6726 15.6133C16.1741 15.7985 16.6948 15.7597 17.2242 15.7552C17.3097 15.7567 17.3953 15.7582 17.4834 15.7598C17.5609 15.7595 17.6384 15.7591 17.7182 15.7588C18.2045 15.8934 18.4341 16.4672 18.6718 16.8787C18.7633 17.0366 18.7633 17.0366 18.8568 17.1977C18.9194 17.3065 18.9819 17.4153 19.0464 17.5275C19.1105 17.6382 19.1746 17.7489 19.2407 17.863C19.3983 18.1354 19.5556 18.4079 19.7125 18.6807C20.0561 18.5662 20.071 18.5209 20.2324 18.2151C20.273 18.1397 20.3136 18.0644 20.3554 17.9867C20.4188 17.8662 20.4188 17.8662 20.4834 17.7433C21.3281 16.177 21.3281 16.177 21.686 15.8191C21.9038 15.8095 22.1219 15.8068 22.34 15.8067C22.4425 15.8064 22.4425 15.8064 22.5471 15.8062C22.6961 15.8058 22.8451 15.8056 22.994 15.8055C23.3109 15.8052 23.6278 15.8031 23.9447 15.8011C24.5351 15.7973 25.1255 15.7942 25.7159 15.7944C26.1262 15.7945 26.5363 15.7922 26.9466 15.7883C27.1028 15.7873 27.259 15.7871 27.4152 15.7879C27.6345 15.7888 27.8535 15.7867 28.0727 15.784C28.1973 15.7836 28.3219 15.7833 28.4503 15.7829C28.8995 15.7005 29.0608 15.546 29.3826 15.2271C29.5309 14.9305 29.4967 14.6249 29.4972 14.2996C29.4977 14.2243 29.4982 14.149 29.4987 14.0715C29.5001 13.8219 29.5008 13.5722 29.5013 13.3226C29.5019 13.1493 29.5025 12.976 29.503 12.8027C29.5041 12.4389 29.5047 12.0752 29.505 11.7114C29.5055 11.2456 29.5079 10.7797 29.5107 10.3139C29.5126 9.95571 29.5131 9.59756 29.5132 9.23939C29.5135 9.06767 29.5143 8.89594 29.5156 8.72422C29.5173 8.48376 29.5171 8.24336 29.5165 8.00289C29.5178 7.89668 29.5178 7.89668 29.5192 7.78832C29.5156 7.3569 29.4584 7.07911 29.1853 6.74105C28.8714 6.54299 28.624 6.51844 28.2563 6.51665C28.1479 6.51567 28.0394 6.51468 27.9277 6.51367C27.7499 6.51357 27.7499 6.51357 27.5685 6.51347C27.4434 6.51265 27.3182 6.51183 27.1892 6.51098C26.8461 6.50882 26.503 6.50795 26.1598 6.50744C25.9453 6.50708 25.7308 6.50647 25.5164 6.50577C24.7678 6.50335 24.0192 6.50206 23.2706 6.50171C22.5733 6.50135 21.876 6.4984 21.1787 6.49427C20.5796 6.49085 19.9805 6.48932 19.3814 6.48925C19.0238 6.48918 18.6662 6.48832 18.3086 6.48551C17.9096 6.48244 17.5107 6.48332 17.1117 6.48456C16.9345 6.48236 16.9345 6.48236 16.7538 6.48012C16.0885 6.486 15.7107 6.5135 15.2721 7.03708Z" fill="#12A1DC"/>
<path d="M23.1968 9.41147C23.6278 9.72218 23.983 10.0803 24.1527 10.5894C24.2215 11.2981 24.1917 11.7912 23.758 12.3655C23.3275 12.774 22.9363 12.9642 22.3457 12.9946C21.8595 12.9808 21.4839 12.8553 21.0938 12.5629C20.6366 12.0638 20.4652 11.6006 20.474 10.9263C20.5347 10.4047 20.7672 10.0214 21.1431 9.66432C21.8012 9.23654 22.439 9.16842 23.1968 9.41147ZM22.1792 10.7867C22.1141 10.8519 22.0489 10.917 21.9818 10.9841C22.0133 11.1921 22.0133 11.1921 22.0805 11.3788C22.2672 11.446 22.2672 11.446 22.4752 11.4775C22.5403 11.4123 22.6055 11.3472 22.6726 11.2801C22.6409 11.0233 22.6409 11.0233 22.5739 10.7867C22.4436 10.7867 22.3134 10.7867 22.1792 10.7867Z" fill="#12A1DC"/>
<path d="M27.2474 9.396C27.7789 9.70774 28.1005 10.0976 28.2973 10.688C28.3443 11.3928 28.2429 11.8809 27.7731 12.4395C27.2872 12.8463 26.8856 13.0163 26.2552 12.9919C25.7186 12.9109 25.303 12.668 24.9486 12.2607C24.5759 11.7299 24.5985 11.2175 24.6464 10.5893C24.8188 10.0517 25.1785 9.72245 25.6331 9.40525C26.1519 9.23232 26.7307 9.19753 27.2474 9.396ZM26.2252 10.7867C26.1581 11.0232 26.1581 11.0232 26.1265 11.2801C26.1916 11.3452 26.2567 11.4103 26.3238 11.4774C26.5319 11.446 26.5319 11.446 26.7185 11.3787C26.7858 11.1921 26.7858 11.1921 26.8172 10.984C26.7521 10.9189 26.687 10.8538 26.6199 10.7867C26.4896 10.7867 26.3594 10.7867 26.2252 10.7867Z" fill="#12A1DC"/>
<path d="M19.0818 9.41879C19.6198 9.75318 19.9099 10.0692 20.0574 10.6977C20.1491 11.2434 20.106 11.6923 19.8115 12.1682C19.3625 12.6669 18.9223 12.9286 18.2512 12.9946C17.6393 12.9761 17.2081 12.7085 16.7649 12.3039C16.4532 11.8089 16.3051 11.3274 16.3952 10.7405C16.5745 10.1259 16.8803 9.78697 17.4063 9.4238C17.971 9.22509 18.5229 9.17495 19.0818 9.41879ZM18.0353 10.7867C17.9702 10.917 17.9051 11.0472 17.838 11.1814C17.9356 11.328 17.9356 11.328 18.0353 11.4775C18.1981 11.4449 18.3609 11.4123 18.5287 11.3788C18.5959 11.1921 18.5959 11.1921 18.6274 10.9841C18.5622 10.919 18.4971 10.8538 18.43 10.7867C18.2998 10.7867 18.1695 10.7867 18.0353 10.7867Z" fill="#12A1DC"/>
<path d="M36.5856 25.5879C36.8145 25.7458 36.8717 25.8571 36.9679 26.1183C36.9851 26.4779 36.9089 26.5859 36.6842 26.8707C36.3872 27.0684 36.0726 27.2248 35.753 27.3826C35.6258 27.4474 35.6258 27.4474 35.4961 27.5134C35.2678 27.6294 35.0388 27.7438 34.8094 27.8575C34.7089 27.9117 34.7089 27.9117 34.6063 27.967C34.2973 28.1086 34.0576 28.0965 33.724 28.0548C33.4773 27.8513 33.4773 27.8513 33.3293 27.5614C33.3046 27.2161 33.3046 27.2161 33.428 26.8707C33.581 26.746 33.581 26.746 33.7741 26.6325C33.8452 26.5906 33.9163 26.5486 33.9896 26.5054C34.3626 26.2957 34.737 26.0915 35.1178 25.8963C35.2321 25.8349 35.2321 25.8349 35.3487 25.7722C35.7975 25.5428 36.0817 25.4233 36.5856 25.5879Z" fill="#12A1DC"/>
<path d="M30.6781 20.7591C31.115 20.9015 31.115 20.9015 31.2578 21.1476C31.325 21.8756 31.1171 22.4745 30.8816 23.1581C30.8465 23.2658 30.8113 23.3736 30.7751 23.4846C30.5066 24.2798 30.5066 24.2798 30.1724 24.5025C29.7949 24.5437 29.5674 24.5518 29.235 24.3607C28.9805 23.9258 29.1329 23.4292 29.2512 22.9596C29.3306 22.6885 29.417 22.4208 29.5064 22.1528C29.5347 22.0613 29.5631 21.9698 29.5923 21.8755C29.7849 21.2923 29.9717 20.7449 30.6781 20.7591Z" fill="#12A1DC"/>
<path d="M36.1663 32.5261C36.2582 32.5553 36.3502 32.5845 36.445 32.6145C37.2984 32.898 37.2984 32.898 37.5724 33.2846C37.6211 33.6187 37.6097 33.8041 37.4552 34.1049C37.226 34.3183 37.0938 34.338 36.783 34.3701C36.3236 34.2706 35.8832 34.1083 35.4386 33.9569C35.255 33.8976 35.255 33.8976 35.0678 33.8372C34.9507 33.7979 34.8337 33.7587 34.7131 33.7183C34.6062 33.6825 34.4993 33.6467 34.3891 33.6099C34.0952 33.4708 33.9763 33.3716 33.8228 33.0873C33.8292 32.7217 33.8479 32.4907 34.0756 32.1992C34.7165 31.9363 35.5458 32.3179 36.1663 32.5261Z" fill="#12A1DC"/>
</svg>
