<svg width="27" height="27" viewBox="0 0 27 27" fill="none" xmlns="http://www.w3.org/2000/svg"><path d="M22.488 17.146l-4.98-2.228a1.267 1.267 0 00-1.24.135l-2.616 2.23a.415.415 0 01-.39.021c-1.713-.826-3.486-2.586-4.313-4.278a.411.411 0 01.02-.39l2.235-2.658a1.266 1.266 0 00.135-1.238L9.107 3.767a1.266 1.266 0 00-1.317-.759A5.51 5.51 0 003 8.484C3 16.626 9.623 23.25 17.766 23.25a5.511 5.511 0 005.475-4.79 1.266 1.266 0 00-.753-1.314zm-.082 1.208a4.665 4.665 0 01-4.64 4.052c-7.676 0-13.922-6.246-13.922-13.922a4.665 4.665 0 014.052-4.64.423.423 0 01.05 0 .422.422 0 01.388.262l2.226 4.972a.422.422 0 01-.024.38L8.3 12.115c-.01.014-.021.027-.03.042a1.265 1.265 0 00-.083 1.239c.917 1.876 2.806 3.752 4.704 4.669a1.265 1.265 0 001.243-.092l.04-.03 2.618-2.227a.415.415 0 01.377-.028l4.979 2.231a.422.422 0 01.257.435z" fill="#fff"/></svg>