<svg width="30" height="30" viewBox="0 0 30 30" fill="none" xmlns="http://www.w3.org/2000/svg">
<path d="M24.9321 19.1942L19.583 16.8005C19.3756 16.7108 19.1491 16.6741 18.9241 16.6939C18.699 16.7137 18.4824 16.7893 18.2938 16.9138C18.2788 16.9234 18.2644 16.934 18.2508 16.9455L15.4414 19.3403C15.3789 19.3784 15.3079 19.4005 15.2348 19.4047C15.1617 19.4088 15.0887 19.3949 15.0223 19.3641C13.1826 18.476 11.2783 16.5864 10.3902 14.7683C10.3588 14.7023 10.3442 14.6296 10.3478 14.5567C10.3513 14.4837 10.3729 14.4128 10.4106 14.3503L12.8122 11.4944C12.8235 11.4808 12.8337 11.4661 12.8439 11.4514C12.968 11.2631 13.0434 11.0469 13.0632 10.8223C13.0829 10.5976 13.0465 10.3716 12.9572 10.1645L10.559 4.82443C10.4432 4.55397 10.2428 4.32836 9.98791 4.1815C9.73298 4.03463 9.4373 3.97443 9.14525 4.00994C7.71968 4.19789 6.41128 4.89836 5.46443 5.98051C4.51758 7.06265 3.99703 8.45247 4.00001 9.89037C4.00001 18.6357 11.1141 25.7497 19.8594 25.7497C21.2973 25.7527 22.6871 25.2322 23.7692 24.2853C24.8514 23.3385 25.5519 22.0301 25.7398 20.6045C25.7751 20.3138 25.7155 20.0195 25.57 19.7653C25.4244 19.5112 25.2007 19.3109 24.9321 19.1942ZM24.8438 20.4912C24.6838 21.6985 24.0896 22.8062 23.1722 23.6072C22.2549 24.4082 21.0772 24.8477 19.8594 24.8435C11.6148 24.8435 4.90626 18.135 4.90626 9.89037C4.90204 8.67253 5.34152 7.49485 6.14253 6.57751C6.94354 5.66016 8.05124 5.06596 9.25853 4.90599C9.27664 4.9049 9.29479 4.9049 9.3129 4.90599C9.4023 4.90675 9.48947 4.93394 9.56345 4.98413C9.63742 5.03433 9.6949 5.10528 9.72865 5.18806L12.12 10.5281C12.1479 10.5934 12.1601 10.6643 12.1556 10.7352C12.151 10.806 12.1299 10.8748 12.094 10.936L9.69353 13.7906C9.6822 13.8054 9.67087 13.819 9.66068 13.8348C9.53279 14.0304 9.45748 14.2556 9.442 14.4888C9.42652 14.7219 9.4714 14.9551 9.57232 15.1659C10.5567 17.1811 12.5867 19.1964 14.6247 20.1808C14.8369 20.2811 15.0714 20.3247 15.3054 20.3074C15.5395 20.2902 15.7651 20.2126 15.9602 20.0823L16.0022 20.0506L18.8149 17.6581C18.8751 17.6213 18.9431 17.5994 19.0135 17.594C19.0838 17.5887 19.1543 17.6002 19.2193 17.6275L24.5674 20.0245C24.6576 20.0621 24.7333 20.1278 24.7831 20.2119C24.8329 20.2961 24.8542 20.394 24.8438 20.4912Z" fill="black"/>
</svg>
