<svg width="51" height="51" viewBox="0 0 51 51" fill="none" xmlns="http://www.w3.org/2000/svg">
<g clip-path="url(#clip0_2333_8669)">
<path d="M10.7576 7.47075C10.9396 7.60016 10.9396 7.60016 11.1275 7.77206C11.1971 7.83554 11.2668 7.89901 11.3385 7.96441C11.6937 8.29926 12.0445 8.63787 12.3914 8.98123C12.5055 9.09406 12.5055 9.09406 12.6218 9.20916C12.7809 9.36689 12.9398 9.52476 13.0986 9.68278C13.2612 9.84415 13.4241 10.0051 13.5875 10.1656C13.8248 10.3986 14.0608 10.6329 14.2965 10.8676C14.3697 10.9391 14.4429 11.0106 14.5184 11.0843C14.5856 11.1518 14.6529 11.2193 14.7221 11.2888C14.8111 11.3769 14.8111 11.3769 14.9018 11.4668C15.0731 11.698 15.1144 11.8671 15.1404 12.1524C14.9654 12.6554 14.7068 13.0903 14.4245 13.5407C13.6289 14.8447 13.008 16.1726 12.5506 17.6309C12.5189 17.7307 12.4871 17.8304 12.4545 17.9332C12.189 18.8722 12.1339 19.8498 12.0525 20.8184C12.1991 20.833 12.1991 20.833 12.3486 20.848C15.5636 21.1932 18.2594 22.616 20.3308 25.0954C22.3383 27.5969 22.9474 30.6632 22.6906 33.8156C22.6369 34.2434 22.5344 34.6499 22.4119 35.0625C22.3916 35.133 22.3713 35.2035 22.3503 35.2762C21.5921 37.8676 19.9863 40.3237 17.6306 41.7364C17.5268 41.8013 17.4229 41.8663 17.3159 41.9333C14.7899 43.4759 11.7557 43.9468 8.86283 43.3139C7.09746 42.8872 5.56288 42.1281 4.18338 40.9395C4.1152 40.8845 4.04702 40.8296 3.97677 40.773C1.55235 38.7725 0.312521 35.5216 -0.000210751 32.4727C-0.0491718 31.7056 -0.0437303 30.9375 -0.0375643 30.1692C-0.0371008 30.0662 -0.0366374 29.9631 -0.0361599 29.8569C-0.0280579 28.319 0.0192686 26.8168 0.298617 25.3008C0.318937 25.1868 0.339257 25.0728 0.360192 24.9553C0.654485 23.3362 1.04435 21.7718 1.59354 20.2207C1.61869 20.1486 1.64384 20.0765 1.66975 20.0021C2.55566 17.4782 3.76169 15.0523 5.27909 12.8497C5.32091 12.7882 5.36274 12.7268 5.40583 12.6635C6.00836 11.7818 6.66724 10.9629 7.37088 10.1602C7.44215 10.0778 7.51341 9.99533 7.58683 9.9104C8.05599 9.37698 8.5509 8.87064 9.05179 8.36723C9.14968 8.26865 9.14968 8.26865 9.24955 8.16806C9.34234 8.07559 9.34234 8.07559 9.437 7.98125C9.49232 7.92604 9.54765 7.87082 9.60465 7.81394C9.99277 7.45771 10.2399 7.39437 10.7576 7.47075ZM9.96073 9.8427C9.54367 10.2644 9.1659 10.7069 8.79576 11.1699C8.56487 11.4568 8.32633 11.7358 8.08682 12.0154C5.14103 15.5513 3.14414 19.9199 2.1912 24.4043C2.16811 24.5128 2.16811 24.5128 2.14455 24.6234C1.28024 28.7621 1.02507 33.7491 3.38651 37.4532C4.78381 39.5334 6.739 40.9833 9.16385 41.6368C9.24308 41.6591 9.3223 41.6814 9.40392 41.7045C11.7256 42.2417 14.2638 41.6985 16.3069 40.5477C18.6902 39.0504 20.2788 36.8254 20.9178 34.0665C21.4047 31.4287 20.7945 28.8094 19.324 26.5957C19.043 26.2443 18.7443 25.9189 18.4275 25.5997C18.3453 25.5134 18.2632 25.4271 18.1785 25.3382C18.0963 25.2601 18.0141 25.182 17.9295 25.1016C17.8666 25.0415 17.8036 24.9814 17.7388 24.9195C16.2906 23.5787 14.4308 22.7444 12.4622 22.5639C12.3771 22.556 12.292 22.5482 12.2042 22.5401C12.0358 22.5256 11.8672 22.5131 11.6985 22.5027C11.3274 22.4734 11.1146 22.4549 10.8094 22.2304C10.137 21.2678 10.4284 19.6855 10.5899 18.604C10.9916 16.389 11.8664 14.205 13.1482 12.3516C12.9866 11.9443 12.6943 11.6714 12.3883 11.3695C12.3336 11.3148 12.2788 11.2601 12.2224 11.2037C12.107 11.0886 11.9914 10.9738 11.8755 10.8592C11.6974 10.6829 11.5202 10.5059 11.343 10.3287C11.2308 10.217 11.1185 10.1053 11.0062 9.99367C10.9529 9.94045 10.8996 9.88723 10.8446 9.83239C10.3984 9.39195 10.4009 9.40637 9.96073 9.8427Z" fill="#00A0DD"/>
<path d="M39.0469 7.47066C39.3474 7.66836 39.5916 7.91281 39.8438 8.16792C39.9131 8.23598 39.9825 8.30403 40.0539 8.37415C40.2513 8.56932 40.4461 8.76677 40.6407 8.9648C40.9771 9.30348 41.3184 9.63628 41.6632 9.96634C41.8114 10.1101 41.9593 10.2542 42.1071 10.3984C42.2088 10.497 42.311 10.5952 42.4137 10.6927C42.5634 10.8352 42.7111 10.9795 42.8585 11.1243C42.9907 11.2518 42.9907 11.2518 43.1256 11.3818C43.3778 11.7178 43.4234 11.9336 43.4297 12.3515C43.3364 12.6018 43.3364 12.6018 43.1877 12.8324C43.1335 12.9193 43.0794 13.0062 43.0235 13.0957C42.9349 13.2327 42.9349 13.2327 42.8445 13.3725C42.7237 13.5685 42.6035 13.7649 42.4838 13.9616C42.3945 14.1084 42.3945 14.1084 42.3033 14.2582C41.082 16.3216 40.5682 18.4488 40.3419 20.8183C40.4884 20.833 40.4884 20.833 40.638 20.8479C43.7417 21.1811 46.5213 22.5486 48.5374 24.9762C50.5864 27.6171 51.3197 30.6417 50.9693 33.9594C50.551 36.8476 48.8977 39.4168 46.6608 41.248C46.4194 41.4223 46.1741 41.5812 45.92 41.7363C45.8158 41.8015 45.7117 41.8667 45.6044 41.9339C42.9945 43.5258 39.8654 43.9638 36.8944 43.2503C36.2953 43.0927 35.7262 42.8889 35.1622 42.6328C35.0647 42.59 34.9672 42.5472 34.8668 42.5032C33.2708 41.7586 31.9465 40.6353 30.879 39.246C30.8195 39.1694 30.7601 39.0927 30.6988 39.0138C29.7569 37.7368 29.0866 36.2957 28.6876 34.7636C28.6666 34.6845 28.6457 34.6053 28.6241 34.5237C27.9145 31.6673 28.0767 28.2798 28.5879 25.4003C28.6045 25.3016 28.6211 25.2028 28.6381 25.101C29.5005 20.0368 31.6091 15.3014 34.7637 11.2558C34.8677 11.1198 34.8677 11.1198 34.9738 10.9811C35.731 10.0081 36.5911 9.12229 37.4594 8.24886C37.514 8.19379 37.5686 8.13873 37.6248 8.082C38.0942 7.61458 38.3645 7.36997 39.0469 7.47066ZM38.6485 9.46284C38.4704 9.64488 38.2972 9.82899 38.1255 10.0169C38.0722 10.0752 38.019 10.1335 37.964 10.1935C37.7932 10.3811 37.6231 10.5694 37.4532 10.7578C37.3996 10.8169 37.346 10.876 37.2908 10.9368C33.6544 14.9649 31.243 20.071 30.2813 25.4003C30.2649 25.4907 30.2484 25.5811 30.2315 25.6742C29.9802 27.1341 29.9519 28.5921 29.9451 30.0695C29.9443 30.1597 29.9435 30.2499 29.9427 30.3427C29.9232 33.2426 30.4893 36.0599 32.3731 38.3496C32.4942 38.4969 32.4942 38.4969 32.6178 38.6472C34.1425 40.4339 36.3165 41.5718 38.6485 41.8359C41.311 41.9817 43.9236 41.3499 45.9713 39.5717C46.053 39.4971 46.1347 39.4225 46.2188 39.3457C46.3351 39.2415 46.3351 39.2415 46.4538 39.1352C48.0383 37.6408 49.1857 35.3819 49.3243 33.19C49.3837 30.4036 48.8697 28.0717 47.0157 25.8984C46.9593 25.8287 46.9029 25.7589 46.8449 25.6871C45.4451 23.9975 43.1765 22.8183 41.0034 22.5862C40.496 22.5394 40.496 22.5394 39.9879 22.5027C39.6267 22.474 39.403 22.4508 39.0987 22.2448C38.3912 21.1645 38.7496 19.2868 38.9928 18.1076C39.3922 16.3199 40.0646 14.6726 40.9888 13.0932C41.0568 12.9757 41.0568 12.9757 41.1263 12.8558C41.1671 12.7871 41.2079 12.7184 41.25 12.6476C41.3651 12.4264 41.3651 12.4264 41.3379 12.0527C41.1564 11.8352 40.9774 11.6434 40.7749 11.4472C40.7177 11.3903 40.6604 11.3334 40.6014 11.2748C40.4804 11.1548 40.3589 11.0352 40.2369 10.9161C40.0494 10.7331 39.8633 10.5487 39.6775 10.364C39.5598 10.2477 39.4421 10.1315 39.3244 10.0154C39.2682 9.95997 39.2121 9.90457 39.1543 9.84749C38.9363 9.58321 38.9363 9.58321 38.6485 9.46284Z" fill="#00A0DD"/>
</g>
<defs>
<clipPath id="clip0_2333_8669">
<rect width="51" height="51" fill="white"/>
</clipPath>
</defs>
</svg>
