<svg width="51" height="51" viewBox="0 0 51 51" fill="none" xmlns="http://www.w3.org/2000/svg"><g clip-path="url(#clip0_2333_8669)" fill="#00A0DD"><path d="M10.758 7.47c.182.13.182.13.37.302l.21.192a60.081 60.081 0 011.284 1.245l.477.474.489.483c.237.233.473.467.709.702l.221.216.204.205.18.178c.171.231.212.4.238.685-.175.503-.433.938-.716 1.389a18.22 18.22 0 00-1.873 4.09l-.097.302c-.265.94-.32 1.917-.402 2.885l.297.03c3.215.345 5.91 1.768 7.982 4.247 2.007 2.502 2.616 5.568 2.36 8.72a7.736 7.736 0 01-.28 1.248l-.06.213c-.759 2.592-2.365 5.048-4.72 6.46l-.315.197c-2.526 1.543-5.56 2.014-8.453 1.38-1.766-.426-3.3-1.185-4.68-2.373l-.206-.167c-2.425-2-3.664-5.251-3.977-8.3-.05-.767-.044-1.535-.038-2.304l.002-.312c.008-1.538.055-3.04.335-4.556l.061-.346c.294-1.619.684-3.183 1.234-4.734l.076-.219a30.329 30.329 0 013.61-7.152c.04-.062.083-.123.126-.186a26.2 26.2 0 011.965-2.504l.216-.25c.469-.533.964-1.04 1.465-1.543l.198-.199.187-.187.168-.167c.388-.356.635-.42 1.153-.343zM9.96 9.844c-.417.421-.795.864-1.165 1.327-.231.287-.47.566-.71.845-2.945 3.536-4.942 7.905-5.895 12.39l-.046.218c-.865 4.14-1.12 9.126 1.242 12.83 1.397 2.08 3.352 3.53 5.777 4.184l.24.068c2.322.537 4.86-.006 6.903-1.157 2.383-1.498 3.972-3.723 4.61-6.482.488-2.637-.123-5.257-1.593-7.47a12.44 12.44 0 00-.897-.996l-.248-.262-.25-.236-.19-.183a8.991 8.991 0 00-5.277-2.355l-.258-.024a20.85 20.85 0 00-.506-.037c-.37-.03-.583-.048-.889-.273-.672-.962-.38-2.544-.22-3.626.403-2.215 1.277-4.399 2.56-6.252-.162-.408-.455-.68-.76-.982l-.167-.166-.346-.345a147.966 147.966 0 01-.87-.865 320.31 320.31 0 00-.161-.162c-.447-.44-.444-.426-.884.01zM39.047 7.47c.3.198.545.443.797.698l.21.206c.197.195.392.393.587.59.336.34.677.672 1.022 1.002l.444.432.307.295c.15.142.297.287.444.431l.268.258c.252.336.297.552.304.97-.094.25-.094.25-.242.48l-.165.264-.179.277-.36.589c-.09.146-.09.146-.18.296-1.222 2.064-1.736 4.19-1.962 6.56l.296.03c3.104.333 5.883 1.7 7.9 4.128 2.048 2.641 2.782 5.666 2.431 8.983-.418 2.889-2.071 5.458-4.308 7.289-.242.174-.487.333-.741.488l-.316.198c-2.61 1.592-5.739 2.03-8.71 1.316a10.8 10.8 0 01-1.732-.617l-.295-.13c-1.596-.744-2.92-1.868-3.988-3.257l-.18-.232a12.398 12.398 0 01-2.011-4.25l-.064-.24c-.71-2.857-.547-6.244-.036-9.124l.05-.299a30.93 30.93 0 016.126-13.845l.21-.275c.757-.973 1.617-1.859 2.485-2.732l.166-.167c.47-.467.74-.712 1.422-.611zm-.398 1.993c-.179.182-.352.366-.523.554l-.162.177a160.382 160.382 0 00-.673.743c-3.637 4.028-6.048 9.134-7.01 14.463l-.05.274c-.25 1.46-.28 2.918-.286 4.396l-.002.273c-.02 2.9.546 5.717 2.43 8.007l.245.297a9.324 9.324 0 006.03 3.189c2.663.146 5.276-.486 7.323-2.264l.248-.226.235-.21c1.584-1.495 2.732-3.754 2.87-5.946.06-2.786-.454-5.118-2.308-7.292l-.171-.21c-1.4-1.69-3.669-2.87-5.842-3.102-.507-.047-.507-.047-1.015-.083-.361-.029-.585-.052-.89-.258-.707-1.08-.348-2.958-.105-4.137.4-1.788 1.072-3.435 1.996-5.015l.137-.237.124-.208c.115-.222.115-.222.088-.595a7.63 7.63 0 00-.563-.606l-.174-.172c-.12-.12-.242-.24-.364-.359a576.617 576.617 0 00-1.083-1.069c-.218-.264-.218-.264-.505-.384z"/></g><defs><clipPath id="clip0_2333_8669"><path fill="#fff" d="M0 0h51v51H0z"/></clipPath></defs></svg>