<svg width="30" height="30" viewBox="0 0 30 30" fill="none" xmlns="http://www.w3.org/2000/svg">
<path d="M15.5 3C13.2255 3 11.0021 3.67446 9.11095 4.9381C7.21978 6.20174 5.7458 7.99779 4.87539 10.0991C4.00498 12.2005 3.77724 14.5128 4.22097 16.7435C4.6647 18.9743 5.75997 21.0234 7.36828 22.6317C8.97658 24.24 11.0257 25.3353 13.2565 25.779C15.4872 26.2228 17.7995 25.995 19.9009 25.1246C22.0022 24.2542 23.7983 22.7802 25.0619 20.8891C26.3255 18.9979 27 16.7745 27 14.5C26.9967 11.451 25.784 8.52791 23.628 6.37197C21.4721 4.21603 18.549 3.00335 15.5 3ZM15.5 25.08C13.4075 25.08 11.3619 24.4595 9.62207 23.2969C7.8822 22.1344 6.52613 20.482 5.72536 18.5488C4.92458 16.6155 4.71507 14.4883 5.1233 12.4359C5.53153 10.3836 6.53918 8.49845 8.01881 7.01881C9.49845 5.53917 11.3836 4.53152 13.4359 4.12329C15.4883 3.71506 17.6156 3.92458 19.5488 4.72535C21.482 5.52613 23.1344 6.88219 24.2969 8.62207C25.4595 10.3619 26.08 12.4075 26.08 14.5C26.077 17.3051 24.9613 19.9943 22.9778 21.9778C20.9944 23.9613 18.3051 25.077 15.5 25.08ZM22.4 14.5C22.4 14.622 22.3515 14.739 22.2653 14.8253C22.179 14.9115 22.062 14.96 21.94 14.96H15.5C15.378 14.96 15.261 14.9115 15.1747 14.8253C15.0885 14.739 15.04 14.622 15.04 14.5V8.06C15.04 7.938 15.0885 7.821 15.1747 7.73473C15.261 7.64846 15.378 7.6 15.5 7.6C15.622 7.6 15.739 7.64846 15.8253 7.73473C15.9115 7.821 15.96 7.938 15.96 8.06V14.04H21.94C22.062 14.04 22.179 14.0885 22.2653 14.1747C22.3515 14.261 22.4 14.378 22.4 14.5Z" fill="black"/>
</svg>
