<svg width="50" height="50" viewBox="0 0 50 50" fill="none" xmlns="http://www.w3.org/2000/svg">
<circle cx="25" cy="25" r="24" stroke="white" stroke-width="2"/>
<path d="M16.5 24C15.9477 24 15.5 24.4477 15.5 25C15.5 25.5523 15.9477 26 16.5 26V24ZM35.2071 25.7071C35.5976 25.3166 35.5976 24.6834 35.2071 24.2929L28.8431 17.9289C28.4526 17.5384 27.8195 17.5384 27.4289 17.9289C27.0384 18.3195 27.0384 18.9526 27.4289 19.3431L33.0858 25L27.4289 30.6569C27.0384 31.0474 27.0384 31.6805 27.4289 32.0711C27.8195 32.4616 28.4526 32.4616 28.8431 32.0711L35.2071 25.7071ZM16.5 26H34.5V24H16.5V26Z" fill="white"/>
</svg>
