<svg width="60" height="67" viewBox="0 0 60 67" fill="none" xmlns="http://www.w3.org/2000/svg">
<path d="M10.0198 0.00691983C10.1843 0.0054562 10.3487 0.00399258 10.5182 0.00248461C11.0662 -0.00113109 11.614 0.00258699 12.162 0.00631856C12.5561 0.00525796 12.9502 0.00375551 13.3443 0.00184525C14.4126 -0.0019715 15.4808 0.000693258 16.5491 0.00475219C17.6679 0.00813542 18.7867 0.00631431 19.9056 0.00526398C21.7843 0.00433157 23.663 0.00760358 25.5417 0.0133701C27.7127 0.0199825 29.8837 0.0199793 32.0547 0.0164204C34.1445 0.0131458 36.2343 0.0145374 38.3241 0.0180578C39.2129 0.0194745 40.1016 0.0192631 40.9904 0.0177391C42.0373 0.0161568 43.0841 0.0186646 44.131 0.0243098C44.5148 0.0257287 44.8987 0.0257515 45.2825 0.0242653C45.8072 0.0224681 46.3317 0.0257691 46.8564 0.0303409C47.0833 0.0277907 47.0833 0.0277907 47.3148 0.025189C48.8986 0.0505952 49.8972 0.792458 50.9969 1.88474C51.1806 2.06589 51.3643 2.24703 51.5536 2.43367C51.7492 2.62982 51.9448 2.82607 52.1403 3.0224C52.3448 3.22598 52.5493 3.42949 52.7539 3.63292C53.1807 4.05797 53.6062 4.48416 54.031 4.91115C54.5734 5.45606 55.119 5.99763 55.6656 6.53834C56.0882 6.95725 56.5088 7.37808 56.9289 7.79948C57.1292 7.99989 57.3302 8.19967 57.5318 8.39878C57.814 8.67802 58.0934 8.96021 58.3726 9.2425C58.5317 9.40173 58.6909 9.56096 58.8549 9.72501C59.901 11.0309 59.9807 12.2197 59.9706 13.8352C59.9722 14.1553 59.9723 14.1553 59.974 14.4818C59.9769 15.1953 59.9754 15.9087 59.974 16.6222C59.9751 17.1343 59.9766 17.6464 59.9782 18.1585C59.9816 19.4042 59.982 20.6498 59.9809 21.8955C59.9801 22.9081 59.9804 23.9207 59.9815 24.9333C59.9816 25.0776 59.9818 25.2218 59.9819 25.3705C59.9822 25.6635 59.9826 25.9566 59.9829 26.2496C59.9857 28.9961 59.9846 31.7426 59.9822 34.4892C59.9802 37.0009 59.9828 39.5125 59.9878 42.0242C59.9928 44.6048 59.9948 47.1854 59.9934 49.7659C59.9927 51.2141 59.9932 52.6623 59.9968 54.1105C60.0001 55.4719 59.9991 56.8334 59.9953 58.1948C59.9945 58.6946 59.9951 59.1943 59.9973 59.6941C60 60.3761 59.9976 61.0579 59.994 61.7399C59.996 61.9378 59.998 62.1357 60 62.3396C59.9863 63.5808 59.8353 64.3377 59.0656 65.3296C57.9258 66.2049 56.9937 66.2738 55.5867 66.261C55.3852 66.2624 55.1837 66.2639 54.9761 66.2654C54.3027 66.2691 53.6294 66.267 52.956 66.2649C52.4725 66.2663 51.989 66.2681 51.5055 66.2703C50.1935 66.2749 48.8815 66.2743 47.5694 66.2725C46.3355 66.2713 45.1015 66.2733 43.8676 66.275C41.2747 66.2784 38.6819 66.2766 36.0891 66.2732C33.7181 66.2701 31.3473 66.2731 28.9763 66.2791C26.5401 66.2852 24.1039 66.2874 21.6676 66.2854C20.3006 66.2844 18.9335 66.2849 17.5665 66.2891C16.2812 66.2929 14.9961 66.2917 13.7108 66.2866C13.2392 66.2856 12.7675 66.2863 12.2958 66.2889C11.6519 66.2922 11.0083 66.2891 10.3644 66.2844C10.1778 66.2869 9.99115 66.2893 9.79889 66.2918C8.50223 66.2727 7.86702 65.9761 6.88539 65.1233C6.22605 64.3148 6.1695 63.6777 6.26666 62.6476C6.67915 62.235 6.67915 62.235 7.32367 62.2092C7.51934 62.2177 7.71502 62.2262 7.91662 62.235C7.97379 62.3517 8.03095 62.4685 8.08984 62.5888C8.16455 62.7401 8.23925 62.8914 8.31623 63.0473C8.42749 63.2735 8.42749 63.2735 8.541 63.5043C8.7135 63.8777 8.7135 63.8777 8.94785 64.0918C9.56699 64.1134 10.1814 64.1213 10.8007 64.1207C10.9975 64.1213 11.1943 64.122 11.3971 64.1226C12.062 64.1244 12.7268 64.1247 13.3917 64.125C13.8662 64.126 14.3407 64.127 14.8152 64.1281C16.1081 64.1308 17.4009 64.1321 18.6938 64.1331C19.5005 64.1337 20.3073 64.1345 21.114 64.1354C23.3461 64.1379 25.5782 64.1401 27.8103 64.1408C27.9533 64.1408 28.0962 64.1409 28.2435 64.1409C28.4585 64.141 28.4585 64.141 28.6778 64.141C28.9682 64.1411 29.2586 64.1412 29.549 64.1413C29.7651 64.1414 29.7651 64.1414 29.9855 64.1415C32.3204 64.1423 34.6553 64.1459 36.9901 64.1507C39.3853 64.1556 41.7805 64.1581 44.1756 64.1584C45.5213 64.1586 46.8669 64.1598 48.2125 64.1635C49.4777 64.1669 50.7429 64.1674 52.0081 64.1655C52.4735 64.1654 52.9388 64.1663 53.4042 64.1683C54.0376 64.1709 54.6708 64.1697 55.3042 64.1676C55.4901 64.1692 55.6759 64.1709 55.8674 64.1726C56.1212 64.1706 56.1212 64.1706 56.3802 64.1685C56.5264 64.1686 56.6727 64.1687 56.8234 64.1689C57.3395 64.0658 57.519 63.8949 57.8282 63.4728C57.921 63.0668 57.921 63.0668 57.9075 62.6137C57.9095 62.4379 57.9114 62.262 57.9134 62.0808C57.9119 61.7909 57.9119 61.7909 57.9104 61.4952C57.9118 61.2899 57.9131 61.0847 57.9146 60.8732C57.9184 60.1823 57.9179 59.4915 57.9173 58.8005C57.9192 58.3065 57.9213 57.8125 57.9237 57.3185C57.9282 56.2534 57.9309 55.1882 57.9318 54.123C57.9331 52.583 57.9378 51.0429 57.9434 49.5028C57.9523 47.0043 57.9585 44.5057 57.963 42.0072C57.9673 39.5798 57.9729 37.1525 57.9803 34.7252C57.9807 34.5756 57.9812 34.426 57.9817 34.2719C57.9839 33.5215 57.9863 32.7711 57.9886 32.0207C58.0078 25.7938 58.0225 19.567 58.0344 13.3402C57.9075 13.3425 57.7806 13.3448 57.6499 13.3471C56.3283 13.37 55.0069 13.3855 53.6852 13.3968C53.192 13.402 52.6989 13.4091 52.2058 13.418C51.4967 13.4305 50.7878 13.4364 50.0786 13.4409C49.8584 13.4462 49.6381 13.4516 49.4112 13.4571C47.8911 13.4576 47.8911 13.4576 47.0665 12.8846C46.6617 12.2639 46.5646 11.9762 46.5738 11.2446C46.5739 11.0382 46.574 10.8317 46.574 10.619C46.5794 10.3987 46.5847 10.1784 46.5902 9.95142C46.5924 9.61017 46.5924 9.61017 46.5946 9.26203C46.6004 8.53671 46.6133 7.81172 46.6264 7.08649C46.6316 6.59424 46.6363 6.10197 46.6405 5.6097C46.6519 4.40412 46.6691 3.19873 46.6909 1.99328C41.7805 2.00576 36.8701 2.02174 31.9597 2.04191C29.6798 2.0512 27.4 2.05933 25.1201 2.06476C23.1334 2.06949 21.1468 2.07637 19.1602 2.08586C18.1078 2.0908 17.0555 2.09466 16.0031 2.09595C15.0133 2.09719 14.0235 2.1013 13.0338 2.10764C12.6698 2.10946 12.3059 2.11021 11.942 2.10985C11.4463 2.10951 10.9508 2.11294 10.4551 2.11733C10.2376 2.11583 10.2376 2.11583 10.0156 2.1143C9.45836 2.12249 9.03754 2.14799 8.54925 2.42895C8.21693 3.01705 8.25077 3.50964 8.24966 4.18248C8.24858 4.32173 8.2475 4.46097 8.24638 4.60443C8.2435 5.07201 8.24501 5.53947 8.24649 6.00706C8.2453 6.34185 8.24384 6.67665 8.24213 7.01144C8.23901 7.73281 8.23782 8.45416 8.23811 9.17554C8.23853 10.3153 8.2345 11.4551 8.22982 12.5948C8.22136 14.8079 8.21753 17.021 8.21411 19.2341C8.20951 22.0519 8.20261 24.8697 8.192 27.6875C8.18788 28.8214 8.18592 29.9554 8.18562 31.0893C8.18505 31.7935 8.18282 32.4977 8.18015 33.2019C8.17927 33.5294 8.1791 33.8569 8.17967 34.1844C8.18037 34.6301 8.17857 35.0757 8.17614 35.5214C8.1758 35.7713 8.17547 36.0211 8.17512 36.2785C8.12287 36.8592 8.12287 36.8592 7.71038 37.2718C7.03035 37.2038 6.75697 37.1434 6.26666 36.6529C6.24088 35.905 6.24088 35.905 6.26666 35.2087C5.80675 35.2212 5.34699 35.2395 4.88739 35.2603C4.63136 35.2699 4.37533 35.2795 4.11155 35.2893C3.27805 35.4324 2.92198 35.6252 2.34798 36.2403C2.18712 36.6865 2.18712 36.6865 2.21908 37.1558C2.21642 37.3087 2.21376 37.4616 2.21102 37.6192C2.41782 38.3407 2.80811 38.6529 3.37921 39.1286C4.03149 39.2811 4.03149 39.2811 4.75412 39.2563C4.88958 39.2576 5.02504 39.2589 5.1646 39.2602C5.61704 39.2633 6.06912 39.259 6.52154 39.2548C6.8465 39.2555 7.17145 39.2567 7.49641 39.2583C8.19553 39.2609 8.89454 39.2601 9.59366 39.2569C10.6996 39.2519 11.8055 39.2543 12.9115 39.2577C14.8606 39.2627 16.8096 39.2616 18.7587 39.259C21.6917 39.2551 24.6246 39.2561 27.5575 39.2631C28.6564 39.2655 29.7551 39.2646 30.854 39.261C31.5384 39.2594 32.2228 39.2603 32.9073 39.2618C33.2239 39.262 33.5406 39.2611 33.8573 39.259C34.2908 39.2564 34.7241 39.2575 35.1575 39.2596C35.5208 39.259 35.5208 39.259 35.8915 39.2584C36.8325 39.3622 37.6633 39.6319 38.3879 40.2705C39.1457 41.2927 39.2978 41.8558 39.3025 43.1054C39.3039 43.2601 39.3052 43.4148 39.3066 43.5742C39.3107 44.0874 39.3131 44.6006 39.3152 45.1139C39.316 45.2893 39.3168 45.4646 39.3177 45.6453C39.322 46.574 39.325 47.5026 39.3269 48.4313C39.3292 49.3891 39.3363 50.3468 39.3445 51.3046C39.3499 52.0421 39.3516 52.7796 39.3523 53.5172C39.3533 53.8701 39.3557 54.2231 39.3596 54.576C39.3646 55.0713 39.3644 55.5663 39.363 56.0616C39.3656 56.2063 39.3682 56.3509 39.371 56.4999C39.3597 57.5712 39.1163 58.3244 38.441 59.1404C37.108 60.2978 35.442 60.0804 33.7703 60.0691C33.4412 60.0699 33.1121 60.071 32.7831 60.0725C31.892 60.0754 31.001 60.0731 30.11 60.0697C29.1762 60.0668 28.2423 60.0681 27.3085 60.0689C25.7405 60.0694 24.1725 60.0666 22.6045 60.0619C20.7934 60.0564 18.9823 60.056 17.1712 60.0584C15.4267 60.0607 13.6823 60.0594 11.9379 60.0565C11.1965 60.0553 10.4551 60.0553 9.71367 60.0563C8.84012 60.0573 7.96664 60.0552 7.09311 60.0507C6.77311 60.0496 6.4531 60.0495 6.1331 60.0505C5.69513 60.0517 5.25734 60.0491 4.81938 60.0456C4.57468 60.0451 4.32997 60.0446 4.07785 60.0441C2.82868 59.9038 1.82241 59.3889 0.904259 58.5215C0.00472728 57.2682 0.0479306 56.0114 0.0460416 54.5272C0.0450176 54.3342 0.0439936 54.1411 0.0429386 53.9423C0.0399317 53.3051 0.0385216 52.668 0.0373808 52.0308C0.0361941 51.5871 0.0350066 51.1434 0.0338184 50.6996C0.0316533 49.7697 0.0304465 48.8398 0.0297272 47.9099C0.0285955 46.7197 0.0236377 45.5296 0.0177707 44.3394C0.0139258 43.423 0.0128553 42.5065 0.0125395 41.5901C0.0119161 41.1513 0.0102629 40.7126 0.00755138 40.2739C0.00402544 39.6596 0.00442228 39.0455 0.00575913 38.4312C0.00385862 38.2509 0.0019581 38.0706 0 37.8848C0.00946661 36.4929 0.254424 35.5162 1.18785 34.4351C2.3719 33.4199 3.21396 33.1144 4.74559 33.1328C4.96413 33.1342 4.96413 33.1342 5.18709 33.1356C5.54695 33.138 5.90681 33.1417 6.26666 33.1457C6.26609 32.9896 6.26552 32.8336 6.26493 32.6729C6.25126 28.8743 6.24102 25.0758 6.2346 21.2773C6.23141 19.4403 6.22706 17.6034 6.21998 15.7665C6.21381 14.1652 6.20982 12.5639 6.20844 10.9626C6.20763 10.1149 6.20574 9.26725 6.20124 8.41957C6.19703 7.62115 6.19574 6.82278 6.19667 6.02436C6.1965 5.73187 6.19528 5.43938 6.1929 5.1469C6.17054 2.25535 6.17054 2.25535 6.88539 1.16806C7.84263 0.260067 8.70226 -0.0143449 10.0198 0.00691983Z" fill="#12A1DC"/>
<path d="M1.93575 40.7793C2.14428 40.8462 2.35281 40.9132 2.56766 40.9822C3.32787 41.1983 4.02573 41.2446 4.81875 41.2466C4.95614 41.2475 5.09352 41.2484 5.23506 41.2493C5.69137 41.2518 6.14762 41.2515 6.60393 41.2511C6.93265 41.2524 7.26137 41.2538 7.59009 41.2554C8.29581 41.2584 9.00152 41.2603 9.70725 41.2611C10.8225 41.2625 11.9377 41.267 13.053 41.2719C15.6201 41.2829 18.1872 41.2898 20.7543 41.2966C23.1103 41.303 25.4663 41.3101 27.8223 41.3206C28.9318 41.3255 30.0413 41.3283 31.1507 41.3296C31.8392 41.3308 32.5276 41.3337 33.216 41.3371C33.5361 41.3383 33.8562 41.3388 34.1763 41.3386C34.6119 41.3384 35.0474 41.3406 35.483 41.3435C35.8492 41.3444 35.8492 41.3444 36.2228 41.3453C36.7913 41.3982 36.7913 41.3982 37.2038 41.8108C37.2458 42.3106 37.2622 42.787 37.2605 43.2871C37.2615 43.4391 37.2626 43.5911 37.2637 43.7477C37.2665 44.2516 37.2663 44.7553 37.2659 45.2592C37.2667 45.6087 37.2676 45.9581 37.2685 46.3076C37.2701 47.0407 37.27 47.7738 37.2689 48.5069C37.2677 49.4472 37.2712 50.3874 37.276 51.3277C37.279 52.0496 37.2792 52.7715 37.2786 53.4934C37.2787 53.8402 37.2798 54.1869 37.2818 54.5336C37.2844 55.0181 37.283 55.5026 37.2806 55.9871C37.2822 56.1309 37.2838 56.2746 37.2854 56.4227C37.2749 57.384 37.2749 57.384 36.9721 57.8364C36.4031 58.2373 35.9566 58.187 35.2648 58.1877C35.1303 58.1886 34.9957 58.1896 34.8571 58.1906C34.4053 58.1931 33.9537 58.1911 33.502 58.1892C33.1784 58.19 32.8549 58.1911 32.5314 58.1924C31.6518 58.1953 30.7723 58.1942 29.8928 58.1922C28.9728 58.1906 28.0528 58.1921 27.1328 58.1931C25.5873 58.1942 24.0417 58.1927 22.4962 58.1898C20.7095 58.1864 18.9228 58.1875 17.136 58.1909C15.6025 58.1937 14.069 58.1941 12.5355 58.1925C11.6194 58.1915 10.7033 58.1914 9.78719 58.1934C8.92551 58.1952 8.06389 58.194 7.20222 58.1904C6.88603 58.1896 6.56984 58.1898 6.25366 58.1912C5.82183 58.1929 5.39017 58.1908 4.95835 58.1877C4.59596 58.1873 4.59596 58.1873 4.22624 58.187C3.51086 58.1 3.12789 57.92 2.55449 57.4902C1.93543 56.5517 1.8599 55.802 1.86551 54.6914C1.86542 54.5403 1.86533 54.3892 1.86523 54.2335C1.86566 53.7379 1.87046 53.2423 1.87533 52.7467C1.87648 52.4016 1.87736 52.0564 1.87798 51.7113C1.88034 50.8057 1.88641 49.9002 1.89327 48.9946C1.89961 48.0694 1.90242 47.1442 1.90554 46.219C1.91216 44.4057 1.92271 42.5925 1.93575 40.7793Z" fill="white"/>
<path d="M22.0593 16.6122C22.258 16.611 22.4566 16.6098 22.6613 16.6086C22.88 16.6084 23.0987 16.6081 23.324 16.6079C23.5537 16.6069 23.7835 16.6058 24.0202 16.6048C24.783 16.6018 25.5458 16.6004 26.3086 16.5992C26.8374 16.598 27.3661 16.5969 27.8948 16.5957C28.8626 16.5938 29.8305 16.5925 30.7983 16.5918C32.2224 16.5909 33.6465 16.5873 35.0707 16.5813C36.3043 16.5763 37.5378 16.5747 38.7714 16.5744C39.2961 16.5738 39.8209 16.5721 40.3456 16.5694C41.0793 16.5659 41.813 16.5663 42.5467 16.5676C42.8729 16.5647 42.8729 16.5647 43.2056 16.5618C44.5179 16.5694 45.2732 16.6759 46.2346 17.6237C46.581 18.2635 46.5631 18.7623 46.5646 19.4883C46.5662 19.6973 46.5662 19.6973 46.5679 19.9105C46.5706 20.3699 46.5688 20.8292 46.5667 21.2887C46.5671 21.6088 46.5677 21.929 46.5685 22.2491C46.5694 22.9197 46.5681 23.5903 46.5652 24.261C46.5616 25.1193 46.5637 25.9776 46.5674 26.836C46.5696 27.4971 46.5689 28.1581 46.5673 28.8192C46.5669 29.1356 46.5674 29.452 46.5688 29.7684C46.5704 30.2114 46.568 30.6542 46.5646 31.0971C46.5641 31.3489 46.5636 31.6006 46.5631 31.86C46.452 32.8024 46.1556 33.2992 45.4536 33.9268C44.5001 34.3125 43.5791 34.2667 42.5598 34.2639C42.3303 34.2656 42.1008 34.2674 41.8644 34.2692C41.1059 34.274 40.3475 34.2742 39.589 34.274C39.0616 34.2754 38.5343 34.277 38.007 34.2787C36.9017 34.2815 35.7964 34.2818 34.6912 34.2806C33.4152 34.2792 32.1393 34.284 30.8634 34.2916C29.6338 34.2987 28.4044 34.3001 27.1748 34.2992C26.6526 34.2996 26.1303 34.3016 25.6081 34.3052C24.8778 34.3098 24.1479 34.3078 23.4176 34.3042C23.0941 34.3083 23.0941 34.3083 22.7639 34.3125C21.8212 34.3016 21.125 34.2912 20.3666 33.6922C19.6231 32.8593 19.6441 32.2319 19.6327 31.1505C19.6311 31.0115 19.6294 30.8726 19.6276 30.7294C19.6225 30.2699 19.6191 29.8103 19.6161 29.3508C19.615 29.1936 19.6139 29.0364 19.6128 28.8744C19.6073 28.0423 19.6033 27.2101 19.6003 26.378C19.5976 25.6902 19.5918 25.0025 19.5834 24.3147C19.5732 23.4833 19.5681 22.652 19.5666 21.8205C19.5653 21.5042 19.5621 21.188 19.5572 20.8718C19.5506 20.4283 19.5506 19.9852 19.5522 19.5417C19.5505 19.2897 19.5488 19.0378 19.5471 18.7782C19.7149 17.8514 20.0468 17.5129 20.7037 16.8474C21.1985 16.6 21.5068 16.6141 22.0593 16.6122Z" fill="#12A1DC"/>
<path d="M8.82133 44.4934C9.56819 44.7782 9.91059 45.2901 10.3529 45.9239C10.4368 46.0376 10.5206 46.1513 10.6071 46.2684C11.2165 47.1117 11.2165 47.1117 11.2165 47.5872C11.3526 47.5872 11.4888 47.5872 11.629 47.5872C11.6795 47.4396 11.73 47.292 11.7821 47.14C12.0732 46.4844 12.436 46.0118 12.8923 45.4597C13.0417 45.2775 13.1911 45.0954 13.345 44.9077C13.4594 44.7707 13.5737 44.6337 13.6915 44.4926C14.9032 44.6731 14.9032 44.6731 15.1352 44.9052C15.2435 45.4572 15.2096 45.8128 14.9184 46.2979C14.5119 46.8473 14.0843 47.3777 13.6548 47.9092C13.5518 48.0415 13.4488 48.1738 13.3426 48.3101C13.2465 48.4289 13.1504 48.5476 13.0513 48.67C12.8292 49.0247 12.8292 49.0247 12.9043 49.4388C13.0949 49.9116 13.3303 50.2573 13.6415 50.6609C13.7535 50.8109 13.8654 50.9609 13.9807 51.1154C14.2174 51.4279 14.4559 51.7389 14.6961 52.0486C15.5536 53.2072 15.5536 53.2072 15.5203 54.094C15.4318 54.3453 15.4318 54.3453 15.3414 54.6017C14.7289 54.7038 14.7289 54.7038 14.104 54.808C13.7673 54.3836 13.4325 53.958 13.0985 53.5315C13.0036 53.4122 12.9087 53.2929 12.8109 53.17C12.2915 52.5036 11.8956 51.9082 11.629 51.0945C11.4929 51.0945 11.3568 51.0945 11.2165 51.0945C11.1471 51.3063 11.1471 51.3063 11.0763 51.5224C10.7324 52.2848 10.2654 52.88 9.74702 53.5315C9.60226 53.7164 9.60226 53.7164 9.45457 53.905C9.21799 54.2068 8.97993 54.5075 8.74157 54.808C8.33321 54.7399 7.92484 54.6718 7.5041 54.6017C7.32524 54.094 7.32524 54.094 7.29785 53.3638C7.62672 52.715 8.06467 52.1579 8.50955 51.5844C8.74212 51.2774 8.97366 50.9696 9.20402 50.6609C9.3599 50.4588 9.3599 50.4588 9.51892 50.2526C9.79197 49.8267 9.93223 49.5358 9.97905 49.0314C9.80162 48.6539 9.80162 48.6539 9.50291 48.3101C9.34838 48.1117 9.34838 48.1117 9.19072 47.9092C9.08079 47.7732 8.97085 47.6371 8.85759 47.497C7.7443 46.1175 7.7443 46.1175 7.59997 45.3493C7.77061 44.6628 8.13746 44.4923 8.82133 44.4934Z" fill="#12A1DC"/>
<path d="M31.3256 45.3952C31.6349 45.7304 31.6349 45.7304 31.7123 46.2591C31.6349 46.762 31.6349 46.762 31.2224 47.1746C30.4602 47.2612 30.062 47.2156 29.3791 46.8522C28.5942 46.4837 28.1363 46.5788 27.3038 46.762C27.2357 47.0343 27.1676 47.3066 27.0975 47.5872C27.2273 47.6521 27.357 47.717 27.4907 47.7839C27.8592 47.9682 28.2274 48.1533 28.5952 48.3391C28.9365 48.5081 29.2802 48.6724 29.6281 48.8275C30.6167 49.2756 31.271 49.7193 31.8412 50.6818C32.0341 51.5732 32.0458 52.3586 31.6124 53.1769C30.9362 54.035 30.2177 54.4978 29.16 54.808C27.5712 54.9903 26.2052 54.5241 24.9061 53.5959C24.5304 53.015 24.561 52.5973 24.6226 51.9197C25.2671 51.7649 25.2671 51.7649 26.0663 51.7134C26.3598 51.9112 26.3598 51.9112 26.6592 52.1131C27.4187 52.6145 27.8533 52.6296 28.737 52.628C29.2717 52.515 29.4725 52.3714 29.7787 51.9197C29.7598 51.4989 29.7598 51.4989 29.5725 51.0944C29.2185 50.8501 29.2185 50.8501 28.7692 50.6963C28.5246 50.597 28.5246 50.597 28.275 50.4957C27.9309 50.3629 27.5866 50.2307 27.2421 50.0992C26.1615 49.6591 25.5684 49.3017 25.0351 48.2061C24.8126 47.3161 24.9718 46.6754 25.396 45.8723C27.0501 43.8959 29.2521 44.2544 31.3256 45.3952Z" fill="#12A1DC"/>
<path d="M48.5471 2.6124C50.1717 4.00533 50.1717 4.00533 50.8363 4.66928C51.0591 4.89118 51.0591 4.89118 51.2864 5.11757C51.5189 5.3507 51.5189 5.3507 51.756 5.58855C51.9188 5.75116 52.0815 5.91377 52.2492 6.08131C52.5904 6.42244 52.9313 6.76384 53.272 7.10548C53.7962 7.63094 54.3215 8.15528 54.8469 8.67953C55.1787 9.01162 55.5105 9.34378 55.8423 9.67601C56.0001 9.83352 56.158 9.99103 56.3207 10.1533C56.5367 10.3703 56.5367 10.3703 56.757 10.5917C56.8846 10.7195 57.0121 10.8472 57.1435 10.9789C57.4157 11.2773 57.4157 11.2773 57.4157 11.4836C54.4891 11.4836 51.5624 11.4836 48.5471 11.4836C48.5471 8.55611 48.5471 5.62862 48.5471 2.6124Z" fill="white"/>
<path d="M18.9766 44.5444C19.4664 44.6991 19.4664 44.6991 19.6727 44.9054C19.6909 45.5005 19.6964 46.0906 19.6928 46.6856C19.6925 46.8639 19.6922 47.0422 19.6919 47.2259C19.6908 47.7977 19.6882 48.3695 19.6855 48.9413C19.6845 49.328 19.6836 49.7147 19.6827 50.1014C19.6804 51.0514 19.6769 52.0014 19.6727 52.9514C19.9594 52.9478 19.9594 52.9478 20.2519 52.9441C20.4989 52.9423 20.7459 52.9404 21.0004 52.9385C21.2468 52.9361 21.4933 52.9337 21.7472 52.9312C22.3539 52.9514 22.3539 52.9514 22.5601 53.1577C22.6117 53.7637 22.6117 53.7637 22.5601 54.3955C21.7675 54.9241 21.1067 54.8765 20.1883 54.8726C19.9494 54.8776 19.9494 54.8776 19.7057 54.8827C18.5389 54.8837 18.5389 54.8837 18.0805 54.5499C17.7504 54.0991 17.7381 53.8509 17.7364 53.2955C17.7344 53.1158 17.7325 52.9361 17.7305 52.751C17.7317 52.5575 17.733 52.3641 17.7343 52.1648C17.7337 51.9657 17.7331 51.7666 17.7325 51.5614C17.732 51.1403 17.7332 50.7193 17.7358 50.2982C17.7391 49.6529 17.7358 49.0079 17.7318 48.3627C17.7323 47.9538 17.733 47.545 17.7343 47.1361C17.733 46.9427 17.7318 46.7493 17.7305 46.55C17.7324 46.3703 17.7344 46.1906 17.7364 46.0054C17.7369 45.8474 17.7374 45.6894 17.7379 45.5266C17.8812 44.7699 18.216 44.4719 18.9766 44.5444Z" fill="#12A1DC"/>
<path d="M38.2349 18.4977C40.2767 18.4977 42.3185 18.4977 44.4222 18.4977C44.4222 19.587 44.4222 20.6763 44.4222 21.7986C42.3804 21.7986 40.3386 21.7986 38.2349 21.7986C38.2349 20.7093 38.2349 19.62 38.2349 18.4977Z" fill="white"/>
<path d="M38.2349 29.0194C40.2767 29.0194 42.3185 29.0194 44.4222 29.0194C44.4222 30.0406 44.4222 31.0618 44.4222 32.114C42.3804 32.114 40.3386 32.114 38.2349 32.114C38.2349 31.0928 38.2349 30.0715 38.2349 29.0194Z" fill="white"/>
<path d="M29.9849 29.0194C32.0267 29.0194 34.0685 29.0194 36.1722 29.0194C36.1722 30.0406 36.1722 31.0618 36.1722 32.114C34.1304 32.114 32.0886 32.114 29.9849 32.114C29.9849 31.0928 29.9849 30.0715 29.9849 29.0194Z" fill="white"/>
<path d="M21.7349 29.0194C23.7767 29.0194 25.8185 29.0194 27.9222 29.0194C27.9222 30.0406 27.9222 31.0618 27.9222 32.114C25.8804 32.114 23.8386 32.114 21.7349 32.114C21.7349 31.0928 21.7349 30.0715 21.7349 29.0194Z" fill="white"/>
<path d="M38.2349 23.8619C40.2767 23.8619 42.3185 23.8619 44.4222 23.8619C44.4222 24.8831 44.4222 25.9043 44.4222 26.9565C42.3804 26.9565 40.3386 26.9565 38.2349 26.9565C38.2349 25.9353 38.2349 24.914 38.2349 23.8619Z" fill="white"/>
<path d="M29.9849 23.8619C32.0267 23.8619 34.0685 23.8619 36.1722 23.8619C36.1722 24.8831 36.1722 25.9043 36.1722 26.9565C34.1304 26.9565 32.0886 26.9565 29.9849 26.9565C29.9849 25.9353 29.9849 24.914 29.9849 23.8619Z" fill="white"/>
<path d="M21.7349 23.8619C23.7767 23.8619 25.8185 23.8619 27.9222 23.8619C27.9222 24.8831 27.9222 25.9043 27.9222 26.9565C25.8804 26.9565 23.8386 26.9565 21.7349 26.9565C21.7349 25.9353 21.7349 24.914 21.7349 23.8619Z" fill="white"/>
<path d="M29.9849 18.7044C32.0267 18.7044 34.0685 18.7044 36.1722 18.7044C36.1722 19.7256 36.1722 20.7468 36.1722 21.799C34.1304 21.799 32.0886 21.799 29.9849 21.799C29.9849 20.7778 29.9849 19.7566 29.9849 18.7044Z" fill="white"/>
<path d="M21.7349 18.7044C23.7767 18.7044 25.8185 18.7044 27.9222 18.7044C27.9222 19.7256 27.9222 20.7468 27.9222 21.799C25.8804 21.799 23.8386 21.799 21.7349 21.799C21.7349 20.7778 21.7349 19.7566 21.7349 18.7044Z" fill="white"/>
</svg>
