<svg width="60" height="67" viewBox="0 0 60 67" fill="none" xmlns="http://www.w3.org/2000/svg"><path d="M10.02.007l.498-.005c.548-.003 1.096 0 1.644.004.394 0 .788-.002 1.182-.004C14.413-.002 15.481 0 16.55.005c1.119.003 2.238.001 3.357 0 1.878 0 3.757.003 5.636.008 2.17.007 4.342.007 6.513.003 2.09-.003 4.18-.001 6.27.002.888.001 1.777.001 2.665 0 1.047-.002 2.094 0 3.141.006.384.002.768.002 1.151 0 .525-.002 1.05.002 1.574.006l.459-.005c1.584.026 2.582.767 3.682 1.86l.557.549.586.588.614.61c.427.426.852.852 1.277 1.28a298.54 298.54 0 001.635 1.626c.422.42.843.84 1.263 1.261l.603.6c.282.279.561.561.84.844l.483.482c1.046 1.306 1.126 2.495 1.116 4.11l.003.647c.003.713.001 1.427 0 2.14l.004 1.537c.004 1.245.004 2.49.003 3.736v3.476l.002.879c.003 2.746.002 5.493 0 8.24-.003 2.51 0 5.023.005 7.534.005 2.58.007 5.161.005 7.742 0 1.448 0 2.896.004 4.345a783.17 783.17 0 01-.002 4.084c0 .5 0 1 .002 1.5.003.681 0 1.363-.003 2.045l.006.6c-.014 1.24-.165 1.998-.934 2.99-1.14.875-2.072.944-3.48.931l-.61.004c-.673.004-1.347.002-2.02 0l-1.45.005c-1.313.005-2.624.004-3.937.002-1.233 0-2.468.001-3.701.003-2.593.003-5.186.002-7.779-.002-2.37-.003-4.742 0-7.113.006-2.436.006-4.872.008-7.308.006-1.367 0-2.735 0-4.101.004-1.286.004-2.57.003-3.856-.002-.472-.001-.944 0-1.415.002-.644.003-1.288 0-1.932-.005l-.565.008c-1.297-.02-1.932-.316-2.914-1.169-.659-.808-.715-1.445-.618-2.475.412-.413.412-.413 1.057-.439l.593.026.173.354.226.458.225.457c.172.374.172.374.407.588.619.021 1.233.03 1.853.029l.596.002 1.995.002 1.423.003a2949.721 2949.721 0 006.299.007l6.696.006h.434a622.523 622.523 0 001.305 0h.436c2.335.001 4.67.005 7.005.01 2.395.005 4.79.007 7.186.007 1.345 0 2.69.002 4.036.005 1.266.004 2.53.004 3.796.002l1.396.003c.634.003 1.267.002 1.9 0l.563.005.513-.005h.443c.517-.102.696-.273 1.005-.695.093-.406.093-.406.08-.86l.005-.532-.003-.586.005-.622c.003-.69.003-1.381.002-2.072l.007-1.483c.004-1.065.007-2.13.008-3.195.001-1.54.006-3.08.011-4.62.01-2.499.016-4.997.02-7.496.004-2.427.01-4.854.017-7.282l.002-.453.007-2.251c.019-6.227.034-12.454.045-18.68l-.384.006a451.75 451.75 0 01-3.965.05c-.493.005-.986.012-1.48.021-.708.013-1.417.018-2.126.023l-.668.016c-1.52 0-1.52 0-2.345-.572-.404-.621-.501-.909-.492-1.64v-.626l.016-.668.005-.689c.005-.725.018-1.45.031-2.176l.015-1.476c.01-1.206.028-2.411.05-3.617-4.91.013-9.82.029-14.731.049-2.28.01-4.56.017-6.84.023-1.987.004-3.973.011-5.96.02-1.052.006-2.105.01-3.157.011-.99.001-1.98.005-2.97.012l-1.091.002c-.496 0-.991.003-1.487.007l-.44-.003c-.557.008-.977.034-1.466.315-.332.588-.298 1.08-.3 1.753l-.003.422c-.003.468-.001.935 0 1.403a457.804 457.804 0 00-.008 3.168c0 1.14-.004 2.28-.008 3.42a2915.39 2915.39 0 00-.016 6.64c-.004 2.817-.011 5.635-.022 8.453a1009.8 1009.8 0 00-.006 3.401c0 .705-.003 1.409-.006 2.113v.982c0 .446-.001.892-.004 1.337v.758c-.053.58-.053.58-.466.993-.68-.068-.953-.129-1.443-.62-.026-.747-.026-.747 0-1.443-.46.012-.92.03-1.38.051l-.775.03c-.834.142-1.19.335-1.764.95-.16.447-.16.447-.129.916l-.008.463c.207.722.597 1.034 1.168 1.51.652.152.652.152 1.375.127l.41.004c.453.003.905-.001 1.358-.005l.974.003c.7.003 1.399.002 2.098-.001a436.83 436.83 0 013.318 0c1.949.006 3.898.005 5.847.002 2.933-.004 5.866-.003 8.799.004 1.098.003 2.197.002 3.296-.002.684-.002 1.369 0 2.053 0 .317.001.634 0 .95-.002.434-.003.867-.002 1.3 0h.735c.94.103 1.771.373 2.496 1.011.758 1.023.91 1.586.915 2.835 0 .155.002.31.004.47a395.021 395.021 0 01.01 2.07c.005.929.008 1.858.01 2.786.002.958.01 1.916.017 2.874.006.737.008 1.475.008 2.212.001.353.004.706.008 1.059.005.495.004.99.003 1.486l.008.438c-.011 1.071-.255 1.824-.93 2.64-1.333 1.158-2.999.94-4.67.93l-.988.002c-.891.003-1.782.001-2.673-.002-.934-.003-1.868-.002-2.802-.001-1.567 0-3.136-.002-4.703-.007-1.812-.006-3.623-.006-5.434-.004-1.744.003-3.489.001-5.233-.002H9.714c-.874.001-1.747 0-2.62-.005-.32-.001-.64-.002-.96 0-.439 0-.877-.002-1.315-.005l-.741-.002c-1.25-.14-2.256-.655-3.174-1.522-.9-1.254-.856-2.51-.858-3.995l-.003-.585-.006-1.911c0-.444-.002-.888-.003-1.331-.002-.93-.004-1.86-.004-2.79-.001-1.19-.006-2.38-.012-3.57a713.94 713.94 0 01-.005-2.75l-.005-1.316C.004 39.66.004 39.045.006 38.43L0 37.885c.01-1.392.254-2.369 1.188-3.45 1.184-1.015 2.026-1.32 3.558-1.302l.441.003c.36.002.72.006 1.08.01l-.002-.473c-.014-3.799-.024-7.597-.03-11.396-.004-1.837-.008-3.674-.015-5.51-.006-1.602-.01-3.203-.012-4.804 0-.848-.002-1.696-.007-2.543-.004-.799-.005-1.597-.004-2.396 0-.292-.002-.585-.004-.877-.022-2.892-.022-2.892.692-3.979C7.843.26 8.702-.014 10.02.007z" fill="#12A1DC"/><path d="M1.936 40.78l.632.202c.76.216 1.458.263 2.25.265l.417.002c.456.003.913.002 1.369.002l.986.004 2.117.006c1.115.002 2.23.006 3.346.01 2.567.012 5.134.019 7.701.026 2.356.006 4.712.013 7.068.024 1.11.005 2.22.007 3.329.009.688 0 1.377.004 2.065.007l.96.002a10132.04 10132.04 0 002.047.007c.568.052.568.052.98.465.043.5.06.976.057 1.476l.004.46c.002.505.002 1.008.002 1.512 0 .35.002.7.003 1.049v2.199c-.001.94.002 1.88.007 2.82.003.723.003 1.445.003 2.166 0 .347 0 .694.003 1.04.002.485.001.97-.001 1.454l.004.436c-.01.961-.01.961-.313 1.413-.569.401-1.015.351-1.707.352l-.408.003c-.452.002-.903 0-1.355-.002l-.97.003c-.88.003-1.76.002-2.64 0-.92-.001-1.84 0-2.76.001-1.545.001-3.09 0-4.636-.003-1.787-.004-3.573-.002-5.36 0-1.534.004-3.067.004-4.6.003a629.75 629.75 0 00-2.749 0c-.861.002-1.723.001-2.585-.003l-.948.001c-.432.002-.864 0-1.296-.003l-.732-.001c-.715-.087-1.098-.267-1.672-.697-.619-.938-.694-1.688-.688-2.799v-.458c0-.495.004-.99.01-1.486l.002-1.036c.002-.905.008-1.81.015-2.716.007-.926.01-1.85.013-2.776.006-1.813.017-3.627.03-5.44z" fill="#fff"/><path d="M22.06 16.612l.601-.003.663-.001.696-.003 2.289-.006 1.586-.003 2.903-.004c1.424-.001 2.849-.005 4.273-.01 1.233-.006 2.467-.007 3.7-.008.525 0 1.05-.002 1.575-.005.733-.003 1.467-.003 2.2-.001l.66-.006c1.312.007 2.067.114 3.029 1.062.346.64.328 1.138.33 1.864l.003.422c.003.46 0 .92-.001 1.379a355.083 355.083 0 01-.002 2.972c-.003.858-.001 1.717.002 2.575.003.661.002 1.322 0 1.983a147.079 147.079 0 01-.002 2.278l-.002.763c-.111.942-.407 1.44-1.11 2.067-.953.386-1.874.34-2.893.337l-.696.005c-.758.005-1.517.005-2.275.005l-1.582.005c-1.105.002-2.21.003-3.316.002a542.66 542.66 0 00-3.828.01c-1.23.008-2.459.01-3.688.008-.522 0-1.045.003-1.567.006-.73.005-1.46.003-2.19 0l-.654.008c-.943-.011-1.639-.022-2.397-.62-.744-.834-.723-1.461-.734-2.542l-.005-.422a301.705 301.705 0 01-.015-1.855c-.006-.832-.01-1.664-.013-2.496-.002-.688-.008-1.375-.017-2.063-.01-.832-.015-1.663-.016-2.495a83.326 83.326 0 00-.01-.948 71.92 71.92 0 01-.005-1.33l-.005-.764c.168-.927.5-1.265 1.157-1.93.494-.248.803-.234 1.355-.236zM8.821 44.493c.747.285 1.09.797 1.532 1.43l.254.345c.61.844.61.844.61 1.32h.412l.153-.448c.291-.656.654-1.128 1.11-1.68l.453-.552.346-.415c1.212.18 1.212.18 1.444.412.108.552.075.908-.217 1.393-.406.55-.834 1.08-1.263 1.611l-.312.401-.292.36c-.222.355-.222.355-.147.769.19.473.426.818.738 1.222l.339.454c.236.313.475.624.715.934.858 1.158.858 1.158.824 2.045l-.179.508-1.237.206c-.337-.424-.671-.85-1.005-1.276l-.288-.362c-.52-.666-.915-1.262-1.182-2.076h-.412l-.14.428c-.345.763-.812 1.358-1.33 2.01l-.292.373c-.237.302-.475.602-.713.903l-1.238-.206c-.179-.508-.179-.508-.206-1.238.329-.649.767-1.206 1.212-1.78.232-.307.464-.614.694-.923l.315-.408c.273-.426.413-.717.46-1.222-.177-.377-.177-.377-.476-.72l-.312-.402-.333-.412c-1.114-1.38-1.114-1.38-1.258-2.148.17-.686.537-.857 1.221-.856zm22.505.902c.309.335.309.335.386.864-.077.503-.077.503-.49.916-.762.086-1.16.04-1.843-.323-.785-.368-1.243-.273-2.075-.09l-.206.825.393.197 1.104.555c.341.17.685.333 1.033.489.989.448 1.643.891 2.213 1.854.193.891.205 1.677-.229 2.495-.676.858-1.394 1.32-2.452 1.631-1.589.182-2.955-.284-4.254-1.212-.376-.581-.345-.999-.283-1.676.644-.155.644-.155 1.443-.207l.593.4c.76.502 1.194.517 2.078.515.535-.113.736-.257 1.042-.708-.02-.421-.02-.421-.206-.826-.355-.244-.355-.244-.804-.398l-.494-.2-1.033-.397c-1.08-.44-1.674-.797-2.207-1.893-.222-.89-.063-1.53.361-2.334 1.654-1.976 3.856-1.618 5.93-.477z" fill="#12A1DC"/><path d="M48.547 2.612c1.625 1.393 1.625 1.393 2.29 2.057l.45.449.469.47.493.493 1.023 1.024c.524.526 1.05 1.05 1.575 1.575a6683.405 6683.405 0 012.297 2.299c.272.298.272.298.272.505h-8.869V2.612z" fill="#fff"/><path d="M18.977 44.544c.49.155.49.155.696.361.018.596.023 1.186.02 1.78l-.001.54c-.001.573-.004 1.145-.006 1.716l-.003 1.16-.01 2.85.579-.007.748-.006.747-.007c.607.02.607.02.813.227.052.606.052.606 0 1.237-.793.53-1.453.481-2.372.478l-.482.01c-1.167 0-1.167 0-1.625-.333-.33-.45-.343-.7-.345-1.255l-.006-.544.004-.586c0-.2 0-.398-.002-.604 0-.42.001-.842.004-1.263.003-.645 0-1.29-.004-1.935l.002-1.227-.004-.586.006-.545.002-.478c.143-.757.478-1.055 1.239-.983z" fill="#12A1DC"/><path d="M38.235 18.498h6.187v3.3h-6.187v-3.3zm0 10.522h6.187v3.094h-6.187v-3.095zm-8.25 0h6.187v3.094h-6.187v-3.095zm-8.25 0h6.187v3.094h-6.187v-3.095zm16.5-5.158h6.187v3.095h-6.187v-3.095zm-8.25 0h6.187v3.095h-6.187v-3.095zm-8.25 0h6.187v3.095h-6.187v-3.095zm8.25-5.158h6.187V21.8h-6.187v-3.095zm-8.25 0h6.187V21.8h-6.187v-3.095z" fill="#fff"/></svg>